<svg xmlns="http://www.w3.org/2000/svg" xmlns:xlink="http://www.w3.org/1999/xlink" width="280" height="280" viewBox="0 0 280 280">
  <defs>
    <clipPath id="clip-icons_packimpex_night_def_23">
      <rect width="280" height="280"/>
    </clipPath>
  </defs>
  <g id="icons_packimpex_night_def_23" clip-path="url(#clip-icons_packimpex_night_def_23)">
    <g id="icons_packimpex_night_def_23-2" data-name="icons_packimpex_night_def_23" transform="translate(-271.765 -151.275)">
      <path id="路径_1" data-name="路径 1" d="M384.978,251.161c-.713,3.481.891,6.324,4.082,7.253a10.51,10.51,0,0,1,7.553,7.262,5.638,5.638,0,0,0,6.924,3.781,10.513,10.513,0,0,1,10.171,2.618,6.276,6.276,0,0,0,4.157,1.764,5.678,5.678,0,0,0,3.744-1.511c3.659-3.19,7.084-4.232,10.462-3.19l.178.028c3.734.056,5.817-1.285,6.981-4.541a9.276,9.276,0,0,1,5.564-6c5.085-1.989,5.883-3.265,5.329-8.566a9.664,9.664,0,0,1,2.44-7.853c3.181-3.6,3.19-6,.056-9.889a9.071,9.071,0,0,1-2.28-7.394c.929-5.761.253-6.981-5.161-9.317a9.05,9.05,0,0,1-5.161-5.461c-1.848-5.085-3.19-5.93-8.51-5.358a10.632,10.632,0,0,1-8.942-2.937c-3.171-2.956-6.108-2.927-9.524.075a9.67,9.67,0,0,1-9.214,2.477c-4.1-.957-6.821.61-8.1,4.654a9.519,9.519,0,0,1-6.352,6.5c-4.053,1.464-5.442,3.772-4.766,7.966.582,3.622-.141,6.446-2.271,8.876-3.228,3.687-3.209,6.258.056,9.833a9.6,9.6,0,0,1,2.58,8.932Zm-1.67-17.949a11.445,11.445,0,0,0,2.571-9.918c-.572-3.6.46-5.32,3.941-6.577a10.859,10.859,0,0,0,7.131-7.319c1.079-3.443,3.115-4.607,6.6-3.8a11,11,0,0,0,10.34-2.759c2.89-2.552,5.161-2.58,7.816-.1a11.81,11.81,0,0,0,9.936,3.275c4.729-.507,5.536,0,7.187,4.532a10.353,10.353,0,0,0,5.845,6.193c4.879,2.111,5.254,2.777,4.419,7.957a10.272,10.272,0,0,0,2.543,8.4c2.73,3.378,2.73,5.151-.019,8.257a10.951,10.951,0,0,0-2.749,8.82c.488,4.729.019,5.48-4.532,7.262a10.587,10.587,0,0,0-6.3,6.765c-.966,2.7-2.543,3.744-5.677,3.706-3.8-1.145-7.591-.009-11.578,3.472-1.914,1.67-4.185,1.586-6.23-.244a11.852,11.852,0,0,0-8.107-3.293,13.749,13.749,0,0,0-3.2.394,4.366,4.366,0,0,1-5.433-2.956,11.82,11.82,0,0,0-8.407-8.069c-2.552-.741-3.772-2.956-3.19-5.78a10.843,10.843,0,0,0-2.871-10.058c-2.843-3.115-2.843-4.945-.038-8.154Z" transform="translate(-5.737 -0.515)" fill="#363635"/>
      <path id="路径_2" data-name="路径 2" d="M311.575,358.636l.075,1.473h13.211V252.789c0-5.367,1.22-6.605,6.512-6.605q9.064-.014,18.118-.009,8.782,0,17.583-.009c.694,0,1.379-.056,1.8-.084l.873-.056V233.16h-50.7c-5.855,0-7.553,1.67-7.553,7.441V356.731c0,.638.038,1.267.075,1.9Zm7.478-124.209h49.429v10.415c-.385.028-.9.066-1.407.066q-8.8.014-17.583.009-9.05,0-18.118.009c-5.958,0-7.778,1.848-7.778,7.872V358.852H312.861l-.019-.281c-.038-.61-.075-1.22-.075-1.83q-.014-58.07,0-116.131c0-5.085,1.117-6.183,6.286-6.183Z" transform="translate(-1.513 -2.584)" fill="#363635"/>
      <path id="路径_3" data-name="路径 3" d="M528.811,376.232l-.432-.113c-.178-.047-.31-.084-.413-.122a1.664,1.664,0,0,0-.554-.113h-4.851c-24.264-.009-49.353-.028-74.04.019a3.707,3.707,0,0,0-2.712,1.558,10.528,10.528,0,0,1-9.242,5.039c-15.575.038-31.939.038-48.631,0-3.922-.009-6.849-1.511-8.7-4.466a4.477,4.477,0,0,0-4.3-2.224q-30.822.056-61.654.038H295.733l-.047.582a15.712,15.712,0,0,0,3.368,11.344c3.65,4.72,8.782,7.018,15.688,7.018h.009q64.375-.028,128.76-.019h66.8c5.489,0,9.814-1.586,13.2-4.842a16,16,0,0,0,5.339-13.249l-.037-.45Zm-6.183,12.789c-3.153,3.021-7.178,4.485-12.329,4.485H443.5q-64.375,0-128.76.019h-.009c-6.493,0-11.3-2.139-14.684-6.521a14.445,14.445,0,0,1-3.143-9.889h16.382q30.822,0,61.664-.038a3.142,3.142,0,0,1,3.218,1.623c2.064,3.3,5.442,5.048,9.767,5.057,16.692.038,33.056.038,48.631,0a11.723,11.723,0,0,0,10.293-5.611,2.508,2.508,0,0,1,1.651-.985c24.677-.047,49.766-.028,74.03-.019h4.841a1.343,1.343,0,0,1,.2.056.033.033,0,0,1,.019.009c.244,4.513-1.389,8.369-4.973,11.813Z" transform="translate(-0.533 -11.388)" fill="#363635"/>
      <path id="路径_4" data-name="路径 4" d="M438.9,280.539c-2.177-.009-4.194-.009-6.211.028a4.918,4.918,0,0,0-2.486.676c-1.126.741-2.2,1.558-3.322,2.421-.45.347-.92.7-1.4,1.06l-.394.291,12.883,31,.619-1.229c1.567-3.1,3.462-4.982,5.63-5.592,2.186-.61,4.8.019,7.8,1.867l.8.5.31-1.783L441.9,280.53l-3,.009Zm4.982,27.445c-2.224.629-4.166,2.327-5.78,5.057l-11.475-27.6c.347-.263.685-.516,1.013-.769,1.107-.854,2.149-1.651,3.246-2.364a3.586,3.586,0,0,1,1.82-.46c2.008-.047,4.025-.038,6.183-.028h2.149l10.574,27.557c-2.88-1.558-5.47-2.017-7.731-1.389Z" transform="translate(-8.524 -5.507)" fill="#363635"/>
      <path id="路径_5" data-name="路径 5" d="M409.226,281.858a7.533,7.533,0,0,0-3.265-1.023c-2.1-.084-4.157-.075-6.521-.056-.957.009-1.961.009-3.021.009h-.432L384.54,310.682l1.107-.2c.948-.169,1.877-.422,2.777-.666,1.886-.507,3.669-.985,5.123-.6,1.529.4,2.89,1.689,4.335,3.049.666.629,1.351,1.276,2.083,1.848l.657.525,12.432-29.969-.394-.291c-.394-.3-.76-.591-1.107-.873a17.384,17.384,0,0,0-2.327-1.651Zm-9.139,30.719c-.46-.4-.91-.826-1.351-1.239-1.5-1.407-3.04-2.862-4.879-3.35a5.7,5.7,0,0,0-1.492-.188,17.04,17.04,0,0,0-4.279.788c-.507.141-1.032.272-1.548.4l10.312-26.938c.9,0,1.764-.009,2.59-.009,2.355-.019,4.4-.028,6.465.056a6.4,6.4,0,0,1,2.7.863,15.485,15.485,0,0,1,2.13,1.529c.244.2.488.394.751.591l-11.4,27.492Z" transform="translate(-6.021 -5.522)" fill="#363635"/>
      <path id="路径_6" data-name="路径 6" d="M536.525,361.4c-1.276-3.641-3.894-5.283-8.06-5-1.614.1-3.265.084-5.01.056-.647-.009-1.3-.019-1.989-.019V324.63q0-43.644-.009-87.3c0-7.122-3.706-12.395-9.908-14.093a19,19,0,0,0-5.02-.488q-19.943-.042-39.886-.019h-13.37c-.056-.441-.094-.863-.141-1.285a19.448,19.448,0,0,0-.619-3.762,14.559,14.559,0,0,0-8.623-9.4,5.117,5.117,0,0,1-2.477-2.515,14.338,14.338,0,0,0-15.96-9.5,4.9,4.9,0,0,1-3.4-.976c-6.136-5.236-13.277-5.329-19.591-.253a5.044,5.044,0,0,1-3.415.891c-7.947-1.06-13.643,2.318-16.457,9.767a3.29,3.29,0,0,1-1.548,1.755c-6.962,2.515-10.434,7.563-10.34,14.975a1.908,1.908,0,0,1-.094.281c0,.009-.009.019-.009.028h-2.562q-7.5,0-14.994.038c-11.794.047-23.982.094-35.974-.131a14.739,14.739,0,0,0-10.846,4.025,15.522,15.522,0,0,0-4.354,11.278c.131,28.317.1,57.1.094,84.952q-.014,15.2-.009,30.41v3.134h-7.647c-5,.019-7.262,2.233-7.319,7.168-.178,14.553,7.225,23.964,21.43,27.238a.84.84,0,0,1,.253.15c.084.056.169.113.253.16l.141.084H514.26l.084-.028c.46-.131.929-.244,1.389-.366a30.573,30.573,0,0,0,3.059-.891c9.861-3.612,15.669-10.537,17.264-20.586a3.662,3.662,0,0,1,.272-.844c.066-.16.122-.319.178-.488l.038-6.408-.019-.235ZM456.462,231.843H506.51c4.4,0,5.677,1.285,5.677,5.742q.014,58.45,0,116.9c0,.488-.037.976-.075,1.511-.009.084-.009.178-.019.272H501.368V249.877c0-5.639-1.914-7.544-7.581-7.553q-12.4-.014-24.808-.009H456.462V231.843Zm-79.369.441a10.81,10.81,0,0,0,2.421-9.4c-.629-3.9.554-5.9,4.354-7.272A10.2,10.2,0,0,0,390.6,208.7c1.182-3.744,3.547-5.114,7.347-4.222a10.339,10.339,0,0,0,9.777-2.618c3.1-2.73,5.714-2.852,8.67-.094a11.2,11.2,0,0,0,9.439,3.106c5.076-.554,6.127.206,7.844,4.945a9.71,9.71,0,0,0,5.508,5.827c5.179,2.233,5.667,3.19,4.785,8.642a9.691,9.691,0,0,0,2.411,7.891c2.918,3.6,2.946,5.7-.038,9.073a10.318,10.318,0,0,0-2.6,8.332c.516,5.029-.122,6.033-4.935,7.919a9.954,9.954,0,0,0-5.93,6.38c-1.07,2.984-2.909,4.194-6.371,4.128-3.988-1.239-7.638.328-11.062,3.312-2.224,1.933-4.832,1.745-7.065-.244a11.217,11.217,0,0,0-10.743-2.759,5,5,0,0,1-6.183-3.368,11.153,11.153,0,0,0-7.975-7.666c-2.937-.854-4.269-3.434-3.641-6.512a10.234,10.234,0,0,0-2.721-9.5c-3.031-3.34-3.059-5.517-.028-8.979Zm66.852,72.06c-.038.225-.075.46-.122.685-6.052-3.763-10.875-2.862-14.328,3.969-4.25-10.237-8.219-19.779-12.169-29.274,1.661-1.239,3.115-2.43,4.682-3.462a4.326,4.326,0,0,1,2.149-.572c2.8-.066,5.583-.028,8.773-.028,3.565,9.251,7.29,18.972,11.015,28.683Zm-37.709-24.986c-3.969,9.57-7.966,19.207-11.916,28.739-2.289-1.83-4.213-4.372-6.643-5.02-2.355-.619-5.226.722-8.172,1.257,3.687-9.627,7.4-19.347,10.884-28.439,3.612,0,6.568-.075,9.514.047a7.005,7.005,0,0,1,2.984.948,28.284,28.284,0,0,1,3.35,2.468ZM371.078,251.65c.047.357.094.7.131,1.051a23.074,23.074,0,0,0,.591,3.378,13.333,13.333,0,0,0,8.717,9.289,3.67,3.67,0,0,1,2.608,5.7l-4.9,12.751q-4.25,11.076-8.491,22.153a7.146,7.146,0,0,0,.188,6.221,5.838,5.838,0,0,0,4.325,2.73,7.815,7.815,0,0,0,4.607-.863c4.935-2.749,8.013-2.055,10.978,2.515a5.425,5.425,0,0,0,5.151,2.59,7.211,7.211,0,0,0,5.855-4.588c2.252-5.32,4.457-10.659,6.662-16l3.237-7.825c.272-.657.563-1.3.91-2.064l.047-.113c.206.394.375.732.516,1.079q2.294,5.517,4.579,11.034,2.7,6.516,5.414,13.023c1.267,3.04,3.237,4.907,5.545,5.264s4.72-.826,6.831-3.312c3.331-3.941,3.331-3.931,8.191-2.149l1.032.375c.619.225,1.248.45,1.858.685a6.156,6.156,0,0,0,7.065-1.539c1.764-1.83,2.092-4.091,1.013-6.915q-1.816-4.743-3.622-9.5c-3.059-8.022-6.221-16.326-9.458-24.433a5.82,5.82,0,0,1,.291-5.489,3.134,3.134,0,0,1,1.436-1.361c6.371-2.261,9.843-6.878,10.33-13.736h39.464V356.418h-13.22q-17.016,0-34.022.009c-4.222,0-5.283.835-6.324,4.917-.328,1.295-1.041,1.783-2.608,1.783h-.028q-5.911-.014-11.832-.009h-4.729l-8.613-.009q-11.344-.014-22.7.028h-.075c-2.252,0-3.078-.647-3.378-2.618-.544-3.6-3.218-4.091-5.77-4.1q-10.7-.014-21.383-.009H331.277V251.65ZM317.54,231.205H367.6V242.84c-.281.019-1.154.113-2.036.113q-17.846.014-35.7.009c-5.63.009-7.14,1.558-7.14,7.244V356.9H310.747c-.038-.92-.122-1.83-.122-2.74q-.014-58.07,0-116.131c-.009-5.461,1.379-6.821,6.915-6.821Zm205,146.888c-3.547,3.406-7.938,4.663-12.77,4.663H479.759q-82.77,0-165.541.019c-6.118,0-11.363-1.8-15.2-6.774a15.061,15.061,0,0,1-3.237-10.9h2.843q37.888,0,75.785-.028a3.777,3.777,0,0,1,3.753,1.923c2.083,3.322,5.386,4.748,9.233,4.757q24.32.056,48.631,0a11.123,11.123,0,0,0,9.767-5.32,3.147,3.147,0,0,1,2.177-1.276q39.45-.084,78.89-.009a5.37,5.37,0,0,1,.807.206c.4,5.057-1.5,9.251-5.132,12.742Z" transform="translate(0)" fill="#363635"/>
      <path id="路径_7" data-name="路径 7" d="M418.478,240.768c-2.336-2.956-4.447-5.658-6.6-8.323-1.858-2.308-4.11-2.7-6.024-1.126-1.764,1.454-1.877,3.781-.178,5.967q4.588,5.911,9.242,11.766c2.44,3.059,5.039,3.04,7.365-.113q6.108-8.318,12.094-16.72c1.726-2.411,1.567-4.766-.31-6.164-2.036-1.511-4.222-.957-6.118,1.633-3.106,4.241-6.165,8.5-9.477,13.08Z" transform="translate(-7.251 -2.094)" fill="#363635"/>
      <path id="路径_8" data-name="路径 8" d="M418.559,251.921c-1.445,0-2.852-.844-4.175-2.515-3.012-3.781-6.118-7.741-9.251-11.775-1.877-2.421-1.764-5.17.281-6.849a4.377,4.377,0,0,1,3.237-1.07A5.607,5.607,0,0,1,412.338,232c1.482,1.839,2.946,3.7,4.476,5.639l1.6,2.036,2.374-3.284c2.252-3.115,4.419-6.118,6.606-9.1a5.926,5.926,0,0,1,3.772-2.674,4.258,4.258,0,0,1,3.237.91c2.177,1.614,2.355,4.382.45,7.037-4.035,5.63-8,11.147-12.1,16.72-1.267,1.726-2.655,2.618-4.119,2.646a.206.206,0,0,0-.075-.009ZM408.247,230.96a3.173,3.173,0,0,0-2.027.807c-1.52,1.248-1.548,3.2-.075,5.095,3.124,4.025,6.23,7.985,9.242,11.757,1.088,1.37,2.2,2.036,3.237,2.036,1.051-.019,2.1-.732,3.124-2.13,4.091-5.573,8.06-11.081,12.094-16.711,1.511-2.111,1.445-4.082-.169-5.283a3.043,3.043,0,0,0-2.289-.676,4.827,4.827,0,0,0-2.937,2.177c-2.186,2.984-4.354,5.986-6.605,9.1l-3.359,4.644-2.646-3.35c-1.529-1.942-2.984-3.791-4.466-5.63a4.39,4.39,0,0,0-2.824-1.82c-.122-.009-.216-.019-.3-.019Z" transform="translate(-7.21 -2.053)" fill="#363635"/>
      <path id="路径_9" data-name="路径 9" d="M324.851,360.109H311.64l-.075-1.473c-.038-.638-.075-1.267-.075-1.9q-.014-58.07,0-116.131c0-5.77,1.7-7.441,7.553-7.441h50.7v12.864l-.873.056c-.413.038-1.107.084-1.8.084q-8.8.014-17.583.009-9.05,0-18.118.009c-5.292,0-6.512,1.239-6.512,6.605v107.32Zm-12-1.267h10.734V252.789c0-6.033,1.82-7.872,7.778-7.872q9.064-.014,18.118-.009,8.8,0,17.583-.009c.507,0,1.023-.028,1.407-.066V234.417H319.043c-5.17,0-6.286,1.1-6.286,6.174V356.722c0,.61.038,1.22.075,1.83l.019.291Z" transform="translate(-1.512 -2.584)" fill="#363635"/>
      <path id="路径_10" data-name="路径 10" d="M418.478,240.768c3.322-4.579,6.38-8.839,9.477-13.07,1.9-2.59,4.082-3.143,6.118-1.633,1.886,1.389,2.036,3.753.31,6.165q-6.01,8.388-12.094,16.72c-2.318,3.153-4.926,3.171-7.365.113q-4.659-5.855-9.242-11.766c-1.7-2.186-1.586-4.513.178-5.967,1.923-1.576,4.166-1.182,6.024,1.126,2.149,2.655,4.25,5.358,6.6,8.313Z" transform="translate(-7.251 -2.094)" fill="#363635"/>
      <path id="路径_11" data-name="路径 11" d="M418.559,251.921c-1.445,0-2.852-.844-4.175-2.515-3.012-3.781-6.118-7.741-9.251-11.775-1.877-2.421-1.764-5.17.281-6.849a4.377,4.377,0,0,1,3.237-1.07A5.607,5.607,0,0,1,412.338,232c1.482,1.839,2.946,3.7,4.476,5.639l1.6,2.036,2.374-3.284c2.252-3.115,4.419-6.118,6.606-9.1a5.926,5.926,0,0,1,3.772-2.674,4.258,4.258,0,0,1,3.237.91c2.177,1.614,2.355,4.382.45,7.037-4.035,5.63-8,11.147-12.1,16.72-1.267,1.726-2.655,2.618-4.119,2.646a.206.206,0,0,0-.075-.009ZM408.247,230.96a3.173,3.173,0,0,0-2.027.807c-1.52,1.248-1.548,3.2-.075,5.095,3.124,4.025,6.23,7.985,9.242,11.757,1.088,1.37,2.2,2.036,3.237,2.036,1.051-.019,2.1-.732,3.124-2.13,4.091-5.573,8.06-11.081,12.094-16.711,1.511-2.111,1.445-4.082-.169-5.283a3.043,3.043,0,0,0-2.289-.676,4.827,4.827,0,0,0-2.937,2.177c-2.186,2.984-4.354,5.986-6.605,9.1l-3.359,4.644-2.646-3.35c-1.529-1.942-2.984-3.791-4.466-5.63a4.39,4.39,0,0,0-2.824-1.82c-.122-.009-.216-.019-.3-.019Z" transform="translate(-7.21 -2.053)" fill="#363635"/>
    </g>
  </g>
</svg>
