<svg xmlns="http://www.w3.org/2000/svg" xmlns:xlink="http://www.w3.org/1999/xlink" width="280" height="280" viewBox="0 0 280 280">
  <defs>
    <clipPath id="clip-icons_packimpex_night_def_26">
      <rect width="280" height="280"/>
    </clipPath>
  </defs>
  <g id="icons_packimpex_night_def_26" clip-path="url(#clip-icons_packimpex_night_def_26)">
    <g id="icons_packimpex_night_def_26-2" data-name="icons_packimpex_night_def_26" transform="translate(-280.423 -158.237)">
      <path id="路径_1" data-name="路径 1" d="M415.33,179.28h9.29a11.381,11.381,0,0,0,1.46.49c8.41,1.74,14.75,6.24,18.29,14.17a3.275,3.275,0,0,0,3.6,2.28c5.33-.02,10.68-.04,16,.31,3.29.22,4.68,2.16,4.7,5.47.01,2.75,0,5.51,0,8.42,7.12,0,13.91-.02,20.71,0,14.02.04,24.45,10.48,24.46,24.52q.015,79.68-.01,159.36a25.284,25.284,0,0,1-.34,5.08c-2.14,10.38-11.71,17.79-23.03,17.8q-69.885.03-139.77,0c-14.03-.01-23.66-9.73-23.66-23.77V247.06c0-4.57-.09-9.14.04-13.7.29-10.99,8.64-20.93,19.57-22.37,6.4-.84,12.96-.43,19.45-.56,1.98-.04,3.97-.01,6.13-.01,0-3.14-.02-5.99.01-8.84.03-2.81,1.4-4.52,4.13-5.05a19.859,19.859,0,0,1,3.69-.33c4.26-.04,8.51-.08,12.77.02a2.689,2.689,0,0,0,2.97-1.85,25.06,25.06,0,0,1,14.31-13.46c1.68-.68,3.48-1.1,5.23-1.63Zm-43.12,42.73c-7.96,0-15.61,0-23.25.01a4.418,4.418,0,0,0-1.12.25c-5.94,1.63-9.45,6.42-9.45,12.98q-.015,79.44,0,158.87c0,.39,0,.77.01,1.16a9.669,9.669,0,0,0,5.28,8.66c2.72,1.58,5.68,1.81,8.73,1.81q68.025-.03,136.04-.02c1.16,0,2.32-.03,3.48-.12,6.52-.55,10.58-4.92,10.58-11.45q.015-79.56,0-159.11c0-7.83-5.24-13.09-13.08-13.15-5.57-.05-11.14-.01-16.71-.01h-4.03c0,4.42.01,8.51,0,12.6-.01,4.6-2.38,7.09-6.93,7.09q-41.445.03-82.88,0c-4.39,0-6.63-2.36-6.65-6.82-.04-4.16-.02-8.33-.02-12.75Zm11.7-14.39v22.49h73.12V207.62H442.8c-4.68,0-6.29-1.24-7.57-5.8a15.988,15.988,0,0,0-15.08-11.92c-7.2-.01-13.37,4.94-15.48,12.39-1.12,3.96-2.91,5.33-6.98,5.33Z" fill="#363635"/>
      <path id="路径_2" data-name="路径 2" d="M447.61,272.7q15.675,0,31.34,0c4.01,0,6.5,2.15,6.55,5.59.05,3.56-2.46,5.89-6.54,5.89q-31.7.03-63.38,0c-3.87,0-6.5-2.41-6.5-5.77,0-3.41,2.58-5.71,6.49-5.71q16.02-.015,32.04,0Z" fill="#363635"/>
      <path id="路径_3" data-name="路径 3" d="M447.37,363.31c10.68,0,21.36-.02,32.04.01,3.81.01,6.23,2.49,6.09,6.06a5.381,5.381,0,0,1-3.8,5.02,11.1,11.1,0,0,1-3.19.42q-31.23.03-62.45.02a12.9,12.9,0,0,1-1.39-.04,5.812,5.812,0,0,1-5.56-5.98,5.664,5.664,0,0,1,6-5.49c8.28-.04,16.56-.01,24.84-.02Z" fill="#363635"/>
      <path id="路径_4" data-name="路径 4" d="M447.41,329.38c-10.83,0-21.67.02-32.5-.01a5.574,5.574,0,0,1-5.59-4.02,5.453,5.453,0,0,1,2.3-6.29,8.363,8.363,0,0,1,3.95-1.03q31.8-.09,63.6-.04c2.8,0,4.99,1.03,6.06,3.78.81,2.08.27,4.88-1.56,6.11a8.622,8.622,0,0,1-4.46,1.45c-10.6.12-21.2.06-31.8.05Z" fill="#363635"/>
      <path id="路径_5" data-name="路径 5" d="M373.11,367.61c5.41-5.15,11.16-10.64,16.94-16.11,2.43-2.3,4.72-2.72,7.14-1.43,3.56,1.89,4.44,6.16,1.57,8.96q-11.16,10.83-22.59,21.39c-2.34,2.17-5.24,1.97-7.49-.27q-5.85-5.8-11.53-11.78a5.939,5.939,0,0,1-.15-8.36c2.2-2.19,5.68-1.94,8.3.51,2.49,2.32,5.04,4.58,7.81,7.09Z" fill="#363635"/>
      <path id="路径_6" data-name="路径 6" d="M372.74,277.35c5.86-5.58,11.66-11.14,17.51-16.65,2.47-2.32,5.1-2.57,7.57-.87,3,2.06,3.66,5.9,1.07,8.43-7.48,7.29-15.09,14.46-22.75,21.56-2.33,2.16-5.21,1.94-7.48-.32q-5.76-5.73-11.37-11.61c-2.5-2.63-2.54-6.3-.25-8.53s5.79-1.93,8.45.74c1.2,1.21,2.34,2.47,3.54,3.68,1.14,1.14,2.33,2.24,3.71,3.57Z" fill="#363635"/>
      <path id="路径_7" data-name="路径 7" d="M372.7,322.7c5.34-5.09,10.6-10.09,15.85-15.09.73-.69,1.42-1.43,2.19-2.07a5.765,5.765,0,0,1,8.12.52,5.264,5.264,0,0,1-.29,7.84q-10.95,10.53-22.02,20.94a5.439,5.439,0,0,1-8.07-.17q-5.73-5.745-11.32-11.64a5.967,5.967,0,0,1-.16-8.36c2.27-2.23,5.65-2.03,8.26.54,1.21,1.19,2.36,2.45,3.56,3.65s2.41,2.39,3.88,3.84Z" fill="#363635"/>
    </g>
  </g>
</svg>
