<?xml version="1.0" encoding="utf-8"?>
<!-- Generator: Adobe Illustrator 24.0.0, SVG Export Plug-In . SVG Version: 6.00 Build 0)  -->
<svg version="1.1" id="图层_1" xmlns="http://www.w3.org/2000/svg" xmlns:xlink="http://www.w3.org/1999/xlink" x="0px" y="0px"
	 viewBox="0 0 280 99" style="enable-background:new 0 0 280 99;" xml:space="preserve">
<style type="text/css">
	.st0{fill:none;}
	.st1{clip-path:url(#SVGID_2_);}
	.st2{clip-path:url(#SVGID_4_);}
	.st3{clip-path:url(#SVGID_6_);}
	.st4{fill:url(#矩形_1-2_1_);}
	.st5{fill:#FCFCFC;}
	.st6{clip-path:url(#SVGID_8_);}
	.st7{fill:url(#矩形_2_1_);}
	.st8{fill:#636362;}
	.st9{fill:#FFD942;}
	.st10{enable-background:new    ;}
</style>
<pattern  y="99" width="166.9" height="59" patternUnits="userSpaceOnUse" id="pattern" viewBox="24.1 -59 166.9 59" style="overflow:visible;">
	<g>
		<rect x="24.1" y="-59" class="st0" width="166.9" height="59"/>
		
			<image style="overflow:visible;enable-background:new    ;" width="215" height="59" xlink:href="C426C79.jpg"  transform="matrix(1 0 0 -1 0 0)">
		</image>
	</g>
</pattern>
<pattern  y="99" width="18" height="6.4" patternUnits="userSpaceOnUse" id="pattern-2" viewBox="0 -21.7 18 6.4" style="overflow:visible;">
	<g>
		<rect y="-21.7" class="st0" width="18" height="6.4"/>
		
			<image style="overflow:visible;enable-background:new    ;" width="18" height="37" xlink:href="C426C7B.jpg"  transform="matrix(1 0 0 -1 0 0)">
		</image>
	</g>
</pattern>
<g>
	<defs>
		<rect id="SVGID_1_" width="280" height="99"/>
	</defs>
	<clipPath id="SVGID_2_">
		<use xlink:href="#SVGID_1_"  style="overflow:visible;"/>
	</clipPath>
	<g class="st1">
		<defs>
			<rect id="SVGID_3_" y="-59" width="280" height="217"/>
		</defs>
		<clipPath id="SVGID_4_">
			<use xlink:href="#SVGID_3_"  style="overflow:visible;"/>
		</clipPath>
		<g id="icons_packimpex_night_def_19-2" transform="translate(0 -59)" class="st2">
			<g id="icons_packimpex_night_def_19-3" transform="translate(0 70.865)">
				<g id="组_2">
					<g>
						<defs>
							<path id="SVGID_5_" d="M56.1,12.7h188.8c12.8,1.4,22.2,12.9,20.8,25.7c-1.2,11-9.8,19.6-20.8,20.8H56.1V12.7z M0,75.3h280V0
								H0V75.3z"/>
						</defs>
						<clipPath id="SVGID_6_">
							<use xlink:href="#SVGID_5_"  style="overflow:visible;"/>
						</clipPath>
						<g id="组_1" class="st3">
							<pattern  id="矩形_1-2_1_" xlink:href="#pattern" patternTransform="matrix(1.3078 0 0 -1.3078 2430.3115 -18915.6582)">
							</pattern>
							<rect id="矩形_1-2" x="-0.7" y="-0.5" class="st4" width="281.2" height="76.3"/>
						</g>
					</g>
				</g>
				<path id="路径_5" class="st5" d="M265.8,36c0,12-9,22-20.9,23.3H56.1V12.7h188.8C256.8,14,265.8,24,265.8,36"/>
				<g id="组_4" transform="translate(56.116 12.71)">
					<g>
						<defs>
							<rect id="SVGID_7_" x="0" y="0" width="22.5" height="46.5"/>
						</defs>
						<clipPath id="SVGID_8_">
							<use xlink:href="#SVGID_7_"  style="overflow:visible;"/>
						</clipPath>
						<g id="组_3" class="st6">
							<pattern  id="矩形_2_1_" xlink:href="#pattern-2" patternTransform="matrix(1.3033 0 0 -1.3033 2481.5647 -18855.1035)">
							</pattern>
							<rect id="矩形_2" x="-0.5" y="-0.5" class="st7" width="23.5" height="47.3"/>
						</g>
					</g>
				</g>
				<path id="路径_6" class="st8" d="M60.9,12.7v46.5H35.3c-12.8-1.4-22.1-12.9-20.8-25.7c1.2-10.9,9.8-19.6,20.8-20.8H60.9z"/>
				<path id="路径_7" class="st9" d="M96.5,24.5L98.3,36l-1.9,8.2L89,47.4l0.9-8.1l-5.5-6.1l8-1.7L96.5,24.5z"/>
				<path id="路径_8" class="st9" d="M103.1,39.3l0.9,8.1l-7.5-3.3V24.5l4.1,7.1l8,1.7L103.1,39.3z"/>
				<path id="路径_9" class="st9" d="M128.7,24.5l1.9,11.5l-1.9,8.2l-7.5,3.3l0.9-8.1l-5.5-6.1l8-1.7L128.7,24.5z"/>
				<path id="路径_10" class="st9" d="M135.3,39.3l0.9,8.1l-7.5-3.3V24.5l4.1,7.1l8,1.7L135.3,39.3z"/>
				<path id="路径_11" class="st9" d="M161,24.5l1.9,11.5l-1.9,8.2l-7.5,3.3l0.9-8.1l-5.5-6.1l8-1.7L161,24.5z"/>
				<path id="路径_12" class="st9" d="M167.6,39.3l0.9,8.1l-7.5-3.3V24.5l4.1,7.1l8,1.7L167.6,39.3z"/>
				<path id="路径_13" class="st9" d="M193.2,24.5l1.9,11.5l-1.9,8.2l-7.5,3.3l0.9-8.1l-5.5-6.1l8-1.7L193.2,24.5z"/>
				<path id="路径_14" class="st9" d="M199.8,39.3l0.9,8.1l-7.5-3.3V24.5l4.1,7.1l8,1.7L199.8,39.3z"/>
				<path id="路径_15" class="st9" d="M225.4,24.5l1.9,11.5l-1.9,8.2l-7.5,3.3l0.9-8.1l-5.5-6.1l8-1.7L225.4,24.5z"/>
				<path id="路径_16" class="st5" d="M232.1,39.3l0.9,8.1l-7.5-3.3V24.5l4.1,7.1l8,1.7L232.1,39.3z"/>
				<g class="st10">
					<path class="st5" d="M30.5,43.9v-3h-7.6v-1.9l5.5-11.6h2.3l-5.5,11.6h5.3v-4.7h2.1v4.7h1.7v1.9h-1.7v3H30.5z"/>
					<path class="st5" d="M36.9,43.9v-2.3h2.3v2.3H36.9z"/>
				</g>
				<g class="st10">
					<path class="st5" d="M48.5,43.5c-1,0-1.8-0.2-2.6-0.7c-0.8-0.5-1.4-1.1-1.9-1.9c-0.5-0.8-0.7-1.7-0.7-2.7v-5
						c0-1.1,0.2-2,0.7-2.8c0.5-0.8,1.1-1.5,1.9-1.9c0.8-0.5,1.7-0.7,2.7-0.7c0.8,0,1.6,0.2,2.3,0.5c0.7,0.3,1.3,0.8,1.8,1.5L51.4,31
						c-0.3-0.4-0.7-0.8-1.2-1s-1-0.4-1.6-0.4c-0.7,0-1.3,0.2-1.8,0.5c-0.5,0.3-0.9,0.7-1.2,1.3s-0.4,1.1-0.4,1.7v3l-0.4-0.5
						c0.4-0.6,1-1.1,1.7-1.5c0.7-0.4,1.4-0.6,2.2-0.6c0.9,0,1.8,0.2,2.5,0.7c0.7,0.4,1.3,1,1.8,1.8c0.4,0.8,0.6,1.6,0.6,2.5
						c0,0.9-0.2,1.8-0.7,2.6c-0.5,0.8-1.1,1.4-1.9,1.8C50.3,43.3,49.4,43.5,48.5,43.5z M48.5,41.7c0.6,0,1.2-0.1,1.6-0.4
						c0.5-0.3,0.9-0.7,1.2-1.2c0.3-0.5,0.4-1,0.4-1.6c0-0.6-0.1-1.2-0.4-1.6s-0.7-0.9-1.2-1.2c-0.5-0.3-1-0.4-1.6-0.4
						c-0.6,0-1.1,0.1-1.6,0.4c-0.5,0.3-0.9,0.7-1.2,1.2s-0.4,1-0.4,1.6c0,0.6,0.1,1.1,0.4,1.6s0.7,0.9,1.2,1.2
						C47.3,41.6,47.9,41.7,48.5,41.7z"/>
				</g>
				<path id="路径_17" class="st9" d="M225.4,24.5l4.1,7.1v14.4l-4.1-1.8V24.5z"/>
			</g>
		</g>
	</g>
</g>
</svg>
