<svg xmlns="http://www.w3.org/2000/svg" xmlns:xlink="http://www.w3.org/1999/xlink" width="280" height="280" viewBox="0 0 280 280">
  <defs>
    <clipPath id="clip-icons_packimpex_night_def_9">
      <rect width="280" height="280"/>
    </clipPath>
  </defs>
  <g id="icons_packimpex_night_def_9" clip-path="url(#clip-icons_packimpex_night_def_9)">
    <g id="icons_packimpex_night_def_9-2" data-name="icons_packimpex_night_def_9" transform="translate(-258.999 -138.273)">
      <path id="路径_1" data-name="路径 1" d="M514.2,362.587c-11.828-12.024-22.31-22.489-32.033-31.982-3.562-3.477-4.039-6.979-1.551-11.376,15.237-26.86,18.824-55.212,10.661-84.28-15.91-56.686-71.437-89.759-129.164-76.917a108.759,108.759,0,0,0-84.365,119.21c3.383,29.068,16.566,53.175,39.191,71.659,24.329,19.881,52.809,27.874,84.646,23.759,14.947-1.934,28.965-7.082,42.847-15.731l2.727-1.7L460.506,368.6c7.8,7.814,15.509,15.544,23.188,23.307,4.448,4.5,9.348,6.809,14.973,7.056a21.294,21.294,0,0,0,20.12-12.3c3.741-8.172,1.994-17.41-4.585-24.082Zm-127.766.307h-.383a100.157,100.157,0,0,1-19.4-1.96c-1.261-.256-2.514-.554-3.758-.852l-.383-.085-.562-.128a97.965,97.965,0,0,1-41.9-22.625c-1.21-1.1-2.395-2.25-3.536-3.392A98.449,98.449,0,0,1,386.308,166.17h.3a98.163,98.163,0,0,1,97.676,93.577c.077,1.7.119,3.4.119,5.053-.009,3.255-.17,6.553-.5,9.8a98.119,98.119,0,0,1-97.463,88.293Zm123.4,15.126a3.71,3.71,0,0,1-.051.443,9.619,9.619,0,0,1-.46,2.284,10.028,10.028,0,0,1-2.778,4.372,13.143,13.143,0,0,1-1.892,1.44,9.969,9.969,0,0,1-5.309,1.653,8.793,8.793,0,0,1-4.985-1.577,10.526,10.526,0,0,1-1.432-1.193c-8.326-8.275-16.558-16.651-24.525-24.747L456.8,348.909l13.226-13.524h1.346l11.155,11.087,24.449,24.449a10.293,10.293,0,0,1,1.7,2.352,9.733,9.733,0,0,1,1.167,4.747Z" fill="#363635"/>
      <path id="路径_2" data-name="路径 2" d="M375.316,220c.673,0,1.338.009,2.071.017l1.926.017-.085,8.121c-.051,5.053-.1,10-.145,14.93-.034,4.4,1.287,5.761,5.667,5.812q17.4.217,34.786.358h.332c2.079,0,3.349-.366,4.218-1.2.929-.9,1.346-2.318,1.389-4.73q.1-6.212.17-12.433l.111-8.607a2.115,2.115,0,0,1,.239-.81c.051-.119.119-.264.2-.46l.213-.545.579.009c.435.009.886.043,1.321.085a5.465,5.465,0,0,0,2.258-.077c1.738-.656,3.46-1.423,4.278-2.591.886-1.253.494-2.94-1.04-4.517-1.057-1.091-2.122-2.173-3.187-3.264l-8.794-8.965q-7.465-7.618-14.93-15.22c-3.213-3.272-4.874-3.3-8.079-.17q-6.2,6.059-12.4,12.135l-.511.5q-6.877,6.736-13.763,13.464c-1.977,1.926-2.889,3.366-2.088,5.479.844,2.216,2.608,2.659,5.266,2.659Zm42.055.614-.2,20.248-10.771-.111-.051-.775c-.043-.7-.051-1.44-.051-2.19-.009-3.92-.187-6.144-3.86-6.212h-.2c-3.6,0-3.911,2.343-4.014,6.2-.017.707-.034,1.415-.094,2.079l-.068.775-10.891-.111.2-20.213,30,.307Zm-33.03-8.743,18.3-17.921,17.879,18.3-36.175-.375Z" transform="translate(-13.713 -4.164)" fill="#363635"/>
      <path id="路径_3" data-name="路径 3" d="M380.853,299.743l-8.794-8.965q-7.465-7.618-14.93-15.22c-3.213-3.272-4.874-3.3-8.079-.17q-6.2,6.059-12.4,12.135l-.511.5q-6.877,6.736-13.763,13.464c-1.977,1.926-2.889,3.366-2.088,5.479.835,2.19,2.6,2.625,5.249,2.625.673,0,1.338.009,2.071.017l1.926.017-.085,8.121c-.051,5.053-.1,10-.145,14.93-.034,4.4,1.287,5.761,5.667,5.812q17.4.217,34.786.358h.332c2.079,0,3.349-.366,4.218-1.2.929-.9,1.346-2.318,1.389-4.73q.1-6.212.17-12.433l.111-8.607a2.116,2.116,0,0,1,.239-.81c.051-.119.119-.264.2-.46l.213-.545.579.009c.435.008.886.043,1.321.085a5.465,5.465,0,0,0,2.258-.077c1.738-.656,3.46-1.423,4.278-2.591.886-1.253.494-2.94-1.031-4.516-1.048-1.057-2.113-2.147-3.179-3.23ZM367.6,310.217l-.2,20.248-10.771-.111-.051-.776c-.043-.7-.051-1.44-.051-2.19-.009-3.92-.187-6.144-3.86-6.212h-.2c-3.6,0-3.911,2.344-4.014,6.2-.017.707-.034,1.415-.094,2.079l-.068.775-10.891-.111.2-20.214,30,.307Zm3.145-8.385-36.175-.366,18.3-17.921,17.879,18.288Z" transform="translate(-6.357 -17.414)" fill="#363635"/>
      <path id="路径_4" data-name="路径 4" d="M478.231,303.007c-1.057-1.091-2.122-2.173-3.187-3.264l-8.794-8.965q-7.465-7.618-14.93-15.22c-3.213-3.272-4.874-3.3-8.079-.17q-6.2,6.059-12.4,12.135l-.511.5q-6.877,6.736-13.763,13.464c-1.977,1.926-2.889,3.366-2.088,5.479.835,2.19,2.6,2.625,5.249,2.625.673,0,1.338.009,2.071.017l1.926.017-.085,8.121c-.051,5.053-.1,10-.145,14.93-.034,4.4,1.287,5.761,5.667,5.812q17.4.217,34.786.358h.332c2.079,0,3.349-.366,4.218-1.2.929-.9,1.346-2.318,1.389-4.73q.1-6.212.17-12.433l.111-8.607a2.116,2.116,0,0,1,.239-.81c.051-.119.119-.264.2-.46l.213-.545.579.009c.435.009.886.043,1.321.085a5.465,5.465,0,0,0,2.258-.077c1.738-.656,3.46-1.423,4.278-2.591.895-1.219.511-2.906-1.023-4.482Zm-16.438,7.209-.2,20.248-10.771-.111-.051-.775c-.043-.7-.051-1.44-.051-2.19-.009-3.92-.187-6.144-3.86-6.212h-.2c-3.6,0-3.911,2.343-4.014,6.2-.017.707-.034,1.415-.094,2.079l-.068.775-10.891-.111.2-20.213,30,.307Zm3.145-8.385-36.175-.366,18.3-17.921,17.879,18.288Z" transform="translate(-20.281 -17.414)" fill="#363635"/>
    </g>
  </g>
</svg>
