<svg xmlns="http://www.w3.org/2000/svg" xmlns:xlink="http://www.w3.org/1999/xlink" width="280" height="280" viewBox="0 0 280 280">
  <defs>
    <clipPath id="clip-icons_packimpex_night_def_17">
      <rect width="280" height="280"/>
    </clipPath>
  </defs>
  <g id="icons_packimpex_night_def_17" clip-path="url(#clip-icons_packimpex_night_def_17)">
    <g id="icons_packimpex_night_def_17-2" data-name="icons_packimpex_night_def_17" transform="translate(-263.941 -148.282)">
      <path id="路径_5" data-name="路径 5" d="M495.643,351.471l8.176-9.152c7.377-8.273,15.916-16.263,15.916-28.1,0-10.217-6.933-17.6-19.734-17.6-11.913,0-20.621,5.779-20.621,16.893v2.308h10.75v-1.687c0-5.069,3.2-8.362,8.886-8.362,6.045,0,8.806,3.382,8.806,7.732v1.775c0,5.246-2.219,9.339-5.779,13.511l-21.154,24.891v7.466h39.29V351.64H495.643v-.169Z" transform="translate(-22.727 -14.974)" fill="#363635"/>
      <path id="路径_6" data-name="路径 6" d="M317.55,357.07c18.837,0,36.973-10.457,36.973-32.339V321.7H337.079v1.376c0,12.8-10.528,17.754-19.529,17.754-11.629,0-21.882-6.738-21.882-18.58v-31.38c0-14.035,11.771-18.988,21.189-18.988,9,0,20.222,4.953,20.222,17.754v1.376h17.443v-3.027c0-21.882-18.837-32.339-37.665-32.339-21.607,0-39.467,12.943-39.467,36.2v31.38c.009,21.873,18.695,33.839,40.16,33.839Z" transform="translate(-0.044 -10.373)" fill="#363635"/>
      <path id="路径_7" data-name="路径 7" d="M542.34,167.523a4.464,4.464,0,0,0-4.305-4.119c-35.961-1.3-63.266,7.67-80.994,26.622-18.482,19.769-21.518,44.918-21.731,57.807a47.029,47.029,0,0,0-15.473-2.565c-19.521,0-39.467,12.943-39.467,36.2v31.38c0,21.891,18.695,33.857,40.16,33.857,19.529,0,39.467-12.943,39.467-36.2V281.051a33.507,33.507,0,0,0-5.894-19.29c2.53.151,5.033.249,7.448.249,22.379,0,40.621-6.3,54.212-18.739,29.773-27.235,26.72-73.777,26.578-75.747ZM505.447,208.5a4.439,4.439,0,0,0,1.74-2.947,4.372,4.372,0,0,0-.87-3.3,4.5,4.5,0,0,0-6.267-.852,708.039,708.039,0,0,0-55.259,47.616,3.927,3.927,0,0,0-.5.71c.018-10.945,2.175-35.339,19.343-53.661,15.189-16.218,38.81-24.234,69.889-23.852.009,11.8-2.059,44.634-23.826,64.518-13.413,12.25-32.215,17.639-55.934,16.094,27.776-26.178,50.688-43.577,51.682-44.323ZM441.719,311.464c0,14.043-11.771,18.988-21.189,18.988-11.629,0-21.882-6.738-21.882-18.58v-31.38c0-14.035,11.771-18.988,21.189-18.988,11.629,0,21.882,6.747,21.882,18.58v31.38Z" transform="translate(-11.609 0)" fill="#363635"/>
      <path id="路径_8" data-name="路径 8" d="M295.482,394.28a12.251,12.251,0,0,0-10.075,4.767h-.142v-4.11H277v33.431h8.478V409.628c0-5.681,2.716-8.362,7.368-8.362,4.305,0,6.6,2.681,6.6,7.705v19.4h8.478v-21.42c-.009-7.972-4.456-12.667-12.445-12.667Z" transform="translate(0 -25.941)" fill="#363635"/>
      <path id="路径_9" data-name="路径 9" d="M336.125,394.35c-8.824,0-16.325,5.22-16.325,14.629v6.533c0,9.143,7.856,13.644,16.609,13.644,6.249,0,11.886-2.219,14.656-7.448l-6.533-3.524a10.14,10.14,0,0,1-7.714,4.314c-4.518,0-8.2-2.486-8.2-6.729v-1.829h22.858v-6.462c.009-8.886-7.634-13.129-15.348-13.129ZM343,408.393H328.624v-.462c0-5.024,3.888-6.853,7.5-6.853,3.48,0,6.88,1.829,6.88,6.4v.914Z" transform="translate(-4.806 -25.949)" fill="#363635"/>
      <path id="路径_10" data-name="路径 10" d="M386.05,413.687c0,5.681-2.645,8.424-7.3,8.424-4.314,0-6.676-2.681-6.676-7.705v-19.4H363.6v21.349c0,7.9,4.518,12.738,12.508,12.738a12.129,12.129,0,0,0,10-4.767h.2v4.11h8.2V395.01h-8.478v18.677Z" transform="translate(-9.725 -26.023)" fill="#363635"/>
      <path id="路径_11" data-name="路径 11" d="M417.491,383.61h-8.478v10.12H404.22v6.338h4.794v19.2c0,5.948,4.447,8.424,9.933,8.424a33.263,33.263,0,0,0,6.249-.657v-6.791a24.548,24.548,0,0,1-4.376.328c-1.944,0-3.338-.719-3.338-3.2v-17.3H425.2v-6.338h-7.714V383.61Z" transform="translate(-14.287 -24.743)" fill="#363635"/>
      <path id="路径_12" data-name="路径 12" d="M442.2,400.484h-.142v-5.548H433.78v33.431h8.478V411.252c0-6.205,4.794-9.667,11.185-9.667a17.186,17.186,0,0,1,3.2.2v-7.315a14,14,0,0,0-2.85-.2c-4.225.009-9.507,2.69-11.593,6.214Z" transform="translate(-17.606 -25.94)" fill="#363635"/>
      <path id="路径_13" data-name="路径 13" d="M494.112,404.923c0-8.167-7.3-10.643-15.215-10.643-6.676,0-14.106,2.486-14.106,9.791v.914h7.643v-1.172c0-2.157,2.708-3.329,6.391-3.329,4.305,0,6.809,1.5,6.809,5.033v3.071h-9.445c-6.88,0-13.129,3.853-13.129,10.315,0,6.329,5.007,10.12,12.366,10.12,4.589,0,7.3-.657,10.422-3.719h.142c.071.524.2,2.548.346,3.071h8.406c-.417-.719-.621-5.681-.621-7.181V404.923Zm-8.478,11.1c0,3.6-1.11,6.729-7.927,6.729-3.959,0-6.391-1.438-6.391-4.243,0-2.938,2.37-4.11,5.974-4.11h8.336v1.625Z" transform="translate(-20.895 -25.941)" fill="#363635"/>
      <path id="路径_14" data-name="路径 14" d="M516.438,417.78V380.23H507.96v37.612c0,3,.2,9.4,8.611,9.4a30.642,30.642,0,0,0,6.809-.914v-6.072a38.118,38.118,0,0,1-3.888.257c-2.281.009-3.054-1.234-3.054-2.734Z" transform="translate(-25.937 -24.363)" fill="#363635"/>
    </g>
  </g>
</svg>
