<svg xmlns="http://www.w3.org/2000/svg" xmlns:xlink="http://www.w3.org/1999/xlink" width="280" height="280" viewBox="0 0 280 280">
  <defs>
    <clipPath id="clip-icons_packimpex_night_def_2">
      <rect width="280" height="280"/>
    </clipPath>
  </defs>
  <g id="icons_packimpex_night_def_2" clip-path="url(#clip-icons_packimpex_night_def_2)">
    <g id="icons_packimpex_night_def_2-2" data-name="icons_packimpex_night_def_2" transform="translate(-264 -143.521)">
      <path id="路径_1" data-name="路径 1" d="M551.624,216.434c-7.1,29.084-24.412,52.8-40.608,77.091-1.408,2.117-2.924,4.161-4.43,6.206-2.753,3.749-6.072,3.865-8.672,0-8.089-11.973-16.484-23.775-23.891-36.16a354.946,354.946,0,0,1-16.69-32.393c-6.323-13.56-6.17-27.362.8-40.725,7.8-14.95,20.152-23.865,36.842-26.654a7.746,7.746,0,0,0,1.39-.529H507.94a3.254,3.254,0,0,0,.888.466c21.856,3.749,35.559,16.457,41.523,37.694.511,1.812.852,3.677,1.273,5.515q0,4.749,0,9.488Zm-49.388,73.755c1.569-2.3,2.942-4.3,4.323-6.3,11.677-16.968,22.744-34.295,31.075-53.218,3.462-7.856,6-15.865,4.4-24.663a40.37,40.37,0,0,0-61.5-27.326c-14.26,8.888-22.788,27.918-16.493,44.492a221.692,221.692,0,0,0,10.269,22.663c7.964,15.443,17.748,29.757,27.927,44.357Z" transform="translate(-18.131)" fill="#363635"/>
      <path id="路径_2" data-name="路径 2" d="M504.8,188.27a26.954,26.954,0,0,1,.17,53.908,26.954,26.954,0,1,1-.17-53.908Zm17.874,27.111a17.892,17.892,0,1,0-35.783-.126,17.892,17.892,0,0,0,35.783.126Z" transform="translate(-20.727 -2.579)" fill="#363635"/>
      <path id="路径_3" data-name="路径 3" d="M375.884,330.054c-7.1,29.084-24.412,52.8-40.608,77.091-1.408,2.117-2.924,4.161-4.43,6.206-2.753,3.749-6.072,3.865-8.672,0-8.089-11.973-16.484-23.775-23.892-36.16a354.955,354.955,0,0,1-16.69-32.393c-6.323-13.56-6.17-27.362.8-40.725,7.8-14.95,20.152-23.865,36.842-26.654a7.748,7.748,0,0,0,1.39-.529H332.2a3.253,3.253,0,0,0,.888.466c21.856,3.749,35.559,16.457,41.523,37.694.511,1.812.852,3.677,1.274,5.515v9.488ZM326.5,403.818c1.569-2.3,2.942-4.3,4.323-6.3,11.677-16.968,22.744-34.295,31.075-53.218,3.462-7.856,6-15.865,4.4-24.663a40.37,40.37,0,0,0-61.5-27.326C290.533,301.194,282,320.225,288.3,336.8a221.692,221.692,0,0,0,10.269,22.663c7.964,15.434,17.739,29.757,27.927,44.357Z" transform="translate(0 -11.722)" fill="#363635"/>
      <path id="路径_4" data-name="路径 4" d="M329.056,301.89a26.954,26.954,0,0,1,.17,53.908,26.954,26.954,0,1,1-.17-53.908Zm17.874,27.12a17.892,17.892,0,1,0-35.783-.126,17.892,17.892,0,0,0,35.783.126Z" transform="translate(-2.596 -14.302)" fill="#363635"/>
      <path id="路径_5" data-name="路径 5" d="M368.36,409.319c30.358-7.587,42.68-19.811,48.312-29.6,9.462-16.448,2.726-30.636,14.224-43.936,10.251-11.865,27.775-14.654,40.528-15.228" transform="translate(-9.426 -16.228)" fill="none" stroke="#363635" stroke-linecap="round" stroke-miterlimit="10" stroke-width="11.131"/>
    </g>
  </g>
</svg>
