<svg xmlns="http://www.w3.org/2000/svg" xmlns:xlink="http://www.w3.org/1999/xlink" width="280" height="280" viewBox="0 0 280 280">
  <defs>
    <clipPath id="clip-icons_packimpex_night_def_11">
      <rect width="280" height="280"/>
    </clipPath>
  </defs>
  <g id="icons_packimpex_night_def_11" clip-path="url(#clip-icons_packimpex_night_def_11)">
    <g id="icons_packimpex_night_def_11-2" data-name="icons_packimpex_night_def_11" transform="translate(-265.041 -133.668)">
      <path id="路径_1" data-name="路径 1" d="M346.55,436.16c.269,3.039.529,6.078.8,9.117l8.1-.705a13.134,13.134,0,0,1-8.9-8.412Z" transform="translate(-3.619 -46.208)" fill="#363635"/>
      <path id="路径_2" data-name="路径 2" d="M362.524,281.846c2.015,26.436,25.176,46.642,51.159,44.644a48.067,48.067,0,1,0-6.976-95.879c-26.217,2.015-46.172,25.16-44.183,51.234Zm26.075,29.7c1.838-8.554,11.988-16.723,21.751-18,13.642-1.78,24.371,6.682,27.485,13.608-11.467,12.777-34.629,14.834-49.236,4.391Zm9.881-37.962a11.633,11.633,0,0,1,10.628-12.542,11.482,11.482,0,0,1,1.88,22.885,11.581,11.581,0,0,1-12.508-10.343Zm37.676-25.579c16.9,14.355,17.671,37.92,7.623,51.881-2.871-2.67-5.532-5.65-8.7-7.933-3.182-2.292-6.875-3.887-10.536-5.9,4.609-5.5,6.582-12.072,4.307-19.476a19.114,19.114,0,0,0-8.345-10.829,19.735,19.735,0,0,0-25.689,4.088c-7.111,8.512-5.969,18.628,3.442,28.912a36.281,36.281,0,0,0-16.5,16.958c-12.861-12.525-15.892-36.677-1.108-53.568a39.9,39.9,0,0,1,55.5-4.13Z" transform="translate(-6.161 -13.193)" fill="#363635"/>
      <path id="路径_3" data-name="路径 3" d="M393.871,184.954c4.97-.386,9.94-.856,14.909-1.293s9.94-.84,14.9-1.318c3.266-.311,4.794-1.906,4.525-4.558-.26-2.611-2.132-3.92-5.339-3.652q-14.783,1.259-29.559,2.586c-3.224.285-4.835,1.889-4.651,4.491.176,2.686,1.939,4,5.213,3.744Z" transform="translate(-10.375 -4.146)" fill="#363635"/>
      <path id="路径_4" data-name="路径 4" d="M427.894,402.78a10.154,10.154,0,0,0-8.924,11.006,9.979,9.979,0,0,0,10.8,8.8,9.759,9.759,0,0,0,8.983-10.8,9.929,9.929,0,0,0-10.855-9Zm2.56,9.8c-.151.688-1.016,1.217-1.578,1.813-.512-.554-1.377-1.058-1.444-1.662-.067-.562.705-1.226,1.385-2.267.8.982,1.729,1.662,1.637,2.116Z" transform="translate(-15.234 -40.843)" fill="#363635"/>
      <path id="路径_5" data-name="路径 5" d="M472.18,215.362c-1.721-19.627-3.081-35.208-4.8-54.844-.2-.353-.814-4.735-.957-5.113a10.449,10.449,0,0,0-11.3-7.085c-7.581.663-17.629,1.536-28.9,2.518h0q-2.43.214-4.894.428l-.26.025h0c-31.481,2.754-67.521,5.935-87.148,7.656a10.442,10.442,0,0,0-9.9,8.941c-.076.395.176,5.834.034,6.212,6.439,73.64,12.441,142.21,18.88,215.842a13.1,13.1,0,0,0,8.9,8.412Q415.371,392.8,478.9,387.24c5.927-2.821,7.648-7.438,7.069-13.9q-7.127-78.967-13.9-157.968l.109-.008Zm5.675,161.158c.05.9-1.36,2-2.283,2.779-.428.361-1.3.185-1.981.243q-58.819,5.15-117.63,10.292c-4.172.361-4.491.1-4.861-4.072-.6-6.9-1.209-13.793-1.822-20.853,42.294-3.7,84.336-7.379,126.7-11.081.672,7.69,1.419,15.186,1.872,22.692Zm-2.712-32.111a4.64,4.64,0,0,1-.109.789c-42.084,3.685-84.075,7.354-126.386,11.056-.118-.89-.277-1.771-.353-2.653q-7.971-91.056-15.934-182.12c-.336-3.853-.008-4.239,3.845-4.575q43.28-3.79,86.56-7.572l4.172-.361v-.017l27.326-2.393c3.853-.336,4.248-.017,4.584,3.837,1.629,18.57,3.14,32.933,4.76,51.495l.369,4.181q5.541,64.184,11.165,128.333Z" transform="translate(0)" fill="#363635"/>
    </g>
  </g>
</svg>
