<svg xmlns="http://www.w3.org/2000/svg" xmlns:xlink="http://www.w3.org/1999/xlink" width="280" height="280" viewBox="0 0 280 280">
  <defs>
    <clipPath id="clip-icons_packimpex_night_def_13">
      <rect width="280" height="280"/>
    </clipPath>
  </defs>
  <g id="icons_packimpex_night_def_13" clip-path="url(#clip-icons_packimpex_night_def_13)">
    <g id="icons_packimpex_night_def_13-2" data-name="icons_packimpex_night_def_13" transform="translate(-286 -166.28)">
      <path id="路径_1" data-name="路径 1" d="M536.726,340.4a113.3,113.3,0,0,0-2.534-77.511c-15.863-39.01-45.107-63.143-86.906-71.743-2.714-.562-5.514-.944-8.228-1.325-1.272-.18-2.545-.35-3.807-.541h-17.39c-1.188.191-2.5.371-3.807.551-2.767.382-5.63.785-8.387,1.357-41.046,8.578-70.152,32.51-86.513,71.128a103.554,103.554,0,0,0-7.7,32.266,4.741,4.741,0,0,1-.318,1.283c-.042.127-.085.244-.127.371v17.337c.191,1.177.382,2.471.573,3.775.414,2.778.838,5.652,1.325,8.451a110.891,110.891,0,0,0,14.76,38.777,4.825,4.825,0,0,1,.329,4.878q-6.139,15.221-12.183,30.5l-4.464,11.218a2.409,2.409,0,0,1-.35.573v3.436c2.842,5.4,5.63,6.383,11.367,4.093l6.15-2.46q17-6.791,34.026-13.541a4.893,4.893,0,0,1,1.7-.3,3.559,3.559,0,0,1,1.813.435,115.8,115.8,0,0,0,47.291,16.308c7.475.848,15.523,1.41,23.624-.265,12.554-2.6,19.457-11.378,18.938-24.091-.1-2.248-.371-4.475-.668-6.818-.138-1.092-.276-2.184-.392-3.3l-.064-.6,3.9-1.41c2.343-.848,4.708-1.7,7.051-2.566,10.656-3.944,15.439-14.156,11.643-24.823-2.449-6.892-5.058-13.954-7.348-20.2-4.019-10.911-14.463-15.778-25.385-11.844l-10.529,3.8-16.361-44.98.71-.265c1.283-.477,2.545-.944,3.8-1.4,2.683-.976,5.206-1.909,7.719-2.937a18.239,18.239,0,0,0,10.794-22.479c-2.513-7.794-5.45-15.873-8.737-24.006-3.266-8.08-12.661-12.883-20.931-10.688a167.929,167.929,0,0,0-16.372,5.556c-1.283.488-2.566.965-3.849,1.442-20.549,7.624-30.5,28.831-23.126,49.327,9.649,26.837,19.966,55.191,31.545,86.694,4.443,12.088,13.021,20.136,25.491,23.911a32.416,32.416,0,0,0,15.4,1.082l.785-.138.117.785c.1.647.2,1.262.3,1.866a33.05,33.05,0,0,1,.5,3.87c.286,6.489-1.654,9.024-8.016,10.423-7.666,1.686-15.587.562-21.949-.339a98.912,98.912,0,0,1-41.894-16.2,8.061,8.061,0,0,0-8.2-.774c-4.6,1.9-9.31,3.764-13.869,5.567l-4.984,1.972c-2.269.9-4.538,1.792-6.956,2.746l-5,1.972.509-1.559c.148-.467.276-.859.392-1.209.2-.657.361-1.145.551-1.622.922-2.3,1.834-4.612,2.736-6.913,2.418-6.139,4.931-12.48,7.539-18.651a9.792,9.792,0,0,0-.976-10.158A99.159,99.159,0,0,1,326.1,290.49a97.359,97.359,0,0,1,28.12-56.654c24.027-23.964,53.282-33.867,86.927-29.414a95.192,95.192,0,0,1,56.432,28.035c25.872,26.148,35.373,57.555,28.258,93.363-5.323,26.795-20.189,48.447-44.2,64.363-3.934,2.608-5.047,6.7-2.778,10.179,2.248,3.446,6.542,4.114,10.444,1.633a115.439,115.439,0,0,0,47.419-61.6Zm-95.1,33.8a22.934,22.934,0,0,1-4.517.859c-.668.085-1.347.17-2,.276l-.074.011h-.074c-10.487-.414-18.948-6.7-22.628-16.817l-3.817-10.487q-11.977-32.892-23.879-65.794c-.308-.859-.626-1.707-.944-2.566a73.54,73.54,0,0,1-3.9-12.957,23.077,23.077,0,0,1,14.05-24.876c4.973-2.046,10.126-3.86,15.121-5.609,1.474-.52,2.948-1.029,4.411-1.559a4.333,4.333,0,0,1,5.864,2.693c3.033,8.016,5.63,15.142,7.963,21.79.976,2.767-.276,5.015-3.425,6.182q-7.825,2.895-15.672,5.726l-.212.074c-2.98,1.082-4.825,2.439-5.641,4.146s-.7,3.966.361,6.882q10.179,28.041,20.39,56.06c1.76,4.835,5.27,6.468,10.158,4.719q4.692-1.686,9.384-3.4,3.356-1.225,6.733-2.449c4.125-1.484,6.118-.551,7.634,3.595l.689,1.887q3.229,8.811,6.436,17.623c.7,1.94.774,3.393.223,4.57s-1.728,2.057-3.69,2.757l-2.354.848c-5.429,1.962-11.017,3.987-16.584,5.821Z" fill="#363635"/>
      <path id="路径_2" data-name="路径 2" d="M403.09,401.673s60.44,13.784,104.974-41.353" transform="translate(5.557 10.321)" fill="none" stroke="#363635" stroke-width="13"/>
    </g>
  </g>
</svg>
