<svg xmlns="http://www.w3.org/2000/svg" xmlns:xlink="http://www.w3.org/1999/xlink" width="280" height="280" viewBox="0 0 280 280">
  <defs>
    <clipPath id="clip-icons_packimpex_night_def_25">
      <rect width="280" height="280"/>
    </clipPath>
  </defs>
  <g id="icons_packimpex_night_def_25" clip-path="url(#clip-icons_packimpex_night_def_25)">
    <g id="icons_packimpex_night_def_25-2" data-name="icons_packimpex_night_def_25" transform="translate(-273.409 -151.734)">
      <path id="路径_1" data-name="路径 1" d="M293.6,414.185a5.51,5.51,0,0,1-2.591-5.372c.294-6.1-.247-12.3.664-18.288,2.164-14.3,15.166-25.236,29.611-25.236,4.356,0,8.712,1,13.078,1.424a3.723,3.723,0,0,0,2.6-.626c9.889-8.94,21.278-10.924,33.91-7.583a3.344,3.344,0,0,0,2.648-.437c11.968-10.582,25.226-11.749,39.538-5.59a2.834,2.834,0,0,0,.484.142c6.662-18.279,22.123-25.226,39.12-29.5,8.228-2.069,16.941-2.183,25.416-3.284a61.71,61.71,0,0,0,9.718-1.775c9.215-2.752,14.426-9.253,14.862-19.067.465-10.345.456-20.718.522-31.082.047-7.289,3.284-12.461,9.813-15.6,1.7-.816,1.708-.816,1.11-4.071-26.223,4.983-52.445,9.965-78.924,15,.664,3.882,1.262,7.545,1.917,11.189.588,3.246-.5,5.077-3.806,5.628-12.2,2.069-24.41,4.052-36.624,6.055Q375.6,289.578,354.521,293c-5.6.911-11.2,1.86-16.808,2.762-2.031.323-3.929.095-5.134-1.9s-.456-3.682.788-5.381q12.684-17.24,25.311-34.517c.493-.683.959-1.386,1.556-2.249-4.831-3.331-9.557-6.605-14.3-9.861q-11.659-8-23.328-15.973c-1.86-1.262-3.493-2.638-2.923-5.134.588-2.581,2.657-3.122,5-3.512,18.82-3.056,37.63-6.207,56.441-9.329,6.017-1,12.025-2,18.383-3.065-.693-4.375-1.329-8.693-2.088-12.993-.816-4.593.19-6.036,4.755-6.738q32.557-5,65.1-10.032,18.478-2.847,36.956-5.656c3.939-.6,5.5.569,6.131,4.48q6.121,37.27,12.214,74.539c.3,1.879.9,2.99,2.942,3.711,4.935,1.746,8.048,5.486,9.7,10.44.18.55.408,1.091.607,1.632v47.443c-1.424,3.787-2.477,7.763-4.337,11.322-4.28,8.2-10.686,14.644-18.118,20.035A4.458,4.458,0,0,0,511.3,347.2c.095,8.58.057,17.159.028,25.738-.009,2.952-1.376,4.309-4.3,4.546a56.767,56.767,0,0,0-5.818.626,219.076,219.076,0,0,0-53.461,17.4,2.574,2.574,0,0,0-1.737,2.667,15.533,15.533,0,0,1-7.308,13.239,42.5,42.5,0,0,1-5.9,2.781q-69.571-.014-139.2-.01ZM406.121,192.873c.114,1.148.152,2,.285,2.838,3.35,20.139,6.748,40.278,10.032,60.427.313,1.917,1.063,2.183,2.686,1.832,2.733-.588,5.486-1.063,8.228-1.594q34.18-6.534,68.37-13.059c5.7-1.091,11.4-2.183,17.168-3.293-3.4-20.746-6.757-41.208-10.145-61.879-32.334,4.935-64.375,9.823-96.624,14.729Zm97.1,176.364c0-7.27.351-14.34-.114-21.354-.361-5.486,1.414-8.855,6-12.157,12.395-8.94,20.186-20.367,18.763-36.861-.892-10.288-.114-20.727-.19-31.091-.047-6.159-5.4-10.07-10.9-8.114-3.369,1.2-5.334,4.271-5.4,8.4-.171,10.952.161,21.942-.655,32.847-.9,12.053-7.251,20.775-19.067,24.457a69.536,69.536,0,0,1-16.428,2.952,107.567,107.567,0,0,0-22.588,3.274c-8.485,2.354-16.495,5.77-23.261,11.588-4.242,3.644-7.63,7.953-7.7,13.809-.152,13.429-.076,26.858-.028,40.288a7.9,7.9,0,0,0,4.119,7.165c5.6,3.265,12.129-.778,12.167-7.621.066-12.328.019-24.647.019-36.975v-2.657H446.1v29.8a208.641,208.641,0,0,1,57.114-17.747ZM334.562,224c11.379,7.8,22.17,15.185,32.932,22.588,3.616,2.487,3.882,4.2,1.272,7.782q-10.748,14.706-21.534,29.392c-.5.683-.968,1.4-1.68,2.43,27.9-4.612,55.273-9.13,82.805-13.685-.493-2.7-.911-5.011-1.376-7.574-3.815.721-7.469,1.386-11.1,2.107-4.2.835-6.1-.342-6.814-4.555-1.642-9.7-3.179-19.408-4.774-29.108-1.1-6.681-2.221-13.353-3.379-20.329-22.047,3.635-43.894,7.251-66.349,10.952Zm80.2,181.954c-.456-3.9-1.186-7.545-1.243-11.2-.171-10.032-.019-20.063-.123-30.095a3.98,3.98,0,0,0-1.4-2.895c-8.447-5.6-17.444-6.463-26.564-2.031-8.959,4.347-12.66,12.138-12.774,21.8-.085,7.393-.019,14.786-.009,22.189,0,.731.095,1.462.142,2.23Zm-47.111-39.737c-1.661-.294-3.141-.6-4.631-.807-11.484-1.651-22.768,5.315-25.928,16.248-2.3,7.963-.74,16.134-1.205,24.182H364.22c1.443-13.173-2.154-26.536,3.426-39.623Zm-40.022,39.69c.816-10.582-1.67-21.306,3.436-31.509-1.832-.323-3.388-.655-4.964-.873-11.635-1.575-22.891,5.286-25.739,16.428-1.291,5.068-1.1,10.506-1.6,15.954Z" transform="translate(0)" fill="#363635"/>
      <path id="路径_2" data-name="路径 2" d="M478.839,268.23a24.486,24.486,0,1,1-24.419,24.419,24.346,24.346,0,0,1,24.419-24.419Zm-.142,40.8a16.316,16.316,0,1,0-16.106-16.647A16.535,16.535,0,0,0,478.7,309.03Z" transform="translate(-8.325 -5.041)" fill="#363635"/>
      <path id="路径_3" data-name="路径 3" d="M401.916,348.178a16.32,16.32,0,1,1,16.352-16.219,16.174,16.174,0,0,1-16.352,16.219Zm8.171-16.333a8.143,8.143,0,1,0-8.133,8.162,8.362,8.362,0,0,0,8.133-8.162Z" transform="translate(-4.821 -7.451)" fill="#363635"/>
      <path id="路径_4" data-name="路径 4" d="M363.387,324.13a16.32,16.32,0,1,1-16.447,16.125,16.169,16.169,0,0,1,16.447-16.125Zm-8.266,16.257a8.138,8.138,0,1,0,8.209-8.067,8.39,8.39,0,0,0-8.209,8.067Z" transform="translate(-2.85 -7.888)" fill="#363635"/>
      <path id="路径_5" data-name="路径 5" d="M324.6,332.74a16.32,16.32,0,1,1-16.343,16.219A16.174,16.174,0,0,1,324.6,332.74Zm.085,24.448a8.144,8.144,0,1,0-8.266-8.02,8.362,8.362,0,0,0,8.266,8.02Z" transform="translate(-0.879 -8.327)" fill="#363635"/>
    </g>
  </g>
</svg>
