<svg xmlns="http://www.w3.org/2000/svg" xmlns:xlink="http://www.w3.org/1999/xlink" width="280" height="280" viewBox="0 0 280 280">
  <defs>
    <clipPath id="clip-icons_packimpex_night_def_16">
      <rect width="280" height="280"/>
    </clipPath>
  </defs>
  <g id="icons_packimpex_night_def_16" clip-path="url(#clip-icons_packimpex_night_def_16)">
    <g id="icons_packimpex_night_def_16-2" data-name="icons_packimpex_night_def_16" transform="translate(-267.746 -145.278)">
      <path id="路径_4" data-name="路径 4" d="M529.514,156.195c0-.127,0-.235-.009-.326l-.036-.543-.543-.027c-.091-.009-.208-.009-.335-.009q-30.229-.014-60.476,0a2.73,2.73,0,0,0-.29.009l-.543.027-.027.543c-.009.1-.009.208-.009.344q-.014,3.735-.009,7.469v3.033c0,.389.009.67.027.869l.036.516.516.045c.217.018.516.027.96.027h38.4l-57.326,57.335-1.258-.86c-27.459-18.659-54.157-18.668-81.616-.036l-1.258.851-15.97-15.952,1.8-1.258c.145-.1.308-.2.5-.317a3.965,3.965,0,0,0,.679-.48q7.021-6.98,14.015-14.006c.136-.136.244-.253.326-.344l.362-.407-.362-.407c-.091-.1-.2-.217-.344-.362q-3.639-3.667-7.3-7.3c-.272-.272-.471-.462-.634-.6l-.4-.344-.4.353c-.145.127-.335.308-.579.552L343.5,198.483c-.308.308-.634.616-.969.923l-1.258,1.186L308.83,168.163h38.332c.235,0,.416-.009.552-.018l.507-.045.045-.507c.009-.127.018-.281.018-.462q.014-5.418,0-10.837c0-.172-.009-.317-.018-.426l-.036-.525-.525-.036c-.109-.009-.235-.009-.4-.009q-30.161-.014-60.313,0c-.172,0-.308.009-.426.009l-.525.036-.045.525c-.009.109-.018.253-.018.426q-.014,30.161,0,60.313c0,.172.009.317.018.426l.045.516.516.036c.118.009.263.018.462.018,3.087.018,6.183.009,9.28.009h1.2c.335,0,.579-.009.751-.027l.507-.045.045-.507c.018-.181.027-.426.027-.76V177.66l33.09,33.1-2.164,1.63a4.361,4.361,0,0,0-.67.525q-7.075,7.048-14.141,14.132l-.57.634.353.4c.054.063.127.145.217.235q3.87,3.9,7.777,7.786c.109.109.2.19.272.263l.407.362.407-.371c.081-.072.19-.172.308-.29l14.259-14.25c.29-.29.6-.57.851-.806l1.521-1.43,15.662,15.6-1.53,2.173c-11.8,16.124-15.762,34.231-11.769,53.813,5.351,26.255,28.455,47.811,54.945,51.26a3.37,3.37,0,0,1,3.3,3.712c-.054,5.785-.045,11.561-.045,17.337v6.708c0,.38-.036.76-.072,1.186l-.172,2.191H373.634c-.217,0-.389.009-.525.018l-.552.027-.027.552c-.009.118-.009.253-.009.416q-.014,5.418,0,10.828c0,.19.009.344.018.471l.036.534.543.027c.127.009.29.009.489.009h27.721v13.806q0,6.967.009,13.933c0,.208.009.371.018.507l.036.534.534.036c.127.009.281.009.471.009,1.53.009,3.06.009,4.6.009q2.947,0,5.9-.009c.272,0,.489-.009.652-.018l.534-.036.036-.534c.009-.163.018-.371.018-.643v-27.6H442c.172,0,.308-.009.426-.009l.525-.036.045-.525c.009-.118.018-.253.018-.435q.041-5.4,0-10.81c0-.2-.009-.362-.018-.489l-.045-.525-.525-.036c-.145-.009-.317-.018-.552-.018H414.627l-.353-1.765a3.713,3.713,0,0,1-.127-.887v-7.007c0-6.075,0-12.15-.036-18.224-.009-1.883.987-2.933,3.06-3.214a64.726,64.726,0,0,0,20.741-6.591c26.11-13.191,40.695-43.465,34.674-71.974a66.232,66.232,0,0,0-12.466-27.178l-1-1.286L516.631,177.9V216.5c0,.208.009.371.018.507l.036.525.525.045c.127.009.3.018.507.018,3.6.009,7.215.027,10.819,0,.154,0,.281-.009.38-.018l.525-.045.027-.525c.009-.091.009-.2.009-.335q.068-30.243.036-60.476Zm-84.06,83.218A52.8,52.8,0,0,1,461.08,277.02a53.32,53.32,0,0,1-106.639-.091,52.618,52.618,0,0,1,15.717-37.617,53.474,53.474,0,0,1,37.906-15.563,52.649,52.649,0,0,1,37.39,15.662Z" transform="translate(0 0)" fill="#363635"/>
    </g>
  </g>
</svg>
