<svg xmlns="http://www.w3.org/2000/svg" xmlns:xlink="http://www.w3.org/1999/xlink" width="280" height="280" viewBox="0 0 280 280">
  <defs>
    <clipPath id="clip-path">
      <rect id="矩形_1" data-name="矩形 1" width="280" height="280"/>
    </clipPath>
  </defs>
  <g id="icons_packimpex_night_def_18" clip-path="url(#clip-path)">
    <g id="icons_packimpex_night_def_18-2" data-name="icons_packimpex_night_def_18" transform="translate(-1)" clip-path="url(#clip-path)">
      <g id="icons_packimpex_night_def_18-3" data-name="icons_packimpex_night_def_18" transform="translate(-255.043 -131.009)">
        <path id="路径_1" data-name="路径 1" d="M416.82,259.8a1.853,1.853,0,0,1-1.638-1l-2.571-4.956a1.823,1.823,0,0,1-.089-1.484l.738-1.979-4.728-7.348a1.823,1.823,0,0,1-.251-.608l-1.338-6.2-.17.146-8.394,6.2a1.843,1.843,0,0,1-2.3-.089l-6.059-5.231a1.831,1.831,0,0,1-.592-1.784l.835-3.8-1.4-3.017a1.817,1.817,0,0,1-.162-.9l.965-13.488a1.831,1.831,0,0,1,.868-1.436l13.618-8.411,2.66-4.931a1.821,1.821,0,0,1,.633-.681l3.885-2.474,2.182-10.39a1.788,1.788,0,0,1,.454-.876l3.593-3.853.049-.13-2.685,1.038a1.843,1.843,0,0,1-2.1-2.871l6.7-8.394a1.825,1.825,0,0,1,1.541-.689,1.876,1.876,0,0,1,.762.211l4.712-5.986a1.836,1.836,0,0,1,2.336-.47,1.877,1.877,0,0,1,.5-.73,1.837,1.837,0,0,1,1.444-.446l2.482.308-.17-.454a1.843,1.843,0,0,1,.576-2.084l6.059-4.818a1.845,1.845,0,0,1,1.947-.219,1.429,1.429,0,0,1,.3.187,1.809,1.809,0,0,1,.892-.357,1.831,1.831,0,0,1,1.776.868l.251.414.438-.568a1.835,1.835,0,0,1,2.206-.56l5.921,2.612a1.84,1.84,0,0,1,.276,3.212l-.892.592.641.2a1.84,1.84,0,0,1,.949,2.847l-2.522,3.471.4,4.112,3.479,2.271a1.832,1.832,0,0,1,.779,1.987l-1.038,4.145,4.793,4.956a1.848,1.848,0,0,1-.138,2.693l.592.714a1.83,1.83,0,0,1,.251,1.955l-.527,1.127,1.7.852a1.921,1.921,0,0,1,.827.819l.917,1.833a1.834,1.834,0,0,1,.1,1.4l-.406,1.217,3.123,1.5a1.836,1.836,0,0,1,.908.957L469,204.042a1.829,1.829,0,0,1,0,1.4l-6.61,15.97a1.837,1.837,0,0,1-.908.957l-14.68,6.975a1.827,1.827,0,0,1-1.711-.073l-5.686-3.3a1.851,1.851,0,0,1-.917-1.541l-.178-6.6-1.979-8.257a1.833,1.833,0,0,1,.365-1.6l3.163-3.869,2.839-5.864a2.225,2.225,0,0,1,.235-.373l2.612-3.163-1.265-1.9H440.6l-1.882,3.017.495,5.442a1.816,1.816,0,0,1-.373,1.281L430.413,213.6l.154,8.8,5.231,4.42a1.828,1.828,0,0,1,.6,1.833l-.917,3.853a1.837,1.837,0,0,1-.56.941l-4.834,4.339-2.466,15.321a1.845,1.845,0,0,1-1.817,1.549h-3.3V256.3a1.842,1.842,0,0,1-1.119,1.7l-3.853,1.655a1.812,1.812,0,0,1-.714.146Zm-.56-6.918,1.4,2.709,1.168-.5V252.82a1.845,1.845,0,0,1,1.841-1.841h3.569l2.32-14.421a1.837,1.837,0,0,1,.592-1.079l4.891-4.388.519-2.19-5-4.226a1.865,1.865,0,0,1-.657-1.371l-.187-10.276a1.9,1.9,0,0,1,.373-1.152l8.378-10.99-.487-5.345a1.838,1.838,0,0,1,.276-1.144l2.75-4.4a1.855,1.855,0,0,1,1.565-.868h5.694a1.843,1.843,0,0,1,1.533.819l2.571,3.853a1.84,1.84,0,0,1-.114,2.2l-3.35,4.047-2.839,5.856a1.75,1.75,0,0,1-.235.365l-2.725,3.333,1.809,7.551a1.49,1.49,0,0,1,.049.381l.154,5.767,3.966,2.3,13.164-6.253,6.042-14.607-.73-1.76-3.95-1.9a1.839,1.839,0,0,1-.949-2.239l.673-2.028-.3-.6-2.758-1.379a1.841,1.841,0,0,1-.844-2.425l.787-1.7-1.087-1.306a1.849,1.849,0,0,1-.414-1.4,1.825,1.825,0,0,1,.535-1.095l-4.063-4.2a1.831,1.831,0,0,1-.462-1.728l.965-3.869-3.123-2.036a1.855,1.855,0,0,1-.827-1.363l-.552-5.686a1.866,1.866,0,0,1,.341-1.257l1.419-1.947-1.89-.576a1.84,1.84,0,0,1-.479-3.293l1.338-.892-1.52-.662-1.184,1.541a1.814,1.814,0,0,1-1.557.714,1.865,1.865,0,0,1-1.006-.357l-1.006,3.025a1.845,1.845,0,0,1-3.593-.584v-2.79l-2.02,1.606.771,2.052a1.84,1.84,0,0,1-1.947,2.474l-3.439-.43v.8a1.843,1.843,0,0,1-2.936,1.484l-1.176-.868-1.857,2.36a1.809,1.809,0,0,1,.714.8,1.843,1.843,0,0,1-.284,1.971l-2.612,3.025a1.836,1.836,0,0,1-1.525.633,1.731,1.731,0,0,1-.73-.211,1.842,1.842,0,0,1,.4,1.882l-1.517,4.266a1.865,1.865,0,0,1-.389.641L417,187.2l-2.239,10.649a1.871,1.871,0,0,1-.811,1.176l-4.136,2.636-2.66,4.947a1.87,1.87,0,0,1-.657.7l-13.236,8.175-.86,12.077,1.452,3.147a1.863,1.863,0,0,1,.13,1.168l-.73,3.333,4.112,3.552,6.983-5.15,2.036-2.8a1.837,1.837,0,0,1,3.285.689l2.133,9.862,5.053,7.843a1.832,1.832,0,0,1,.178,1.638l-.771,2.044Zm4.412-76.823a1.814,1.814,0,0,1,.868.219,1.381,1.381,0,0,1-.211-.276l-.543-.852-.852,1.071.081-.032a1.7,1.7,0,0,1,.657-.13Z" transform="translate(-19.584)" fill="#363636"/>
        <path id="路径_2" data-name="路径 2" d="M334.291,301.654a1.862,1.862,0,0,1-.868-.219l-1.663-.884h-6.01a1.842,1.842,0,0,1-1.046-3.358l7.429-5.093c.032-.024.065-.041.1-.065l-1.76-.5a1.844,1.844,0,0,1-1.241-1.192l-.689-2.068a1.873,1.873,0,0,1,.105-1.419,1.836,1.836,0,0,1,1.1-.917l3.95-1.225-.268-.089a1.838,1.838,0,0,1-1.014-2.668l1.93-3.3a1.844,1.844,0,0,1,2.076-.852l3.09.844.454-.917a1.818,1.818,0,0,1-.86-1.144l-.552-2.206a1.873,1.873,0,0,1,.114-1.225h-.811a1.841,1.841,0,0,1-.9-.235l-2.206-1.241a1.859,1.859,0,0,1-.925-1.354,1.8,1.8,0,0,1,.227-1.16,1.882,1.882,0,0,1-1.233-.422,1.824,1.824,0,0,1-.625-1.776l1.1-5.467-.835-1.3a1.834,1.834,0,0,1,.357-2.393l1.582-1.346-.43-3.35a1.839,1.839,0,0,1,3.1-1.557l.146.138,2.928-4.737a1.842,1.842,0,0,1,1.938-.835l6.61,1.379a1.837,1.837,0,0,1,.925,3.1l-2.425,2.433,3.252.357A1.85,1.85,0,0,1,352,254.727l.552,2a1.861,1.861,0,0,1-.13,1.322l-2.206,4.339a1.853,1.853,0,0,1-.689.746l-1.8,1.087L350,267a1.862,1.862,0,0,1,.414,1.038l.341,4.818,1.646.973a1.835,1.835,0,0,1,.884,1.314l1.1,7.34a1.83,1.83,0,0,1-.057.811l-.389,1.273,2.887.657a1.831,1.831,0,0,1,1.387,1.411l.827,3.853a1.839,1.839,0,0,1-.576,1.76l-2.774,2.466.625.495a1.857,1.857,0,0,1,.7,1.476,1.832,1.832,0,0,1-.746,1.452L352,301.3a1.842,1.842,0,0,1-1.533.308l-3.934-.957-1.906.844a1.839,1.839,0,0,1-1.346.057l-6.164-2.117-1.525,1.63a1.68,1.68,0,0,1-1.306.592Zm3.455-5.9,6.091,2.084,1.817-.811a1.856,1.856,0,0,1,1.184-.105l3.707.9,1.646-1.225-.462-.365a1.836,1.836,0,0,1-.081-2.814l3.6-3.212-.357-1.655-3.674-.844a1.868,1.868,0,0,1-1.184-.868,1.84,1.84,0,0,1-.17-1.46l.844-2.766-.908-6.067-1.728-1.022a1.861,1.861,0,0,1-.9-1.452l-.373-5.2-1.776-2.174-1.711-.584a1.839,1.839,0,0,1-.349-3.317l4.226-2.547,1.638-3.228-.032-.105-4.4-.487a1.846,1.846,0,0,1-1.638-1.979l.138-1.719a1.822,1.822,0,0,1,.535-1.152l1.168-1.168-2.011-.422-3.447,5.58a1.866,1.866,0,0,1-1.054.8l.081.616a1.829,1.829,0,0,1-.633,1.63l-1.119.949.373.576a1.861,1.861,0,0,1,.26,1.354l-.641,3.2a1.733,1.733,0,0,1,.276.073l2.336.827a1.843,1.843,0,0,1,.689,3.041l-.852.852H341.7a1.847,1.847,0,0,1,1.63,2.7l-1.046,2,.032.122h.487a1.834,1.834,0,0,1,1.565.876,1.854,1.854,0,0,1,.081,1.792l-2.344,4.68a1.83,1.83,0,0,1-2.133.949l-3.179-.868-.073.13a1.848,1.848,0,0,1,1.176,1.719v2.344a1.842,1.842,0,0,1-.787,1.509,1.83,1.83,0,0,1,1.484.762l2.247,3.1a1.848,1.848,0,0,1-.438,2.6l-2.652,1.857Zm-6.042,1.119h.527a1.814,1.814,0,0,1,.868.219l.819.438,1.087-1.16-1.59-.665-1.711,1.168Zm2.985-4.623,1.03.43,1.079-.754-.3-.414-1.809.738Zm-1.071-3.65.154.041.933-.381-1.087.341Z" transform="translate(-7.342 -17.156)" fill="#363636"/>
        <path id="路径_3" data-name="路径 3" d="M312.086,295.954h-3.942a1.852,1.852,0,0,1-1.76-1.3l-1.744-5.6a1.85,1.85,0,0,1,.917-2.19l3.707-1.9,1.168-.7L309.2,283a1.841,1.841,0,0,1,.495-2.928l.081-.041a1.882,1.882,0,0,1-.081-1.4l.917-2.66a1.839,1.839,0,0,1,2.75-.941L315,276.115a1.862,1.862,0,0,1,.333-.608l1.655-2.02a1.84,1.84,0,0,1,.957-.616l3.853-1.006a1.823,1.823,0,0,1,1.322.146l1.825.957,2.368.876a1.834,1.834,0,0,1,1.1,1.111l.827,2.32a1.76,1.76,0,0,1,.105.616V280.8a1.842,1.842,0,0,1-.949,1.606l-2.36,1.306v5.337a1.847,1.847,0,0,1-.381,1.119l-3.3,4.307a1.83,1.83,0,0,1-1.744.7l-3.123-.487-4.972,1.2a1.21,1.21,0,0,1-.422.065Zm-2.6-3.682h2.368l5.11-1.233a1.926,1.926,0,0,1,.714-.032l2.409.373,2.255-2.944v-5.8a1.842,1.842,0,0,1,.949-1.606l2.36-1.306v-1.509l-.43-1.208-1.671-.616a1,1,0,0,1-.211-.1l-1.3-.681-2.587.673-.268.324.041.041a1.839,1.839,0,0,1-.933,3.025l-2.571.616a1.812,1.812,0,0,1-1-.041,1.742,1.742,0,0,1,0,.5,1.846,1.846,0,0,1-1.006,1.411l-.138.073,1.1,1.135a1.838,1.838,0,0,1-.373,2.855l-3.212,1.93a.673.673,0,0,1-.105.057l-2.384,1.225.884,2.831Z" transform="translate(-3.685 -22.015)" fill="#363636"/>
        <path id="路径_4" data-name="路径 4" d="M332.837,201.156a2.287,2.287,0,0,1-.235-.016l-5.369-.689a1.842,1.842,0,0,1-1.257-.746l-3.366-4.664-3-1.874a1.84,1.84,0,0,1,.187-3.22l2.279-1.087.146-1.03-1.865-1.971a1.839,1.839,0,0,1,1.33-3.106H323l-2.3-1.208a1.839,1.839,0,0,1,.13-3.317l7.291-3.163a1.847,1.847,0,0,1,2.514,1.217l1.152,4.282h2.441a1.8,1.8,0,0,1,.917.243l4.842,2.782,2.287-.625a1.85,1.85,0,0,1,1.752.438l2.749,2.612a1.842,1.842,0,0,1,.56,1.549l-.373,3.228,1.144,4.2a1.844,1.844,0,0,1-.892,2.1l-5.783,3.163a1.831,1.831,0,0,1-1.111.211l-2.96-.373-4.072,1.014a2.777,2.777,0,0,1-.446.049ZM328.49,196.9l4.234.543,4.063-1.014a1.709,1.709,0,0,1,.673-.041l2.717.341,3.982-2.182-.86-3.139a1.839,1.839,0,0,1-.057-.7l.308-2.668-1.33-1.265-2.028.552a1.843,1.843,0,0,1-1.4-.178l-5.077-2.92h-3.366a1.833,1.833,0,0,1-1.776-1.363l-.957-3.585-1.809.787,1.314.689a1.864,1.864,0,0,1,.925,1.16,1.838,1.838,0,0,1-.235,1.468l-1.419,2.206a1.8,1.8,0,0,1-.681.625,1.819,1.819,0,0,1,.268,1.249l-.414,2.887a1.848,1.848,0,0,1-1.03,1.4l-.146.065.462.292a1.975,1.975,0,0,1,.519.487l3.123,4.3Z" transform="translate(-6.366 -3.709)" fill="#363636"/>
        <path id="路径_5" data-name="路径 5" d="M405.476,395.646a1.623,1.623,0,0,1-.438-.057l-3.65-.892a1.807,1.807,0,0,1-1.111-.8l-.657-1.038-5.913-2.62-1.63-.17a1.838,1.838,0,0,1-1.638-1.7l-.2-2.96a1.833,1.833,0,0,1,1.509-1.938l4.615-.827a1.844,1.844,0,0,1,1.192.187l1.573.835,6.772-1.752,1.492-1.606a2.261,2.261,0,0,1,.341-.284l.479-.316-2-4.518-3.415-1.768a1.8,1.8,0,0,1-.844-.908l-.714-1.671-2.133-.762a1.866,1.866,0,0,1-.811-.576l-1.582-1.955-2.474-.26a1.794,1.794,0,0,1-1.087-.511l-6.675-6.472-3.893-4.031a1.758,1.758,0,0,1-.373-.576l-2.239-5.41-3.5-2.011-2.385,2a1.86,1.86,0,0,1-.771.381l-2.75.625-3.22,1.906-.908,1.022a1.841,1.841,0,0,1-1.338.616l-3.236.065a1.9,1.9,0,0,1-.762-.146l-7.47-3.171L351.6,352.6l-.43,2.96c0,.024-.008.041-.008.065l.641,3.707a1.841,1.841,0,0,1-1.062,2l-5.823,2.612a1.83,1.83,0,0,1-.584.154l-5.142.487-6.553,7.5.308,1.776.949.365a1.8,1.8,0,0,1,1.071,1.087,1.825,1.825,0,0,1-.122,1.525l-.917,1.655a1.846,1.846,0,0,1-.908.811l-3.6,1.484-.26.5a1.838,1.838,0,0,1-1.144,3.09l-5.11.552-1.728,2.587a1.845,1.845,0,0,1-2.539.519l-1.452-.949-9.149-.852-3.09.446-1.971,1.744a1.847,1.847,0,0,1-2.417.024l-2.474-2.109a1.844,1.844,0,0,1-.584-.917l-.827-3.025a2.007,2.007,0,0,1-.065-.487v-.9l-1.6-1.387h-3.536a1.825,1.825,0,0,1-.941-.26l-2.076-1.233-1.646-.073a1.834,1.834,0,0,1-1.557-2.668l2.206-4.323.081-1.7-.268-.008a1.836,1.836,0,0,1-1.736-1.557l-.462-2.936a1.829,1.829,0,0,1,.292-1.314l6.894-10.171.689-6.6a2.788,2.788,0,0,1,.073-.357l.973-3.155-1.241-2.555a1.846,1.846,0,0,1,.99-2.522l2.109-.827a1.645,1.645,0,0,1,.552-.122l1.728-.105.049-.138a1.831,1.831,0,0,1,1.6-1.217l3.763-.276a1.906,1.906,0,0,1,1.379.479l2.9,2.652,6.383,1.9a1.421,1.421,0,0,1,.26.1l2.806,1.322,5.069.341a1.989,1.989,0,0,1,.568.13l4.818,1.938,1.062-.665,2.741-10.617.633-3.236-3.017-3.163a1.837,1.837,0,0,1-.243-2.214l.438-.722-2.23-2.725-5.053-2.482a1.847,1.847,0,0,1-1-1.306l-.827-4.315a1.84,1.84,0,0,1,1.346-2.133l3.212-.827a1.8,1.8,0,0,1,.689-.041l4.315.552a1.839,1.839,0,0,1,1.363.908l.568,1h1.744l.024-.26-.438-4.323a1.843,1.843,0,0,1,2.66-1.833L339.2,307.7a1.839,1.839,0,0,1,.933,1.095l.17.527.7.032.178-.73a1.84,1.84,0,0,1,1.1-1.265l5.467-2.19.56-3.212a1.858,1.858,0,0,1,1.971-1.517l3.755.316,4.266-2.92,2.75-2.831.706-2.571a1.843,1.843,0,0,1,3.374-.43l.438.754.081-.1-1.314-2.579a1.856,1.856,0,0,1,.219-2.011l3.577-4.331a1.846,1.846,0,0,1,1.419-.673h.024a1.855,1.855,0,0,1,1.427.706l2.125,2.709,1.825-.341a1.837,1.837,0,0,1,1.646.519l1.573-1.809-.657-3.431a1.642,1.642,0,0,1-.032-.349v-1.857l-1.914-1.509a1.83,1.83,0,0,1-.657-1.825l1.306-6.2a1.84,1.84,0,0,1,1.265-1.379v-.989a1.846,1.846,0,0,1,1.549-1.817l3.382-.543L383.5,263a1.823,1.823,0,0,1,1.484-.949,1.854,1.854,0,0,1,1.606.73l2.06,2.75a1.838,1.838,0,0,1,.251,1.752l-.941,2.5a1.821,1.821,0,0,1,1.063,1.663v1.93a1.82,1.82,0,0,1-.673,1.419l-1.306,1.079c-.008.008-.016.008-.024.016L385,277.539l-.2.957a1.6,1.6,0,0,1-.122.381l-.714,1.606.633,1.306,2.109.746.511-.495a1.84,1.84,0,0,1,3.025,1.906l-.008.032.706-.2.811-1.184a1.836,1.836,0,0,1,2.344-.608l.049.024a1.886,1.886,0,0,1,1.1-.649,1.826,1.826,0,0,1,1.582.462l1.281,1.192a1.828,1.828,0,0,1,.535,1.768l.357.041a1.853,1.853,0,0,1,1.111.56l3.836-1.509L405,282.162a1.831,1.831,0,0,1,1.087-.811l7.016-1.93a1.841,1.841,0,0,1,2.19,1.071l.543,1.314,2.084.2.065-.089-.917-.981a1.842,1.842,0,0,1,1.1-3.082l3.78-.519v-.284l-1.517-2.474a1.79,1.79,0,0,1-.268-.884l-.276-6.2a1.806,1.806,0,0,1,.243-1l.819-1.427-.089-1.079a1.843,1.843,0,0,1,.762-1.655l2.887-2.068a1.838,1.838,0,0,1,2.239.073l1.93,1.59.568.073a1.891,1.891,0,0,1,.868.349l-.487-1.33a1.858,1.858,0,0,1-.114-.633v-.925a1.845,1.845,0,0,1-1.33-.787l-1.517-2.206a1.851,1.851,0,0,1-.251-.527l-.965-3.3a1.84,1.84,0,0,1,.754-2.052l5.231-3.439a1.845,1.845,0,0,1,.819-.292l7.981-.827a1.839,1.839,0,0,1,1.646.706l1.379,1.792a1.84,1.84,0,0,1-.438,2.652l-1.573,1.046.235.511,2.539,3.877a1.848,1.848,0,0,1,.211,1.582l-.373,1.135,1.144.86a1.848,1.848,0,0,1,.738,1.476v1.849l1.9,2.036c.041.049.089.1.13.154l.389.519.568-.268a1.827,1.827,0,0,1,1.192-.122l1.192.276a1.847,1.847,0,0,1,.908.511l1.29-.7a1.845,1.845,0,0,1,1.744-.008l2.749,1.468a1.878,1.878,0,0,1,.949,1.3l.787,4.4,3.788,2.685a1.842,1.842,0,0,1,.771,1.314h1.379a1.839,1.839,0,0,1,1.663,1.046l.917,1.93a1.842,1.842,0,0,1-.162,1.857l-1.557,2.206a1.86,1.86,0,0,1-1.444.779l.535.681a1.942,1.942,0,0,1,.754-.406l6.124-1.606a1.828,1.828,0,0,1,1.9.625l2.685,3.325a1.851,1.851,0,0,1,.349,1.622l-.073.284.479.3h2.9a1.833,1.833,0,0,1,1.484.754l1.63,2.214,1.63-.219,3.244-2a1.843,1.843,0,0,1,2.141.146l2.539,2.093,7.583-1.119a1.832,1.832,0,0,1,1.987,1.16l.892,2.336a1.841,1.841,0,0,1,.032,1.217l-.714,2.23,1.573,1.76a1.848,1.848,0,0,1,.47,1.225v3.1a1.841,1.841,0,0,1-1.444,1.8l-1.63.357.073.324a1.845,1.845,0,0,1-1.071,2.1l-.487.211.105.406a1.831,1.831,0,0,1-.535,1.792L488.894,322a1.826,1.826,0,0,1-.649.389l-9.5,3.3a1.8,1.8,0,0,1-.9.081l-4.266-.689a1.85,1.85,0,0,1-1.314-.917l-.852.276.26.649a1.848,1.848,0,0,1-.251,1.833l-3.131,4,.616.868a1.826,1.826,0,0,1,.308,1.387l-.552,3.123a1.842,1.842,0,0,1-1.127,1.387l-1.387.552-.446,2.044.835,3.828a1.847,1.847,0,0,1-1.006,2.052l-1.273.608-.065,3.277a2.128,2.128,0,0,1-.1.56l-.4,1.16,1.062.552a1.827,1.827,0,0,1,.99,1.573,1.854,1.854,0,0,1-.892,1.638l-2.749,1.655a1.833,1.833,0,0,1-2.133-.17l-.024-.016-.535.438.616.9a1.839,1.839,0,0,1,.057,1.979l-2.2,3.681a1.848,1.848,0,0,1-1.582.892h-3.9l-1.168.844a1.907,1.907,0,0,1-.876.341l-2.92.324,1.087,2.409a1.842,1.842,0,0,1-2.514,2.4l-3.552-1.809.122.689,3.293,2.968a1.853,1.853,0,0,1,.584,1.054l.211,1.233,1.006.543h1.371a1.816,1.816,0,0,1,1.3.543l3.3,3.3a1.842,1.842,0,0,1-1.744,3.09l-.389-.1.13.5a1.842,1.842,0,0,1-2.417,2.2l-.552-.2a1.826,1.826,0,0,1-.576,1.371l-1.655,1.557a1.712,1.712,0,0,1-.187.154l1.273,3.139a1.84,1.84,0,0,1-3.147,1.833l-.154-.2a1.844,1.844,0,0,1-3.358.584l-.8-1.257a1.073,1.073,0,0,1-.154.041,1.841,1.841,0,0,1-1.841-.608l-2.3-2.75a1.847,1.847,0,0,1-.341-1.736l-1.792-1.679a1.838,1.838,0,0,1-.235-2.417l.105-.146a.891.891,0,0,1-.081-.089l-1.03-1.208h-1.144a1.841,1.841,0,0,1-1.817-2.141l.308-1.914-2.352-1.947a1.892,1.892,0,0,1-.535-.722l-1.119-2.741-2.822-3.212a1.847,1.847,0,0,1-.3-1.963l1.119-2.539-.114-1.573-1.59-1.29a1.708,1.708,0,0,1-.178-.162l-2.166-2.3-.827-.495h0l-8.435-5.061a1.875,1.875,0,0,1-.787.381,1.819,1.819,0,0,1-1.549-.373l-2.936-2.385a1.945,1.945,0,0,1-.333-.349l-4.355-6.018a1.846,1.846,0,0,1-3.066.162l-1.833-2.474a1.831,1.831,0,0,1-.365-1.1v-.771l-1.338.511.406.86a1.853,1.853,0,0,1-.138,1.8l-.681,1.014.3,1.5,4.842,3.342a1.808,1.808,0,0,1,.657.819l2.482,6.075,3.65,2.92,3.78-.268a1.856,1.856,0,0,1,1.638.779l.641.916a1.821,1.821,0,0,1,.292,1.427,1.885,1.885,0,0,1-.552.981l8.257,3.666a1.912,1.912,0,0,1,.608.438l2.068,2.247a1.853,1.853,0,0,1,.487,1.273l-.049,2.66a1.855,1.855,0,0,1-.754,1.46,1.828,1.828,0,0,1-1.614.276l-1.971-.592a1.83,1.83,0,0,1-1.144-1.006l-.6-1.33-1.687-.251-.852,1.865,1.476.608a1.83,1.83,0,0,1,1.135,1.5l.276,2.474a1.837,1.837,0,0,1-1.079,1.882l-1.484.657-.138,1.622a1.836,1.836,0,0,1-.406,1.006L411.75,386.4a1.853,1.853,0,0,1-1.135.657l-2.247.365a2.189,2.189,0,0,1-.324.024l-.625,1.663.568.7a1.85,1.85,0,0,1,.3,1.809l-1.03,2.75a1.953,1.953,0,0,1-1.785,1.273Zm-2.5-4.347,1.338.333.089-.227-.568-.7a1.851,1.851,0,0,1-.3-1.809l1.071-2.863-5.288,1.371A1.868,1.868,0,0,1,398,387.25l-1.638-.868-1.663.3a2.141,2.141,0,0,1,.243.089l2.887,1.306,3.763,1.638a1.9,1.9,0,0,1,.819.7l.568.884Zm36.9-4.331a1.836,1.836,0,0,1,1.557.86l.454.714.324-.227-.892-2.206a1.839,1.839,0,0,1,.56-2.133,1.807,1.807,0,0,1,.876-.381,1.863,1.863,0,0,1,.738-1.314L445.242,381a1.834,1.834,0,0,1,1.728-.243l.17.065-.016-.073a1.826,1.826,0,0,1,.057-1.1h-.016a1.822,1.822,0,0,1-.876-.219l-2.2-1.192a1.843,1.843,0,0,1-.941-1.306l-.26-1.484-3.293-2.969a1.82,1.82,0,0,1-.576-1.046l-.462-2.571a1.817,1.817,0,0,1,.243-1.281l1.006-1.655a1.844,1.844,0,0,1,2.4-.681l1,.5a1.811,1.811,0,0,1,.479-1.2l.917-1.006a1.831,1.831,0,0,1,1.16-.592l3.65-.406,1.257-.908a1.841,1.841,0,0,1,1.079-.349H455.2l1.062-1.768-.9-1.322a1.839,1.839,0,0,1,.357-2.458l3.025-2.474a1.809,1.809,0,0,1,.8-.381,1.852,1.852,0,0,1,.1-.722l.827-2.385.089-4.12a1.845,1.845,0,0,1,1.046-1.622l.981-.47-.608-2.8a1.8,1.8,0,0,1,0-.779l.738-3.4a1.829,1.829,0,0,1,1.119-1.322l1.338-.535.235-1.354-1.573-2.214a1.842,1.842,0,0,1,1.5-2.912h.389l2.093-2.677-.608-1.492a1.848,1.848,0,0,1,.032-1.468,1.822,1.822,0,0,1,1.1-.973l4.217-1.379a1.857,1.857,0,0,1,.665-.089l3.488.187a1.848,1.848,0,0,1,1.719,1.533.226.226,0,0,1,.008.073l8.167-2.839,10.073-9.384-.219-.876a1.841,1.841,0,0,1,1.063-2.141l.519-.219-.146-.641a1.844,1.844,0,0,1,1.4-2.206l2-.438V302.3l-1.8-2.02a1.839,1.839,0,0,1-.381-1.784l.835-2.62-.138-.357-6.935,1.022a1.828,1.828,0,0,1-1.444-.406l-2.149-1.776-2.458,1.509a1.931,1.931,0,0,1-.722.26l-3.1.414a1.841,1.841,0,0,1-1.728-.738l-1.719-2.344h-2.506a1.821,1.821,0,0,1-.981-.284L474,291.871a1.847,1.847,0,0,1-.8-2.02l.178-.681-1.354-1.679-3.187.835a1.833,1.833,0,0,1-.714,1.517l-1.127.868a1.85,1.85,0,0,1-2.579-.316l-3.025-3.853a1.513,1.513,0,0,1-.235-.4l-1.006-2.3a1.843,1.843,0,0,1,1.687-2.579h1.987l.316-.446h-1.93a1.845,1.845,0,0,1-1.841-1.841v-.7L456.75,275.7a1.811,1.811,0,0,1-.746-1.176l-.762-4.258-1.087-.576L452,270.88a1.862,1.862,0,0,1-1.541.1,1.836,1.836,0,0,1-1.079-1.1l-.032-.1-1.038.479a1.839,1.839,0,0,1-2.247-.568l-1.225-1.638-2.32-2.5a1.839,1.839,0,0,1-.495-1.249v-1.646l-1.468-1.1a1.841,1.841,0,0,1-.649-2.044l.5-1.541-2.133-3.252c-.049-.073-.089-.154-.13-.227l-.965-2.068a1.839,1.839,0,0,1,.649-2.312l.13-.081-4.939.511L429.3,253l.5,1.711.381.552.178-.1a1.838,1.838,0,0,1,2.766,1.59v3.39l.99,2.725a1.842,1.842,0,0,1-.187,1.63l-1.517,2.344a1.825,1.825,0,0,1-1.354.827,1.848,1.848,0,0,1-1.492-.527l-1.484-1.484-.47-.057a1.822,1.822,0,0,1-.941-.406l-1.249-1.03-.892.633.049.608a1.788,1.788,0,0,1-.235,1.063l-.835,1.468.227,5.183,1.541,2.506a1.851,1.851,0,0,1,.276.965v2.409a1.838,1.838,0,0,1-1.59,1.825l-1.987.276a1.818,1.818,0,0,1-.187,1.744l-1.517,2.206a1.835,1.835,0,0,1-1.7.787l-4.266-.414a1.842,1.842,0,0,1-1.525-1.127l-.341-.835-4.745,1.306-1,1.63a1.862,1.862,0,0,1-.9.754l-3.593,1.411a1.844,1.844,0,0,1-.665.925l-1.744,1.281a1.843,1.843,0,0,1-2.936-1.484v-.941l-1.411-.17a1.857,1.857,0,0,1-1.427-1,1.932,1.932,0,0,1-.178-1.1l-.041-.024-.284.422a1.869,1.869,0,0,1-1.03.738l-4.68,1.281a1.846,1.846,0,0,1-2.239-2.36l.008-.016-3-1.062a1.868,1.868,0,0,1-.811-.568l.114.6a1.85,1.85,0,0,1-.422,1.557l-3.674,4.218a1.9,1.9,0,0,1-1.468.633,1.855,1.855,0,0,1-1.411-.762l-.511-.706-1.776.333a1.855,1.855,0,0,1-1.784-.673l-1.4-1.784-1.346,1.63,1.322,2.6a1.838,1.838,0,0,1-.235,2.028l-2.571,3.025a1.844,1.844,0,0,1-1.573.641,1.907,1.907,0,0,1-1.119-.511l-3.179,3.269a1.849,1.849,0,0,1-.276.235l-4.956,3.4a1.831,1.831,0,0,1-1.192.316l-2.725-.227-.446,2.563a1.841,1.841,0,0,1-1.127,1.4l-5.548,2.222-.324,1.29a1.834,1.834,0,0,1-1.882,1.4l-3.488-.187a1.828,1.828,0,0,1-1.655-1.281l-.024-.081.032.349a1.259,1.259,0,0,1,0,.349l-.187,2.109a1.837,1.837,0,0,1-1.833,1.679h-4.493a1.85,1.85,0,0,1-1.6-.925l-.649-1.127-3.05-.389-1.192.308.324,1.711,4.591,2.255a1.777,1.777,0,0,1,.608.487l3.3,4.039a1.834,1.834,0,0,1,.154,2.109l-.381.633,2.7,2.839a1.834,1.834,0,0,1,.47,1.622l-.827,4.218c-.008.032-.016.073-.024.105L332.1,345.378a1.836,1.836,0,0,1-.8,1.095L328.831,348a1.821,1.821,0,0,1-1.671.146l-5.418-2.182-5.118-.349a1.83,1.83,0,0,1-.657-.17l-2.993-1.411-6.659-1.979a1.838,1.838,0,0,1-.714-.406l-2.628-2.4-1.776.13-.057.154a1.821,1.821,0,0,1-1.622,1.217l-2.636.162.689,1.411a1.844,1.844,0,0,1,.1,1.346l-1.135,3.682-.714,6.886a1.866,1.866,0,0,1-.308.844l-6.748,9.952.114.73.6.024a1.855,1.855,0,0,1,1.281.6,1.825,1.825,0,0,1,.479,1.33l-.187,3.942a2.035,2.035,0,0,1-.195.754l-1.152,2.263a1.819,1.819,0,0,1,.178.089l2.044,1.208h3.715a1.884,1.884,0,0,1,1.208.446l2.749,2.385a1.836,1.836,0,0,1,.633,1.4v1.5l.608,2.239.827.706,1.192-1.054a1.9,1.9,0,0,1,.957-.446l3.853-.552a1.531,1.531,0,0,1,.43-.008l9.822.916a1.813,1.813,0,0,1,.835.292l.308.2,1.192-1.792a1.839,1.839,0,0,1,1.338-.811l3.52-.381q.04-.1.089-.2l1.192-2.3a1.838,1.838,0,0,1,.933-.852l2.644-1.1a1.808,1.808,0,0,1-.543-1.014l-.641-3.674a1.85,1.85,0,0,1,.43-1.533l7.616-8.719a1.855,1.855,0,0,1,1.217-.625l5.572-.519,4.242-1.906-.178-1.054H346.4a1.84,1.84,0,0,1-.227-3.666l1.5-.187.365-2.514a1.858,1.858,0,0,1,.99-1.379l3.65-1.857a1.866,1.866,0,0,1,1.557-.057l7.892,3.358,2.036-.041.568-.641a1.838,1.838,0,0,1,.438-.357l3.715-2.206a1.751,1.751,0,0,1,.527-.211l2.6-.592,3.033-2.539a1.85,1.85,0,0,1,2.1-.187l5.158,2.96a1.831,1.831,0,0,1,.787.892l2.344,5.661,3.609,3.739,6.18,5.986,2.6.276a1.8,1.8,0,0,1,1.233.673l1.736,2.141,2.4.86a1.841,1.841,0,0,1,1.071,1.006l.771,1.8,3.406,1.76a1.859,1.859,0,0,1,.835.892l.535,1.217,2.393-5.223a1.879,1.879,0,0,1,.6-.73l-4.307-1.914a1.807,1.807,0,0,1-.576-.406l-1.281-1.33a1.877,1.877,0,0,1-.519-1.322l-1.241.089a1.875,1.875,0,0,1-1.281-.4l-4.591-3.674a1.828,1.828,0,0,1-.552-.738l-2.449-6.01-5-3.455a1.824,1.824,0,0,1-.762-1.152l-.6-2.985a1.805,1.805,0,0,1,.276-1.379l.527-.8-.8-1.719a1.815,1.815,0,0,1-.032-1.468,1.879,1.879,0,0,1,1.054-1.03l5.823-2.2a1.844,1.844,0,0,1,2.255.819l.592,1.054a1.138,1.138,0,0,0,1.9,1.249l1.33.592a1.841,1.841,0,0,1,1.087,1.679v1.419l3.958,5.467,1.2.973a1.959,1.959,0,0,1,.422-.187,1.8,1.8,0,0,1,1.152.041,1.9,1.9,0,0,1,.406-.681,1.837,1.837,0,0,1,2.6-.081l7.478,7.016.876.527a1.844,1.844,0,0,1,.389.316l2.255,2.393,2.109,1.711a1.8,1.8,0,0,1,.673,1.3l.2,2.822a1.809,1.809,0,0,1-.154.876l-.835,1.882,2.255,2.555a1.923,1.923,0,0,1,.324.519l1.062,2.6,2.806,2.32a1.836,1.836,0,0,1,.641,1.711l-.138.827a1.825,1.825,0,0,1,1.233.641l1.111,1.306,1.006.122a1.838,1.838,0,0,1,1.273,2.9l-.706.981,1.663,1.557a1.835,1.835,0,0,1,.584,1.281.03.03,0,0,0,.024-.008c.146-.008.251-.016.357-.016Zm-28.817-9.854.616,1.4c.016-.008.024-.016.041-.016l1.249-.552-.008-.049-1.9-.787ZM378.671,275.528l1.719,1.354a1.848,1.848,0,0,1,.641.981l.122-.276.276-1.4a1.8,1.8,0,0,1,.608-1.046h0l.024-.024,2.182-1.792a1.859,1.859,0,0,1-.527-.446,1.83,1.83,0,0,1-.284-1.8l1.1-2.92a1.832,1.832,0,0,1-.738.292l-2.717.438v1.184a1.84,1.84,0,0,1-1.655,1.833l-.754,3.617Z" transform="translate(0 -17.145)" fill="#363636"/>
        <path id="路径_6" data-name="路径 6" d="M493.7,438.355a1.9,1.9,0,0,1-.641-.114l-5.377-2a1.931,1.931,0,0,1-.673-.438l-2.19-2.23a1.853,1.853,0,0,1-.284-2.206l1.1-1.93a1.818,1.818,0,0,1,1.979-.884l4.355.925h6.943l1.541-.771a1.855,1.855,0,0,1,1.792.081,1.834,1.834,0,0,1,.876,1.565v1.93a1.835,1.835,0,0,1-.941,1.606l-7.567,4.242a2.068,2.068,0,0,1-.916.227Zm-4.355-5.434,4.193,1.565,2.385-1.338H491.76a1.955,1.955,0,0,1-.381-.041l-2.352-.5.316.308Z" transform="translate(-37.645 -51.623)" fill="#363636"/>
        <path id="路径_7" data-name="路径 7" d="M397.431,391.842a1.849,1.849,0,0,1-1.354-.592l-2.66-2.879a1.831,1.831,0,0,1-.487-1.249v-3.763a1.844,1.844,0,0,1,.641-1.4l4.177-3.577a1.841,1.841,0,0,1,3.041,1.4v5.507a1.838,1.838,0,0,1-.089.56l-1.517,4.712a1.831,1.831,0,0,1-1.354,1.233,1.615,1.615,0,0,1-.4.049Zm-.819-5.442.032.032.462-1.436V383.78l-.495.422v2.2Z" transform="translate(-20.383 -42.069)" fill="#363636"/>
        <path id="路径_8" data-name="路径 8" d="M394.3,412.673a1.817,1.817,0,0,1-.884-.227l-2.02-1.1a1.845,1.845,0,0,1-.917-2.02l.835-3.69-.844-4.509a1.615,1.615,0,0,1-.032-.341v-1.517a1.845,1.845,0,0,1,1.841-1.841h1.549l2.8-1.517a1.84,1.84,0,0,1,2.482.714l2.06,3.674a1.831,1.831,0,0,1-.041,1.865l-.438.706.925,1.2a1.828,1.828,0,0,1,.276,1.736l-1.7,4.818a1.84,1.84,0,0,1-2.539,1.038l-.99-.479-1.168,1.03a1.741,1.741,0,0,1-1.2.462Zm-.081-11.566.8,4.218a1.783,1.783,0,0,1-.016.746l-.479,2.117.657-.576a1.847,1.847,0,0,1,2.019-.276l.235.114.681-1.93-1.087-1.411a1.835,1.835,0,0,1-.114-2.084l.535-.868-.641-1.144-1.614.876a1.823,1.823,0,0,1-.876.219Z" transform="translate(-19.911 -45.422)" fill="#363636"/>
        <path id="路径_9" data-name="路径 9" d="M359.58,405.5a1.836,1.836,0,0,1-.625-.1l-3.439-1.241a1.838,1.838,0,0,1-.406-3.252l3.852-2.612a1.842,1.842,0,0,1,1.76-.17l3.025,1.306a1.866,1.866,0,0,1,1.1,1.476,1.825,1.825,0,0,1-.738,1.687l-3.439,2.547a1.814,1.814,0,0,1-1.1.365Z" transform="translate(-13.084 -45.853)" fill="#363636"/>
        <path id="路径_10" data-name="路径 10" d="M371.446,402.6a1.977,1.977,0,0,1-.219-.016,1.842,1.842,0,0,1-1.314-.811l-1.655-2.5a1.858,1.858,0,0,1-.089-1.89,1.832,1.832,0,0,1,1.622-.965h.892a1.919,1.919,0,0,1,.681.13l2.409.965a1.838,1.838,0,0,1,.568,3.058l-1.655,1.541a1.782,1.782,0,0,1-1.241.487Z" transform="translate(-15.664 -45.56)" fill="#363636"/>
      </g>
    </g>
  </g>
</svg>
