<svg xmlns="http://www.w3.org/2000/svg" xmlns:xlink="http://www.w3.org/1999/xlink" width="280" height="280" viewBox="0 0 280 280">
  <defs>
    <clipPath id="clip-icons_packimpex_night_def_15">
      <rect width="280" height="280"/>
    </clipPath>
  </defs>
  <g id="icons_packimpex_night_def_15" clip-path="url(#clip-icons_packimpex_night_def_15)">
    <g id="icons_packimpex_night_def_15-2" data-name="icons_packimpex_night_def_15" transform="translate(-261.288 -142.924)">
      <path id="路径_1" data-name="路径 1" d="M515.678,222.121c-.8-.261-1.669-.5-2.52-.713-.687-.183-1.391-.365-2.1-.582-14.384-3.755-30.124-7.926-49.531-13.132-13.419-3.65-27.308-7.431-41.031-10.925-7.718-1.947-13.4,1-16.426,8.535-.235.591-.469,1.234-.765,2.069-.217-.8-.426-1.59-.634-2.373-1.295-4.824-2.52-9.378-3.972-13.793-2.52-8.031-8.569-11.42-16.583-9.3-34.634,9.091-65.514,17.3-94.4,25.1-4.363,1.165-7.44,3.259-9.161,6.232-1.738,3.007-2.008,6.779-.817,11.212,13.115,49.123,24.926,92.952,36.1,133.992,2.564,9.465,8.526,12.863,18.225,10.395l3.9-1.017c11.073-2.877,22.528-5.858,33.722-8.978a13.1,13.1,0,0,1,7.388-.009c4.632,1.33,9.334,2.547,13.889,3.729,3.085.8,6.171,1.6,9.265,2.442q17.9,4.706,35.729,9.482,17.821,4.745,35.66,9.465a17.415,17.415,0,0,0,4.441.608c5.84,0,10.316-3.459,12.368-9.778.4-1.2.7-2.39.982-3.546.139-.582.287-1.165.443-1.738q6.1-22.554,12.15-45.1,6.127-22.775,12.281-45.594c3.555-13.124,7.24-26.7,10.742-40.058,2-7.9-1.495-14.106-9.343-16.626Zm-83.809,48.957c-.1,1.564-.174,3.077-.252,4.6-.07,1.425-.148,2.859-.235,4.372l-1.851.487c-1.495.391-2.981.782-4.537,1.182-1.66-4.65-2.3-8.4-.921-12.811,2.486.669,4.658,1.286,6.953,1.938l.843.235Zm16.3-25.022c-2.538,2.338-5.145,4.745-8.248,7.648-.356-.391-.713-.782-1.086-1.182-.765-.834-1.6-1.756-2.633-2.851,4.545-1.4,8.309-2.52,11.968-3.616Zm-3.8,39.71c-.956,3.9-1.816,7.4-2.781,11.1-2.468-3.337-3.372-6.979-4.354-11.1ZM425.793,264.03c.478-4.311,3.216-7.162,6.353-10.429l.3-.313c.817.721,1.59,1.408,2.364,2.086.843.747,1.686,1.486,2.581,2.277-1.278,2.581-2.494,5.18-3.859,8.178-2.9-.643-5.354-1.217-7.735-1.8Zm43.873-2.816c-.582-1.938-1.1-3.624-1.695-5.423-.322-.956-.661-1.886-1.043-2.912-.156-.417-.313-.852-.478-1.3,4.12,2.859,5.154,4.18,7.222,8.439-1.217.374-2.512.765-4.007,1.2Zm-3.737,23.736c.643-1.356,1.286-2.712,1.973-4.12,1.338.339,2.625.678,3.911,1.017,1.243.33,2.494.652,3.781.982-.843,4.485-3.572,7.509-6.866,10.56-1.643-1.521-3.233-2.929-4.78-4.285.687-1.425,1.33-2.79,1.982-4.154ZM453.935,299.9c2.3-2.129,4.485-4.154,6.788-6.345.661.539,1.33,1.112,2.025,1.7.443.382.9.774,1.382,1.173a19.274,19.274,0,0,1-10.316,3.589l.122-.122Zm.235-28.09c.348-1.921.634-3.633.956-5.632,2.573.148,4.858.3,7.144.443l2.2.139c-.087,2.347-.183,4.459-.348,7.162-2.842-.565-5.493-1.139-8.274-1.738l-1.677-.374Zm-2.8,9.247c.339-1.425.661-2.807,1.06-4.363,3.12.782,5.971,1.5,9.213,2.338l.921.235c-.626,1.373-1.191,2.677-1.773,4.015-.365.843-.739,1.695-1.139,2.6-1.034-.469-2.034-.93-3.025-1.382-1.86-.852-3.624-1.669-5.493-2.486l.235-.956ZM438.6,267.385c.669-1.33,1.252-2.52,1.808-3.65.5-1,.965-1.964,1.46-2.946l8.213,3.937c-.209.808-.408,1.617-.608,2.46s-.426,1.73-.669,2.686c-2.364-.548-4.589-1.1-7.118-1.721-.991-.252-2.008-.5-3.085-.765Zm-1.921,12.585c.07-.913.139-1.79.2-2.677.113-1.469.226-2.946.339-4.545,3.363.739,6.214,1.417,9.8,2.277-.461,2.051-.808,3.755-1.13,5.519-3.381-.287-6.24-.461-9.213-.574ZM447.652,294.4c.617-2.364,1.225-4.676,1.9-7.179l.339.148c2.129.939,4.154,1.834,6.336,2.859a28.606,28.606,0,0,1-9.612,8.091c.365-1.347.7-2.642,1.034-3.92Zm5.258-39.91c-.435,1.634-.878,3.294-1.356,5.058-2.39-1.069-4.32-1.929-6.623-2.99a29.788,29.788,0,0,1,9.543-7.909c-.548,1.99-1.052,3.9-1.564,5.84Zm16.748,21.276V266.7c1.617-.426,3.181-.86,4.971-1.356l1.738-.478c.043.174.087.339.13.513,1.069,4.285,1.99,8.031.565,12.272-1.86-.452-3.763-.947-5.719-1.46l-1.686-.426Zm-12.906-14.8.678-2.6c.756-2.885,1.443-5.5,2.173-8.248a26.178,26.178,0,0,1,4.25,11.264c-1.425-.1-2.816-.174-4.3-.252-.887-.061-1.808-.113-2.8-.165Zm-28.116,25.326c.756-.252,1.573-.435,2.816-.721l.252-.061q.5,2.321.965,4.6c.278,1.33.548,2.651.834,3.972-3.077-2.277-3.885-3.355-6.075-7.283a7.709,7.709,0,0,1,1.208-.5Zm-6.927,50.166c-7.952,2.216-18.434,5.119-28.968,7.9q-14.784,3.95-29.62,7.909-15.227,4.068-30.5,8.144a26.251,26.251,0,0,1-3.138.782c-4.937.956-6.562.017-7.892-4.589-2.46-8.856-4.98-18.173-8.178-30.211-9.074-33.418-18.173-67.287-26.977-100.036l-.1-.382a8.4,8.4,0,0,0-.261-1.1c-.078-.287-.156-.574-.226-.965-1.608-6.4-.791-7.822,5.441-9.534,3.111-.817,6.2-1.669,9.282-2.512,3.051-.834,6.1-1.677,9.178-2.486l70.807-18.825c1.026-.269,2.051-.5,3.007-.721.626-.139,1.217-.278,1.756-.408,3.181.035,4.928,1.252,5.519,3.876l4.554,16.374q7.835,29.085,15.618,58.118,7.718,28.746,15.436,57.414a7.025,7.025,0,0,0,.339,1.173,4.888,4.888,0,0,1,.252.86c1.408,6.145.608,7.518-5.328,9.213ZM407.62,348.943c9.021-2.268,18.347-4.606,27.134-9.534,8.465,2.19,18.408,4.8,28.785,7.561a11.042,11.042,0,0,1,1.13.4,5.063,5.063,0,0,0,3.329.513c.9-.3,3.9-1.443,5.154-3.763a4.021,4.021,0,0,0,.287-3.3,5.382,5.382,0,0,0-3.146-3.042,26.605,26.605,0,0,0-3.12-.991c-.513-.139-1.034-.278-1.564-.443-4.45-1.217-8.882-2.416-13.341-3.624-5.528-1.495-11.09-3-16.791-4.572-2.633-10.586-5.276-21.085-7.909-31.575,1.017.669,1.973,1.338,2.9,2.016,10.907,8.013,22.31,9.3,33.9,3.824,11.438-5.4,17.869-15.027,18.6-27.855.843-15.6-9.673-29.037-25.578-32.7a32.193,32.193,0,0,0-36.512,18.651c-.556,1.425-1.06,2.833-1.686,4.624-.026.078-.061.165-.087.243a21.063,21.063,0,0,1-.782-2.2q-1.434-5.28-2.842-10.56c-2.129-7.952-4.337-16.174-6.631-24.214a42.382,42.382,0,0,1-1.451-7.014c.765-2.3,2.529-8.039,3.094-10.169,2.069-7.275,3.242-7.961,10.395-6.127q8.761,2.347,17.469,4.7t17.469,4.711c18.338,4.884,36.564,9.76,54.8,14.645,3.781,1,5.545,1.877,6.266,3.138.7,1.225.6,3.172-.356,6.718-5.84,21.91-11.846,44.16-17.643,65.671s-11.794,43.743-17.634,65.645c-.878,3.285-1.738,4.91-2.964,5.614-1.33.765-3.476.634-7.431-.435q-16.974-4.524-33.956-9.108-17.026-4.576-34.052-9.134l-.687-.182c-3.746-.973-7.6-1.982-11.325-3.25a156.608,156.608,0,0,1,16.774-4.884Z" transform="translate(0 0)" fill="#363635"/>
      <path id="路径_2" data-name="路径 2" d="M390.773,265.081c0-17.452-14.879-32.2-32.488-32.2h-.009A32.577,32.577,0,0,0,335.4,242.5a31.588,31.588,0,0,0-9.482,22.693,32.382,32.382,0,0,0,32.488,32.2c17.547,0,32.366-14.792,32.366-32.314Zm-9.056,13.5c-1.825,3.346-3.763,5.988-6.536,7.709.617-2.677,1.2-5.449,1.816-8.344l.087-.435c.826.191,1.625.374,2.425.556.73.174,1.46.339,2.208.513Zm.982-17.061L384.75,261c1.408,3.981.478,7.761-.6,12.081-.043.165-.078.322-.122.487-1.295-.313-2.573-.582-3.9-.869-.834-.174-1.695-.356-2.59-.556-.1-2.442-.243-4.884-.4-7.448l-.1-1.712c2.042-.539,3.85-1,5.667-1.46Zm-11.968-17.669c-.582.556-1.191,1.139-1.851,1.782-1.851-1.625-3.5-3.146-5.11-4.615-1.017-.93-2.008-1.843-3-2.729,3.729,1,7.492,2.077,11.186,3.146l.313.939c-.5.487-1.008.973-1.538,1.477Zm-8.317,17.5-2.034.582c-.417-1.286-.817-2.451-1.225-3.642-.165-.5-.339-.991-.513-1.5,1.3-.643,2.6-1.278,3.937-1.929,1.425-.7,2.894-1.417,4.467-2.19,1.086,2.19,2.025,4.146,3.094,6.5-2.686.747-5.163,1.451-7.726,2.181Zm-11.246,8.535c1.7-.469,3.407-.93,5.189-1.417.5,1.964.965,3.616,1.469,5.232-1.33.634-2.616,1.243-3.92,1.851-1.417.669-2.851,1.347-4.389,2.077-1.052-2.008-2.077-3.981-3.277-6.405,1.695-.452,3.311-.9,4.928-1.338Zm21.3,1.99c-1.564.1-3.059.183-4.563.278-1.608.1-3.216.2-4.9.3-.356-1.869-.721-3.563-1.139-5.441,3.372-.86,6.414-1.634,9.969-2.4.269,2.581.461,4.763.634,7.266ZM344.31,258.632c3.111-.2,5.953-.4,9.082-.669.252.991.521,1.956.8,2.955.226.826.469,1.669.7,2.573-3.025.721-5.762,1.347-8.8,2.051l-1.425.33c-.165-2.712-.261-4.763-.356-7.24ZM355.7,280.621c1.1-.548,2.268-1.13,3.546-1.79,1.06,4.007,2,7.414,3.111,11.412a31.89,31.89,0,0,1-9.691-8.091c1.008-.513,2-1.008,3.033-1.53Zm2.242-29.211c-1.99-3.129-2.451-6.588-2.547-10.377,1.338,1.06,2.7,2.129,4.137,3.259,1.495,1.173,3.077,2.416,4.8,3.781-2.286,1.243-4.224,2.251-6.388,3.337Zm-25.317,5.423c2.4.617,4.372,1.1,6.562,1.651.1,1.6.182,3.216.269,4.884.07,1.312.13,2.66.217,4.067-2.651.747-5.11,1.434-7.831,2.181-1.495-4.337-.487-8.3.782-12.785Zm39.432,20.32c-1.634,4.493-3.033,8.378-4.424,12.228h0c-1.008-3.7-2.025-7.44-3.2-11.811,1.53-.087,2.929-.165,4.363-.235,1.052-.061,2.112-.122,3.259-.183Zm5.475-19.833-1.843.478c-.687-1.4-1.356-2.729-2.025-4.059s-1.347-2.677-2.042-4.094c.921-.834,1.816-1.677,2.781-2.581.747-.7,1.538-1.443,2.407-2.251,1.538,2.19,2.972,4.285,4.485,6.492.939,1.365,1.9,2.781,2.946,4.285-2.633.669-4.737,1.225-6.71,1.73Zm-32.488-4.146a27.031,27.031,0,0,1,4.25-11.246c.435,1.7.843,3.346,1.26,4.989.487,1.938.973,3.876,1.495,5.919-2.642.165-4.858.261-7.005.339Zm-9.23-3.094c2.451-2.564,4.632-4.841,6.684-7.066-.574,1.8-1.156,3.589-1.773,5.458-.487,1.486-.982,2.99-1.478,4.537-.973-.252-1.947-.5-3.1-.791l-1.9-.487,1.573-1.651Zm2.451,23.2c.834-.252,1.669-.513,2.538-.765.7,1.408,1.382,2.79,2.077,4.163.7,1.391,1.4,2.781,2.095,4.207-1.252,1.165-2.486,2.268-3.85,3.494-.426.382-.869.782-1.33,1.191-1.825-2.686-3.546-5.18-5.423-7.918l-1.834-2.668c2.095-.6,3.911-1.147,5.727-1.7Zm7.561,14.193c.7-.739,1.347-1.434,2.025-2.181,2.8,2.538,5.171,4.78,7.44,6.944-3.39-.973-6.875-1.982-10.96-3.164.539-.582,1.026-1.1,1.495-1.6Z" transform="translate(-6.402 -6.752)" fill="#363635"/>
      <path id="路径_3" data-name="路径 3" d="M410.452,323.475a7.177,7.177,0,0,0-3.668.469c-.426.13-.843.252-1.26.348q-14.5,3.846-29.046,7.744-14.471,3.872-28.907,7.709l-.382.1a19.968,19.968,0,0,0-3.581,1.217c-2.659,1.4-3.711,3.642-2.668,5.719a9.389,9.389,0,0,0,2.851,2.825c.339.252.643.478.886.687l.182.165,1.1-.174a15.972,15.972,0,0,0,3.642-.808l59.969-16.044c.243-.078.5-.156.765-.226a4.9,4.9,0,0,0,2.529-1.243c1.06-1.451,2.242-3.494,1.834-4.98-.435-1.573-2.729-3.042-4.241-3.511Z" transform="translate(-8.316 -18.596)" fill="#363635"/>
    </g>
  </g>
</svg>
