<svg xmlns="http://www.w3.org/2000/svg" xmlns:xlink="http://www.w3.org/1999/xlink" width="280" height="280" viewBox="0 0 280 280">
  <defs>
    <clipPath id="clip-icons_packimpex_night_def_22">
      <rect width="280" height="280"/>
    </clipPath>
  </defs>
  <g id="icons_packimpex_night_def_22" clip-path="url(#clip-icons_packimpex_night_def_22)">
    <g id="icons_packimpex_night_def_22-2" data-name="icons_packimpex_night_def_22" transform="translate(-254 -138.664)">
      <path id="路径_4" data-name="路径 4" d="M337.23,295.1h58.658v-27.73l1.862-1.206,5.1,5.717,6.807-6.98L366.518,220.14,323.55,264.724l6.914,7.234,6.775-7.258v30.4Zm9.793-38.843a4.778,4.778,0,0,1,1.165-3.059c4.618-4.872,9.35-9.768,13.926-14.509l2.862-2.961a5.255,5.255,0,0,1,.558-.484l1.2-.976,2.854,3c1.591,1.673,3.166,3.33,4.757,4.987l3.3,3.42c2.354,2.436,4.708,4.872,7.029,7.349a4.8,4.8,0,0,1,1.3,3c.049,7.595.041,15.312.033,22.784L386,283.022a3,3,0,0,1-.1.714l-.246,1.288H371.439V272.614h-9.793v12.393h-14.4l-.156-1.558a10.23,10.23,0,0,1-.1-1.238v-2.46c-.008-7.7-.016-15.657.033-23.49Z" transform="translate(-9.81 -5.19)" fill="#363635"/>
      <path id="路径_5" data-name="路径 5" d="M471.075,362.608c-13.557,0-18.06-11.1-19.446-20.414l-.714-4.79h-67.3l-40.885-.107.262,5.1c.008.18.025.361.025.541,0,10.441-8.177,18.929-18.232,18.929s-18.232-8.489-18.232-18.929c0-.189.016-.377.025-.566l.271-5.085H274.17V196.64H440.188v50.653h62.767l1.788,8.046c2.362,10.613,4.8,21.587,7.119,32.4l.427,1.952a63.928,63.928,0,0,1,1.829,11.622c.238,9.333.189,18.856.148,28.066,0,0-.025,5.421-.033,7.956H490.783l-.7,4.823c-1.1,7.628-5.011,20.422-18.946,20.455h-.066Zm-.156-37.974a17.379,17.379,0,0,0-12.393,5.323,18.522,18.522,0,0,0-.18,25.786,17.287,17.287,0,0,0,12.384,5.52h.148a17.146,17.146,0,0,0,12.3-5.331A18.554,18.554,0,0,0,488.5,343.08c.082-9.908-7.939-18.347-17.519-18.437h-.057Zm-.057-1.427a18.188,18.188,0,0,1,14.3,7.037c.361.459.722.886,1.091,1.279a13.05,13.05,0,0,0,10,4.527c.476,0,.968-.025,1.484-.066,1-.082,2.108-.123,3.477-.123.943,0,1.878.016,2.8.033h.156c1.05.025,2.091.041,3.125.041h5.454v-36.67H476.242v-50.53H440.3v86.486l4.888.525a24.876,24.876,0,0,0,2.756.2c4.273,0,6.036-2.469,7.742-4.855a18.542,18.542,0,0,1,14.681-7.882c.172.008.336,0,.492,0Zm-146.079.812a18.155,18.155,0,0,1,15.911,9.7l1.214,2.247,41.213-.008q15.587-.037,31.117-.025h24.5V198.149H276.688V335.937l30.978-.008,1.214-2.247a18.206,18.206,0,0,1,15.9-9.662Zm152.969-75.365v49.234H512.7l-2.764-12.483c-2.321-10.482-4.6-20.808-6.922-31.133-.6-2.657-2.977-5.512-6.225-5.569-2.772-.049-5.569-.057-8.316-.057l-10.72.008Z" transform="translate(-0.93 -0.964)" fill="#fff"/>
      <path id="路径_6" data-name="路径 6" d="M323.853,327.452a13.938,13.938,0,0,1,12.212,7.455l1.558,2.9.172,3.412c.008.18.016.353.033.525.008.1.016.2.016.246a14,14,0,1,1-27.984.041c0-.107.008-.205.016-.312.008-.172.025-.344.033-.517l.172-3.412,1.567-2.9a13.961,13.961,0,0,1,12.2-7.439M443.5,191.28H269V340.73h32.437c-.025.418-.057.828-.057,1.255,0,12.885,10.063,23.325,22.472,23.325s22.472-10.441,22.472-23.325c0-.418-.041-.82-.057-1.23l36.415.09h63.669l.156,1.066c2.321,15.567,10.72,24.137,23.637,24.137h.074c12.491-.033,20.922-8.858,23.129-24.2l.156-1.074h24.031v-1.115q0-5.61.033-11.22c.041-9.251.09-18.815-.148-28.205a67.4,67.4,0,0,0-1.936-12.475l-.418-1.936c-2.321-10.826-4.765-21.808-7.127-32.429q-1.267-5.733-2.542-11.458H443.5V191.28ZM280,330.577V201.589H433.574V330.577H413.349q-15.575,0-31.142.025h-.016l-38.728.008a22.062,22.062,0,0,0-39.2-.041l-24.26.008Zm201.063-38.056V252.087h6.488c2.723,0,5.5.008,8.234.057,1.181.025,2.009,1.452,2.173,2.173,2.321,10.318,4.6,20.635,6.914,31.117l1.566,7.094H481.062Zm-34.045,38.064a21.913,21.913,0,0,1-2.321-.172l-1.083-.115V252.185h27.459v50.53h36.514v27.861h-1.214c-1.009,0-2.026-.025-3.043-.041-1-.016-2.026-.041-3.043-.041-1.279,0-2.567.033-3.822.139-.394.033-.771.049-1.14.049a8.807,8.807,0,0,1-6.939-3.174c-.287-.312-.582-.656-.869-1.017a22.332,22.332,0,0,0-17.576-8.645c-.2,0-.394,0-.59.008a22.677,22.677,0,0,0-17.986,9.653c-1.714,2.387-2.378,3.076-4.347,3.076Zm22.825,25.31a13.108,13.108,0,0,1-9.407-4.207,14,14,0,0,1,.139-19.561,13.184,13.184,0,0,1,9.44-4.052c7.283.066,13.377,6.479,13.319,14a14.1,14.1,0,0,1-4.052,9.76,12.979,12.979,0,0,1-9.325,4.06Z" fill="#363635"/>
    </g>
  </g>
</svg>
