<svg xmlns="http://www.w3.org/2000/svg" xmlns:xlink="http://www.w3.org/1999/xlink" width="280" height="280" viewBox="0 0 280 280">
  <defs>
    <clipPath id="clip-icons_packimpex_night_def_10">
      <rect width="280" height="280"/>
    </clipPath>
  </defs>
  <g id="icons_packimpex_night_def_10" clip-path="url(#clip-icons_packimpex_night_def_10)">
    <g id="icons_packimpex_night_def_10-2" data-name="icons_packimpex_night_def_10" transform="translate(-267.426 -144.892)">
      <path id="路径_5" data-name="路径 5" d="M423.308,401.5H291V168.28H430.12c2.877,1.354,3.541,3.792,3.541,6.741q-.054,47.478-.027,94.955v3.012h83.983c4.6,0,6.167,1.569,6.176,6.1.009,4.249-.143,8.507.036,12.747.224,5.163-1.2,7.4-6.589,7.494-.117,0-.233.17-.529.4v75.216c0,.834.036,1.676-.036,2.5-.269,3.236-1.811,4.751-5.029,5-.583.045-1.174.081-2.008.134,0,3.971-.117,7.826.036,11.671.117,3-.556,5.5-3.164,7.225H486.5c-2.582-1.622-3.335-3.989-3.209-6.965.179-3.917.045-7.852.045-11.922H426.445c0,4.061-.117,8,.036,11.913.143,2.976-.592,5.369-3.173,6.992ZM300.582,341.732h56.67V177.988h-56.67V341.732Zm66.611-163.771V391.8h32.8v-8.328c-2.313-1.192-4.518-1.793-5.88-3.218-.95-.986-1.013-3.093-1.013-4.706q-.081-36.667-.036-73.334v-2.967c-1.336,0-2.241.009-3.146,0-4.652-.063-6.284-1.676-6.3-6.3q-.027-6.831,0-13.661c.018-4.724,1.569-6.275,6.248-6.284q15.691-.013,31.374,0h2.555V177.961ZM402.9,372.7H506.933V339.751H402.9c0,11.017,0,21.908,0,32.951Zm-.027-42.821H506.888V299.4H402.87v30.486Zm-45.582,21.962h-56.6v39.988h56.6V351.844Zm36.035-62.479H514.113V282.75H393.323c0,2.25,0,4.357,0,6.615ZM416.8,382.491c-2.035,0-3.9-.072-5.755.054a1.7,1.7,0,0,0-1.2,1.129c-.108,2.689-.054,5.387-.054,8.121h7.019c-.009-3.057-.009-5.979-.009-9.3Zm83.069.17h-6.786v9.179h6.786v-9.179Z" fill="#363635"/>
      <path id="路径_6" data-name="路径 6" d="M466.06,324.93v9.385h13.957V324.93Z" transform="translate(-18.137 -16.23)" fill="#363635"/>
      <path id="路径_7" data-name="路径 7" d="M325.51,398.158h14.047V388.71H325.51v9.448Z" transform="translate(-3.575 -22.838)" fill="#363635"/>
      <path id="路径_8" data-name="路径 8" d="M344.06,253.27h9.367v18.923H344.06V253.27Z" transform="translate(-5.497 -8.805)" fill="#363635"/>
      <path id="路径_9" data-name="路径 9" d="M395.8,253.34v18.833h-9.26V253.34Z" transform="translate(-9.898 -8.813)" fill="#363635"/>
      <path id="路径_10" data-name="路径 10" d="M466.07,370.11h13.939v9.349H466.07V370.11Z" transform="translate(-18.138 -20.911)" fill="#363635"/>
      <path id="路径_11" data-name="路径 11" d="M466.06,324.93h13.957v9.385H466.06V324.93Z" transform="translate(-18.137 -16.23)" fill="#363635"/>
      <path id="路径_12" data-name="路径 12" d="M325.51,398.158V388.71h14.047v9.448Z" transform="translate(-3.575 -22.838)" fill="#363635"/>
    </g>
  </g>
</svg>
