<?xml version="1.0" encoding="utf-8"?>
<!-- Generator: Adobe Illustrator 24.0.0, SVG Export Plug-In . SVG Version: 6.00 Build 0)  -->
<svg version="1.1" id="图层_1" xmlns="http://www.w3.org/2000/svg" xmlns:xlink="http://www.w3.org/1999/xlink" x="0px" y="0px"
	 viewBox="0 0 1560 1024" style="enable-background:new 0 0 1560 1024;" xml:space="preserve">
<style type="text/css">
	.st0{fill:#FFE936;}
	.st1{fill:#57A863;}
	.st2{fill:#FF0F21;}
</style>
<path class="st0" d="M141.4,0h1275c80.5,0,143.8,63.4,143.8,139v746c0,78-63.4,139-141.4,139H141.4C63.4,1023.9,0,960.5,0,885V139
	C0,63.4,63.4,0,141.4,0z"/>
<path class="st1" d="M1560.3,129.2V885V139V129.2z"/>
<path d="M141.4,1023.9h377.9V0H141.4C63.4,0,0,63.4,0,139v748.4C0,963,63.4,1026.4,141.4,1023.9z"/>
<path class="st2" d="M1418.9,1023.9H1041V0h377.9c78,0,141.4,63.4,141.4,139v748.4C1560.3,963,1496.9,1026.4,1418.9,1023.9z"/>
</svg>
