<?xml version="1.0" encoding="utf-8"?>
<!-- Generator: Adobe Illustrator 24.0.0, SVG Export Plug-In . SVG Version: 6.00 Build 0)  -->
<svg version="1.1" id="图层_1" xmlns="http://www.w3.org/2000/svg" xmlns:xlink="http://www.w3.org/1999/xlink" x="0px" y="0px"
	 viewBox="0 0 200 200" style="enable-background:new 0 0 200 200;" xml:space="preserve">
<style type="text/css">
	.st0{fill:#FFE936;}
	.st1{fill:#FF0F21;}
</style>
<path class="st0" d="M134.8,6.2C123.9,2.2,112.2,0,100,0S76.1,2.2,65.2,6.2L56.5,100l8.7,93.8c10.8,4,22.6,6.2,34.8,6.2
	s23.9-2.2,34.8-6.2l8.7-93.8L134.8,6.2z"/>
<path class="st1" d="M200,100c0-43-27.1-79.7-65.2-93.8v187.6C172.9,179.7,200,143,200,100z"/>
<path d="M0,100c0,43,27.1,79.7,65.2,93.8V6.2C27.1,20.3,0,57,0,100z"/>
</svg>
