<?xml version="1.0" encoding="utf-8"?>
<!-- Generator: Adobe Illustrator 24.0.0, SVG Export Plug-In . SVG Version: 6.00 Build 0)  -->
<svg version="1.1" id="图层_1" xmlns="http://www.w3.org/2000/svg" xmlns:xlink="http://www.w3.org/1999/xlink" x="0px" y="0px"
	 viewBox="0 0 53 34" style="enable-background:new 0 0 53 34;" xml:space="preserve">
<style type="text/css">
	.st0{fill:#7F3200;}
	.st1{fill:#FFFFFF;}
</style>
<path class="st0" d="M129.5,327c-4.1,0-7.8,1.7-10.5,4.3c4-0.1,8.1,1.5,11,4.8c5.2,5.9,4.7,14.8-1.2,20c-0.3,0.3-0.6,0.5-1,0.8
	c0.6,0.1,1.1,0.1,1.7,0.1c8.3,0,15-6.7,15-15C144.5,333.7,137.8,327,129.5,327z"/>
<g>
	<circle class="st1" cx="12.9" cy="12.6" r="12"/>
	<path class="st1" d="M10,32.2c-0.3,0.4-0.6,0.8-0.9,1.2c0.7-0.1,1.4-0.2,2-0.4c9.8-2.3,15.8-12.1,13.5-21.9l-13.4,3.2
		C14.1,19.9,13.9,26.8,10,32.2z"/>
	<circle class="st1" cx="39.9" cy="12.6" r="12"/>
	<path class="st1" d="M37,32.2c-0.3,0.4-0.6,0.8-0.9,1.2c0.7-0.1,1.4-0.2,2-0.4c9.8-2.3,15.8-12.1,13.5-21.9l-13.4,3.2
		C41.1,19.9,40.9,26.8,37,32.2z"/>
</g>
</svg>
