<?xml version="1.0" encoding="utf-8"?>
<!-- Generator: Adobe Illustrator 24.0.0, SVG Export Plug-In . SVG Version: 6.00 Build 0)  -->
<svg version="1.1" id="图层_1" xmlns="http://www.w3.org/2000/svg" xmlns:xlink="http://www.w3.org/1999/xlink" x="0px" y="0px"
	 viewBox="0 0 280 280" style="enable-background:new 0 0 280 280;" xml:space="preserve">
<style type="text/css">
	.st0{clip-path:url(#SVGID_2_);}
	.st1{fill:#AAB926;}
	.st2{fill:none;stroke:#AAB926;stroke-width:6.1095;stroke-miterlimit:10;}
</style>
<g>
	<defs>
		<rect id="SVGID_1_" width="280" height="280"/>
	</defs>
	<clipPath id="SVGID_2_">
		<use xlink:href="#SVGID_1_"  style="overflow:visible;"/>
	</clipPath>
	<g id="icons_packimpex_night_def_17" class="st0">
		<g id="icons_packimpex_night_def_17-2" transform="translate(-263.941 -148.282)">
			<path id="路径_5" class="st1" d="M447.8,322.1l5.2-5.8c4.7-5.3,10.1-10.3,10.1-17.9c0-6.5-4.4-11.2-12.5-11.2
				c-7.6,0-13.1,3.7-13.1,10.7v1.5h6.8v-1.1c0-3.2,2-5.3,5.6-5.3c3.8,0,5.6,2.1,5.6,4.9v1.1c0,3.3-1.4,5.9-3.7,8.6l-13.4,15.8v4.7
				h25v-6h-15.6V322.1z"/>
			<path id="路径_6" class="st1" d="M349,328.6c12,0,23.5-6.6,23.5-20.6v-1.9h-11.1v0.9c0,8.1-6.7,11.3-12.4,11.3
				c-7.4,0-13.9-4.3-13.9-11.8v-19.9c0-8.9,7.5-12.1,13.5-12.1c5.7,0,12.9,3.1,12.9,11.3v0.9h11.1v-1.9c0-13.9-12-20.6-23.9-20.6
				c-13.7,0-25.1,8.2-25.1,23v19.9C323.5,321,335.4,328.6,349,328.6L349,328.6z"/>
			<path id="路径_7" class="st1" d="M484.5,214.7c-0.1-1.4-1.3-2.6-2.7-2.6c-22.9-0.8-40.2,4.9-51.5,16.9
				c-11.7,12.6-13.7,28.5-13.8,36.7c-3.2-1.1-6.5-1.6-9.8-1.6c-12.4,0-25.1,8.2-25.1,23v19.9c0,13.9,11.9,21.5,25.5,21.5
				c12.4,0,25.1-8.2,25.1-23v-18.7c0-4.4-1.3-8.7-3.7-12.3c1.6,0.1,3.2,0.2,4.7,0.2c14.2,0,25.8-4,34.5-11.9
				C486.5,245.6,484.6,216,484.5,214.7L484.5,214.7z M461.1,240.8c0.6-0.5,1-1.1,1.1-1.9c0.1-0.7-0.1-1.5-0.6-2.1
				c-1-1.2-2.7-1.5-4-0.5c-12.2,9.5-23.9,19.6-35.1,30.3c-0.1,0.1-0.2,0.3-0.3,0.5c0-7,1.4-22.5,12.3-34.1
				c9.7-10.3,24.7-15.4,44.4-15.2c0,7.5-1.3,28.4-15.1,41c-8.5,7.8-20.5,11.2-35.5,10.2C445.9,252.3,460.4,241.3,461.1,240.8
				L461.1,240.8z M420.6,306.2c0,8.9-7.5,12.1-13.5,12.1c-7.4,0-13.9-4.3-13.9-11.8v-19.9c0-8.9,7.5-12.1,13.5-12.1
				c7.4,0,13.9,4.3,13.9,11.8V306.2z"/>
			<path id="路径_8" class="st1" d="M335,342.4c-2.5-0.1-4.9,1.1-6.4,3h-0.1v-2.6h-5.3V364h5.4v-11.9c0-3.6,1.7-5.3,4.7-5.3
				c2.7,0,4.2,1.7,4.2,4.9V364h5.4v-13.6C342.9,345.3,340.1,342.4,335,342.4L335,342.4z"/>
			<path id="路径_9" class="st1" d="M357.8,342.4c-5.6,0-10.4,3.3-10.4,9.3v4.2c0,5.8,5,8.7,10.6,8.7c4,0,7.6-1.4,9.3-4.7
				l-4.2-2.2c-1.1,1.6-2.9,2.6-4.9,2.7c-2.9,0-5.2-1.6-5.2-4.3v-1.2h14.5v-4.1C367.6,345.1,362.7,342.4,357.8,342.4L357.8,342.4z
				 M362.2,351.3H353V351c0-3.2,2.5-4.4,4.8-4.4c2.2,0,4.4,1.2,4.4,4.1L362.2,351.3L362.2,351.3z"/>
			<path id="路径_10" class="st1" d="M386.4,354.6c0,3.6-1.7,5.4-4.6,5.4c-2.7,0-4.2-1.7-4.2-4.9v-12.3h-5.4v13.6
				c0,5,2.9,8.1,7.9,8.1c2.5,0.1,4.8-1.1,6.4-3h0.1v2.6h5.2v-21.2h-5.4L386.4,354.6L386.4,354.6z"/>
			<path id="路径_11" class="st1" d="M403.5,336.3h-5.4v6.4h-3v4h3V359c0,3.8,2.8,5.4,6.3,5.4c1.3,0,2.7-0.2,4-0.4v-4.3
				c-0.9,0.2-1.8,0.2-2.8,0.2c-1.2,0-2.1-0.5-2.1-2v-11h4.9v-4h-4.9L403.5,336.3L403.5,336.3z"/>
			<path id="路径_12" class="st1" d="M417.1,346.3L417.1,346.3l-0.1-3.5h-5.3V364h5.4v-10.9c0-3.9,3-6.1,7.1-6.1
				c0.7,0,1.4,0,2,0.1v-4.6c-0.6-0.1-1.2-0.1-1.8-0.1C421.7,342.4,418.4,344.1,417.1,346.3z"/>
			<path id="路径_13" class="st1" d="M448,349.1c0-5.2-4.6-6.8-9.7-6.8c-4.2,0-9,1.6-9,6.2v0.6h4.9v-0.7c0-1.4,1.7-2.1,4.1-2.1
				c2.7,0,4.3,1,4.3,3.2v2h-6c-4.4,0-8.3,2.4-8.3,6.6c0,4,3.2,6.4,7.9,6.4c2.9,0,4.6-0.4,6.6-2.4h0.1c0,0.3,0.1,1.6,0.2,2h5.3
				c-0.3-0.5-0.4-3.6-0.4-4.6L448,349.1L448,349.1z M442.6,356.2c0,2.3-0.7,4.3-5,4.3c-2.5,0-4.1-0.9-4.1-2.7c0-1.9,1.5-2.6,3.8-2.6
				h5.3L442.6,356.2L442.6,356.2z"/>
			<path id="路径_14" class="st1" d="M458.9,358.3v-23.9h-5.4v23.9c0,1.9,0.1,6,5.5,6c1.5,0,2.9-0.2,4.3-0.6v-3.9
				c-0.8,0.1-1.6,0.2-2.5,0.2C459.4,360,458.9,359.2,458.9,358.3L458.9,358.3z"/>
		</g>
	</g>
</g>
<g>
	<defs>
		<rect id="SVGID_9_" width="280" height="280"/>
	</defs>
	<clipPath id="SVGID_4_">
		<use xlink:href="#SVGID_9_"  style="overflow:visible;"/>
	</clipPath>
</g>
<g>
	<defs>
		<rect id="SVGID_6_" width="280" height="280"/>
	</defs>
	<clipPath id="SVGID_5_">
		<use xlink:href="#SVGID_6_"  style="overflow:visible;"/>
	</clipPath>
</g>
<g>
	<defs>
		<rect id="SVGID_3_" width="280" height="280"/>
	</defs>
	<clipPath id="SVGID_7_">
		<use xlink:href="#SVGID_3_"  style="overflow:visible;"/>
	</clipPath>
</g>
<circle class="st2" cx="140" cy="140" r="136.2"/>
</svg>
