<svg xmlns="http://www.w3.org/2000/svg" xmlns:xlink="http://www.w3.org/1999/xlink" width="280" height="280" viewBox="0 0 280 280">
  <defs>
    <clipPath id="clip-icons_packimpex_night_def_24_white">
      <rect width="280" height="280"/>
    </clipPath>
  </defs>
  <g id="icons_packimpex_night_def_24_white" clip-path="url(#clip-icons_packimpex_night_def_24_white)">
    <g id="icons_packimpex_night_def_24" transform="translate(-262.345 -140.626)">
      <path id="路径_1" data-name="路径 1" d="M339.188,405.957c-4.479-.99-9.089-1.6-13.419-3.033-26.295-8.721-42.676-26.654-47.637-53.931-6.556-36.059,16.11-70.049,51.757-78.648a66.7,66.7,0,0,1,39.9,2.507c1.972.736,3.208.938,4.12-1.288a17.661,17.661,0,0,1,2.112-3.059,24.648,24.648,0,0,1,.035-32.325,24.936,24.936,0,0,1-6.048-16.478,24.545,24.545,0,0,1,6.8-16.636,5.053,5.053,0,0,0,1.245-3.041c.28-14.953,8.879-26.637,23.025-31.229a5.48,5.48,0,0,0,2.524-1.806c9.265-12.113,24.524-15.155,37.847-7.582a3.341,3.341,0,0,0,2.8-.07c13.1-7.494,28.486-4.409,37.654,7.573a5.991,5.991,0,0,0,2.726,1.937,32.288,32.288,0,0,1,22.876,30.826A5.316,5.316,0,0,0,508.693,203c8.642,9.308,9.291,22.219,1.508,32.246-.2.263-.386.543-.666.947A24.571,24.571,0,0,1,509.5,268.5a24.935,24.935,0,0,1,6,13.752,24.578,24.578,0,0,1-3.173,14.646c.5.438.894.841,1.35,1.174a33,33,0,0,1,13.568,21.649,3.354,3.354,0,0,0,.447.859v62.66c-1.306,2.069-3.19,2.568-5.574,2.568q-62.529-.079-125.058-.079a5.93,5.93,0,0,0-4.435,1.753A65.819,65.819,0,0,1,363.852,403.5c-3.8.99-7.669,1.657-11.508,2.472-4.4-.018-8.774-.018-13.156-.018ZM478.743,244.41a13.15,13.15,0,0,0-.657,1.6c-1.841,6.074-5.233,9.317-9.589,15.68-5.364,3.865-6.048,8.563-5.566,14.278a2.423,2.423,0,0,0,1.841,2.507c4.032,1.446,8.029,2.971,12.034,4.479,9.265,3.471,18.52,6.942,27.855,10.439a15.849,15.849,0,0,0,.885-1.341c3.541-6.591,1.99-14.392-3.9-19.651-2.971-2.656-3.243-5.119-.412-7.38a16.215,16.215,0,0,0-.079-25.436c-2.621-2.069-2.472-4.593-.009-6.889,8.467-7.871,8.353-17.889-.1-25.594a6.08,6.08,0,0,1-1.893-4.312c1.1-12.788-5.986-23.227-18.38-26.453A7.633,7.633,0,0,1,475.9,172.8a19.993,19.993,0,0,0-29.31-5.022c-3.3,2.542-4.3,2.533-7.722-.088a19.963,19.963,0,0,0-28.854,4.575,9.764,9.764,0,0,1-6.092,4.3,23.815,23.815,0,0,0-17.539,25.348,5.755,5.755,0,0,1-2.1,5.522c-8.169,6.986-8.213,17.784-.167,25.033,2.884,2.594,2.884,4.821.009,7.4-7.976,7.152-8.011,17.793-.07,24.892,2.989,2.673,2.91,4.777-.035,7.6-1.543,1.473-2.831,3.19-4.093,4.637,4.777,3.8,9.142,7.327,13.594,10.737a2.792,2.792,0,0,0,2.244.053c8.353-3.068,16.671-6.214,25.015-9.291,1.253-.465,1.9-1.026,1.823-2.516-.14-2.6.053-5.224-.1-7.827a3.711,3.711,0,0,0-1.166-2.5c-6.863-5.092-14.287-23.227-14.953-23.3l-4.049-27.872c.631-.263-.184-2.551-.009-3.182.666-2.393,2.13-3.383,4.584-3.462,4.023-.123,8.143.035,12.052-.78,9.247-1.928,15.751-7.555,19.7-16.127,1.35-2.919,3.48-4.146,5.671-2.9a7.328,7.328,0,0,1,2.638,3.147c4.041,8.432,10.492,13.98,19.642,15.882,3.9.806,8.02.666,12.052.771,2.226.061,3.944.868,4.365,3.006.289,1.473.289,1.473.044,3.988l-4.339,29.582ZM406.4,337.2a60.636,60.636,0,1,0-60.46,60.68c33.158-.018,60.478-27.434,60.46-60.68ZM411.1,216.161c1.288,8.607,2.323,17.118,3.883,25.523,2.367,12.779,13.647,22.114,26.978,22.736,12.42.587,24.621-8.2,28.074-20.414a81.77,81.77,0,0,0,1.841-10.132c.885-5.872,1.674-11.763,2.533-17.872-13.314.28-23.727-5.057-31.6-15.435-9.738,11.359-15.032,13.963-31.712,15.593ZM483.2,329.15c0,4.952.132,9.65-.061,14.339a13.005,13.005,0,0,1-1.385,5.452c-4.689,8.739-9.563,17.372-14.366,26.049-.429.78-.815,1.586-1.288,2.507h53.291a3.261,3.261,0,0,0,.167-.64c0-17.512.237-35.033-.1-52.546a23.287,23.287,0,0,0-13.007-21.071c-4.707-2.489-9.887-4.084-15.3-6.258.5,3.366.92,6.249,1.359,9.124.912,5.89,1.9,11.78,2.735,17.679.508,3.6-1.148,5.338-4.821,5.355-2.27.018-4.54.009-7.222.009Zm-64.5-41.134c2.165,8.379,4.3,16.627,6.442,24.892h35.27q3.195-12.437,6.407-24.892c-3.147-1.2-5.864-2.305-8.633-3.278a4.391,4.391,0,0,1-3.3-4.724c.088-3.085.018-6.179.018-9.5a37.239,37.239,0,0,1-24.261.053c0,3.357-.07,6.39.026,9.414a4.374,4.374,0,0,1-3.278,4.742c-2.831,1-5.618,2.13-8.686,3.3Zm55.894,2.927c-7.5,28.959-14.962,57.708-22.4,86.44,3.155.868,4.707-.158,6.092-2.761,5.128-9.65,10.571-19.125,15.812-28.714a8.5,8.5,0,0,0,.982-3.786c.105-5.557.018-11.114.061-16.671.018-2.875,1.49-4.321,4.356-4.365,2.253-.044,4.5-.009,6.74-.009a6.262,6.262,0,0,0,.044-1.061c-1.245-8.309-2.472-16.618-3.786-24.91a2.551,2.551,0,0,0-1.253-1.674c-2.06-.9-4.207-1.6-6.644-2.489Zm-47.111,30.221a14.753,14.753,0,0,0,.245,1.832q6.81,26.308,13.665,52.6a7.868,7.868,0,0,0,1.35,2.06,8.532,8.532,0,0,0,1.464-2.235q6.823-26.045,13.516-52.116c.175-.675.21-1.394.324-2.139Zm-27.452-26.181c.473.692.736,1.1,1.026,1.508,10.535,14.488,14.962,30.607,12.972,48.47-.263,2.331-.859,4.54.622,7.012,4.488,7.485,8.581,15.216,12.832,22.85,1.841,3.3,1.876,3.313,5.873,2.5-7.45-28.714-14.892-57.428-22.4-86.387-3.743,1.376-7.178,2.656-10.921,4.049ZM410.552,361.3c-2.936,5.5-5.785,10.833-8.625,16.154h17.618c-3.1-5.583-6.065-10.895-8.993-16.154Z" transform="translate(0 0)" fill="#fff"/>
      <path id="路径_2" data-name="路径 2" d="M383.226,356.131q0,17.933,0,35.857c-.009,7.406-5.11,12.543-12.481,12.551q-19.945.026-39.9,0A11.932,11.932,0,0,1,318.558,392.3q-.026-36.234,0-72.468a11.932,11.932,0,0,1,12.227-12.3q20.076-.026,40.152,0a11.937,11.937,0,0,1,12.288,12.236q.026,18.183,0,36.357Zm-40.582-40.52c-3.532,0-6.9-.009-10.255,0-4.4.009-5.759,1.341-5.759,5.7q-.013,34.722,0,69.453c0,4.365,1.359,5.706,5.75,5.706q18.314.013,36.62,0c4.926,0,6.144-1.2,6.144-6.074v-68.7a19.3,19.3,0,0,0-.026-2.016,4.067,4.067,0,0,0-4.076-4.023c-3.944-.123-7.888-.035-11.806-.035-1.174,5.513-4.172,8.221-8.791,8.064-4.076-.123-6.994-3.077-7.8-8.073Z" transform="translate(-5.131 -18.804)" fill="#fff"/>
      <path id="路径_3" data-name="路径 3" d="M346.41,390.61H362.2v7.845H346.41V390.61Z" transform="translate(-8.572 -29.065)" fill="#fff"/>
    </g>
  </g>
</svg>
