<?xml version="1.0" encoding="utf-8"?>
<!-- Generator: Adobe Illustrator 24.0.0, SVG Export Plug-In . SVG Version: 6.00 Build 0)  -->
<svg version="1.1" id="图层_1" xmlns="http://www.w3.org/2000/svg" xmlns:xlink="http://www.w3.org/1999/xlink" x="0px" y="0px"
	 viewBox="0 0 280 280" style="enable-background:new 0 0 280 280;" xml:space="preserve">
<style type="text/css">
	.st0{clip-path:url(#SVGID_2_);}
	.st1{fill:#AAB926;}
	.st2{fill:none;stroke:#AAB926;stroke-width:6.1095;stroke-miterlimit:10;}
</style>
<g>
	<defs>
		<rect id="SVGID_1_" width="280" height="280"/>
	</defs>
	<clipPath id="SVGID_2_">
		<use xlink:href="#SVGID_1_"  style="overflow:visible;"/>
	</clipPath>
	<g id="icons_packimpex_night_def_23" class="st0">
		<g id="icons_packimpex_night_def_23-2" transform="translate(-271.765 -151.275)">
			<path id="路径_1" class="st1" d="M391.1,268.2c-0.5,2.2,0.6,4,2.6,4.6c2.3,0.6,4.1,2.3,4.8,4.6c0.6,1.9,2.5,2.9,4.4,2.4
				c2.3-0.6,4.8,0,6.5,1.7c0.7,0.7,1.7,1.1,2.6,1.1c0.9,0,1.7-0.4,2.4-1c2.3-2,4.5-2.7,6.7-2l0.1,0c2.4,0,3.7-0.8,4.4-2.9
				c0.5-1.8,1.8-3.2,3.5-3.8c3.2-1.3,3.7-2.1,3.4-5.4c-0.3-1.8,0.3-3.6,1.6-5c2-2.3,2-3.8,0-6.3c-1.2-1.3-1.7-3-1.5-4.7
				c0.6-3.7,0.2-4.4-3.3-5.9c-1.5-0.6-2.7-1.9-3.3-3.5c-1.2-3.2-2-3.8-5.4-3.4c-2.1,0.3-4.2-0.4-5.7-1.9c-2-1.9-3.9-1.9-6.1,0
				c-1.5,1.5-3.8,2.1-5.9,1.6c-2.6-0.6-4.3,0.4-5.2,3c-0.6,2-2.1,3.5-4,4.1c-2.6,0.9-3.5,2.4-3,5.1c0.4,2.3-0.1,4.1-1.4,5.6
				c-2.1,2.3-2,4,0,6.3C390.9,264.1,391.5,266.2,391.1,268.2L391.1,268.2z M390,256.8c1.5-1.7,2.1-4.1,1.6-6.3
				c-0.4-2.3,0.3-3.4,2.5-4.2c2.2-0.7,3.9-2.4,4.5-4.7c0.7-2.2,2-2.9,4.2-2.4c2.3,0.6,4.8-0.1,6.6-1.8c1.8-1.6,3.3-1.6,5-0.1
				c1.7,1.6,4,2.4,6.3,2.1c3-0.3,3.5,0,4.6,2.9c0.6,1.8,2,3.2,3.7,3.9c3.1,1.3,3.3,1.8,2.8,5.1c-0.3,1.9,0.3,3.9,1.6,5.3
				c1.7,2.1,1.7,3.3,0,5.3c-1.4,1.5-2,3.6-1.7,5.6c0.3,3,0,3.5-2.9,4.6c-1.9,0.7-3.4,2.3-4,4.3c-0.6,1.7-1.6,2.4-3.6,2.4
				c-2.4-0.7-4.8,0-7.4,2.2c-1.2,1.1-2.7,1-4-0.2c-1.4-1.3-3.2-2.1-5.2-2.1c-0.7,0-1.4,0.1-2,0.3c-1.5,0.4-3-0.4-3.5-1.9
				c0,0,0,0,0,0c-0.8-2.5-2.8-4.5-5.3-5.1c-1.6-0.5-2.4-1.9-2-3.7c0.5-2.3-0.2-4.7-1.8-6.4C388.2,260,388.2,258.9,390,256.8
				L390,256.8z"/>
			<path id="路径_2" class="st1" d="M347.1,335.3l0,0.9h8.4V268c0-3.4,0.8-4.2,4.1-4.2c3.8,0,7.7,0,11.5,0c3.7,0,7.5,0,11.2,0
				c0.4,0,0.9,0,1.1-0.1l0.6,0v-8.2h-32.3c-3.7,0-4.8,1.1-4.8,4.7v73.9C347,334.5,347,334.9,347.1,335.3L347.1,335.3z M351.8,256.3
				h31.4v6.6c-0.2,0-0.6,0-0.9,0c-3.7,0-7.5,0-11.2,0c-3.8,0-7.7,0-11.5,0c-3.8,0-4.9,1.2-4.9,5v67.5h-6.8l0-0.2c0-0.4,0-0.8,0-1.2
				c0-24.6,0-49.3,0-73.9C347.8,257,348.5,256.3,351.8,256.3L351.8,256.3z"/>
			<path id="路径_3" class="st1" d="M485.9,340.9l-0.3-0.1c-0.1,0-0.2-0.1-0.3-0.1c-0.1,0-0.2-0.1-0.4-0.1h-3.1
				c-15.4,0-31.4,0-47.1,0c-0.7,0.1-1.3,0.4-1.7,1c-1.2,2-3.5,3.3-5.9,3.2c-9.9,0-20.3,0-30.9,0c-2.5,0-4.4-1-5.5-2.8
				c-0.6-1-1.6-1.5-2.7-1.4c-13.1,0-26.1,0-39.2,0h-11.2l0,0.4c-0.3,2.6,0.5,5.2,2.1,7.2c2.3,3,5.6,4.5,10,4.5h0
				c27.3,0,54.6,0,81.9,0h42.5c3.5,0,6.2-1,8.4-3.1c2.4-2.1,3.7-5.2,3.4-8.4L485.9,340.9L485.9,340.9z M482,349
				c-2,1.9-4.6,2.9-7.8,2.9h-42.5c-27.3,0-54.6,0-81.9,0h0c-4.1,0-7.2-1.4-9.3-4.1c-1.4-1.8-2.1-4-2-6.3h10.4c13.1,0,26.1,0,39.2,0
				c0.8-0.1,1.6,0.3,2,1c1.3,2.1,3.5,3.2,6.2,3.2c10.6,0,21,0,30.9,0c2.7,0.1,5.2-1.3,6.5-3.6c0.3-0.3,0.6-0.6,1.1-0.6
				c15.7,0,31.7,0,47.1,0h3.1c0,0,0.1,0,0.1,0c0,0,0,0,0,0C485.3,344.4,484.2,346.8,482,349L482,349z"/>
			<path id="路径_4" class="st1" d="M423.6,283.8c-1.4,0-2.7,0-4,0c-0.6,0-1.1,0.1-1.6,0.4c-0.7,0.5-1.4,1-2.1,1.5
				c-0.3,0.2-0.6,0.4-0.9,0.7l-0.3,0.2l8.2,19.7l0.4-0.8c1-2,2.2-3.2,3.6-3.6c1.4-0.4,3.1,0,5,1.2l0.5,0.3l0.2-1.1l-7.1-18.6
				L423.6,283.8z M426.8,301.2c-1.4,0.4-2.7,1.5-3.7,3.2l-7.3-17.6c0.2-0.2,0.4-0.3,0.6-0.5c0.7-0.5,1.4-1.1,2.1-1.5
				c0.4-0.2,0.8-0.3,1.2-0.3c1.3,0,2.6,0,3.9,0h1.4l6.7,17.5C429.9,301.1,428.2,300.8,426.8,301.2L426.8,301.2z"/>
			<path id="路径_5" class="st1" d="M406.3,284.6c-0.6-0.4-1.3-0.6-2.1-0.7c-1.3-0.1-2.6,0-4.1,0c-0.6,0-1.2,0-1.9,0h-0.3l-7.3,19
				l0.7-0.1c0.6-0.1,1.2-0.3,1.8-0.4c1.2-0.3,2.3-0.6,3.3-0.4c1,0.3,1.8,1.1,2.8,1.9c0.4,0.4,0.9,0.8,1.3,1.2l0.4,0.3l7.9-19.1
				l-0.3-0.2c-0.3-0.2-0.5-0.4-0.7-0.6C407.3,285.2,406.8,284.9,406.3,284.6L406.3,284.6z M400.5,304.1c-0.3-0.3-0.6-0.5-0.9-0.8
				c-1-0.9-1.9-1.8-3.1-2.1c-0.3-0.1-0.6-0.1-0.9-0.1c-0.9,0.1-1.8,0.2-2.7,0.5c-0.3,0.1-0.7,0.2-1,0.3l6.6-17.1c0.6,0,1.1,0,1.6,0
				c1.5,0,2.8,0,4.1,0c0.6,0.1,1.2,0.2,1.7,0.5c0.5,0.3,0.9,0.6,1.4,1c0.2,0.1,0.3,0.3,0.5,0.4L400.5,304.1L400.5,304.1z"/>
			<path id="路径_6" class="st1" d="M491.1,338.7c-0.8-2.3-2.5-3.4-5.1-3.2c-1,0.1-2.1,0.1-3.2,0c-0.4,0-0.8,0-1.3,0v-20.2
				c0-18.5,0-37,0-55.5c0-4.5-2.4-7.9-6.3-9c-1-0.2-2.1-0.3-3.2-0.3c-8.5,0-16.9,0-25.4,0h-8.5c0-0.3-0.1-0.5-0.1-0.8
				c-0.1-0.8-0.2-1.6-0.4-2.4c-0.8-2.7-2.8-4.9-5.5-6c-0.7-0.3-1.3-0.9-1.6-1.6c-1.4-4.2-5.7-6.8-10.2-6c-0.8,0.1-1.5-0.2-2.2-0.6
				c-3.9-3.3-8.4-3.4-12.5-0.2c-0.6,0.4-1.4,0.6-2.2,0.6c-5.1-0.7-8.7,1.5-10.5,6.2c-0.2,0.5-0.5,0.9-1,1.1
				c-4.4,1.6-6.6,4.8-6.6,9.5c0,0.1,0,0.1-0.1,0.2c0,0,0,0,0,0h-1.6c-3.2,0-6.4,0-9.5,0c-7.5,0-15.3,0.1-22.9-0.1
				c-2.6-0.1-5,0.8-6.9,2.6c-1.9,1.9-2.9,4.5-2.8,7.2c0.1,18,0.1,36.3,0.1,54c0,6.4,0,12.9,0,19.3v2H337c-3.2,0-4.6,1.4-4.7,4.6
				c-0.1,9.3,4.6,15.2,13.6,17.3c0.1,0,0.1,0.1,0.2,0.1c0.1,0,0.1,0.1,0.2,0.1l0.1,0.1H477l0.1,0c0.3-0.1,0.6-0.2,0.9-0.2
				c0.7-0.2,1.3-0.3,1.9-0.6c6.3-2.3,10-6.7,11-13.1c0-0.2,0.1-0.4,0.2-0.5c0-0.1,0.1-0.2,0.1-0.3l0-4.1L491.1,338.7L491.1,338.7z
				 M440.2,256.3H472c2.8,0,3.6,0.8,3.6,3.7c0,24.8,0,49.6,0,74.4c0,0.3,0,0.6,0,1c0,0.1,0,0.1,0,0.2h-6.8v-67.7
				c0-3.6-1.2-4.8-4.8-4.8c-5.3,0-10.5,0-15.8,0h-8V256.3z M389.7,256.6c1.4-1.6,2-3.9,1.5-6c-0.4-2.5,0.4-3.8,2.8-4.6
				c2.1-0.7,3.7-2.3,4.3-4.4c0.8-2.4,2.3-3.3,4.7-2.7c2.2,0.6,4.6-0.1,6.2-1.7c2-1.7,3.6-1.8,5.5-0.1c1.6,1.6,3.8,2.3,6,2
				c3.2-0.4,3.9,0.1,5,3.1c0.6,1.7,1.9,3,3.5,3.7c3.3,1.4,3.6,2,3,5.5c-0.3,1.8,0.3,3.7,1.5,5c1.9,2.3,1.9,3.6,0,5.8
				c-1.3,1.4-1.9,3.4-1.7,5.3c0.3,3.2-0.1,3.8-3.1,5c-1.8,0.7-3.2,2.2-3.8,4.1c-0.7,1.9-1.9,2.7-4.1,2.6c-2.5-0.8-4.9,0.2-7,2.1
				c-1.4,1.2-3.1,1.1-4.5-0.2c-1.8-1.7-4.4-2.4-6.8-1.8c-1.7,0.5-3.4-0.5-3.9-2.1c-0.7-2.4-2.6-4.3-5.1-4.9
				c-1.9-0.5-2.7-2.2-2.3-4.1c0.5-2.2-0.2-4.5-1.7-6C387.8,260.2,387.8,258.8,389.7,256.6L389.7,256.6z M432.2,302.4
				c0,0.1,0,0.3-0.1,0.4c-3.9-2.4-6.9-1.8-9.1,2.5c-2.7-6.5-5.2-12.6-7.7-18.6c1.1-0.8,2-1.5,3-2.2c0.4-0.2,0.9-0.4,1.4-0.4
				c1.8,0,3.6,0,5.6,0C427.5,290,429.9,296.2,432.2,302.4L432.2,302.4z M408.2,286.5c-2.5,6.1-5.1,12.2-7.6,18.3
				c-1.5-1.2-2.7-2.8-4.2-3.2c-1.5-0.4-3.3,0.5-5.2,0.8c2.3-6.1,4.7-12.3,6.9-18.1c2.3,0,4.2,0,6.1,0c0.7,0.1,1.3,0.3,1.9,0.6
				C406.9,285.4,407.6,285.9,408.2,286.5L408.2,286.5z M385.9,268.9c0,0.2,0.1,0.4,0.1,0.7c0.1,0.7,0.2,1.4,0.4,2.1
				c0.7,2.8,2.8,5,5.5,5.9c1.3,0.2,2.2,1.3,2,2.6c0,0.4-0.2,0.7-0.4,1l-3.1,8.1c-1.8,4.7-3.6,9.4-5.4,14.1c-0.6,1.3-0.5,2.7,0.1,4
				c0.6,1,1.6,1.6,2.8,1.7c1,0.1,2-0.1,2.9-0.5c3.1-1.7,5.1-1.3,7,1.6c0.7,1.1,2,1.8,3.3,1.6c1.7-0.2,3.1-1.3,3.7-2.9
				c1.4-3.4,2.8-6.8,4.2-10.2l2.1-5c0.2-0.4,0.4-0.8,0.6-1.3l0-0.1c0.1,0.3,0.2,0.5,0.3,0.7c1,2.3,1.9,4.7,2.9,7
				c1.1,2.8,2.3,5.5,3.4,8.3c0.8,1.9,2.1,3.1,3.5,3.3c1.5,0.2,3-0.5,4.3-2.1c2.1-2.5,2.1-2.5,5.2-1.4l0.7,0.2
				c0.4,0.1,0.8,0.3,1.2,0.4c1.6,0.7,3.4,0.3,4.5-1c1.1-1.2,1.3-2.6,0.6-4.4c-0.8-2-1.5-4-2.3-6c-1.9-5.1-4-10.4-6-15.5
				c-0.5-1.1-0.5-2.4,0.2-3.5c0.2-0.4,0.5-0.7,0.9-0.9c4.1-1.4,6.3-4.4,6.6-8.7h25.1v66.7h-8.4c-7.2,0-14.4,0-21.6,0
				c-2.7,0-3.4,0.5-4,3.1c-0.2,0.8-0.7,1.1-1.7,1.1h0c-2.5,0-5,0-7.5,0h-3l-5.5,0c-4.8,0-9.6,0-14.4,0h0c-1.4,0-2-0.4-2.1-1.7
				c-0.3-2.3-2-2.6-3.7-2.6c-4.5,0-9.1,0-13.6,0h-16.7v-66.6H385.9z M351.8,255.9h31.8v7.4c-0.2,0-0.7,0.1-1.3,0.1
				c-7.6,0-15.1,0-22.7,0c-3.6,0-4.5,1-4.5,4.6v67.9h-7.6c0-0.6-0.1-1.2-0.1-1.7c0-24.6,0-49.3,0-73.9
				C347.4,256.7,348.3,255.9,351.8,255.9L351.8,255.9z M482.2,349.3c-2.3,2.2-5,3-8.1,3H455c-35.1,0-70.2,0-105.3,0
				c-3.9,0-7.2-1.1-9.7-4.3c-1.6-2-2.3-4.4-2.1-6.9h1.8c16.1,0,32.1,0,48.2,0c1-0.1,1.9,0.4,2.4,1.2c1.3,2.1,3.4,3,5.9,3
				c10.3,0,20.6,0,30.9,0c2.5,0.1,4.9-1.2,6.2-3.4c0.3-0.5,0.8-0.7,1.4-0.8c16.7,0,33.5,0,50.2,0c0.2,0,0.3,0.1,0.5,0.1
				C485.8,344.4,484.5,347.1,482.2,349.3L482.2,349.3z"/>
			<path id="路径_7" class="st1" d="M411.4,260.6c-1.5-1.9-2.8-3.6-4.2-5.3c-1.2-1.5-2.6-1.7-3.8-0.7c-1.1,0.9-1.2,2.4-0.1,3.8
				c1.9,2.5,3.9,5,5.9,7.5c1.6,1.9,3.2,1.9,4.7-0.1c2.6-3.5,5.2-7.1,7.7-10.6c1.1-1.5,1-3-0.2-3.9c-1.3-1-2.7-0.6-3.9,1
				C415.5,255,413.5,257.7,411.4,260.6L411.4,260.6z"/>
			<path id="路径_8" class="st1" d="M411.5,267.8c-0.9,0-1.8-0.5-2.7-1.6c-1.9-2.4-3.9-4.9-5.9-7.5c-1.2-1.5-1.1-3.3,0.2-4.4
				c0.6-0.5,1.3-0.7,2.1-0.7c0.9,0.2,1.8,0.7,2.3,1.5c0.9,1.2,1.9,2.4,2.8,3.6l1,1.3l1.5-2.1c1.4-2,2.8-3.9,4.2-5.8
				c0.5-0.9,1.4-1.5,2.4-1.7c0.7-0.1,1.5,0.1,2.1,0.6c1.4,1,1.5,2.8,0.3,4.5c-2.6,3.6-5.1,7.1-7.7,10.6
				C413.4,267.2,412.5,267.7,411.5,267.8C411.5,267.8,411.5,267.8,411.5,267.8L411.5,267.8z M404.9,254.4c-0.5,0-0.9,0.2-1.3,0.5
				c-1,0.8-1,2,0,3.2c2,2.6,4,5.1,5.9,7.5c0.7,0.9,1.4,1.3,2.1,1.3c0.7,0,1.3-0.5,2-1.4c2.6-3.5,5.1-7,7.7-10.6
				c1-1.3,0.9-2.6-0.1-3.4c-0.4-0.3-0.9-0.5-1.5-0.4c-0.8,0.2-1.5,0.7-1.9,1.4c-1.4,1.9-2.8,3.8-4.2,5.8l-2.1,3l-1.7-2.1
				c-1-1.2-1.9-2.4-2.8-3.6c-0.4-0.6-1.1-1-1.8-1.2C405.1,254.4,405,254.4,404.9,254.4L404.9,254.4z"/>
			<path id="路径_9" class="st1" d="M355.5,336.2h-8.4l0-0.9c0-0.4,0-0.8,0-1.2c0-24.6,0-49.3,0-73.9c0-3.7,1.1-4.7,4.8-4.7h32.3
				v8.2l-0.6,0c-0.3,0-0.7,0.1-1.1,0.1c-3.7,0-7.5,0-11.2,0c-3.8,0-7.7,0-11.5,0c-3.4,0-4.1,0.8-4.1,4.2L355.5,336.2L355.5,336.2z
				 M347.9,335.4h6.8V268c0-3.8,1.2-5,4.9-5c3.8,0,7.7,0,11.5,0c3.7,0,7.5,0,11.2,0c0.3,0,0.7,0,0.9,0v-6.6h-31.4
				c-3.3,0-4,0.7-4,3.9v73.9c0,0.4,0,0.8,0,1.2L347.9,335.4L347.9,335.4z"/>
			<path id="路径_10" class="st1" d="M411.4,260.6c2.1-2.9,4.1-5.6,6-8.3c1.2-1.6,2.6-2,3.9-1c1.2,0.9,1.3,2.4,0.2,3.9
				c-2.5,3.6-5.1,7.1-7.7,10.6c-1.5,2-3.1,2-4.7,0.1c-2-2.5-3.9-5-5.9-7.5c-1.1-1.4-1-2.9,0.1-3.8c1.2-1,2.7-0.8,3.8,0.7
				C408.6,257,409.9,258.8,411.4,260.6L411.4,260.6z"/>
			<path id="路径_11" class="st1" d="M411.5,267.8c-0.9,0-1.8-0.5-2.7-1.6c-1.9-2.4-3.9-4.9-5.9-7.5c-1.2-1.5-1.1-3.3,0.2-4.4
				c0.6-0.5,1.3-0.7,2.1-0.7c0.9,0.2,1.8,0.7,2.3,1.5c0.9,1.2,1.9,2.4,2.8,3.6l1,1.3l1.5-2.1c1.4-2,2.8-3.9,4.2-5.8
				c0.5-0.9,1.4-1.5,2.4-1.7c0.7-0.1,1.5,0.1,2.1,0.6c1.4,1,1.5,2.8,0.3,4.5c-2.6,3.6-5.1,7.1-7.7,10.6
				C413.4,267.2,412.5,267.7,411.5,267.8C411.5,267.8,411.5,267.8,411.5,267.8L411.5,267.8z M404.9,254.4c-0.5,0-0.9,0.2-1.3,0.5
				c-1,0.8-1,2,0,3.2c2,2.6,4,5.1,5.9,7.5c0.7,0.9,1.4,1.3,2.1,1.3c0.7,0,1.3-0.5,2-1.4c2.6-3.5,5.1-7,7.7-10.6
				c1-1.3,0.9-2.6-0.1-3.4c-0.4-0.3-0.9-0.5-1.5-0.4c-0.8,0.2-1.5,0.7-1.9,1.4c-1.4,1.9-2.8,3.8-4.2,5.8l-2.1,3l-1.7-2.1
				c-1-1.2-1.9-2.4-2.8-3.6c-0.4-0.6-1.1-1-1.8-1.2C405.1,254.4,405,254.4,404.9,254.4L404.9,254.4z"/>
		</g>
	</g>
</g>
<circle class="st2" cx="140" cy="140" r="136.2"/>
</svg>
