<svg xmlns="http://www.w3.org/2000/svg" xmlns:xlink="http://www.w3.org/1999/xlink" width="280" height="280" viewBox="0 0 280 280">
  <defs>
    <clipPath id="clip-icons_packimpex_night_def_25.svg">
      <rect width="280" height="280"/>
    </clipPath>
  </defs>
  <g id="icons_packimpex_night_def_25.svg" clip-path="url(#clip-icons_packimpex_night_def_25.svg)">
    <g id="icons_packimpex_night_def_25" transform="translate(-280.979 -159.275)">
      <path id="路径_1" data-name="路径 1" d="M293.74,427.33a5.806,5.806,0,0,1-2.73-5.66c.31-6.43-.26-12.96.7-19.27,2.28-15.07,15.98-26.59,31.2-26.59,4.59,0,9.18,1.05,13.78,1.5a3.923,3.923,0,0,0,2.74-.66c10.42-9.42,22.42-11.51,35.73-7.99a3.524,3.524,0,0,0,2.79-.46c12.61-11.15,26.58-12.38,41.66-5.89a2.987,2.987,0,0,0,.51.15c7.02-19.26,23.31-26.58,41.22-31.08,8.67-2.18,17.85-2.3,26.78-3.46a65.024,65.024,0,0,0,10.24-1.87c9.71-2.9,15.2-9.75,15.66-20.09.49-10.9.48-21.83.55-32.75.05-7.68,3.46-13.13,10.34-16.44,1.79-.86,1.8-.86,1.17-4.29-27.63,5.25-55.26,10.5-83.16,15.81.7,4.09,1.33,7.95,2.02,11.79.62,3.42-.53,5.35-4.01,5.93-12.85,2.18-25.72,4.27-38.59,6.38q-22.2,3.645-44.41,7.25c-5.9.96-11.8,1.96-17.71,2.91-2.14.34-4.14.1-5.41-2s-.48-3.88.83-5.67Q349,276.715,362.31,258.51c.52-.72,1.01-1.46,1.64-2.37-5.09-3.51-10.07-6.96-15.07-10.39q-12.285-8.43-24.58-16.83c-1.96-1.33-3.68-2.78-3.08-5.41.62-2.72,2.8-3.29,5.27-3.7,19.83-3.22,39.65-6.54,59.47-9.83,6.34-1.05,12.67-2.11,19.37-3.23-.73-4.61-1.4-9.16-2.2-13.69-.86-4.84.2-6.36,5.01-7.1q34.3-5.265,68.59-10.57,19.47-3,38.94-5.96c4.15-.63,5.79.6,6.46,4.72q6.45,39.27,12.87,78.54c.32,1.98.95,3.15,3.1,3.91,5.2,1.84,8.48,5.78,10.22,11,.19.58.43,1.15.64,1.72v49.99c-1.5,3.99-2.61,8.18-4.57,11.93-4.51,8.64-11.26,15.43-19.09,21.11a4.7,4.7,0,0,0-2.18,4.4c.1,9.04.06,18.08.03,27.12-.01,3.11-1.45,4.54-4.53,4.79a59.81,59.81,0,0,0-6.13.66,230.835,230.835,0,0,0-56.33,18.33,2.712,2.712,0,0,0-1.83,2.81,16.367,16.367,0,0,1-7.7,13.95,44.785,44.785,0,0,1-6.22,2.93q-73.3-.015-146.67-.01ZM412.3,194.14c.12,1.21.16,2.11.3,2.99,3.53,21.22,7.11,42.44,10.57,63.67.33,2.02,1.12,2.3,2.83,1.93,2.88-.62,5.78-1.12,8.67-1.68q36.015-6.885,72.04-13.76c6.01-1.15,12.01-2.3,18.09-3.47-3.58-21.86-7.12-43.42-10.69-65.2-34.07,5.2-67.83,10.35-101.81,15.52ZM514.61,379.97c0-7.66.37-15.11-.12-22.5-.38-5.78,1.49-9.33,6.32-12.81,13.06-9.42,21.27-21.46,19.77-38.84-.94-10.84-.12-21.84-.2-32.76-.05-6.49-5.69-10.61-11.49-8.55-3.55,1.26-5.62,4.5-5.69,8.85-.18,11.54.17,23.12-.69,34.61-.95,12.7-7.64,21.89-20.09,25.77a73.267,73.267,0,0,1-17.31,3.11c-8.07.48-16.03,1.29-23.8,3.45-8.94,2.48-17.38,6.08-24.51,12.21-4.47,3.84-8.04,8.38-8.11,14.55-.16,14.15-.08,28.3-.03,42.45a8.321,8.321,0,0,0,4.34,7.55c5.9,3.44,12.78-.82,12.82-8.03.07-12.99.02-25.97.02-38.96v-2.8h8.59v31.4a219.839,219.839,0,0,1,60.18-18.7ZM336.9,226.94c11.99,8.22,23.36,16,34.7,23.8,3.81,2.62,4.09,4.43,1.34,8.2q-11.325,15.495-22.69,30.97c-.53.72-1.02,1.48-1.77,2.56,29.4-4.86,58.24-9.62,87.25-14.42-.52-2.85-.96-5.28-1.45-7.98-4.02.76-7.87,1.46-11.7,2.22-4.43.88-6.43-.36-7.18-4.8-1.73-10.22-3.35-20.45-5.03-30.67-1.16-7.04-2.34-14.07-3.56-21.42-23.23,3.83-46.25,7.64-69.91,11.54Zm84.5,191.72c-.48-4.11-1.25-7.95-1.31-11.8-.18-10.57-.02-21.14-.13-31.71a4.193,4.193,0,0,0-1.47-3.05c-8.9-5.9-18.38-6.81-27.99-2.14-9.44,4.58-13.34,12.79-13.46,22.97-.09,7.79-.02,15.58-.01,23.38,0,.77.1,1.54.15,2.35Zm-49.64-41.87c-1.75-.31-3.31-.63-4.88-.85-12.1-1.74-23.99,5.6-27.32,17.12-2.42,8.39-.78,17-1.27,25.48h29.86c1.52-13.88-2.27-27.96,3.61-41.75Zm-42.17,41.82c.86-11.15-1.76-22.45,3.62-33.2-1.93-.34-3.57-.69-5.23-.92-12.26-1.66-24.12,5.57-27.12,17.31-1.36,5.34-1.16,11.07-1.69,16.81Z" fill="#fff"/>
      <path id="路径_2" data-name="路径 2" d="M480.15,268.23a25.8,25.8,0,1,1-25.73,25.73,25.653,25.653,0,0,1,25.73-25.73ZM480,311.22c9.18.2,17.15-7.52,17.4-16.84A17.189,17.189,0,1,0,480,311.22Z" fill="#fff"/>
      <path id="路径_3" data-name="路径 3" d="M402.79,349.93a17.2,17.2,0,1,1,17.23-17.09,17.043,17.043,0,0,1-17.23,17.09Zm8.61-17.21a8.58,8.58,0,1,0-8.57,8.6,8.811,8.811,0,0,0,8.57-8.6Z" fill="#fff"/>
      <path id="路径_4" data-name="路径 4" d="M364.27,324.13a17.2,17.2,0,1,1-17.33,16.99,17.037,17.037,0,0,1,17.33-16.99Zm-8.71,17.13a8.575,8.575,0,1,0,8.65-8.5,8.841,8.841,0,0,0-8.65,8.5Z" fill="#fff"/>
      <path id="路径_5" data-name="路径 5" d="M325.48,332.74a17.2,17.2,0,1,1-17.22,17.09,17.043,17.043,0,0,1,17.22-17.09Zm.09,25.76a8.581,8.581,0,1,0-8.71-8.45,8.811,8.811,0,0,0,8.71,8.45Z" fill="#fff"/>
    </g>
  </g>
</svg>
