<svg xmlns="http://www.w3.org/2000/svg" xmlns:xlink="http://www.w3.org/1999/xlink" width="280" height="280" viewBox="0 0 280 280">
  <defs>
    <clipPath id="clip-icons_packimpex_night_def_2_white">
      <rect width="280" height="280"/>
    </clipPath>
  </defs>
  <g id="icons_packimpex_night_def_2_white" clip-path="url(#clip-icons_packimpex_night_def_2_white)">
    <g id="icons_packimpex_night_def_2" transform="translate(-268 -146.234)">
      <path id="路径_1" data-name="路径 1" d="M553.69,217.545c-7.251,29.692-24.922,53.9-41.457,78.7-1.437,2.161-2.985,4.248-4.523,6.336-2.811,3.827-6.2,3.946-8.853,0-8.258-12.223-16.828-24.272-24.391-36.915a362.362,362.362,0,0,1-17.039-33.07c-6.455-13.843-6.3-27.934.815-41.576,7.965-15.262,20.573-24.363,37.611-27.21a7.908,7.908,0,0,0,1.419-.54h11.82a3.321,3.321,0,0,0,.906.476c22.312,3.827,36.3,16.8,42.391,38.481.522,1.849.87,3.754,1.3,5.631q0,4.848,0,9.687Zm-50.42,75.3c1.6-2.344,3-4.395,4.413-6.436,11.921-17.322,23.219-35.011,31.724-54.329,3.534-8.02,6.125-16.2,4.5-25.178A41.214,41.214,0,0,0,481.113,179c-14.557,9.073-23.264,28.5-16.837,45.421a226.325,226.325,0,0,0,10.483,23.136c8.13,15.766,18.119,30.378,28.511,45.284Z" transform="translate(-14.839)" fill="#fff"/>
      <path id="路径_2" data-name="路径 2" d="M505.358,188.27a27.517,27.517,0,0,1,.174,55.034,27.517,27.517,0,1,1-.174-55.034ZM523.6,215.947a18.266,18.266,0,1,0-36.531-.128,18.266,18.266,0,0,0,36.531.128Z" transform="translate(-16.964 -2.111)" fill="#fff"/>
      <path id="路径_3" data-name="路径 3" d="M377.95,331.165c-7.251,29.692-24.922,53.9-41.457,78.7-1.437,2.161-2.985,4.248-4.523,6.336-2.811,3.827-6.2,3.946-8.853,0-8.258-12.223-16.828-24.272-24.391-36.915a362.362,362.362,0,0,1-17.039-33.07c-6.455-13.843-6.3-27.934.815-41.576,7.965-15.262,20.573-24.363,37.611-27.211a7.912,7.912,0,0,0,1.419-.54h11.82a3.321,3.321,0,0,0,.906.476c22.312,3.827,36.3,16.8,42.391,38.481.522,1.849.87,3.754,1.3,5.631v9.687Zm-50.42,75.3c1.6-2.344,3-4.395,4.413-6.436,11.921-17.322,23.219-35.011,31.724-54.329,3.534-8.02,6.125-16.2,4.5-25.178a41.214,41.214,0,0,0-62.789-27.9c-14.557,9.073-23.264,28.5-16.837,45.421a226.323,226.323,0,0,0,10.483,23.136c8.13,15.757,18.11,30.378,28.511,45.284Z" transform="translate(0 -9.594)" fill="#fff"/>
      <path id="路径_4" data-name="路径 4" d="M329.618,301.89a27.517,27.517,0,0,1,.174,55.034,27.517,27.517,0,1,1-.174-55.034Zm18.247,27.687a18.266,18.266,0,1,0-36.531-.128,18.266,18.266,0,0,0,36.531.128Z" transform="translate(-2.124 -11.705)" fill="#fff"/>
      <path id="路径_5" data-name="路径 5" d="M368.36,411.173c30.992-7.746,43.572-20.225,49.321-30.214,9.659-16.791,2.783-31.276,14.521-44.853,10.465-12.113,28.355-14.96,41.374-15.546" transform="translate(-7.714 -13.281)" fill="none" stroke="#fff" stroke-linecap="round" stroke-miterlimit="10" stroke-width="11.131"/>
    </g>
  </g>
</svg>
