<?xml version="1.0" encoding="utf-8"?>
<!-- Generator: Adobe Illustrator 24.0.0, SVG Export Plug-In . SVG Version: 6.00 Build 0)  -->
<svg version="1.1" id="图层_1" xmlns="http://www.w3.org/2000/svg" xmlns:xlink="http://www.w3.org/1999/xlink" x="0px" y="0px"
	 viewBox="0 0 280 280" style="enable-background:new 0 0 280 280;" xml:space="preserve">
<style type="text/css">
	.st0{clip-path:url(#SVGID_2_);}
	.st1{fill:#AAB926;}
	.st2{fill:none;stroke:#AAB926;stroke-width:6.1095;stroke-miterlimit:10;}
</style>
<g>
	<defs>
		<rect id="SVGID_1_" width="280" height="280"/>
	</defs>
	<clipPath id="SVGID_2_">
		<use xlink:href="#SVGID_1_"  style="overflow:visible;"/>
	</clipPath>
	<g id="icons_packimpex_night_def_16" class="st0">
		<g id="icons_packimpex_night_def_16-2" transform="translate(-267.746 -145.278)">
			<path id="路径_4" class="st1" d="M475.2,213.8c0-0.1,0-0.1,0-0.2l0-0.3l-0.3,0c-0.1,0-0.1,0-0.2,0c-11.2,0-22.3,0-33.5,0
				c-0.1,0-0.1,0-0.2,0l-0.3,0l0,0.3c0,0.1,0,0.1,0,0.2c0,1.4,0,2.8,0,4.1v1.7c0,0.2,0,0.4,0,0.5l0,0.3l0.3,0c0.1,0,0.3,0,0.5,0
				h21.3l-31.8,31.8l-0.7-0.5c-15.2-10.3-30-10.3-45.2,0l-0.7,0.5l-8.8-8.8l1-0.7c0.1-0.1,0.2-0.1,0.3-0.2c0.1-0.1,0.3-0.2,0.4-0.3
				c2.6-2.6,5.2-5.2,7.8-7.8c0.1-0.1,0.1-0.1,0.2-0.2l0.2-0.2l-0.2-0.2c-0.1-0.1-0.1-0.1-0.2-0.2c-1.3-1.4-2.7-2.7-4-4
				c-0.2-0.2-0.3-0.3-0.4-0.3l-0.2-0.2l-0.2,0.2c-0.1,0.1-0.2,0.2-0.3,0.3l-7.7,7.7c-0.2,0.2-0.4,0.3-0.5,0.5l-0.7,0.7l-18-18h21.2
				c0.1,0,0.2,0,0.3,0l0.3,0l0-0.3c0-0.1,0-0.2,0-0.3c0-2,0-4,0-6c0-0.1,0-0.2,0-0.2l0-0.3l-0.3,0c-0.1,0-0.1,0-0.2,0
				c-11.1,0-22.3,0-33.4,0c-0.1,0-0.2,0-0.2,0l-0.3,0l0,0.3c0,0.1,0,0.1,0,0.2c0,11.1,0,22.3,0,33.4c0,0.1,0,0.2,0,0.2l0,0.3l0.3,0
				c0.1,0,0.1,0,0.3,0c1.7,0,3.4,0,5.1,0h0.7c0.2,0,0.3,0,0.4,0l0.3,0l0-0.3c0-0.1,0-0.2,0-0.4v-21.4l18.3,18.3l-1.2,0.9
				c-0.1,0.1-0.3,0.2-0.4,0.3c-2.6,2.6-5.2,5.2-7.8,7.8l-0.3,0.4l0.2,0.2c0,0,0.1,0.1,0.1,0.1c1.4,1.4,2.9,2.9,4.3,4.3
				c0.1,0.1,0.1,0.1,0.2,0.1l0.2,0.2l0.2-0.2c0,0,0.1-0.1,0.2-0.2l7.9-7.9c0.2-0.2,0.3-0.3,0.5-0.4l0.8-0.8l8.7,8.6l-0.8,1.2
				c-6.5,8.9-8.7,19-6.5,29.8c3,14.5,15.8,26.5,30.4,28.4c1,0,1.9,0.9,1.8,1.9c0,0.1,0,0.1,0,0.2c0,3.2,0,6.4,0,9.6v3.7
				c0,0.2,0,0.4,0,0.7l-0.1,1.2h-15.2c-0.1,0-0.2,0-0.3,0l-0.3,0l0,0.3c0,0.1,0,0.1,0,0.2c0,2,0,4,0,6c0,0.1,0,0.2,0,0.3l0,0.3
				l0.3,0c0.1,0,0.2,0,0.3,0h15.4v7.6c0,2.6,0,5.1,0,7.7c0,0.1,0,0.2,0,0.3l0,0.3l0.3,0c0.1,0,0.2,0,0.3,0c0.8,0,1.7,0,2.5,0
				c1.1,0,2.2,0,3.3,0c0.2,0,0.3,0,0.4,0l0.3,0l0-0.3c0-0.1,0-0.2,0-0.4v-15.3h15.4c0.1,0,0.2,0,0.2,0l0.3,0l0-0.3
				c0-0.1,0-0.1,0-0.2c0-2,0-4,0-6c0-0.1,0-0.2,0-0.3l0-0.3l-0.3,0c-0.1,0-0.2,0-0.3,0h-15.1l-0.2-1c0-0.2-0.1-0.3-0.1-0.5v-3.9
				c0-3.4,0-6.7,0-10.1c0-1,0.5-1.6,1.7-1.8c4-0.6,7.9-1.8,11.5-3.7c14.5-7.3,22.5-24.1,19.2-39.9c-1.1-5.5-3.5-10.6-6.9-15.1
				l-0.6-0.7l31.9-31.9v21.4c0,0.1,0,0.2,0,0.3l0,0.3l0.3,0c0.1,0,0.2,0,0.3,0c2,0,4,0,6,0c0.1,0,0.2,0,0.2,0l0.3,0l0-0.3
				c0-0.1,0-0.1,0-0.2C475.2,236.1,475.2,224.9,475.2,213.8L475.2,213.8z M428.6,259.9c5.6,5.5,8.7,13,8.7,20.8
				c-0.1,16.3-13.4,29.5-29.7,29.4c-16.2-0.1-29.3-13.2-29.4-29.4c0-7.8,3.1-15.3,8.7-20.8c5.6-5.5,13.1-8.6,21-8.6
				C415.7,251.2,423.2,254.3,428.6,259.9L428.6,259.9z"/>
		</g>
	</g>
</g>
<g>
	<defs>
		<rect id="SVGID_6_" width="280" height="280"/>
	</defs>
	<clipPath id="SVGID_4_">
		<use xlink:href="#SVGID_6_"  style="overflow:visible;"/>
	</clipPath>
</g>
<g>
	<defs>
		<rect id="SVGID_3_" width="280" height="280"/>
	</defs>
	<clipPath id="SVGID_5_">
		<use xlink:href="#SVGID_3_"  style="overflow:visible;"/>
	</clipPath>
</g>
<circle class="st2" cx="140" cy="140" r="136.2"/>
</svg>
