<svg xmlns="http://www.w3.org/2000/svg" xmlns:xlink="http://www.w3.org/1999/xlink" width="280" height="280" viewBox="0 0 280 280">
  <defs>
    <clipPath id="clip-icons_packimpex_night_def_1_grey">
      <rect width="280" height="280"/>
    </clipPath>
  </defs>
  <g id="icons_packimpex_night_def_1_grey" clip-path="url(#clip-icons_packimpex_night_def_1_grey)">
    <g id="icons_packimpex_night_def_1" transform="translate(-266.722 -145.098)">
      <rect id="矩形_1" data-name="矩形 1" width="19.168" height="13.462" transform="translate(344.782 330.544)" fill="none"/>
      <rect id="矩形_2" data-name="矩形 2" width="19.168" height="13.462" transform="translate(344.782 353.25)" fill="none"/>
      <rect id="矩形_3" data-name="矩形 3" width="19.168" height="13.462" transform="translate(373.385 330.544)" fill="none"/>
      <rect id="矩形_4" data-name="矩形 4" width="19.168" height="13.462" transform="translate(373.385 353.25)" fill="none"/>
      <path id="路径_19" data-name="路径 19" d="M480.667,323.324v76.808h24.566V285.641l-72.019-57.568-15.331-12.011a11.434,11.434,0,0,0-11.149-1.66L370.149,243,315.23,287.01V400.141H419.806V323.333h60.861Zm-76.89,54.61H339.886V328.195h63.891Zm7.674-105.619a12.564,12.564,0,1,1,12.564-12.564A12.563,12.563,0,0,1,411.451,272.315Z" transform="translate(-3.55 -4.491)" fill="none"/>
      <rect id="矩形_5" data-name="矩形 5" width="42.591" height="67.537" transform="translate(425.101 328.267)" fill="none"/>
      <path id="路径_20" data-name="路径 20" d="M491.373,334.55H430.53v86.089h60.843V334.55Zm-9.425,76.972H439.357V343.984h42.591Z" transform="translate(-14.255 -15.717)" fill="#363635"/>
      <path id="路径_21" data-name="路径 21" d="M342.42,389.659h63.891V339.92H342.42Zm37.039-42.9h19.168v13.462H379.459Zm0,22.706h19.168v13.462H379.459Zm-28.6-22.706h19.168v13.462H350.857Zm0,22.706h19.168v13.462H350.857Z" transform="translate(-6.074 -16.216)" fill="#363635"/>
      <path id="路径_22" data-name="路径 22" d="M530.1,259.687,414.261,167.756a11.445,11.445,0,0,0-14.151-.064l-116.115,90.5a18.144,18.144,0,0,0,18.2,31.034V397.156a7.759,7.759,0,0,0,7.756,7.756H416.275v-9.28H311.7V282.52L366.617,238.5,403.2,209.911a11.437,11.437,0,0,1,11.149,1.66l15.331,12.011L501.7,281.15V395.641H477.117v9.28h26.316a7.758,7.758,0,0,0,7.756-7.756V287.273a16.766,16.766,0,0,0,18.687-1.143h0A16.772,16.772,0,0,0,530.1,259.687Zm-6.069,18.633h0a7.564,7.564,0,0,1-9.806.39L414.66,200.985a12.023,12.023,0,0,0-14.977.063l-97.754,76.228a7.8,7.8,0,0,1-9.081.372,7.814,7.814,0,0,1-.572-12.655L402.4,177.762a7.44,7.44,0,0,1,1.089-.708,7.6,7.6,0,0,1,8.328.753L523.627,266.78a7.6,7.6,0,0,1,.408,11.539Z" fill="#363635"/>
      <circle id="椭圆_1" data-name="椭圆 1" cx="12.564" cy="12.564" r="12.564" transform="translate(390.62 251.201) rotate(-31.714)" fill="none" stroke="#363635" stroke-miterlimit="10" stroke-width="9"/>
      <path id="路径_23" data-name="路径 23" d="M422.527,177.677a7.636,7.636,0,0,0-6.087.481A7.6,7.6,0,0,1,422.527,177.677Z" transform="translate(-12.947 -1.112)" fill="#fff"/>
    </g>
  </g>
</svg>
