<svg xmlns="http://www.w3.org/2000/svg" xmlns:xlink="http://www.w3.org/1999/xlink" width="280" height="280" viewBox="0 0 280 280">
  <defs>
    <clipPath id="clip-icons_packimpex_night_def_23_white">
      <rect width="280" height="280"/>
    </clipPath>
  </defs>
  <g id="icons_packimpex_night_def_23_white" clip-path="url(#clip-icons_packimpex_night_def_23_white)">
    <g id="icons_packimpex_night_def_23" transform="translate(-279.973 -157.851)">
      <path id="路径_8" data-name="路径 8" d="M385.31,254.55c-.76,3.71.95,6.74,4.35,7.73a11.2,11.2,0,0,1,8.05,7.74,6.009,6.009,0,0,0,7.38,4.03,11.2,11.2,0,0,1,10.84,2.79,6.689,6.689,0,0,0,4.43,1.88,6.052,6.052,0,0,0,3.99-1.61c3.9-3.4,7.55-4.51,11.15-3.4l.19.03c3.98.06,6.2-1.37,7.44-4.84a9.886,9.886,0,0,1,5.93-6.4c5.42-2.12,6.27-3.48,5.68-9.13a10.3,10.3,0,0,1,2.6-8.37c3.39-3.84,3.4-6.4.06-10.54a9.668,9.668,0,0,1-2.43-7.88c.99-6.14.27-7.44-5.5-9.93a9.645,9.645,0,0,1-5.5-5.82c-1.97-5.42-3.4-6.32-9.07-5.71a11.331,11.331,0,0,1-9.53-3.13c-3.38-3.15-6.51-3.12-10.15.08a10.306,10.306,0,0,1-9.82,2.64c-4.37-1.02-7.27.65-8.63,4.96A10.145,10.145,0,0,1,390,216.6c-4.32,1.56-5.8,4.02-5.08,8.49.62,3.86-.15,6.87-2.42,9.46-3.44,3.93-3.42,6.67.06,10.48a10.232,10.232,0,0,1,2.75,9.52Zm-1.78-19.13c2.52-2.88,3.42-6.34,2.74-10.57-.61-3.84.49-5.67,4.2-7.01a11.573,11.573,0,0,0,7.6-7.8c1.15-3.67,3.32-4.91,7.03-4.05a11.729,11.729,0,0,0,11.02-2.94c3.08-2.72,5.5-2.75,8.33-.11a12.587,12.587,0,0,0,10.59,3.49c5.04-.54,5.9,0,7.66,4.83a11.034,11.034,0,0,0,6.23,6.6c5.2,2.25,5.6,2.96,4.71,8.48-.51,3.14.38,6.06,2.71,8.95,2.91,3.6,2.91,5.49-.02,8.8a11.671,11.671,0,0,0-2.93,9.4c.52,5.04.02,5.84-4.83,7.74a11.283,11.283,0,0,0-6.71,7.21c-1.03,2.88-2.71,3.99-6.05,3.95-4.05-1.22-8.09-.01-12.34,3.7-2.04,1.78-4.46,1.69-6.64-.26a12.632,12.632,0,0,0-8.64-3.51,14.652,14.652,0,0,0-3.41.42,4.653,4.653,0,0,1-5.79-3.15,12.6,12.6,0,0,0-8.96-8.6c-2.72-.79-4.02-3.15-3.4-6.16a11.556,11.556,0,0,0-3.06-10.72c-3.03-3.32-3.03-5.27-.04-8.69Z" fill="#fff"/>
      <path id="路径_9" data-name="路径 9" d="M311.58,366.89l.08,1.57h14.08V254.08c0-5.72,1.3-7.04,6.94-7.04q9.66-.015,19.31-.01,9.36,0,18.74-.01c.74,0,1.47-.06,1.92-.09l.93-.06V233.16H319.55c-6.24,0-8.05,1.78-8.05,7.93V364.86c0,.68.04,1.35.08,2.03Zm7.97-132.38h52.68v11.1c-.41.03-.96.07-1.5.07q-9.375.015-18.74.01-9.645,0-19.31.01c-6.35,0-8.29,1.97-8.29,8.39V367.12H312.95l-.02-.3c-.04-.65-.08-1.3-.08-1.95q-.015-61.89,0-123.77c0-5.42,1.19-6.59,6.7-6.59Z" fill="#fff"/>
      <path id="路径_10" data-name="路径 10" d="M544.15,376.26l-.46-.12c-.19-.05-.33-.09-.44-.13a1.774,1.774,0,0,0-.59-.12h-5.17c-25.86-.01-52.6-.03-78.91.02a3.951,3.951,0,0,0-2.89,1.66,11.221,11.221,0,0,1-9.85,5.37c-16.6.04-34.04.04-51.83,0-4.18-.01-7.3-1.61-9.27-4.76a4.771,4.771,0,0,0-4.58-2.37q-32.85.06-65.71.04H295.74l-.05.62a16.745,16.745,0,0,0,3.59,12.09c3.89,5.03,9.36,7.48,16.72,7.48h.01q68.61-.03,137.23-.02h71.19c5.85,0,10.46-1.69,14.07-5.16,4.2-4.02,6.11-8.78,5.69-14.12l-.04-.48Zm-6.59,13.63c-3.36,3.22-7.65,4.78-13.14,4.78H453.23q-68.61,0-137.23.02h-.01c-6.92,0-12.04-2.28-15.65-6.95a15.4,15.4,0,0,1-3.35-10.54h17.46q32.85,0,65.72-.04a3.349,3.349,0,0,1,3.43,1.73c2.2,3.52,5.8,5.38,10.41,5.39,17.79.04,35.23.04,51.83,0a12.494,12.494,0,0,0,10.97-5.98,2.673,2.673,0,0,1,1.76-1.05c26.3-.05,53.04-.03,78.9-.02h5.16a1.431,1.431,0,0,1,.21.06.035.035,0,0,1,.02.01c.26,4.81-1.48,8.92-5.3,12.59Z" fill="#fff"/>
      <path id="路径_11" data-name="路径 11" d="M439.81,280.54c-2.32-.01-4.47-.01-6.62.03a5.242,5.242,0,0,0-2.65.72c-1.2.79-2.34,1.66-3.54,2.58-.48.37-.98.75-1.49,1.13l-.42.31,13.73,33.04.66-1.31c1.67-3.3,3.69-5.31,6-5.96,2.33-.65,5.12.02,8.31,1.99l.85.53.33-1.9-11.96-31.17-3.2.01Zm5.31,29.25c-2.37.67-4.44,2.48-6.16,5.39l-12.23-29.42c.37-.28.73-.55,1.08-.82,1.18-.91,2.29-1.76,3.46-2.52a3.822,3.822,0,0,1,1.94-.49c2.14-.05,4.29-.04,6.59-.03h2.29l11.27,29.37c-3.07-1.66-5.83-2.15-8.24-1.48Z" fill="#fff"/>
      <path id="路径_12" data-name="路径 12" d="M410.85,281.93a8.028,8.028,0,0,0-3.48-1.09c-2.24-.09-4.43-.08-6.95-.06-1.02.01-2.09.01-3.22.01h-.46l-12.2,31.86,1.18-.21c1.01-.18,2-.45,2.96-.71,2.01-.54,3.91-1.05,5.46-.64,1.63.43,3.08,1.8,4.62,3.25.71.67,1.44,1.36,2.22,1.97l.7.56,13.25-31.94-.42-.31c-.42-.32-.81-.63-1.18-.93a18.529,18.529,0,0,0-2.48-1.76Zm-9.74,32.74c-.49-.43-.97-.88-1.44-1.32-1.6-1.5-3.24-3.05-5.2-3.57a6.08,6.08,0,0,0-1.59-.2,18.161,18.161,0,0,0-4.56.84c-.54.15-1.1.29-1.65.43l10.99-28.71c.96,0,1.88-.01,2.76-.01,2.51-.02,4.69-.03,6.89.06a6.823,6.823,0,0,1,2.88.92,16.506,16.506,0,0,1,2.27,1.63c.26.21.52.42.8.63l-12.15,29.3Z" fill="#fff"/>
      <path id="路径_13" data-name="路径 13" d="M552.94,372.59c-1.36-3.88-4.15-5.63-8.59-5.33-1.72.11-3.48.09-5.34.06-.69-.01-1.39-.02-2.12-.02V333.4q0-46.515-.01-93.04c0-7.59-3.95-13.21-10.56-15.02a20.248,20.248,0,0,0-5.35-.52q-21.255-.045-42.51-.02H464.21c-.06-.47-.1-.92-.15-1.37a20.729,20.729,0,0,0-.66-4.01,15.517,15.517,0,0,0-9.19-10.02,5.454,5.454,0,0,1-2.64-2.68,15.281,15.281,0,0,0-17.01-10.12,5.223,5.223,0,0,1-3.62-1.04c-6.54-5.58-14.15-5.68-20.88-.27a5.376,5.376,0,0,1-3.64.95c-8.47-1.13-14.54,2.47-17.54,10.41a3.507,3.507,0,0,1-1.65,1.87c-7.42,2.68-11.12,8.06-11.02,15.96a2.037,2.037,0,0,1-.1.3c0,.01-.01.02-.01.03h-2.73q-7.995,0-15.98.04c-12.57.05-25.56.1-38.34-.14A15.709,15.709,0,0,0,307.49,229a16.543,16.543,0,0,0-4.64,12.02c.14,30.18.11,60.86.1,90.54q-.015,16.2-.01,32.41v3.34h-8.15c-5.33.02-7.74,2.38-7.8,7.64-.19,15.51,7.7,25.54,22.84,29.03a.9.9,0,0,1,.27.16c.09.06.18.12.27.17l.15.09H529.21l.09-.03c.49-.14.99-.26,1.48-.39a32.583,32.583,0,0,0,3.26-.95c10.51-3.85,16.7-11.23,18.4-21.94a3.9,3.9,0,0,1,.29-.9c.07-.17.13-.34.19-.52l.04-6.83-.02-.25ZM467.61,234.51h53.34c4.69,0,6.05,1.37,6.05,6.12q.015,62.295,0,124.59c0,.52-.04,1.04-.08,1.61-.01.09-.01.19-.02.29H515.47V253.73c0-6.01-2.04-8.04-8.08-8.05q-13.215-.015-26.44-.01H467.61V234.51Zm-84.59.47a11.521,11.521,0,0,0,2.58-10.02c-.67-4.16.59-6.29,4.64-7.75a10.875,10.875,0,0,0,7.18-7.37c1.26-3.99,3.78-5.45,7.83-4.5a11.019,11.019,0,0,0,10.42-2.79c3.3-2.91,6.09-3.04,9.24-.1a11.933,11.933,0,0,0,10.06,3.31c5.41-.59,6.53.22,8.36,5.27a10.349,10.349,0,0,0,5.87,6.21c5.52,2.38,6.04,3.4,5.1,9.21a10.329,10.329,0,0,0,2.57,8.41c3.11,3.84,3.14,6.07-.04,9.67a11,11,0,0,0-2.77,8.88c.55,5.36-.13,6.43-5.26,8.44a10.609,10.609,0,0,0-6.32,6.8c-1.14,3.18-3.1,4.47-6.79,4.4-4.25-1.32-8.14.35-11.79,3.53-2.37,2.06-5.15,1.86-7.53-.26a11.955,11.955,0,0,0-11.45-2.94,5.323,5.323,0,0,1-6.59-3.59,11.887,11.887,0,0,0-8.5-8.17c-3.13-.91-4.55-3.66-3.88-6.94a10.907,10.907,0,0,0-2.9-10.13c-3.23-3.56-3.26-5.88-.03-9.57Zm71.25,76.8c-.04.24-.08.49-.13.73-6.45-4.01-11.59-3.05-15.27,4.23-4.53-10.91-8.76-21.08-12.97-31.2,1.77-1.32,3.32-2.59,4.99-3.69a4.611,4.611,0,0,1,2.29-.61c2.98-.07,5.95-.03,9.35-.03,3.8,9.86,7.77,20.22,11.74,30.57Zm-40.19-26.63c-4.23,10.2-8.49,20.47-12.7,30.63-2.44-1.95-4.49-4.66-7.08-5.35-2.51-.66-5.57.77-8.71,1.34,3.93-10.26,7.89-20.62,11.6-30.31,3.85,0,7-.08,10.14.05a7.466,7.466,0,0,1,3.18,1.01,30.146,30.146,0,0,1,3.57,2.63Zm-37.47-29.53c.05.38.1.75.14,1.12a24.6,24.6,0,0,0,.63,3.6,14.21,14.21,0,0,0,9.29,9.9c1.69.62,2.67,1.34,3.1,2.27s.31,2.16-.32,3.8l-5.22,13.59q-4.53,11.8-9.05,23.61a7.616,7.616,0,0,0,.2,6.63,6.222,6.222,0,0,0,4.61,2.91,8.329,8.329,0,0,0,4.91-.92c5.26-2.93,8.54-2.19,11.7,2.68a5.782,5.782,0,0,0,5.49,2.76,7.686,7.686,0,0,0,6.24-4.89c2.4-5.67,4.75-11.36,7.1-17.05l3.45-8.34c.29-.7.6-1.39.97-2.2l.05-.12c.22.42.4.78.55,1.15q2.445,5.88,4.88,11.76,2.88,6.945,5.77,13.88c1.35,3.24,3.45,5.23,5.91,5.61s5.03-.88,7.28-3.53c3.55-4.2,3.55-4.19,8.73-2.29l1.1.4c.66.24,1.33.48,1.98.73a6.561,6.561,0,0,0,7.53-1.64c1.88-1.95,2.23-4.36,1.08-7.37q-1.935-5.055-3.86-10.12c-3.26-8.55-6.63-17.4-10.08-26.04a6.2,6.2,0,0,1,.31-5.85,3.34,3.34,0,0,1,1.53-1.45c6.79-2.41,10.49-7.33,11.01-14.64h42.06V367.28H491.59q-18.135,0-36.26.01c-4.5,0-5.63.89-6.74,5.24-.35,1.38-1.11,1.9-2.78,1.9h-.03q-6.3-.015-12.61-.01h-5.04l-9.18-.01q-12.09-.015-24.19.03h-.08c-2.4,0-3.28-.69-3.6-2.79-.58-3.84-3.43-4.36-6.15-4.37q-11.4-.015-22.79-.01H334.19V255.62Zm-57.06-21.79H372.9v12.4c-.3.02-1.23.12-2.17.12q-19.02.015-38.05.01c-6,.01-7.61,1.66-7.61,7.72V367.79H312.31c-.04-.98-.13-1.95-.13-2.92q-.015-61.89,0-123.77c-.01-5.82,1.47-7.27,7.37-7.27ZM538.03,390.38c-3.78,3.63-8.46,4.97-13.61,4.97H492.44q-88.215,0-176.43.02c-6.52,0-12.11-1.92-16.2-7.22a16.052,16.052,0,0,1-3.45-11.62h3.03q40.38,0,80.77-.03a4.025,4.025,0,0,1,4,2.05c2.22,3.54,5.74,5.06,9.84,5.07q25.92.06,51.83,0a11.854,11.854,0,0,0,10.41-5.67,3.355,3.355,0,0,1,2.32-1.36q42.045-.09,84.08-.01a5.723,5.723,0,0,1,.86.22c.43,5.39-1.6,9.86-5.47,13.58Z" fill="#fff"/>
      <path id="路径_14" data-name="路径 14" d="M419.4,241.79c-2.49-3.15-4.74-6.03-7.03-8.87-1.98-2.46-4.38-2.88-6.42-1.2-1.88,1.55-2,4.03-.19,6.36q4.89,6.3,9.85,12.54c2.6,3.26,5.37,3.24,7.85-.12q6.51-8.865,12.89-17.82c1.84-2.57,1.67-5.08-.33-6.57-2.17-1.61-4.5-1.02-6.52,1.74-3.31,4.52-6.57,9.06-10.1,13.94Z" fill="#fff"/>
      <path id="路径_15" data-name="路径 15" d="M419.53,253.72c-1.54,0-3.04-.9-4.45-2.68-3.21-4.03-6.52-8.25-9.86-12.55-2-2.58-1.88-5.51.3-7.3a4.665,4.665,0,0,1,3.45-1.14,5.976,5.976,0,0,1,3.93,2.44c1.58,1.96,3.14,3.94,4.77,6.01l1.71,2.17,2.53-3.5c2.4-3.32,4.71-6.52,7.04-9.7a6.316,6.316,0,0,1,4.02-2.85,4.538,4.538,0,0,1,3.45.97c2.32,1.72,2.51,4.67.48,7.5-4.3,6-8.53,11.88-12.9,17.82-1.35,1.84-2.83,2.79-4.39,2.82a.22.22,0,0,0-.08-.01Zm-10.99-22.34a3.382,3.382,0,0,0-2.16.86c-1.62,1.33-1.65,3.41-.08,5.43,3.33,4.29,6.64,8.51,9.85,12.53,1.16,1.46,2.34,2.17,3.45,2.17,1.12-.02,2.24-.78,3.33-2.27,4.36-5.94,8.59-11.81,12.89-17.81,1.61-2.25,1.54-4.35-.18-5.63a3.243,3.243,0,0,0-2.44-.72,5.145,5.145,0,0,0-3.13,2.32c-2.33,3.18-4.64,6.38-7.04,9.7l-3.58,4.95-2.82-3.57c-1.63-2.07-3.18-4.04-4.76-6a4.679,4.679,0,0,0-3.01-1.94c-.13-.01-.23-.02-.32-.02Z" fill="#fff"/>
      <path id="路径_16" data-name="路径 16" d="M325.73,368.46H311.65l-.08-1.57c-.04-.68-.08-1.35-.08-2.03q-.015-61.89,0-123.77c0-6.15,1.81-7.93,8.05-7.93h54.03v13.71l-.93.06c-.44.04-1.18.09-1.92.09q-9.375.015-18.74.01-9.645,0-19.31.01c-5.64,0-6.94,1.32-6.94,7.04V368.46Zm-12.79-1.35h11.44V254.08c0-6.43,1.94-8.39,8.29-8.39q9.66-.015,19.31-.01,9.375,0,18.74-.01c.54,0,1.09-.03,1.5-.07V234.5H319.54c-5.51,0-6.7,1.17-6.7,6.58V364.85c0,.65.04,1.3.08,1.95l.02.31Z" fill="#fff"/>
      <path id="路径_17" data-name="路径 17" d="M419.4,241.79c3.54-4.88,6.8-9.42,10.1-13.93,2.02-2.76,4.35-3.35,6.52-1.74,2.01,1.48,2.17,4,.33,6.57q-6.4,8.94-12.89,17.82c-2.47,3.36-5.25,3.38-7.85.12q-4.965-6.24-9.85-12.54c-1.81-2.33-1.69-4.81.19-6.36,2.05-1.68,4.44-1.26,6.42,1.2,2.29,2.83,4.53,5.71,7.03,8.86Z" fill="#fff"/>
      <path id="路径_18" data-name="路径 18" d="M419.53,253.72c-1.54,0-3.04-.9-4.45-2.68-3.21-4.03-6.52-8.25-9.86-12.55-2-2.58-1.88-5.51.3-7.3a4.665,4.665,0,0,1,3.45-1.14,5.976,5.976,0,0,1,3.93,2.44c1.58,1.96,3.14,3.94,4.77,6.01l1.71,2.17,2.53-3.5c2.4-3.32,4.71-6.52,7.04-9.7a6.316,6.316,0,0,1,4.02-2.85,4.538,4.538,0,0,1,3.45.97c2.32,1.72,2.51,4.67.48,7.5-4.3,6-8.53,11.88-12.9,17.82-1.35,1.84-2.83,2.79-4.39,2.82a.22.22,0,0,0-.08-.01Zm-10.99-22.34a3.382,3.382,0,0,0-2.16.86c-1.62,1.33-1.65,3.41-.08,5.43,3.33,4.29,6.64,8.51,9.85,12.53,1.16,1.46,2.34,2.17,3.45,2.17,1.12-.02,2.24-.78,3.33-2.27,4.36-5.94,8.59-11.81,12.89-17.81,1.61-2.25,1.54-4.35-.18-5.63a3.243,3.243,0,0,0-2.44-.72,5.145,5.145,0,0,0-3.13,2.32c-2.33,3.18-4.64,6.38-7.04,9.7l-3.58,4.95-2.82-3.57c-1.63-2.07-3.18-4.04-4.76-6a4.679,4.679,0,0,0-3.01-1.94c-.13-.01-.23-.02-.32-.02Z" fill="#fff"/>
    </g>
  </g>
</svg>
