<?xml version="1.0" encoding="utf-8"?>
<!-- Generator: Adobe Illustrator 24.0.0, SVG Export Plug-In . SVG Version: 6.00 Build 0)  -->
<svg version="1.1" id="图层_1" xmlns="http://www.w3.org/2000/svg" xmlns:xlink="http://www.w3.org/1999/xlink" x="0px" y="0px"
	 viewBox="0 0 280 280" style="enable-background:new 0 0 280 280;" xml:space="preserve">
<style type="text/css">
	.st0{fill:none;}
	.st1{fill:none;stroke:#AAB926;stroke-width:6.1095;stroke-miterlimit:10;}
	.st2{fill:#AAB926;}
</style>
<rect x="56.1" y="56.1" class="st0" width="167.8" height="167.8"/>
<circle class="st1" cx="140" cy="140" r="136.2"/>
<g>
	<path class="st2" d="M102.4,214.5c-2.7-0.6-5.4-0.9-8-1.8c-15.6-5.2-25.4-15.8-28.3-32.1c-3.9-21.4,9.6-41.6,30.8-46.8
		c8-1.9,16-1.4,23.7,1.5c1.2,0.4,1.9,0.6,2.4-0.8c0.3-0.6,0.8-1.2,1.3-1.8c-2.2-2.8-3.6-5.9-3.6-9.6c0-3.7,1.3-6.8,3.6-9.7
		c-2.3-2.9-3.7-6.1-3.6-9.8c0.1-3.8,1.5-7.1,4-9.9c0.4-0.5,0.7-1.2,0.7-1.8c0.2-8.9,5.3-15.8,13.7-18.6c0.6-0.2,1.1-0.6,1.5-1.1
		c5.5-7.2,14.6-9,22.5-4.5c0.4,0.2,1.2,0.2,1.7,0c7.8-4.5,16.9-2.6,22.4,4.5c0.4,0.5,1,1,1.6,1.2c8.2,2.6,13.5,9.8,13.6,18.3
		c0,0.7,0.3,1.5,0.7,2c5.1,5.5,5.5,13.2,0.9,19.2c-0.1,0.2-0.2,0.3-0.4,0.6c2.3,2.8,3.6,5.9,3.6,9.6c0,3.6-1.2,6.7-3.6,9.6
		c2,2.4,3.3,5.1,3.6,8.2c0.3,3.1-0.3,6-1.9,8.7c0.3,0.3,0.5,0.5,0.8,0.7c4.4,3.2,7.1,7.5,8.1,12.9c0,0.2,0.2,0.3,0.3,0.5
		c0,12.4,0,24.8,0,37.3c-0.8,1.2-1.9,1.5-3.3,1.5c-24.8,0-49.6,0-74.4,0c-1.1,0-1.8,0.3-2.6,1c-4.9,4.6-10.6,7.8-17.1,9.5
		c-2.3,0.6-4.6,1-6.8,1.5C107.7,214.5,105.1,214.5,102.4,214.5L102.4,214.5z M185.4,118.5c-0.1,0.1-0.3,0.7-0.4,1
		c-1.1,3.6-3.1,5.5-5.7,9.3c-3.2,2.3-3.6,5.1-3.3,8.5c0.1,0.9,0.3,1.2,1.1,1.5c2.4,0.9,4.8,1.8,7.2,2.7c5.5,2.1,11,4.1,16.6,6.2
		c0.2-0.3,0.4-0.5,0.5-0.8c2.1-3.9,1.2-8.6-2.3-11.7c-1.8-1.6-1.9-3-0.2-4.4c4.9-3.9,4.9-11.2,0-15.1c-1.6-1.2-1.5-2.7,0-4.1
		c5-4.7,5-10.6-0.1-15.2c-0.6-0.6-1.2-1.7-1.1-2.6c0.7-7.6-3.6-13.8-10.9-15.7c-1.3-0.3-2.2-1-2.9-2.1c-3.9-6-11.8-7.3-17.4-3
		c-2,1.5-2.6,1.5-4.6-0.1c-5.5-4.2-13.3-3-17.2,2.7c-0.9,1.4-2,2.1-3.6,2.6c-7,1.9-11.1,8.5-10.4,15.1c0.1,1.4-0.2,2.4-1.3,3.3
		c-4.9,4.2-4.9,10.6-0.1,14.9c1.7,1.5,1.7,2.9,0,4.4c-4.7,4.3-4.8,10.6,0,14.8c1.8,1.6,1.7,2.8,0,4.5c-0.9,0.9-1.7,1.9-2.4,2.8
		c2.8,2.3,5.4,4.4,8.1,6.4c0.3,0.2,0.9,0.2,1.3,0c5-1.8,9.9-3.7,14.9-5.5c0.7-0.3,1.1-0.6,1.1-1.5c-0.1-1.5,0-3.1-0.1-4.7
		c0-0.5-0.3-1.2-0.7-1.5c-4.1-3-8.5-13.8-8.9-13.9l-2.4-16.6c0.4-0.2-0.1-1.5,0-1.9c0.4-1.4,1.3-2,2.7-2.1c2.4-0.1,4.8,0,7.2-0.5
		c5.5-1.1,9.4-4.5,11.7-9.6c0.8-1.7,2.1-2.5,3.4-1.7c0.7,0.4,1.2,1.2,1.6,1.9c2.4,5,6.2,8.3,11.7,9.4c2.3,0.5,4.8,0.4,7.2,0.5
		c1.3,0,2.3,0.5,2.6,1.8c0.2,0.9,0.2,0.9,0,2.4L185.4,118.5L185.4,118.5z M142.4,173.6c0-19.8-16.3-36.1-36.1-36
		c-19.7,0-35.9,16.2-36,35.9c-0.1,19.9,16.2,36.2,36.2,36.2C126.2,209.7,142.4,193.4,142.4,173.6L142.4,173.6z M145.2,101.7
		c0.8,5.1,1.4,10.2,2.3,15.2c1.4,7.6,8.1,13.1,16,13.5c7.4,0.3,14.6-4.9,16.7-12.1c0.6-2,0.8-4,1.1-6c0.5-3.5,1-7,1.5-10.6
		c-7.9,0.2-14.1-3-18.8-9.2C158.3,99.2,155.1,100.7,145.2,101.7L145.2,101.7z M188.1,168.9c0,2.9,0.1,5.7,0,8.5
		c0,1.1-0.3,2.3-0.8,3.2c-2.8,5.2-5.7,10.3-8.5,15.5c-0.3,0.5-0.5,0.9-0.8,1.5c10.7,0,21.2,0,31.7,0c0.1-0.2,0.1-0.3,0.1-0.4
		c0-10.4,0.1-20.8-0.1-31.2c-0.1-5.5-2.8-9.9-7.7-12.5c-2.8-1.5-5.9-2.4-9.1-3.7c0.3,2,0.5,3.7,0.8,5.4c0.5,3.5,1.1,7,1.6,10.5
		c0.3,2.1-0.7,3.2-2.9,3.2C191,168.9,189.7,168.9,188.1,168.9L188.1,168.9z M149.7,144.4c1.3,5,2.6,9.9,3.8,14.8c7,0,13.9,0,21,0
		c1.3-4.9,2.5-9.9,3.8-14.8c-1.9-0.7-3.5-1.4-5.1-1.9c-1.4-0.5-2-1.3-2-2.8c0.1-1.8,0-3.7,0-5.6c-4.9,1.7-9.6,1.6-14.4,0
		c0,2,0,3.8,0,5.6c0,1.5-0.6,2.3-1.9,2.8C153.2,143,151.6,143.7,149.7,144.4L149.7,144.4z M183,146.1c-4.5,17.2-8.9,34.3-13.3,51.4
		c1.9,0.5,2.8-0.1,3.6-1.6c3-5.7,6.3-11.4,9.4-17.1c0.4-0.7,0.6-1.5,0.6-2.3c0.1-3.3,0-6.6,0-9.9c0-1.7,0.9-2.6,2.6-2.6
		c1.3,0,2.7,0,4,0c0-0.3,0.1-0.5,0-0.6c-0.7-4.9-1.5-9.9-2.3-14.8c-0.1-0.4-0.4-0.8-0.7-1C185.7,147.1,184.4,146.7,183,146.1
		L183,146.1z M154.9,164.1c0.1,0.4,0.1,0.8,0.1,1.1c2.7,10.4,5.4,20.9,8.1,31.3c0.1,0.4,0.5,0.8,0.8,1.2c0.3-0.4,0.7-0.8,0.9-1.3
		c2.7-10.3,5.4-20.7,8-31c0.1-0.4,0.1-0.8,0.2-1.3C167,164.1,161,164.1,154.9,164.1L154.9,164.1z M138.6,148.5
		c0.3,0.4,0.4,0.7,0.6,0.9c6.3,8.6,8.9,18.2,7.7,28.8c-0.2,1.4-0.5,2.7,0.4,4.2c2.7,4.5,5.1,9,7.6,13.6c1.1,2,1.1,2,3.5,1.5
		c-4.4-17.1-8.9-34.1-13.3-51.4C142.9,146.9,140.9,147.7,138.6,148.5L138.6,148.5z M144.9,188c-1.7,3.3-3.4,6.4-5.1,9.6
		c3.4,0,6.9,0,10.5,0C148.4,194.3,146.6,191.1,144.9,188L144.9,188z"/>
	<path class="st2" d="M125.6,173.7c0,7.1,0,14.2,0,21.3c0,4.4-3,7.5-7.4,7.5c-7.9,0-15.8,0-23.7,0c-4.2,0-7.3-3.1-7.3-7.3
		c0-14.4,0-28.7,0-43.1c0-4.2,3.1-7.3,7.3-7.3c8,0,15.9,0,23.9,0c4.2,0,7.3,3.1,7.3,7.3C125.6,159.3,125.6,166.5,125.6,173.7
		L125.6,173.7z M101.5,149.6c-2.1,0-4.1,0-6.1,0c-2.6,0-3.4,0.8-3.4,3.4c0,13.8,0,27.5,0,41.3c0,2.6,0.8,3.4,3.4,3.4
		c7.3,0,14.5,0,21.8,0c2.9,0,3.7-0.7,3.7-3.6c0-13.6,0-27.2,0-40.8c0-0.4,0-0.8,0-1.2c-0.1-1.4-1-2.4-2.4-2.4c-2.3-0.1-4.7,0-7,0
		c-0.7,3.3-2.5,4.9-5.2,4.8C103.7,154.3,101.9,152.6,101.5,149.6L101.5,149.6z"/>
	<path class="st2" d="M101.6,188.1c3.2,0,6.2,0,9.4,0c0,1.5,0,3,0,4.7c-3.1,0-6.2,0-9.4,0C101.6,191.3,101.6,189.8,101.6,188.1
		L101.6,188.1z"/>
</g>
</svg>
