<?xml version="1.0" encoding="utf-8"?>
<!-- Generator: Adobe Illustrator 24.0.0, SVG Export Plug-In . SVG Version: 6.00 Build 0)  -->
<svg version="1.1" id="图层_1" xmlns="http://www.w3.org/2000/svg" xmlns:xlink="http://www.w3.org/1999/xlink" x="0px" y="0px"
	 viewBox="0 0 280 280" style="enable-background:new 0 0 280 280;" xml:space="preserve">
<style type="text/css">
	.st0{clip-path:url(#SVGID_2_);}
	.st1{fill:#AAB926;}
	.st2{fill:none;stroke:#AAB926;stroke-width:6.1095;stroke-miterlimit:10;}
</style>
<g>
	<defs>
		<rect id="SVGID_1_" width="280" height="280"/>
	</defs>
	<clipPath id="SVGID_2_">
		<use xlink:href="#SVGID_1_"  style="overflow:visible;"/>
	</clipPath>
	<g id="icons_packimpex_night_def_27" class="st0">
		<g id="icons_packimpex_night_def_27-2" transform="translate(-284.658 -163.112)">
			<path id="路径_1" class="st1" d="M485.6,247.8c-13.4-0.1-26.3-2.5-38.4-8.2c-7.4-3.5-13.9-8.1-18.9-14.6
				c-0.7-0.7-1.5-1.4-2.3-1.9h-2.6c-0.8,0.6-1.6,1.2-2.3,1.9c-5.3,6.7-12.1,11.5-19.9,15c-12,5.5-24.8,7.7-37.9,7.9
				c-3.6,0-5.1,1.6-5.1,5.2c0,8.3,0,16.6,0,24.9v6.2c0,7.4,0,14.9,0.1,22.3c0,4.4,0.4,8.9,1,13.2c0.3,2.4,0.8,4.8,1.3,7.1
				c0.5,2.1,1,4.2,1.7,6.2c3.7,11.6,10,22.1,18.5,30.8c11.5,12,25.4,19.9,41.2,24.9c1.8,0.6,3.7,0.7,5.5,0.1
				c14.1-4.4,26.9-11.3,37.8-21.3c10.6-9.8,18-21.3,22.2-34.5c0.6-2,1.2-4.1,1.7-6.2c0.6-2.4,1-4.9,1.4-7.4c0.4-2.6,0.7-5.1,1-7.7
				V251C490.1,248.6,488.2,247.9,485.6,247.8L485.6,247.8z M367.5,319.1c-0.6-4.8-1-9.7-1-14.5c-0.1-6.8-0.1-13.7-0.1-20.5h28.8
				c-9.2,12.7-9.2,29.9,0,42.7h-26.3C368.4,324.3,367.9,321.7,367.5,319.1L367.5,319.1z M394.6,305.5c0-16.8,13.6-30.4,30.4-30.4
				c16.8,0,30.4,13.6,30.4,30.4c0,16.8-13.6,30.4-30.4,30.4c0,0,0,0,0,0C408.2,335.9,394.6,322.3,394.6,305.5z M452.8,366.7
				c-8,6-17,10.6-26.5,13.6c-1.1,0.3-2.2,0.3-3.2,0c-16.8-5.4-31-14.6-41.8-28.7c-4.4-5.6-7.8-11.9-10.2-18.6h30
				c13.8,12.1,34.4,12.1,48.2,0h29.2C473.6,346.1,465.1,357.3,452.8,366.7L452.8,366.7z M482.7,307.6c-0.1,6.5-0.9,12.9-2.5,19.2
				h-25.5c9.2-12.7,9.2-29.9,0-42.7h28.1C482.9,292,482.8,299.8,482.7,307.6L482.7,307.6z M449.1,277.9c-13.8-12.1-34.4-12.1-48.2,0
				h-34.4c0-6.5,0-13.1,0-19.6v-2c21.9-1.3,42-6.5,58.1-22.5c16,15.9,36.2,21.1,58.1,22.5c0,0.5,0.1,1,0.1,1.4
				c0,6.7,0,13.4,0.1,20.2L449.1,277.9L449.1,277.9z"/>
			<path id="路径_2" class="st1" d="M439.9,302.5c0.6-0.5,0.9-1.4,0.6-2.1c-0.2-0.7-0.9-1.3-1.7-1.3c-2.5-0.4-5.1-0.8-7.6-1.2
				c-0.4,0-0.8-0.3-0.9-0.7c-1.1-2.3-2.2-4.7-3.3-7c-0.3-0.9-1.1-1.5-2-1.5c-0.9,0-1.7,0.6-2,1.5c-1.1,2.3-2.2,4.7-3.3,7
				c-0.1,0.4-0.5,0.7-0.9,0.7c-2.5,0.3-4.9,0.8-7.4,1.1c-0.9,0-1.6,0.6-1.9,1.4c-0.2,0.8,0,1.7,0.7,2.2c1.8,1.9,3.6,3.7,5.5,5.6
				c0.2,0.2,0.3,0.6,0.3,0.9c0,0.7-0.2,1.4-0.3,2.1c-0.3,2.1-0.7,4.3-1,6.2c-0.1,1,0.2,1.7,0.8,2.1c0.7,0.4,1.5,0.4,2.2,0
				c2.3-1.2,4.5-2.5,6.8-3.7c0.4-0.2,0.8-0.2,1.2,0c2.2,1.2,4.4,2.4,6.6,3.6c0.7,0.5,1.6,0.5,2.4,0.1c0.7-0.5,1-1.4,0.8-2.2
				c-0.4-2.6-0.9-5.2-1.3-7.8c-0.1-0.5,0-1,0.4-1.3C436.3,306.2,438.1,304.3,439.9,302.5L439.9,302.5z M431,305.9
				c-0.9,0.7-1.3,2-1,3.1c0.4,1.6,0.5,3.3,0.8,5.1c-1.6-0.9-3.1-1.7-4.6-2.5c-0.8-0.5-1.7-0.5-2.5,0c-1.5,0.8-2.9,1.6-4.6,2.5
				c0.2-1.3,0.4-2.4,0.6-3.6c0.1-0.7,0.3-1.4,0.4-2.2c0.1-0.7-0.1-1.5-0.7-2c-1.3-1.3-2.6-2.6-4-4.1c1.3-0.2,2.4-0.4,3.5-0.6
				c0.5-0.1,0.9-0.1,1.4-0.2c1.1,0,2.1-0.8,2.4-1.8c0.6-1.5,1.4-2.9,2.1-4.5c0.2,0.3,0.3,0.5,0.4,0.7c0.7,1.4,1.3,2.8,2,4.2
				c0.3,0.7,1,1.3,1.8,1.3c1.6,0.2,3.2,0.5,4.8,0.7c0.2,0,0.3,0.1,0.6,0.1C433.3,303.6,432.2,304.8,431,305.9L431,305.9z"/>
		</g>
	</g>
</g>
<g>
	<defs>
		<rect id="SVGID_3_" width="280" height="280"/>
	</defs>
	<clipPath id="SVGID_4_">
		<use xlink:href="#SVGID_3_"  style="overflow:visible;"/>
	</clipPath>
</g>
<circle class="st2" cx="140" cy="140" r="136.2"/>
</svg>
