<?xml version="1.0" encoding="utf-8"?>
<!-- Generator: Adobe Illustrator 24.0.0, SVG Export Plug-In . SVG Version: 6.00 Build 0)  -->
<svg version="1.1" id="图层_1" xmlns="http://www.w3.org/2000/svg" xmlns:xlink="http://www.w3.org/1999/xlink" x="0px" y="0px"
	 viewBox="0 0 200 131.3" style="enable-background:new 0 0 200 131.3;" xml:space="preserve">
<style type="text/css">
	.st0{fill:#FFFFFF;}
	.st1{fill:#57A863;}
	.st2{fill:#009246;}
	.st3{fill:#CE2B37;}
</style>
<path class="st0" d="M18.1,0h163.5C191.9,0,200,8.1,200,17.8v95.6c0,10-8.1,17.8-18.1,17.8H18.1c-10,0-18.1-8.1-18.1-17.8V17.8
	C0,8.1,8.1,0,18.1,0z"/>
<path class="st1" d="M200,16.6v96.9V17.8V16.6z"/>
<path class="st2" d="M18.1,131.3h48.4V0H18.1C8.1,0,0,8.1,0,17.8v96C0,123.5,8.1,131.6,18.1,131.3z"/>
<path class="st3" d="M181.9,131.3h-48.4V0h48.4c10,0,18.1,8.1,18.1,17.8v96C200,123.5,191.9,131.6,181.9,131.3z"/>
</svg>
