<?xml version="1.0" standalone="no"?><!DOCTYPE svg PUBLIC "-//W3C//DTD SVG 1.1//EN" "http://www.w3.org/Graphics/SVG/1.1/DTD/svg11.dtd"><svg class="icon" width="200px" height="200.00px" viewBox="0 0 1024 1024" version="1.1" xmlns="http://www.w3.org/2000/svg"><path fill="#333333" d="M249 731.1h-20V276.3l101.4-40.8 7.4 18.6-88.8 35.7z"  /><path fill="#333333" d="M184.3 744.1h-20V405l71.4-25.2 6.7 18.9-58.1 20.5zM665.8 741l-171-11.6-170.7 6V147.3l170.8-49.4 170.8 49.4V741z m-170.7-31.6l150.7 10.3V162.3L495 118.7l-150.8 43.6v552.4l150.9-5.3z"  /><path fill="#333333" d="M760.3 738.5h-20l0.1-448.8-89.4-35.6 7.4-18.6 102 40.7z"  /><path fill="#333333" d="M824.5 751.7l-20-0.1 0.6-332.6-58.1-20.5 6.7-18.8 71.4 25.2zM368.244 200.83l87.77-27.906 6.06 19.06-87.77 27.907zM366.951 273.315l87.771-27.906 6.06 19.06-87.77 27.906zM368.233 345.733l87.771-27.906 6.06 19.06-87.77 27.906zM368.243 418.232l87.771-27.906 6.06 19.06-87.77 27.906zM368.253 490.731l87.771-27.906 6.06 19.06-87.77 27.906zM366.936 563.112l87.772-27.906 6.06 19.06-87.772 27.906zM270.242 322.742l59.873-18.61 5.936 19.098-59.873 18.61zM268.928 400.326l59.872-18.61 5.936 19.099-59.872 18.61zM270.247 478.034l59.872-18.609 5.936 19.098-59.872 18.61zM270.24 555.626l59.873-18.609 5.936 19.098-59.872 18.61zM268.957 633.306l59.872-18.61 5.936 19.099-59.872 18.61zM653.038 323.23l5.936-19.098 59.872 18.61-5.936 19.097zM654.418 400.94l5.936-19.097 59.872 18.61-5.936 19.097zM653.035 478.53l5.936-19.097 59.872 18.61-5.936 19.097zM653.081 556.196l5.936-19.098 59.873 18.61-5.936 19.097zM654.366 633.877l5.936-19.098 59.872 18.61-5.936 19.098zM366.947 635.61l87.772-27.906 6.06 19.06-87.771 27.907zM484.9 108.2h20v611.1h-20z"  /><path fill="#333333" d="M958 797.7c-135.1-33.3-266-54.2-389-62.1-98.4-6.3-192-4.4-278.3 5.7-76.7 9-133.3 23-167.2 33.1-36.8 11-55.6 19.9-55.8 20l-8.7-18c3.1-1.5 78.4-37 228-54.8 87.5-10.4 182.5-12.4 282.2-6.1 124.5 7.9 256.9 29 393.5 62.7l-4.7 19.5z"  /><path fill="#333333" d="M337.7 978.9l-6.4-18.9c18.5-6.3 38.2-22.8 52.6-44.1 15.6-23.1 23.7-49.2 22.8-73.3-0.9-22.3-9.3-41.9-24.9-58.5-18.6-19.7-47.1-34.5-84.7-44.1l4.9-19.4c41.3 10.5 73 27.2 94.3 49.7 18.8 19.9 29.3 44.6 30.4 71.5 1.1 28.4-8.2 58.7-26.2 85.3-17.1 25.2-39.9 44.1-62.8 51.8zM602.4 974.1l-17.7-9.4c9.3-17.4 21.8-70.5 1.5-123.3-19.1-49.6-61.8-86.7-126.8-110.3l6.8-18.8c37.6 13.6 68.8 31.9 92.7 54.4 20.7 19.5 36.2 42.2 46 67.5 24.6 64.1 6 124-2.5 139.9zM505.7 983.8l-17.7-9.4c1.5-2.8 6.8-13.4 11.5-31.1l19.3 5.2c-3.5 13.3-8.4 26.5-13.1 35.3zM523.6 926.1l-19.7-3.2c1.9-12 2.8-23.9 2.5-35.4l20-0.5c0.3 12.8-0.6 25.9-2.8 39.1z"  /><path fill="#333333" d="M504.4 865.3c-1.9-11.7-5.1-22.9-9.5-33.4l18.4-7.7c5 12 8.6 24.7 10.8 38l-19.7 3.1zM484.8 812.3c-6-9.6-13.2-18.8-21.6-27.1l14.1-14.2c9.5 9.4 17.7 19.8 24.5 30.8l-17 10.5zM444.6 769.1c-17.5-13.1-44.8-27.3-69.4-36.2l6.8-18.8c26.4 9.5 55.6 24.9 74.6 39l-12 16zM528.63 191.931l6.06-19.06 87.772 27.907-6.06 19.06zM529.992 264.457l6.06-19.06 87.771 27.906-6.06 19.06zM528.69 336.893l6.06-19.06 87.77 27.907-6.06 19.06zM528.62 409.34l6.06-19.06 87.772 27.907-6.06 19.06zM528.65 481.823l6.06-19.06 87.772 27.907-6.06 19.06zM530.012 554.349l6.06-19.06 87.771 27.906-6.06 19.06zM529.945 626.799l6.06-19.06 87.771 27.906-6.06 19.06zM302.2 170.1H54.9l0.3-10.3c0.4-15.2 6.6-29.5 17.4-40.1 10.9-10.7 25.3-16.6 40.6-16.6 5.6 0 11.1 0.8 16.5 2.5 4.8-9.8 11.9-18.5 20.7-25.1 12.1-9.1 26.5-13.9 41.7-13.9 28.6 0 54 17.6 64.4 43.8 25.6 2.1 45.8 23.5 45.8 49.6l-0.1 10.1z m-225.4-20h203.7c-4.1-11.5-15.2-19.8-28.1-19.8-0.1 0-0.3 0.1-0.6 0.1-0.6 0.1-1.2 0.2-1.8 0.2l-8.3 0.7-2.2-8c-5.8-21.5-25.3-36.5-47.6-36.5-21.9 0-40.8 14.1-47.2 35l-3.5 11.5-10.7-5.6c-5.7-3-11.6-4.5-17.5-4.5-17.1 0-31.5 11.2-36.2 26.9zM968.5 366.2H791.2l0.3-10.3c0.6-23.7 19.6-42.2 43.2-42.2 3.3 0 6.6 0.4 9.8 1.2 8.8-16.1 25.7-26.4 44.7-26.4 20.4 0 38.6 12.2 46.7 30.5 18.4 2.4 32.6 18.2 32.6 37.2v10z m-154.4-20h131.3c-3.1-4.5-8.3-7.5-14.2-7.5h-0.2c-0.5 0.1-0.9 0.1-1.4 0.2l-8.3 0.7-2.2-8c-3.6-13.5-15.9-23-29.9-23-13.8 0-25.7 8.8-29.7 22l-3.5 11.5-10.7-5.6c-3.5-1.8-7.1-2.7-10.7-2.7-8.9 0-16.7 5-20.5 12.4z"  /></svg>