<?xml version="1.0" encoding="utf-8"?>
<!-- Generator: Adobe Illustrator 24.0.0, SVG Export Plug-In . SVG Version: 6.00 Build 0)  -->
<svg version="1.1" id="Ebene_1" xmlns="http://www.w3.org/2000/svg" xmlns:xlink="http://www.w3.org/1999/xlink" x="0px" y="0px"
	 viewBox="0 0 485.3 117.1" style="enable-background:new 0 0 485.3 117.1;" xml:space="preserve">
<style type="text/css">
	.st0{fill:#A2BC0C;}
	.st1{fill:#007F90;}
	.st2{fill:none;stroke:#ED6CA2;stroke-width:0.3;stroke-linecap:round;stroke-linejoin:round;}
</style>
<g>
	<path class="st0" d="M9.4,97.6h8.9V70.8h10.9c2.7,0,5.7-0.5,9-1.4c3.3-0.9,6.2-2.8,8.9-5.6c2.6-2.8,4-6.8,4-11.9
		c0-7.8-2.6-13.1-7.6-15.8c-5.1-2.7-10.8-4.1-17.2-4.1H0.4v2h2c2.8,0,4.6,0.8,5.6,2.4c0.9,1.6,1.4,4.1,1.4,7.5
		C9.4,44,9.4,97.6,9.4,97.6z M25.7,67.3c-2.3,0-4.8-0.3-7.5-1V36.6c2.7-0.7,5.1-1,7.5-1c2.1,0,4.4,0.5,6.8,1.6
		c2.4,1.1,4.4,2.8,6.1,5.2s2.5,5.4,2.5,9c0,3.6-0.8,6.7-2.5,9c-1.7,2.4-3.7,4.1-6.1,5.2C30.1,66.8,27.9,67.3,25.7,67.3 M69.9,98.6
		c3.4,0,6.3-0.5,8.6-1.6s4.1-2.4,5.3-3.9h0.5l3.5,4.5h5V70.8c0-8.1-1.6-13.7-4.7-16.5S80.7,50,75.4,50c-3.2,0-6.2,0.3-9,0.8
		c-2.8,0.6-4.7,1.4-5.9,2.6c-1.1,1.1-1.8,2.3-2.1,3.6c-0.3,1.3-0.4,3.1-0.4,5.3h4.5c0.7-3.1,2-5.3,3.8-6.6c1.8-1.3,4.2-1.9,7.2-1.9
		c3.4,0,6,1.2,7.7,3.6c1.8,2.4,2.7,6.8,2.7,13.3h-3c-7.5,0-13.7,1.1-18.3,3.2s-7,5.7-7,10.7c0,3.4,0.8,6.1,2.3,8.1
		c1.6,2.1,3.4,3.5,5.6,4.4C65.7,98.2,67.8,98.6,69.9,98.6 M74.4,94.1c-2.7,0-4.9-0.8-6.7-2.4s-2.7-3.9-2.7-7c0-3,1.4-5.4,4.3-7.2
		s6.7-2.7,11.6-2.7h3v13.4c-1.2,1.9-2.5,3.3-4,4.4C78.4,93.6,76.6,94.1,74.4,94.1 M124.2,98.6c4.1,0,7.6-0.8,10.6-2.4s5.6-4.3,7.7-8
		l-2-1.5c-1.9,2.7-3.9,4.7-6.1,6c-2.2,1.3-5,1.9-8.3,1.9c-4.8,0-8.4-1.9-10.8-5.7c-2.4-3.8-3.6-8.7-3.6-14.7c0-6,1.2-10.9,3.6-14.7
		c2.4-3.8,6-5.7,10.8-5.7c3.7,0,6.7,1,9,3.1c2.3,2.1,3.6,5.2,3.9,9.3h2c0-4.2-0.1-7.2-0.4-8.8c-0.3-1.6-1-3-2.1-4.1
		c-2.3-2.3-7.1-3.5-14.4-3.5c-4.8,0-8.8,1.1-12.1,3.2s-5.7,5.1-7.4,8.7c-1.6,3.7-2.4,7.8-2.4,12.4s0.8,8.7,2.4,12.4s4.1,6.6,7.4,8.7
		S119.5,98.6,124.2,98.6 M186.8,98.6c1.9,0,3.5-0.3,5-1v-1.9c-2-0.3-3.8-1.1-5.5-2.4c-1.7-1.3-3.5-3.1-5.4-5.7l-12.4-15.9l10.9-13.9
		c1.2-1.5,2.6-2.7,4.3-3.4c1.6-0.7,3.4-1.1,5.2-1.1V51h-3c-3,0-5.5,0.5-7.4,1.6c-1.9,1.1-3.7,2.7-5.5,4.8l-12.4,15.9V44
		c0-3.4-0.3-5.9-0.8-7.5s-1.4-2.8-2.6-3.4c-1.2-0.6-3.1-0.9-5.5-0.9h-8.9v2h2c2.8,0,4.6,0.8,5.6,2.4s1.4,4.1,1.4,7.5v53.6h8.9V74.8
		l11.9,15.9C176.3,96,181.1,98.6,186.8,98.6 M203.6,97.6h8.9V62.9c0-3.4-0.3-5.9-0.8-7.5s-1.4-2.8-2.6-3.4c-1.2-0.6-3.1-0.9-5.5-0.9
		h-8.9v2h2c2.8,0,4.6,0.8,5.6,2.4c0.9,1.6,1.4,4.1,1.4,7.5L203.6,97.6L203.6,97.6z M229.5,97.6h8.9V59.7c3.1-3.5,6.4-5.3,9.9-5.3
		c2.6,0,4.6,1,6,3.1c1.3,2.1,2,5.5,2,10.3v29.8h8.9c0,0,0-35.6,0-36.7c1-1.6,2-3.1,4.1-4.4c2-1.4,4-2,5.9-2c2.6,0,4.6,1,6,3.1
		c1.3,2.1,2,5.5,2,10.3v29.8h8.9V67.8c0-6.6-1.3-11.3-3.8-13.9c-2.5-2.7-5.9-4-10.1-4c-2.9,0-5.6,0.6-8.3,1.8
		c-2.7,1.2-4.9,2.9-6.6,5.1c-1.2-2.6-2.8-4.4-4.8-5.4c-2-1-4.4-1.5-7.2-1.5s-5.3,0.5-7.5,1.4c-2.2,1-4,2.1-5.4,3.5h-0.5
		c-0.6-1.3-1.5-2.3-2.8-3c-1.3-0.7-3.2-1-5.6-1h-8.9v2h2c2.8,0,4.6,0.8,5.6,2.4s1.4,4.1,1.4,7.5V97.6z M307.9,116.5h8.9V95.6
		c1.9,0.9,3.8,1.7,5.8,2.2c1.9,0.5,4.1,0.8,6.6,0.8c6.1,0,10.8-2.3,14-6.9s4.8-10.4,4.8-17.5c0-7-1.6-12.8-4.7-17.4
		c-3.1-4.6-7.5-6.9-13.2-6.9c-3.4,0-6.1,0.5-8.3,1.6c-2.2,1.1-3.9,2.3-5.1,3.9h-0.5c-0.5-1.6-1.4-2.7-2.7-3.4c-1.3-0.7-3.2-1-5.7-1
		H299v2h2c2.8,0,4.6,0.8,5.6,2.4s1.4,4.1,1.4,7.5V116.5z M326.3,94.6c-1.4,0-2.8-0.3-4.3-0.8s-3.2-1.3-5.2-2.2V59.9
		c2.5-4,6-6,10.4-6c3.8,0,6.6,1.9,8.5,5.6s2.9,8.7,2.9,14.7c0,6.2-1,11.1-3,14.8C333.6,92.8,330.5,94.6,326.3,94.6 M378.5,98.6
		c3.9,0,7.3-0.8,10.2-2.5c2.9-1.6,5.5-4.3,7.6-7.9l-2-1.5c-1.9,2.6-3.9,4.6-6,6c-2.1,1.3-4.8,2-7.9,2c-4.2,0-7.5-1.8-9.8-5.3
		c-2.4-3.5-3.6-8-3.6-13.6h30.1l0.2-4c0-7.1-1.6-12.5-4.9-16.2c-3.3-3.7-8.3-5.6-14.9-5.6c-4,0-7.6,1.1-10.6,3.2s-5.3,5.1-6.9,8.8
		c-1.6,3.7-2.4,7.8-2.4,12.3c0,4.6,0.8,8.7,2.4,12.4c1.6,3.7,3.9,6.6,7,8.7C370.2,97.5,374,98.6,378.5,98.6 M367.1,71.8
		c0-3.4,0.5-6.4,1.3-9.1c0.9-2.7,2.1-4.8,3.7-6.4c1.6-1.6,3.4-2.3,5.4-2.3c3.5,0,6.1,1.5,7.8,4.6c1.7,3,2.6,7.5,2.6,13.3L367.1,71.8
		L367.1,71.8z M404.3,97.6h5l12.9-18.4l6.1,10.4c1.5,2.5,3.1,4.5,5.1,5.9c1.9,1.4,4,2.1,6.1,2.1h8.9v-2c-4.4-0.5-8-3.2-10.7-7.9
		l-8.6-14.4L445,50.9h-5l-12.9,18.4L421,58.9c-1.5-2.5-3.1-4.5-5.1-5.9c-1.9-1.4-4-2.1-6.1-2.1h-8.4v2c4,0.5,7.5,3.1,10.2,7.9
		l8.6,14.4L404.3,97.6z"/>
	<path class="st0" d="M206.9,44.5c1.4,0,2.7-0.5,3.8-1.6s1.6-2.3,1.6-3.9c0-1.4-0.5-2.7-1.5-3.8s-2.3-1.6-3.8-1.6
		c-1.5,0-2.7,0.5-3.8,1.6s-1.6,2.3-1.6,3.8c0,1.5,0.5,2.8,1.6,3.9C204.2,43.9,205.4,44.5,206.9,44.5"/>
</g>
<g>
	<path class="st1" d="M234.2,11.7c-0.5-0.4-1.1-0.7-1.7-0.9c-0.6-0.2-1.1-0.4-1.5-0.5L227,9.1c-0.5-0.2-1.1-0.3-1.7-0.6
		c-0.6-0.2-1.1-0.6-1.5-1s-0.6-1-0.6-1.7c0-0.7,0.2-1.3,0.6-1.9c0.4-0.5,1-1,1.7-1.3c0.7-0.3,1.6-0.5,2.5-0.5c1,0,1.9,0.2,2.7,0.6
		s1.5,0.9,2,1.5c0.5,0.7,0.9,1.5,1,2.4l2.2-0.4c-0.2-1.3-0.7-2.3-1.4-3.2c-0.7-0.9-1.6-1.6-2.7-2.1s-2.3-0.7-3.7-0.7
		c-1.4,0-2.6,0.2-3.7,0.7s-1.9,1.1-2.5,2S221,4.7,221,5.8c0,0.7,0.1,1.3,0.3,1.9s0.5,1,0.9,1.4c0.4,0.4,0.9,0.7,1.4,1
		c0.5,0.3,1.1,0.5,1.8,0.7l5.3,1.6c0.4,0.1,0.7,0.2,1.1,0.4c0.4,0.2,0.7,0.4,1,0.6c0.3,0.3,0.6,0.6,0.8,1c0.2,0.4,0.3,0.8,0.3,1.4
		c0,0.8-0.2,1.5-0.7,2.1c-0.5,0.6-1.1,1.1-1.9,1.4c-0.8,0.3-1.7,0.5-2.8,0.5c-1.6,0-2.9-0.4-4-1.2s-1.9-1.8-2.2-3.2l-2.2,0.4
		c0.2,1.2,0.7,2.3,1.5,3.2c0.8,0.9,1.7,1.6,2.9,2.1c1.2,0.5,2.5,0.7,3.9,0.7c1.1,0,2.1-0.1,3-0.4c0.9-0.3,1.7-0.7,2.4-1.2
		s1.2-1.2,1.6-1.9c0.4-0.8,0.6-1.6,0.6-2.6c0-1-0.2-1.8-0.5-2.5C235.2,12.6,234.8,12.1,234.2,11.7z"/>
	<path class="st1" d="M257.2,5.4c-1,0-2,0.2-2.8,0.7c-0.8,0.5-1.5,1.1-1.9,2c0,0,0-0.1-0.1-0.2C252,7,251.3,6.4,250.6,6
		c-0.8-0.4-1.7-0.6-2.7-0.6c-1,0-2,0.2-2.8,0.7c-0.6,0.4-1.2,0.8-1.6,1.4V5.8h-1.9v15.7h2.1V11.3c0-1.2,0.3-2.2,1-3s1.5-1.1,2.6-1.1
		c1.1,0,2,0.4,2.6,1.1s1,1.7,1,3l0,10.1h2.1l0-10.1l0,0c0-1,0.2-1.8,0.5-2.3c0.4-0.6,0.8-1,1.4-1.3c0.6-0.3,1.1-0.4,1.7-0.4
		c1,0,1.9,0.3,2.6,1c0.7,0.7,1,1.6,1,2.8l0,10.3h2.1l0-10.7c0-1.7-0.5-3-1.4-3.9C260.1,5.8,258.8,5.4,257.2,5.4z"/>
	<path class="st1" d="M280.6,8.5c-0.4-1-1.1-1.8-2.1-2.3c-1-0.5-2.2-0.8-3.6-0.8c-1.7,0-3.1,0.4-4.2,1.2c-1.1,0.8-1.8,1.9-2.2,3.3
		l2.1,0.6c0.3-1,0.8-1.8,1.6-2.3s1.6-0.7,2.7-0.7c1.6,0,2.6,0.4,3.3,1.1c0.6,0.7,0.9,1.7,0.9,3.1c-0.5,0.1-1,0.1-1.7,0.2
		c-0.9,0.1-1.9,0.2-2.8,0.4c-1,0.2-1.8,0.3-2.6,0.5c-0.8,0.2-1.5,0.5-2.1,0.9c-0.6,0.4-1.1,0.9-1.4,1.5c-0.3,0.6-0.5,1.3-0.5,2.2
		c0,0.8,0.2,1.6,0.6,2.3c0.4,0.7,1,1.3,1.8,1.7c0.8,0.4,1.8,0.6,3,0.6c1.6,0,2.9-0.3,4-1.1c0.8-0.5,1.4-1.2,1.9-2v2.6h1.9v-9.7
		c0-0.6,0-1.2-0.1-1.7C280.9,9.4,280.7,8.9,280.6,8.5z M278.7,15.9c-0.1,0.8-0.4,1.5-0.9,2.1c-0.5,0.6-1,1.1-1.8,1.5
		s-1.6,0.5-2.6,0.5c-0.8,0-1.5-0.1-2-0.4c-0.5-0.3-0.9-0.6-1.1-1.1c-0.2-0.4-0.3-0.9-0.3-1.3c0-0.6,0.1-1,0.4-1.4
		c0.3-0.4,0.6-0.7,1-0.9c0.4-0.2,0.9-0.4,1.3-0.5c0.7-0.2,1.4-0.3,2.2-0.5c0.8-0.1,1.6-0.2,2.5-0.3c0.5-0.1,1-0.1,1.5-0.2
		c0,0.2,0,0.5,0,0.8C278.9,14.9,278.8,15.4,278.7,15.9z"/>
	<path class="st1" d="M291.8,6c-0.5,0.2-1,0.5-1.4,0.8c-0.3,0.3-0.6,0.6-0.9,1c-0.1,0.2-0.2,0.3-0.3,0.5V5.8h-1.9v15.7h2.1v-7.8
		c0-0.6,0-1.2,0.1-1.9c0.1-0.6,0.3-1.2,0.5-1.8c0.3-0.6,0.6-1,1.2-1.5c0.6-0.5,1.2-0.7,1.9-0.8c0.7-0.1,1.3,0,1.9,0.1v-2
		c-0.5-0.1-1-0.2-1.5-0.1C292.9,5.7,292.3,5.8,291.8,6z"/>
	<path class="st1" d="M303.9,1.4h-2.1v4.3h-3.4v1.8h3.4v8.2c0,0.8,0,1.4,0,2c0,0.6,0.2,1.2,0.5,1.8c0.4,0.7,0.9,1.2,1.5,1.5
		s1.4,0.5,2.3,0.5s1.7,0,2.6-0.2v-1.9c-1.1,0.2-2.1,0.2-2.8,0.1c-0.8-0.1-1.3-0.5-1.7-1.2c-0.2-0.3-0.3-0.7-0.3-1.2c0-0.4,0-1,0-1.7
		V7.6h4.8V5.8h-4.8L303.9,1.4L303.9,1.4z"/>
	<path class="st1" d="M335.9,11.1c0.8-1.2,1.3-2.5,1.3-4.1c0-1.1-0.2-2.1-0.6-3c-0.4-0.9-1-1.7-1.7-2.2c-0.8-0.6-1.7-1-2.8-1.1
		c-0.3,0-0.5-0.1-0.8-0.1c-0.3,0-0.5,0-0.7,0h-8.1v20.9h2.1v-7.9h6.7l3.9,7.9h2.5l-4.1-8.5C334.5,12.6,335.3,12,335.9,11.1z
		 M324.7,11.5V2.6h5.9c0.2,0,0.4,0,0.6,0c0.2,0,0.5,0,0.7,0.1c0.7,0.2,1.3,0.5,1.8,0.9s0.8,1,1,1.6c0.2,0.6,0.3,1.2,0.3,1.9
		s-0.1,1.3-0.3,1.9s-0.6,1.1-1,1.5s-1,0.7-1.8,0.9c-0.2,0-0.5,0.1-0.7,0.1c-0.2,0-0.4,0-0.6,0L324.7,11.5L324.7,11.5z"/>
	<path class="st1" d="M355.9,14.2h1.1c0-1.8-0.2-3.4-0.8-4.7s-1.4-2.3-2.5-3s-2.4-1.1-4-1.1c-1.5,0-2.8,0.3-3.9,1
		c-1.1,0.7-2,1.6-2.6,2.9c-0.6,1.3-0.9,2.7-0.9,4.4c0,1.7,0.3,3.1,0.9,4.3c0.6,1.2,1.5,2.2,2.6,2.9c1.1,0.7,2.4,1,4,1
		c1.5,0,2.9-0.4,4.1-1.1c1.2-0.8,2.1-1.8,2.7-3.2l-2-0.8c-0.5,1-1.1,1.7-2,2.2c-0.8,0.5-1.8,0.8-2.9,0.8c-1.6,0-2.9-0.5-3.8-1.6
		c-0.8-1-1.2-2.3-1.3-4h10.1L355.9,14.2L355.9,14.2z M346,8.9c0.9-1.1,2.2-1.6,3.9-1.6c1.6,0,2.8,0.5,3.7,1.5c0.7,0.8,1.1,2,1.2,3.6
		h-10C344.9,11,345.3,9.8,346,8.9z"/>
	<rect x="363" y="0.1" class="st1" width="2.1" height="21.3"/>
	<path class="st1" d="M382.5,6.4c-1.1-0.7-2.4-1-4-1c-1.5,0-2.9,0.3-4,1c-1.1,0.7-2,1.7-2.6,2.9c-0.6,1.2-0.9,2.7-0.9,4.3
		c0,1.6,0.3,3,0.9,4.3c0.6,1.3,1.4,2.2,2.5,2.9c1.1,0.7,2.4,1.1,4,1.1c1.5,0,2.9-0.3,4-1c1.1-0.7,2-1.7,2.5-2.9
		c0.6-1.2,0.9-2.7,0.9-4.3c0-1.6-0.3-3-0.9-4.3C384.5,8.1,383.6,7.1,382.5,6.4z M382.4,18.1c-0.9,1.2-2.1,1.7-3.9,1.7
		c-1.7,0-3-0.6-3.8-1.7c-0.9-1.1-1.3-2.7-1.3-4.5c0-1.2,0.2-2.3,0.6-3.2s0.9-1.7,1.7-2.2s1.7-0.8,2.9-0.8c1.7,0,3,0.6,3.9,1.7
		c0.9,1.1,1.3,2.6,1.3,4.5C383.7,15.4,383.2,16.9,382.4,18.1z"/>
	<path class="st1" d="M395.2,8.2c0.8-0.5,1.7-0.8,2.9-0.8c1,0,1.9,0.3,2.7,0.8c0.8,0.5,1.4,1.2,1.8,2.2l2.1-0.7
		c-0.4-1.3-1.2-2.4-2.4-3.2c-1.2-0.8-2.5-1.2-4.1-1.2c-1.6,0-2.9,0.3-4,1c-1.1,0.7-1.9,1.7-2.5,2.9c-0.6,1.2-0.9,2.7-0.9,4.3
		c0,1.6,0.3,3,0.9,4.3c0.6,1.2,1.4,2.2,2.5,2.9c1.1,0.7,2.4,1.1,4,1.1c1.6,0,2.9-0.4,4-1.1s2-1.8,2.5-3.2l-2.1-0.6
		c-0.4,0.9-1,1.7-1.7,2.1c-0.8,0.5-1.7,0.7-2.7,0.7c-1.7,0-3-0.6-3.8-1.7c-0.9-1.1-1.3-2.6-1.3-4.5c0-1.2,0.2-2.3,0.6-3.2
		C393.9,9.4,394.5,8.7,395.2,8.2z"/>
	<path class="st1" d="M421.9,8.5c-0.4-1-1.1-1.8-2.1-2.3c-1-0.5-2.2-0.8-3.6-0.8c-1.7,0-3.1,0.4-4.2,1.2c-1.1,0.8-1.8,1.9-2.2,3.3
		l2.1,0.6c0.3-1,0.8-1.8,1.6-2.3s1.6-0.7,2.7-0.7c1.6,0,2.6,0.4,3.3,1.1c0.6,0.7,0.9,1.7,0.9,3.1c-0.5,0.1-1,0.1-1.7,0.2
		c-0.9,0.1-1.9,0.2-2.8,0.4c-1,0.2-1.8,0.3-2.6,0.5c-0.8,0.2-1.5,0.5-2.1,0.9c-0.6,0.4-1.1,0.9-1.4,1.5c-0.3,0.6-0.5,1.3-0.5,2.2
		c0,0.8,0.2,1.6,0.6,2.3c0.4,0.7,1,1.3,1.8,1.7c0.8,0.4,1.8,0.6,3,0.6c1.6,0,2.9-0.3,4-1.1c0.8-0.5,1.4-1.2,1.9-2v2.6h1.9v-9.7
		c0-0.6,0-1.2-0.1-1.7C422.2,9.4,422.1,8.9,421.9,8.5z M420,15.9c-0.1,0.8-0.4,1.5-0.9,2.1c-0.5,0.6-1,1.1-1.8,1.5s-1.6,0.5-2.6,0.5
		c-0.8,0-1.5-0.1-2-0.4c-0.5-0.3-0.9-0.6-1.1-1.1c-0.2-0.4-0.3-0.9-0.3-1.3c0-0.6,0.1-1,0.4-1.4c0.3-0.4,0.6-0.7,1-0.9
		c0.4-0.2,0.9-0.4,1.3-0.5c0.7-0.2,1.4-0.3,2.2-0.5c0.8-0.1,1.6-0.2,2.5-0.3c0.5-0.1,1-0.1,1.5-0.2c0,0.2,0,0.5,0,0.8
		C420.2,14.9,420.2,15.4,420,15.9z"/>
	<path class="st1" d="M432.3,1.4h-2.1v4.3h-3.4v1.8h3.4v8.2c0,0.8,0,1.4,0,2c0,0.6,0.2,1.2,0.5,1.8c0.4,0.7,0.9,1.2,1.5,1.5
		s1.4,0.5,2.3,0.5s1.7,0,2.6-0.2v-1.9c-1.1,0.2-2.1,0.2-2.8,0.1c-0.8-0.1-1.3-0.5-1.7-1.2c-0.2-0.3-0.3-0.7-0.3-1.2c0-0.4,0-1,0-1.7
		V7.6h4.8V5.8h-4.8L432.3,1.4L432.3,1.4z"/>
	<rect x="443" y="5.8" class="st1" width="2.1" height="15.7"/>
	<rect x="443" y="0.4" class="st1" width="2.1" height="2.4"/>
	<path class="st1" d="M462.5,6.4c-1.1-0.7-2.4-1-4-1c-1.5,0-2.9,0.3-4,1c-1.1,0.7-2,1.7-2.6,2.9c-0.6,1.2-0.9,2.7-0.9,4.3
		c0,1.6,0.3,3,0.9,4.3c0.6,1.3,1.4,2.2,2.5,2.9c1.1,0.7,2.4,1.1,4,1.1c1.5,0,2.9-0.3,4-1c1.1-0.7,2-1.7,2.5-2.9
		c0.6-1.2,0.9-2.7,0.9-4.3c0-1.6-0.3-3-0.9-4.3C464.4,8.1,463.6,7.1,462.5,6.4z M462.4,18.1c-0.9,1.2-2.1,1.7-3.9,1.7
		c-1.7,0-3-0.6-3.9-1.7c-0.9-1.1-1.3-2.7-1.3-4.5c0-1.2,0.2-2.3,0.6-3.2s0.9-1.7,1.7-2.2s1.7-0.8,2.9-0.8c1.7,0,3,0.6,3.9,1.7
		c0.9,1.1,1.3,2.6,1.3,4.5C463.6,15.4,463.2,16.9,462.4,18.1z"/>
	<path class="st1" d="M484.8,10.7c-0.1-0.7-0.3-1.4-0.7-2c-0.3-0.6-0.7-1.2-1.2-1.7c-0.5-0.5-1.1-0.9-1.8-1.2
		c-0.7-0.3-1.5-0.4-2.5-0.4c-1.3,0-2.4,0.3-3.4,0.8c-0.8,0.4-1.4,1-1.9,1.7V5.8h-1.9v15.7h2.2v-8.4c0-0.9,0.1-1.7,0.3-2.4
		s0.5-1.3,0.9-1.8c0.4-0.5,0.9-0.9,1.5-1.1c0.6-0.3,1.2-0.4,2-0.4c0.8,0,1.5,0.2,2.1,0.5c0.6,0.3,1,0.7,1.4,1.3
		c0.4,0.5,0.6,1.2,0.8,1.9s0.3,1.5,0.3,2.4v8h2.2v-8.6C485,12.1,485,11.4,484.8,10.7z"/>
</g>
<path class="st2" d="M448.4,97.6L448.4,97.6 M0.3,97.6L0.3,97.6"/>
</svg>
