<svg xmlns="http://www.w3.org/2000/svg" xmlns:xlink="http://www.w3.org/1999/xlink" width="280" height="280" viewBox="0 0 280 280">
  <defs>
    <clipPath id="clip-icons_packimpex_night_def_27">
      <rect width="280" height="280"/>
    </clipPath>
  </defs>
  <g id="icons_packimpex_night_def_27" clip-path="url(#clip-icons_packimpex_night_def_27)">
    <g id="icons_packimpex_night_def_27-2" data-name="icons_packimpex_night_def_27" transform="translate(-284.658 -163.112)">
      <path id="路径_1" data-name="路径 1" d="M517.726,214.049c-20.412-.1-40.094-3.816-58.64-12.572-11.228-5.306-21.173-12.353-28.929-22.247a21.577,21.577,0,0,0-3.524-2.95h-3.961a21.363,21.363,0,0,0-3.565,2.929c-8.142,10.279-18.546,17.524-30.347,22.9-18.389,8.392-37.811,11.832-57.921,12-5.525.042-7.808,2.387-7.808,7.871q0,19.015-.021,38.03v9.435q0,17.045.094,34.1a154.449,154.449,0,0,0,1.47,20.224q.766,5.536,1.981,10.842,1.095,4.8,2.554,9.434a118.931,118.931,0,0,0,28.178,47.1c17.535,18.275,38.8,30.451,62.852,38.019a13.445,13.445,0,0,0,8.423.188c21.6-6.672,41.032-17.191,57.67-32.578q24.285-22.455,33.87-52.719c.98-3.086,1.835-6.234,2.585-9.434q1.282-5.5,2.116-11.248c.563-3.9,1-7.819,1.5-11.728V218.928c-1.731-3.669-4.66-4.858-8.58-4.879ZM337.438,322.916a169.741,169.741,0,0,1-1.522-22.195q-.125-15.637-.1-31.285h44.024a55.7,55.7,0,0,0,0,65.176H339.752a104.533,104.533,0,0,1-2.314-11.7Zm41.3-20.881a46.443,46.443,0,1,1,46.443,46.443,46.5,46.5,0,0,1-46.443-46.443Zm88.924,93.459a131.762,131.762,0,0,1-40.511,20.766,8.613,8.613,0,0,1-4.952.01c-25.6-8.277-47.381-22.236-63.894-43.764a105.333,105.333,0,0,1-15.648-28.449h45.755a55.717,55.717,0,0,0,73.537,0h44.6q-10.821,30.071-38.885,51.436Zm45.661-90.2a123.473,123.473,0,0,1-3.847,29.315H470.543a55.7,55.7,0,0,0,0-65.176h42.982c.01,11.968-.021,23.915-.2,35.862Zm-51.374-45.286a55.717,55.717,0,0,0-73.537,0h-52.6q.016-14.965.031-29.919v-3.075c33.433-2,64.165-10,88.768-34.308,24.425,24.342,55.346,32.275,88.684,34.319.042.751.1,1.47.1,2.189,0,10.268.052,20.537.083,30.805h-51.53Z" fill="#363635"/>
      <path id="路径_2" data-name="路径 2" d="M444.706,293.369a3.07,3.07,0,0,0,.917-3.273,2.917,2.917,0,0,0-2.554-2.054c-3.888-.584-7.767-1.23-11.655-1.783a1.541,1.541,0,0,1-1.366-1c-1.647-3.576-3.357-7.12-5-10.685a3.256,3.256,0,0,0-3.034-2.273,3.2,3.2,0,0,0-3.054,2.231c-1.647,3.576-3.357,7.11-5,10.685a1.6,1.6,0,0,1-1.449,1.053c-3.774.532-7.537,1.178-11.321,1.731a3.092,3.092,0,0,0-2.846,2.168,3.137,3.137,0,0,0,1.063,3.326q4.191,4.253,8.329,8.559a2.035,2.035,0,0,1,.521,1.386c-.073,1.074-.344,2.127-.511,3.19-.532,3.273-1.063,6.547-1.522,9.445-.1,1.564.292,2.523,1.293,3.159a3.023,3.023,0,0,0,3.284.021c3.44-1.9,6.9-3.774,10.331-5.713a1.552,1.552,0,0,1,1.783.01c3.315,1.887,6.682,3.711,10.018,5.567a3.21,3.21,0,0,0,3.6.083,3.076,3.076,0,0,0,1.241-3.367c-.646-3.993-1.3-8-1.991-11.978a1.974,1.974,0,0,1,.584-1.949c2.815-2.825,5.556-5.7,8.35-8.538Zm-13.563,5.275a4.558,4.558,0,0,0-1.532,4.743c.553,2.471.834,5,1.261,7.725-2.471-1.366-4.743-2.585-6.985-3.868a3.476,3.476,0,0,0-3.805.021c-2.231,1.293-4.5,2.5-6.964,3.857.3-1.949.573-3.68.855-5.421.177-1.105.386-2.2.563-3.3a3.326,3.326,0,0,0-1.032-3.044c-1.981-2-3.92-4.034-6.046-6.213,1.929-.313,3.659-.594,5.39-.865.719-.115,1.449-.229,2.179-.281a4.074,4.074,0,0,0,3.722-2.815c.949-2.273,2.064-4.462,3.2-6.88.24.438.407.709.552,1,1.022,2.158,2.033,4.326,3.044,6.484a3.278,3.278,0,0,0,2.71,2.054c2.439.323,4.879.74,7.308,1.126.25.042.5.125.917.229-1.835,1.887-3.513,3.753-5.338,5.452Z" transform="translate(3.194 4.079)" fill="#363635"/>
    </g>
  </g>
</svg>
