<svg xmlns="http://www.w3.org/2000/svg" xmlns:xlink="http://www.w3.org/1999/xlink" width="280" height="280" viewBox="0 0 280 280">
  <defs>
    <clipPath id="clip-icons_packimpex_night_def_7">
      <rect width="280" height="280"/>
    </clipPath>
  </defs>
  <g id="icons_packimpex_night_def_7" clip-path="url(#clip-icons_packimpex_night_def_7)">
    <g id="icons_packimpex_night_def_7-2" data-name="icons_packimpex_night_def_7" transform="translate(-259.004 -138.703)">
      <path id="路径_1" data-name="路径 1" d="M507.023,380.622c0-2.006-.094-3.774.06-5.534a1.992,1.992,0,0,1,1.216-1.343c7.413-2.108,11.842-10.108,11.323-17.742a50.089,50.089,0,0,0-8.263-24.441c-4.8-7.277-9.989-7.26-14.749.017-.774,1.182-1.471,2.38-2.134,3.6V216.712c0-2.814-1-3.766-3.936-3.766-11.477-.017-34.9-.017-46.374-.008h-.051V176.025c0-4.531-.536-5.075-5.007-5.075H350.756c-4.446,0-5.075.621-5.075,5.05v36.98c-13.117-.017-35.8-.043-47.19-.034a2.792,2.792,0,0,0-3.06,3.086c-.043,3.06-.026,6.129-.026,9.19-.009,29.924-.026,74.58-.026,105.669a10.231,10.231,0,0,0-6.648,9.411c-.06,1.3-.646,1.709-1.641,2.338a21.1,21.1,0,0,0-5.458,4.31c-6.495,8.187-2.329,21.049,7.464,23.2,1.938.425,4.055.06,6.146.06v10.541H277.68v5.908H520.54v-6.036Zm-205.489-21.9h-6.01c-.051.587-.145,1.19-.162,1.8-.068,3.12-1.641,4.344-4.769,3.672a7.727,7.727,0,0,1-5.772-6.665c-.536-3.979,1.1-7.847,4.438-9.113,3.774-1.428,5.619-3.758,5.568-7.821a3.875,3.875,0,0,1,3.111-4h.918c1.615.2,2.431,1.462,2.992,3a6.131,6.131,0,0,0,6.07,4.463c3.035.085,5.084,2.763,3.953,5.619a13.058,13.058,0,0,0-.051,10.329,6.012,6.012,0,0,1,.085,3.137c-.536,3.018-2.763,5.007-5.3,4.905s-4.8-2.508-5.067-5.466c-.094-1.2-.008-2.406-.008-3.868Zm44.138,21.831H301.636v-6.962c2.406.178,4.778.782,7,.434,7.217-1.156,11.468-9.147,8.909-16.56a7.019,7.019,0,0,1,.034-5.109c2.406-6.469-1.743-14.069-8.6-14.469a2.407,2.407,0,0,1-1.581-1.275,11.161,11.161,0,0,0-5.772-5.687V219.032h44.044V377.748c.008.893.008,1.8.008,2.805Zm62.857-.009H381.317v-18.7h27.212v18.7Zm29.346,0H414.914c-.034-.808-.1-1.564-.1-2.321-.008-6.206.009-12.4-.008-18.609-.008-3.077-1.037-4.081-4.123-4.081q-15.825,0-31.65.017c-2.967,0-3.962,1.02-3.962,3.987V380.6H351.954V177.2h85.912q.013,101.656.009,203.347Zm25.359-13.3c-4.089-.876-6.75-4.939-6.435-9.479a9.482,9.482,0,0,1,8.807-8.663,9.6,9.6,0,0,1,9.946,7.643,9.319,9.319,0,0,1-6.248,10.677v-8.646h-6.07c0,2.805,0,5.611,0,8.467Zm37.507,13.3H469.287a24.408,24.408,0,0,0-.026-3.366c-.332-2.227.434-3.239,2.678-4.089,6.078-2.312,9.462-7,9.861-13.5s-2.346-11.6-8.068-14.681a14.9,14.9,0,0,0-16.569.978,14.7,14.7,0,0,0-6.461,14.486c.774,6.529,4.489,10.915,10.711,13.168.646.23,1.607.765,1.658,1.241a57.313,57.313,0,0,1,.077,5.823H444.1v-2.4q0-9.309.008-18.609V219.058l44.172.008V355.892h.094c-.519,7.149,3.443,15.94,11.953,18.031a1.144,1.144,0,0,1,.408.289c.009,2.168.009,4.268.009,6.333Zm.2-13.168c-2.261-.468-3.46-1.947-4.489-3.536a13.179,13.179,0,0,1-1.828-9.224,48.391,48.391,0,0,1,6.359-18.43c.782-1.318,1.819-2.474,2.916-3.945a22.231,22.231,0,0,1,1.879,2.125,43.458,43.458,0,0,1,7.668,22.749,11.074,11.074,0,0,1-3.63,8.807,25.393,25.393,0,0,1-2.788,1.9V354.642h-6.087c0,4.225,0,8.4,0,12.735Z" transform="translate(-0.102 -0.1)" fill="#363635"/>
      <path id="路径_2" data-name="路径 2" d="M521.008,387.127H277v-7.047h17.563v-9.394c-.459.017-.927.042-1.386.06a16.249,16.249,0,0,1-4.31-.145,14.064,14.064,0,0,1-10.108-9.258,15.4,15.4,0,0,1,2.321-14.851,20.969,20.969,0,0,1,5.475-4.353l.128-.085c.986-.621,1.335-.893,1.377-1.879a10.754,10.754,0,0,1,6.639-9.785c0-31.072.017-75.473.025-105.269v-2.44c0-2.253-.009-4.506.025-6.758a3.343,3.343,0,0,1,3.63-3.647c11.238-.009,33.426.017,46.62.034V175.9c0-4.727.893-5.619,5.645-5.619H439c4.795,0,5.585.791,5.585,5.645v36.334c11.715-.009,34.566-.009,45.855.008,3.239.008,4.506,1.224,4.506,4.344.009,29.286.009,79.588,0,116.3.366-.621.723-1.2,1.08-1.743,2.482-3.792,5.118-5.721,7.83-5.73h.008c2.712,0,5.356,1.921,7.855,5.7a50.583,50.583,0,0,1,8.357,24.713c.57,8.382-4.48,16.263-11.74,18.328a1.579,1.579,0,0,0-.808.842c-.1,1.233-.085,2.491-.068,3.834.008.357.008.714.008,1.08h13.517v7.183Zm-242.86-1.148H519.869v-4.888H506.352v-.57c0-.561-.008-1.105-.017-1.632-.017-1.369-.034-2.652.077-3.945a2.542,2.542,0,0,1,1.632-1.853c6.758-1.921,11.451-9.3,10.915-17.155a49.482,49.482,0,0,0-8.17-24.16c-2.27-3.443-4.6-5.194-6.9-5.194h-.009c-2.3.009-4.625,1.76-6.877,5.211-.68,1.037-1.352,2.176-2.108,3.562l-1.071,1.964V216.611c0-2.474-.757-3.2-3.366-3.2-11.477-.017-34.9-.017-46.374-.009h-.57l-.051-.57V175.925c0-4.208-.289-4.5-4.438-4.5H350.645c-4.123,0-4.5.374-4.5,4.472v37.549h-.57c-13.117-.017-35.8-.043-47.19-.034a2.215,2.215,0,0,0-2.482,2.525c-.034,2.244-.025,4.489-.025,6.741v2.448c-.009,29.924-.026,74.58-.026,105.669v.4l-.383.136a9.614,9.614,0,0,0-6.265,8.9,3.114,3.114,0,0,1-1.9,2.8l-.128.085a20.243,20.243,0,0,0-5.186,4.1,14.248,14.248,0,0,0-2.134,13.755,12.929,12.929,0,0,0,9.275,8.527,15.186,15.186,0,0,0,4,.119c.672-.034,1.352-.077,2.023-.077h.57v11.689H278.165v4.752Zm97.4-4.922H351.291V176.52h87.06V381.014H414.276l-.06-1.292c-.034-.544-.06-1.071-.06-1.6v-7.506q0-5.547-.009-11.094c-.008-2.754-.774-3.511-3.553-3.511q-15.838,0-31.65.017c-2.661,0-3.392.74-3.392,3.417l-.008,21.61Zm-23.115-1.139H374.4V359.43c0-3.273,1.267-4.557,4.531-4.557q15.825-.013,31.658-.017c3.417,0,4.684,1.258,4.7,4.659q.013,5.547.009,11.1v7.507c0,.51.026,1.02.06,1.539l.008.213H437.2V177.659H352.43V379.918Zm111.195,1.139h-20.19V218.371l.57-.009,44.741.009.094,137.438c-.51,6.954,3.358,15.43,11.519,17.427a1.262,1.262,0,0,1,.587.357l.238.17.026.315v6.937H468.615v-.57c0-.408.017-.8.025-1.182a11.327,11.327,0,0,0-.051-2.1c-.357-2.423.493-3.741,3.043-4.71,5.823-2.219,9.1-6.716,9.5-13.007.391-6.308-2.3-11.2-7.77-14.137a14.367,14.367,0,0,0-15.965.944,14.19,14.19,0,0,0-6.223,13.95c.731,6.206,4.217,10.482,10.337,12.692.323.119,1.93.748,2.032,1.717a37.009,37.009,0,0,1,.1,4.251c-.008.536-.017,1.08-.017,1.624v.57Zm-19.051-1.139h17.9c0-.357.008-.723.017-1.071a34.537,34.537,0,0,0-.094-4.115,3.289,3.289,0,0,0-1.284-.757c-6.571-2.372-10.295-6.962-11.085-13.636a15.281,15.281,0,0,1,6.7-15.013,15.448,15.448,0,0,1,17.164-1.02c5.891,3.171,8.79,8.442,8.365,15.217s-3.953,11.613-10.235,14c-2.057.782-2.593,1.59-2.312,3.477a13.032,13.032,0,0,1,.06,2.312c-.008.187-.017.374-.017.57h30.307v-5.534h0c-8.561-2.1-12.726-10.822-12.386-18.15l-.068-.417V219.519l-43.024-.009.009,139.971-.017,20.437Zm-98.435,1.114H300.965v-8.153l.612.042c.774.06,1.539.153,2.3.255a16.058,16.058,0,0,0,4.565.179,10.519,10.519,0,0,0,7.421-5.135,12.666,12.666,0,0,0,1.037-10.669,7.578,7.578,0,0,1,.042-5.5,10.674,10.674,0,0,0-1.08-9.5,9.014,9.014,0,0,0-7.022-4.191,3.014,3.014,0,0,1-2.066-1.59,10.689,10.689,0,0,0-5.466-5.407l-.366-.145V218.354H346.14V381.031ZM302.1,379.884h42.888V219.493H302.087v110.94a12.019,12.019,0,0,1,5.713,5.815,1.933,1.933,0,0,0,1.105.952,10.14,10.14,0,0,1,7.915,4.7,11.806,11.806,0,0,1,1.2,10.533,6.435,6.435,0,0,0-.034,4.727,13.812,13.812,0,0,1-1.139,11.638,11.655,11.655,0,0,1-8.221,5.679,17.178,17.178,0,0,1-4.888-.178c-.536-.068-1.08-.145-1.624-.2v5.781ZM409,381.014H380.646v-19.85H409v19.85Zm-27.2-1.139h26.064V362.32H381.793v17.555ZM506.352,368.79V355.1h-4.939v12.879l-.689-.145a7.481,7.481,0,0,1-4.854-3.783,13.772,13.772,0,0,1-1.921-9.615,49.03,49.03,0,0,1,6.435-18.643,24.441,24.441,0,0,1,1.913-2.652c.34-.425.689-.867,1.046-1.343l.417-.561.468.519c.263.3.519.561.748.8a11.5,11.5,0,0,1,1.19,1.386,44.217,44.217,0,0,1,7.762,23.047,11.72,11.72,0,0,1-3.808,9.249,10.934,10.934,0,0,1-1.734,1.233c-.34.213-.714.451-1.122.723l-.91.6Zm-6.087-14.834h7.226v12.7c.094-.06.179-.111.264-.17a10.16,10.16,0,0,0,1.556-1.105,10.6,10.6,0,0,0,3.451-8.365,43.09,43.09,0,0,0-7.566-22.451,9.219,9.219,0,0,0-1.063-1.233c-.094-.1-.2-.2-.3-.315-.221.281-.434.553-.646.825a24.426,24.426,0,0,0-1.828,2.525,47.827,47.827,0,0,0-6.282,18.218,12.54,12.54,0,0,0,1.743,8.841,6.71,6.71,0,0,0,3.443,3.1V353.955ZM306.711,368.535a1.774,1.774,0,0,1-.213-.009c-2.856-.119-5.33-2.746-5.619-5.993a23.464,23.464,0,0,1-.043-2.576c.009-.247.009-.5.017-.765h-4.914a.107.107,0,0,1-.009.051c-.042.391-.094.791-.1,1.19a4.566,4.566,0,0,1-1.428,3.673,4.74,4.74,0,0,1-4.03.544,8.266,8.266,0,0,1-6.214-7.149c-.6-4.429,1.377-8.425,4.8-9.725,3.689-1.394,5.245-3.57,5.2-7.277a4.424,4.424,0,0,1,3.613-4.565h.986c2.168.264,3.043,2.049,3.528,3.375a5.569,5.569,0,0,0,5.551,4.089,5.049,5.049,0,0,1,4.1,2.168,4.585,4.585,0,0,1,.374,4.234,12.459,12.459,0,0,0-.051,9.9,6.513,6.513,0,0,1,.119,3.46c-.561,3.2-2.873,5.373-5.67,5.373ZM294.9,358.053H302v.57c0,.476-.009.927-.017,1.36a23.207,23.207,0,0,0,.034,2.457c.238,2.635,2.261,4.854,4.523,4.948,2.3.094,4.234-1.726,4.71-4.429a5.3,5.3,0,0,0-.051-2.822,13.571,13.571,0,0,1,.042-10.762,3.379,3.379,0,0,0-.264-3.179,3.908,3.908,0,0,0-3.171-1.658,6.662,6.662,0,0,1-6.588-4.837c-.621-1.7-1.369-2.482-2.516-2.627l-.85.009a3.3,3.3,0,0,0-2.542,3.417c.051,4.157-1.836,6.818-5.942,8.365-2.924,1.105-4.6,4.6-4.081,8.5a7.118,7.118,0,0,0,5.322,6.18,3.7,3.7,0,0,0,3.077-.323,3.538,3.538,0,0,0,.995-2.805c.009-.434.06-.867.1-1.292l.119-1.071Zm173.721,10.082v-8.892H463.7v8.6l-.689-.145c-4.327-.927-7.226-5.16-6.886-10.082a10.056,10.056,0,0,1,9.334-9.19,10.183,10.183,0,0,1,10.55,8.093,9.9,9.9,0,0,1-6.614,11.332l-.774.281Zm-6.07-10.031h7.217v8.365a8.692,8.692,0,0,0,5.118-9.7,9.029,9.029,0,0,0-9.351-7.192,8.892,8.892,0,0,0-8.272,8.127c-.281,4.072,1.913,7.609,5.288,8.7v-8.3Z" fill="#363635"/>
      <path id="路径_3" data-name="路径 3" d="M452.824,227.421H422.05V196.97h30.774v30.451ZM427.763,221.7H447.1V202.691h-19.34V221.7Z" transform="translate(-21.741 -4)" fill="#363635"/>
      <path id="路径_4" data-name="路径 4" d="M407.57,227.418h-30.8V196.95h30.8v30.468ZM382.491,221.7h19.357V202.671H382.491V221.7Z" transform="translate(-14.954 -3.997)" fill="#363635"/>
      <path id="路径_5" data-name="路径 5" d="M452.824,282.441H422.05V251.99h30.774v30.451Zm-25.061-5.721H447.1V257.711h-19.34V276.72Z" transform="translate(-21.741 -12.247)" fill="#363635"/>
      <path id="路径_6" data-name="路径 6" d="M407.57,282.438h-30.8V251.97h30.8v30.468Zm-25.078-5.721h19.357V257.691H382.491v19.026Z" transform="translate(-14.954 -12.244)" fill="#363635"/>
      <path id="路径_7" data-name="路径 7" d="M452.824,337.461H422.05V307.01h30.774v30.451Zm-25.061-5.721H447.1V312.731h-19.34V331.74Z" transform="translate(-21.741 -20.494)" fill="#363635"/>
      <path id="路径_8" data-name="路径 8" d="M407.57,337.46h-30.8V307h30.8v30.46Zm-25.078-5.721h19.357V312.713H382.491v19.026Z" transform="translate(-14.954 -20.493)" fill="#363635"/>
      <path id="路径_9" data-name="路径 9" d="M510.813,273.069H485.08V247.6h25.733v25.469ZM490.8,267.348h14.29V253.321H490.8v14.027Z" transform="translate(-31.189 -11.589)" fill="#363635"/>
      <path id="路径_10" data-name="路径 10" d="M510.813,322.659H485.08V297.19h25.733v25.469ZM490.8,316.938h14.29V302.911H490.8v14.027Z" transform="translate(-31.189 -19.022)" fill="#363635"/>
      <path id="路径_11" data-name="路径 11" d="M342.383,273.069H316.65V247.6h25.733v25.469Zm-20.012-5.721h14.29V253.321h-14.29v14.027Z" transform="translate(-5.943 -11.589)" fill="#363635"/>
      <path id="路径_12" data-name="路径 12" d="M342.383,322.659H316.65V297.19h25.733v25.469Zm-20.012-5.721h14.29V302.911h-14.29v14.027Z" transform="translate(-5.943 -19.022)" fill="#363635"/>
    </g>
  </g>
</svg>
