<svg xmlns="http://www.w3.org/2000/svg" xmlns:xlink="http://www.w3.org/1999/xlink" width="280" height="280" viewBox="0 0 280 280">
  <defs>
    <clipPath id="clip-icons_packimpex_night_def_21">
      <rect width="280" height="280"/>
    </clipPath>
  </defs>
  <g id="icons_packimpex_night_def_21" clip-path="url(#clip-icons_packimpex_night_def_21)">
    <g id="icons_packimpex_night_def_21-2" data-name="icons_packimpex_night_def_21" transform="translate(-266.171 -144.559)">
      <path id="路径_1" data-name="路径 1" d="M517.614,394.146a5.767,5.767,0,0,0-4.254-5.275,12.074,12.074,0,0,0-3.306-.343q-94.175-.027-188.342-.018h-12.3c-.488,0-.966-.009-1.445.018a6,6,0,0,0-5.591,5.4c-.262,2.773.388,4.616,4.561,6.783h206.2l.027-.018c.361-.208.714-.416,1.075-.614a5.905,5.905,0,0,0,3.378-5.934Z" transform="translate(-2.45 -18.891)" fill="#363635"/>
      <path id="路径_2" data-name="路径 2" d="M513.144,400.712h-206.2c-4.182-2.168-4.823-4-4.561-6.783a6.005,6.005,0,0,1,5.591-5.4c.479-.027.966-.018,1.445-.018h12.3q94.175,0,188.341.018a12.4,12.4,0,0,1,3.306.343,5.767,5.767,0,0,1,4.254,5.275,5.918,5.918,0,0,1-3.378,5.934c-.361.2-.714.406-1.075.614l-.027.018Z" transform="translate(-2.45 -18.891)" fill="#363635"/>
      <path id="路径_3" data-name="路径 3" d="M331.484,306.041c8.03-2.267,16.213-4.489,24.134-6.639l8.752-2.385c4.6-1.255,9.2-2.5,13.883-3.776l8.1-2.2-.379,3.857c-.054.578-.108,1.1-.163,1.617q-.6,5.026-1.21,10.044c-.867,7.172-1.743,14.343-2.565,21.524-.325,2.809.4,5.1,2.032,6.449,1.617,1.337,3.974,1.617,6.639.786l3.026-.939c7.768-2.421,15.807-4.923,23.6-7.641a9.755,9.755,0,0,0,4.543-3.405c9.538-14.235,19.727-29.554,29.536-45.071a36.5,36.5,0,0,1,4.661-6.088,20.653,20.653,0,0,1,9.755-5.745,6.323,6.323,0,0,0,1.084-.461l.5-.235q6.192-2.859,12.4-5.654c9.592-4.345,19.519-8.834,29.039-13.666,10.017-5.085,17.459-11.453,22.734-19.447a21.4,21.4,0,0,0,2.466-19.329A21.089,21.089,0,0,0,519.816,194.7c-5.636-1.617-11.715-1.834-19.139-.668-13.557,2.123-26.329,7.063-37.023,11.607-38.749,16.466-77.217,32.9-114.349,48.82a6.782,6.782,0,0,1-7.37-.867c-8.364-5.889-16.927-11.8-25.209-17.5l-6.368-4.4c-1.951-1.346-3.766-1.644-5.537-.9l-1.816.768c-7.569,3.179-15.4,6.467-22.96,9.963a5.13,5.13,0,0,0-2.782,3.2,6,6,0,0,0,.632,4.841,33.773,33.773,0,0,0,3.225,4.245l.533.632q6,7.14,12.022,14.244,4.092,4.837,8.174,9.683l4.48,5.311c5.5,6.512,11.182,13.241,16.719,19.916,2.294,2.737,4.814,3.477,8.436,2.457Zm146.125-92.735c-8.626,2.592,19.428-7.443,31.667-7.659A23.465,23.465,0,0,1,517,206.758a8.687,8.687,0,0,1,5.51,4.805,9.015,9.015,0,0,1-.6,7.533,23.874,23.874,0,0,1-4.336,5.916,47.883,47.883,0,0,1-5.519,4.706c-10.83,8.111-23.231,13.458-35.226,18.634l-1.165.506-29.31,14.985c-11.074,16.972-22.292,33.989-32.778,49.858a6.049,6.049,0,0,1-2.935,2.339c-2.945,1.012-5.871,1.933-8.969,2.908l-5.916,1.879.054-2.827v-.641a12.337,12.337,0,0,1,.054-1.445q1.883-15.784,3.785-31.577c.289-2.421-.072-4.046-1.228-5.437-1.87-2.249-4.128-2.8-7.56-1.861q-16.109,4.43-32.227,8.834l-16.24,4.435c-2.8.759-5.7,1.544-8.517,2.375a4.655,4.655,0,0,1-5.356-1.544c-6.91-8.346-13.946-16.737-19.907-23.854-3.071-3.667-6.16-7.316-9.321-11.037l-6.115-7.226,2.52-1.084c.822-.352,1.617-.7,2.385-1.048,1.969-.876,3.839-1.707,5.79-2.366a5.69,5.69,0,0,1,4.643.84c5.826,3.965,11.7,8.057,17.387,12l6.25,4.336c.985.677,1.969,1.346,2.963,2.014,1.806,1.219,3.676,2.484,5.474,3.8" fill="#363635"/>
    </g>
  </g>
</svg>
