<svg xmlns="http://www.w3.org/2000/svg" xmlns:xlink="http://www.w3.org/1999/xlink" width="280" height="280" viewBox="0 0 280 280">
  <defs>
    <clipPath id="clip-icons_packimpex_night_def_6">
      <rect width="280" height="280"/>
    </clipPath>
  </defs>
  <g id="icons_packimpex_night_def_6" clip-path="url(#clip-icons_packimpex_night_def_6)">
    <g id="icons_packimpex_night_def_6-2" data-name="icons_packimpex_night_def_6" transform="translate(-278.995 -155.28)">
      <path id="路径_3" data-name="路径 3" d="M486.06,188.28c3.03,1.3,4.13,3.62,3.99,6.85-.16,3.69-.04,7.39-.04,11.39,5.41-3.16,10.72-4.12,16.41-2.39a19.187,19.187,0,0,1,13.18,16.18c1.59,19.44-4.37,35.76-20.11,47.91a50.166,50.166,0,0,1-19.93,9.04,5.046,5.046,0,0,0-2.79,1.69,69.6,69.6,0,0,1-29.82,23.39c-1.65.68-1.71,1.71-1.64,3.06.27,5.67-1.28,10.58-5.96,14.16-.79.61-1.67,1.11-2.76,1.83,1.09,3.98,2.21,8.06,3.31,12.14,2.86,10.52,5.75,21.04,8.52,31.59.44,1.69,1.16,2.15,2.84,2.15a80.208,80.208,0,0,1,11.82.43,13.887,13.887,0,0,1,11.79,12.88c.34,7.12.26,14.27.17,21.41-.04,3.43-2.19,5.19-5.83,5.19q-16.41.03-32.83.01H372.36c-4.9,0-6.68-1.7-6.68-6.51,0-6.52-.19-13.05.17-19.55.44-7.96,6.78-13.71,14.74-13.88,3.1-.07,6.21-.05,9.31,0,1.22.02,1.89-.19,2.27-1.6,3.84-14.34,7.8-28.65,11.65-42.99a2.269,2.269,0,0,0-.78-1.95c-5.5-3.41-7.86-8.42-7.52-14.73.12-2.18-.6-3.2-2.65-4.06a69.316,69.316,0,0,1-28.66-22.68,5.7,5.7,0,0,0-3.12-1.97,50.259,50.259,0,0,1-39.4-41.77,93.355,93.355,0,0,1-.62-15.78c.24-8.11,6.49-14.52,14.85-16.06,5.21-.96,9.95.17,14.85,2.85,0-4.46.06-8.62-.02-12.78-.05-2.47.61-4.42,3.04-5.43q66.135-.03,132.27-.02ZM360.77,198.57c0,12.83-.06,25.4.04,37.96a77.7,77.7,0,0,0,.85,10.88c5.11,33.99,38.84,56.67,72.25,48.65A59.61,59.61,0,0,0,480,237.83c.07-12.34.01-24.68.01-37.01v-2.25Zm14.92,198.28h89.4c0-4.97.09-9.78-.03-14.57a4.773,4.773,0,0,0-5.1-4.9q-39.57-.03-79.14,0a4.767,4.767,0,0,0-5.09,4.91c-.13,4.79-.04,9.59-.04,14.56Zm26.5-29.79h36.39c-3.94-14.49-7.81-28.79-11.77-43.08a2.347,2.347,0,0,0-1.78-1.25c-3.02-.13-6.05.01-9.07-.09-1.38-.04-1.86.53-2.17,1.79-.92,3.67-1.98,7.31-2.98,10.96-2.86,10.49-5.71,21-8.62,31.67ZM355.57,264.71c-1.39-5.94-3.3-11.63-3.96-17.47a160.431,160.431,0,0,1-.72-21.82c.09-3.99-.93-6.89-4-9.44-3.13-2.6-6.33-3.88-10.23-2.26-3.88,1.61-5.63,4.75-5.65,8.81a72.088,72.088,0,0,0,.42,9.75c1.99,15.33,10.45,25.89,24.14,32.43Zm129.02-.34c.23.23.46.46.69.7,3.44-2.3,7.15-4.3,10.28-6.96,11.3-9.61,15.12-22.29,14.16-36.67a8.508,8.508,0,0,0-6.4-8.01c-5.93-1.82-13.33,3.66-13.3,9.84.05,13.93.69,27.94-5.43,41.1Zm-49.52,41.82a71.755,71.755,0,0,1-29.37-.01c-.45,3.96,1.46,6.4,5.17,6.45q9.525.12,19.06,0c3.7-.05,5.62-2.54,5.14-6.44Z" fill="#363635"/>
    </g>
  </g>
</svg>
