<svg xmlns="http://www.w3.org/2000/svg" xmlns:xlink="http://www.w3.org/1999/xlink" width="280" height="280" viewBox="0 0 280 280">
  <defs>
    <clipPath id="clip-path">
      <rect id="矩形_1" data-name="矩形 1" width="254" height="254"/>
    </clipPath>
    <clipPath id="clip-icons_packimpex_night_def_24">
      <rect width="280" height="280"/>
    </clipPath>
  </defs>
  <g id="icons_packimpex_night_def_24" clip-path="url(#clip-icons_packimpex_night_def_24)">
    <g id="icons_packimpex_night_def_24-2" data-name="icons_packimpex_night_def_24" transform="translate(13 13)" clip-path="url(#clip-path)">
      <g id="icons_packimpex_night_def_24-3" data-name="icons_packimpex_night_def_24" transform="translate(8.016 8.159)">
        <path id="路径_1" data-name="路径 1" d="M335.958,392.939c-4.247-.939-8.617-1.512-12.722-2.875-24.929-8.268-40.46-25.27-45.163-51.13-6.216-34.186,15.273-66.414,49.069-74.563a63.234,63.234,0,0,1,37.826,2.377c1.87.7,3.042.889,3.906-1.221a16.745,16.745,0,0,1,2-2.9,23.368,23.368,0,0,1,.034-30.646,23.639,23.639,0,0,1-5.734-15.622,23.27,23.27,0,0,1,6.448-15.772A4.79,4.79,0,0,0,372.8,197.7c.266-14.176,8.418-25.254,21.83-29.607a5.2,5.2,0,0,0,2.393-1.712c8.783-11.484,23.25-14.367,35.88-7.188a3.171,3.171,0,0,0,2.659-.066c12.423-7.1,27.007-4.18,35.7,7.18a5.68,5.68,0,0,0,2.584,1.837,30.611,30.611,0,0,1,21.694,29.222,5.04,5.04,0,0,0,1.122,3.149c8.194,8.825,8.809,21.065,1.429,30.571-.191.249-.362.516-.634.9a23.3,23.3,0,0,1-.034,30.63,23.64,23.64,0,0,1,5.684,13.038,23.3,23.3,0,0,1-3.008,13.885c.474.416.847.8,1.279,1.114a31.29,31.29,0,0,1,12.866,20.525,3.182,3.182,0,0,0,.424.815V371.4c-1.239,1.961-3.024,2.435-5.285,2.435q-59.281-.075-118.564-.075a5.618,5.618,0,0,0-4.2,1.662,62.4,62.4,0,0,1-27.272,15.19c-3.6.939-7.271,1.57-10.911,2.343-4.168-.016-8.318-.016-12.473-.016Zm132.31-153.157a12.457,12.457,0,0,0-.623,1.52c-1.745,5.759-4.961,8.833-9.09,14.867-5.086,3.665-5.734,8.118-5.277,13.536a2.3,2.3,0,0,0,1.745,2.377c3.823,1.371,7.611,2.817,11.409,4.247,8.783,3.291,17.558,6.582,26.409,9.9a15.026,15.026,0,0,0,.839-1.268c3.357-6.252,1.886-13.644-3.7-18.63-2.817-2.518-3.074-4.853-.391-7a15.373,15.373,0,0,0-.075-24.115c-2.484-1.961-2.343-4.355-.008-6.532,8.027-7.462,7.919-16.96-.091-24.264a5.764,5.764,0,0,1-1.8-4.09c1.047-12.124-5.676-22.017-17.425-25.079a7.237,7.237,0,0,1-4.621-3.357,18.955,18.955,0,0,0-27.788-4.761c-3.133,2.41-4.077,2.4-7.321-.083a18.926,18.926,0,0,0-27.356,4.337,9.257,9.257,0,0,1-5.775,4.077,22.579,22.579,0,0,0-16.628,24.031,5.456,5.456,0,0,1-1.993,5.235c-7.745,6.623-7.787,16.861-.158,23.732,2.734,2.46,2.734,4.57.008,7.014-7.562,6.781-7.6,16.869-.066,23.6,2.833,2.537,2.759,4.53-.034,7.2-1.462,1.4-2.684,3.024-3.881,4.4,4.53,3.606,8.667,6.947,12.889,10.18a2.647,2.647,0,0,0,2.127.05c7.919-2.908,15.805-5.889,23.716-8.809,1.188-.44,1.8-.972,1.729-2.385-.133-2.468.05-4.953-.091-7.421a3.519,3.519,0,0,0-1.105-2.368c-6.506-4.828-13.545-22.017-14.176-22.087l-3.839-26.425c.6-.249-.175-2.418-.008-3.016.634-2.265,2.02-3.207,4.349-3.283,3.814-.116,7.72.034,11.426-.739,8.767-1.828,14.933-7.163,18.68-15.29,1.279-2.767,3.3-3.93,5.377-2.751a6.947,6.947,0,0,1,2.5,2.983c3.831,7.994,9.947,13.254,18.622,15.057,3.7.765,7.6.634,11.426.731,2.111.058,3.739.823,4.138,2.85a9.044,9.044,0,0,1,.042,3.781l-4.114,28.045ZM399.68,327.749a57.487,57.487,0,1,0-57.321,57.528C373.8,385.261,399.7,359.268,399.68,327.749ZM404.143,213c1.221,8.16,2.2,16.229,3.681,24.2,2.243,12.116,12.938,20.965,25.577,21.555,11.779.557,23.342-7.769,26.616-19.353a77.525,77.525,0,0,0,1.745-9.6c.839-5.568,1.587-11.152,2.4-16.943-12.622.265-22.495-4.795-29.957-14.634-9.232,10.769-14.251,13.237-30.065,14.783ZM472.5,320.121c0,4.7.125,9.151-.058,13.591a12.329,12.329,0,0,1-1.313,5.165c-4.446,8.285-9.066,16.47-13.62,24.7-.407.739-.773,1.5-1.221,2.377H506.81a3.093,3.093,0,0,0,.158-.607c0-16.6.225-33.214-.091-49.817a22.078,22.078,0,0,0-12.331-19.977c-4.462-2.356-9.373-3.872-14.509-5.933.474,3.191.873,5.925,1.288,8.65.864,5.584,1.8,11.168,2.592,16.762.482,3.415-1.087,5.06-4.57,5.074-2.152.016-4.3.008-6.847.008Zm-61.152-39c2.052,7.944,4.077,15.765,6.108,23.6h33.436q3.029-11.791,6.071-23.6c-2.984-1.138-5.56-2.185-8.185-3.108a4.168,4.168,0,0,1-3.133-4.479c.083-2.925.016-5.859.016-9.008a35.3,35.3,0,0,1-23,.05c0,3.183-.066,6.058.025,8.925a4.147,4.147,0,0,1-3.108,4.5c-2.684.948-5.327,2.02-8.235,3.124Zm52.992,2.775c-7.113,27.453-14.184,54.711-21.24,81.951,2.99.823,4.462-.15,5.775-2.618,4.861-9.151,10.022-18.132,14.991-27.222a8.064,8.064,0,0,0,.931-3.59c.1-5.269.016-10.537.058-15.805.016-2.725,1.413-4.1,4.13-4.138,2.136-.042,4.258-.008,6.39-.008a5.939,5.939,0,0,0,.042-1.006c-1.178-7.877-2.343-15.755-3.59-23.616a2.418,2.418,0,0,0-1.188-1.587c-1.953-.856-3.987-1.512-6.3-2.356ZM419.67,312.551a13.983,13.983,0,0,0,.233,1.737q6.457,24.942,12.957,49.867a7.458,7.458,0,0,0,1.279,1.953,8.09,8.09,0,0,0,1.388-2.119q6.469-24.693,12.813-49.41c.166-.64.2-1.321.307-2.028Zm-26.026-24.821c.453.657.7,1.047.972,1.429,9.988,13.736,14.184,29.017,12.3,45.952-.249,2.211-.815,4.3.59,6.648,4.258,7.1,8.135,14.425,12.166,21.664,1.745,3.133,1.779,3.141,5.568,2.368-7.067-27.222-14.118-54.446-21.24-81.9-3.548,1.3-6.805,2.518-10.354,3.839Zm9.972,62.871c-2.783,5.219-5.484,10.271-8.177,15.312h16.7c-2.942-5.293-5.751-10.329-8.526-15.312Z" transform="translate(-277.005 -155.282)" fill="#363635"/>
        <path id="路径_2" data-name="路径 2" d="M379.867,353.607v34c-.008,7.022-4.845,11.891-11.833,11.9q-18.908.025-37.826,0a11.312,11.312,0,0,1-11.65-11.6q-.025-34.352,0-68.705a11.312,11.312,0,0,1,11.592-11.658q19.034-.024,38.067,0a11.318,11.318,0,0,1,11.65,11.6q.024,17.239,0,34.469Zm-38.474-38.417c-3.352,0-6.54-.008-9.722,0-4.168.008-5.46,1.268-5.46,5.4q-.013,32.919,0,65.847c0,4.138,1.288,5.41,5.451,5.41q17.363.013,34.718,0c4.67,0,5.825-1.138,5.825-5.759V320.958a18.3,18.3,0,0,0-.024-1.911,3.856,3.856,0,0,0-3.864-3.815c-3.739-.116-7.479-.034-11.193-.034-1.114,5.227-3.956,7.792-8.336,7.645-3.864-.116-6.631-2.917-7.4-7.653Z" transform="translate(-284.026 -181.016)" fill="#363635"/>
        <path id="路径_3" data-name="路径 3" d="M346.41,390.61h14.974v7.437H346.41Z" transform="translate(-288.735 -195.059)" fill="#363635"/>
      </g>
    </g>
  </g>
</svg>
