<svg xmlns="http://www.w3.org/2000/svg" xmlns:xlink="http://www.w3.org/1999/xlink" width="280" height="280" viewBox="0 0 280 280">
  <defs>
    <clipPath id="clip-icons_packimpex_night_def_12">
      <rect width="280" height="280"/>
    </clipPath>
  </defs>
  <g id="icons_packimpex_night_def_12" clip-path="url(#clip-icons_packimpex_night_def_12)">
    <g id="icons_packimpex_night_def_12-2" data-name="icons_packimpex_night_def_12" transform="translate(-271.414 -149.756)">
      <path id="路径_1" data-name="路径 1" d="M371.35,382.61c14.24,2.47,29.86,15.07,30.51,36.91.1,3.53,2.14,5.38,5.79,5.33a5.592,5.592,0,0,0,4.18-1.72,4.591,4.591,0,0,0,.99-3.63c-.64-5.71-1.36-12.17-3.39-17.86-3.74-10.5-11.02-18.71-22.26-25.09l-2.23-1.27,1.84-1.79c7.71-7.47,11.8-16.48,11.82-26.03a34.355,34.355,0,0,0-56.93-25.96,33.373,33.373,0,0,0-11.71,22.59c-1.07,11.08,2.89,20.92,11.75,29.23l1.83,1.71-3.06,1.91c-.54.33-1,.61-1.44.91-15.54,10.12-23.22,23.61-23.51,41.24a5.75,5.75,0,0,0,1.51,4.39,6.017,6.017,0,0,0,4.65,1.33c1.98-.13,4.65-.91,4.93-6.12.62-11.7,5.66-21.89,14.21-28.71a37,37,0,0,1,23.32-8.02,44.507,44.507,0,0,1,7.2.65Zm-30.32-35.19a23.579,23.579,0,0,1,23.17-23.19h.01a23.526,23.526,0,0,1,23.17,23.2h0a22.858,22.858,0,0,1-6.76,16.27,23.525,23.525,0,0,1-2.82,2.38,22.943,22.943,0,0,1-13.59,4.46h0a23.234,23.234,0,0,1-23.18-23.12Z" transform="translate(0 -13.529)" fill="#363635"/>
      <path id="路径_2" data-name="路径 2" d="M500.92,385.52c14.24,2.47,29.86,15.07,30.51,36.91.1,3.53,2.14,5.38,5.79,5.33a5.629,5.629,0,0,0,4.18-1.72,4.591,4.591,0,0,0,.99-3.63c-.64-5.71-1.36-12.17-3.39-17.86-3.74-10.5-11.02-18.71-22.26-25.09l-2.23-1.27,1.84-1.79c7.71-7.47,11.8-16.48,11.82-26.03a34.355,34.355,0,0,0-56.93-25.96A33.373,33.373,0,0,0,459.53,347c-1.07,11.08,2.89,20.92,11.75,29.23l1.83,1.71-3.06,1.91c-.54.33-1,.61-1.44.91-15.54,10.12-23.22,23.61-23.51,41.24a5.75,5.75,0,0,0,1.51,4.39,6.017,6.017,0,0,0,4.65,1.33c1.98-.13,4.65-.91,4.93-6.12.62-11.7,5.66-21.89,14.21-28.71a37,37,0,0,1,23.32-8.02,45.658,45.658,0,0,1,7.2.65ZM470.6,350.33a23.579,23.579,0,0,1,23.17-23.19h.01a23.526,23.526,0,0,1,23.17,23.2h0a22.858,22.858,0,0,1-6.76,16.27,23.525,23.525,0,0,1-2.82,2.38,22.943,22.943,0,0,1-13.59,4.46h0a23.234,23.234,0,0,1-23.18-23.12Z" transform="translate(-17.682 -13.529)" fill="#363635"/>
      <path id="路径_3" data-name="路径 3" d="M543.45,185.99c-.06-8.44-4.05-14.72-11.87-18.69a28.651,28.651,0,0,0-3.58-1.42c-.55-.19-1.1-.38-1.65-.58l-.06-.02H420.75l-.14.03c-.15.06-.3.13-.45.19a7.646,7.646,0,0,1-.89.34,20.91,20.91,0,0,0-15.78,20.41v1.12c-.02,15.82-.03,32.19.01,48.28a20.6,20.6,0,0,0,20.41,20.46q3.105.015,6.2,0c3.51-.01,7.13-.02,10.69.07a4.468,4.468,0,0,1,2.91,1.33c5.96,6.95,11.81,14.01,16.75,20.01,1.26,1.53,2.65,3.22,4.77,3.22a4.674,4.674,0,0,0,1.6-.3c3-1.07,2.97-3.72,2.95-6.06v-.28c-.04-4.31-.03-8.53-.02-13.01l.01-4.98h17.39q17.82.015,35.65-.01a20.763,20.763,0,0,0,20.67-20.71l.01-5.4c.02-14.42.05-29.34-.04-44Zm-82.62,75.04v2.76c-1.05-1.26-2.09-2.49-3.09-3.68-2.86-3.4-5.56-6.6-8.15-9.88a7.33,7.33,0,0,0-6.26-3.1c-.12,0-.25,0-.37.01-4.67.15-9.43.11-14.02.07-1.21-.01-2.42-.02-3.62-.02-7.81-.04-12.87-5.13-12.88-12.97-.02-16.9-.02-32.31,0-47.1.01-7.84,5.09-12.9,12.94-12.91q48.135-.03,96.25,0c7.85,0,12.92,5.07,12.94,12.91.03,15.08.03,30.92,0,47.1-.01,7.99-5.05,12.96-13.14,12.97q-17.82.015-35.65.01H466.65c-4.43,0-5.79,1.37-5.79,5.85-.03,2.56-.03,5.13-.03,7.98Z" transform="translate(-17.682)" fill="#363635"/>
      <path id="路径_4" data-name="路径 4" d="M543.45,185.99c-.06-8.44-4.05-14.72-11.87-18.69a28.651,28.651,0,0,0-3.58-1.42c-.55-.19-1.1-.38-1.65-.58l-.06-.02H420.75l-.14.03c-.15.06-.3.13-.45.19a7.646,7.646,0,0,1-.89.34,20.91,20.91,0,0,0-15.78,20.41v1.12c-.02,15.82-.03,32.19.01,48.28a20.6,20.6,0,0,0,20.41,20.46q3.105.015,6.2,0c3.51-.01,7.13-.02,10.69.07a4.468,4.468,0,0,1,2.91,1.33c5.96,6.95,11.81,14.01,16.75,20.01,1.26,1.53,2.65,3.22,4.77,3.22a4.674,4.674,0,0,0,1.6-.3c3-1.07,2.97-3.72,2.95-6.06v-.28c-.04-4.31-.03-8.53-.02-13.01l.01-4.98h17.39q17.82.015,35.65-.01a20.763,20.763,0,0,0,20.67-20.71l.01-5.4c.02-14.42.05-29.34-.04-44Zm-82.62,75.04v2.76c-1.05-1.26-2.09-2.49-3.09-3.68-2.86-3.4-5.56-6.6-8.15-9.88a7.33,7.33,0,0,0-6.26-3.1c-.12,0-.25,0-.37.01-4.67.15-9.43.11-14.02.07-1.21-.01-2.42-.02-3.62-.02-7.81-.04-12.87-5.13-12.88-12.97-.02-16.9-.02-32.31,0-47.1.01-7.84,5.09-12.9,12.94-12.91q48.135-.03,96.25,0c7.85,0,12.92,5.07,12.94,12.91.03,15.08.03,30.92,0,47.1-.01,7.99-5.05,12.96-13.14,12.97q-17.82.015-35.65.01H466.65c-4.43,0-5.79,1.37-5.79,5.85-.03,2.56-.03,5.13-.03,7.98Z" transform="translate(-17.682)" fill="none" stroke="#363635" stroke-miterlimit="10" stroke-width="2"/>
      <path id="路径_5" data-name="路径 5" d="M454.52,263.59c-1.45-.02-33.37-.01-34.82,0-2.18.02-4.43.03-6.64-.05a6.121,6.121,0,0,0-5.33,2.55c-2.91,3.58-5.92,7.18-8.83,10.66l-1.95,2.33a10.174,10.174,0,0,1-.87.86c-.02.01-.03.03-.05.04V269.61c0-4.8-1.26-6.04-6.11-6.04H368.57q-24.9,0-49.81-.01c-7.77-.01-12.8-5.02-12.82-12.77q-.045-20.91-.01-41.8v-5.81a12.108,12.108,0,0,1,3.52-9c2.45-2.47,5.54-3.61,9.71-3.61h.02c23.81.02,61.61,0,85.42.03h.02c1.87,0,3.74-.28,4.87-2.32a4.143,4.143,0,0,0-.02-4.22,5.453,5.453,0,0,0-4.76-2.49h-.05c-17.21.12-48.71.11-65.64.1q-10.53-.015-21.05-.01a20.884,20.884,0,0,0-20.41,15.78,5.673,5.673,0,0,1-.34.88c-.07.15-.13.3-.19.45L297,255.35l.06.09c.05.07.11.15.17.22a1.289,1.289,0,0,1,.2.3c2.98,10.82,10.44,16.53,21.57,16.54h68.11c0,1.77,0,3.52.01,5.25.01,4.66.02,9.06-.04,13.53-.03,2.33.31,4.61,2.98,5.55a4.76,4.76,0,0,0,1.55.28c1.86,0,3.22-1.29,4.33-2.64,2.28-2.77,4.57-5.52,6.87-8.28,3.11-3.73,6.33-7.59,9.45-11.43,1.26-1.55,2.56-2.54,4.82-2.32a45.812,45.812,0,0,0,5.49.08c.49-.01,31.43-.03,31.92-.04a4.99,4.99,0,0,0,3.62-1.4,4.353,4.353,0,0,0,1.14-3.18c-.06-2.58-1.91-4.28-4.73-4.31Z" fill="#363635"/>
      <path id="路径_6" data-name="路径 6" d="M454.52,263.59c-1.45-.02-33.37-.01-34.82,0-2.18.02-4.43.03-6.64-.05a6.121,6.121,0,0,0-5.33,2.55c-2.91,3.58-5.92,7.18-8.83,10.66l-1.95,2.33a10.174,10.174,0,0,1-.87.86c-.02.01-.03.03-.05.04V269.61c0-4.8-1.26-6.04-6.11-6.04H368.57q-24.9,0-49.81-.01c-7.77-.01-12.8-5.02-12.82-12.77q-.045-20.91-.01-41.8v-5.81a12.108,12.108,0,0,1,3.52-9c2.45-2.47,5.54-3.61,9.71-3.61h.02c23.81.02,61.61,0,85.42.03h.02c1.87,0,3.74-.28,4.87-2.32a4.143,4.143,0,0,0-.02-4.22,5.453,5.453,0,0,0-4.76-2.49h-.05c-17.21.12-48.71.11-65.64.1q-10.53-.015-21.05-.01a20.884,20.884,0,0,0-20.41,15.78,5.673,5.673,0,0,1-.34.88c-.07.15-.13.3-.19.45L297,255.35l.06.09c.05.07.11.15.17.22a1.289,1.289,0,0,1,.2.3c2.98,10.82,10.44,16.53,21.57,16.54h68.11c0,1.77,0,3.52.01,5.25.01,4.66.02,9.06-.04,13.53-.03,2.33.31,4.61,2.98,5.55a4.76,4.76,0,0,0,1.55.28c1.86,0,3.22-1.29,4.33-2.64,2.28-2.77,4.57-5.52,6.87-8.28,3.11-3.73,6.33-7.59,9.45-11.43,1.26-1.55,2.56-2.54,4.82-2.32a45.812,45.812,0,0,0,5.49.08c.49-.01,31.43-.03,31.92-.04a4.99,4.99,0,0,0,3.62-1.4,4.353,4.353,0,0,0,1.14-3.18c-.06-2.58-1.91-4.28-4.73-4.31Z" fill="none" stroke="#363635" stroke-miterlimit="10" stroke-width="2"/>
      <path id="路径_7" data-name="路径 7" d="M315.52,424.86h89.752m29.653,0h89.752" transform="translate(0 -13.529)" fill="none" stroke="#363635" stroke-width="11"/>
    </g>
  </g>
</svg>
