<svg xmlns="http://www.w3.org/2000/svg" xmlns:xlink="http://www.w3.org/1999/xlink" width="280" height="280" viewBox="0 0 280 280">
  <defs>
    <clipPath id="clip-icons_packimpex_night_def_5">
      <rect width="280" height="280"/>
    </clipPath>
  </defs>
  <g id="icons_packimpex_night_def_5" clip-path="url(#clip-icons_packimpex_night_def_5)">
    <g id="icons_packimpex_night_def_5-2" data-name="icons_packimpex_night_def_5" transform="translate(-292.014 -171.258)">
      <path id="路径_1" data-name="路径 1" d="M511.2,362.77a86.908,86.908,0,0,0-23.043-9.655c-4.7-1.263-9.565-2.369-14.257-3.451q-3.2-.727-6.429-1.489l-1.308-.316,1.15-1.658c.316-.462.643-.936.981-1.4,9.283-12.824,18.87-26.867,26.134-42.68,7.929-17.268,10.038-33.352,6.463-49.166-8.538-37.717-47.372-62.475-84.83-54.049-21.115,4.749-37.244,16.7-47.948,35.54a68.409,68.409,0,0,0-8.843,39.071c.609,9,3.226,18.08,8.471,29.427,7.151,15.464,16.671,29.348,25.886,42.048.316.429.609.88.925,1.365l1.263,1.906-1.4.237c-13.264,2.211-23.2,4.85-32.236,8.538-6.959,2.842-14.9,6.655-21.069,13.411-7.816,8.572-8.132,18.983-.868,27.871,5.9,7.207,14.065,11.189,21.272,14.133,13.772,5.628,29.145,9.012,48.365,10.636q3.113.271,6.226.6l2.786.282h24.024l2.786-.282c2.053-.214,4.106-.417,6.17-.586,18.667-1.568,33.758-4.816,47.485-10.241,8.031-3.169,14.009-6.655,18.8-10.975,4.523-4.06,7.2-8.4,8.177-13.264a1.348,1.348,0,0,1,.372-.677v-6.192c-2-7.715-6.925-13.738-15.509-18.983ZM382.089,303.735c-3.564-6.756-7.873-15.825-9.621-26.021-2.5-14.6.508-28.378,8.956-40.966,12-17.889,28.92-26.856,50.226-26.765,29.619.18,54.038,21.9,58.065,51.67,1.387,10.219-.395,20.618-5.594,32.743-5.391,12.565-12.791,24.983-23.991,40.244-6.328,8.629-12.915,17.268-19.287,25.626q-4.128,5.414-8.234,10.828a7.43,7.43,0,0,1-.665.756l-1.184,1.308-.677-.891c-3.688-4.929-7.5-9.869-11.189-14.652-13.084-16.964-26.607-34.514-36.8-53.88ZM510.58,391.78c-5.121,5.008-11.572,7.839-17.787,10.151a145.327,145.327,0,0,1-38.123,8.279c-5.764.519-11.448.857-16.005,1.128-1.669.1-3.158.192-4.4.271H434.2c-19.693-.282-40.672-1.466-60.693-8.2a118.722,118.722,0,0,1-15.452-6.9l-2.2-1.105a20.929,20.929,0,0,1-5.538-4.579c-3.609-3.857-3.632-7.67-.079-11.685s7.986-6.463,11.877-8.347c8.448-4.094,18.159-7.027,30.544-9.226,1.5-.271,3-.474,4.512-.665,1.771-.237,3.6-.485,5.358-.835a3.3,3.3,0,0,1,3.654,1.568l6.632,8.832c4.128,5.482,8.256,10.963,12.328,16.49,1.681,2.29,3.745,3.542,5.786,3.542s4.027-1.207,5.7-3.474c3-4.072,6.046-8.121,9.091-12.17,3.068-4.083,6.147-8.166,9.17-12.283,1.286-1.737,2.684-2.82,5.38-2.436,12.5,1.782,25.728,4.23,37.909,10.038a58.457,58.457,0,0,1,12.249,7.941c2.493,2.087,3.733,4.207,3.824,6.474.079,2.346-1.117,4.7-3.666,7.2Z" transform="translate(0)" fill="#363635"/>
      <path id="路径_2" data-name="路径 2" d="M463.623,265.437a39.234,39.234,0,0,0-39.195-39.127h-.034a39.234,39.234,0,0,0-39.1,39.251,39.358,39.358,0,0,0,39.195,39.127h.045a39.217,39.217,0,0,0,39.093-39.251Zm-38.823,26.7c-.226,0-.451,0-.677-.011-14.843-.395-26.619-12.463-26.246-26.912.372-14.821,12.4-26.619,26.81-26.337a27.081,27.081,0,0,1,19.186,8.448,25.679,25.679,0,0,1,7.2,18.565c-.429,14.618-12.148,26.247-26.269,26.247Z" transform="translate(6.431 3.716)" fill="#363635"/>
    </g>
  </g>
</svg>
