<svg xmlns="http://www.w3.org/2000/svg" xmlns:xlink="http://www.w3.org/1999/xlink" width="280" height="280" viewBox="0 0 280 280">
  <defs>
    <clipPath id="clip-icons_packimpex_night_def_20">
      <rect width="280" height="280"/>
    </clipPath>
  </defs>
  <g id="icons_packimpex_night_def_20" clip-path="url(#clip-icons_packimpex_night_def_20)">
    <g id="icons_packimpex_night_def_20-2" data-name="icons_packimpex_night_def_20" transform="translate(-271.805 -151.28)">
      <path id="路径_1" data-name="路径 1" d="M533.6,426.1a6.355,6.355,0,0,0-4.69-5.81,13.57,13.57,0,0,0-3.645-.38q-103.864-.028-207.729-.019H303.973c-.532,0-1.063-.009-1.595.019a6.608,6.608,0,0,0-6.161,5.952c-.285,3.066.427,5.088,5.031,7.481H528.666l.029-.019c.389-.228.788-.456,1.187-.674a6.548,6.548,0,0,0,3.721-6.55Z" transform="translate(-0.108 -13.058)" fill="#363635"/>
      <path id="路径_2" data-name="路径 2" d="M528.665,433.342H301.238c-4.6-2.392-5.316-4.414-5.031-7.481a6.616,6.616,0,0,1,6.161-5.952c.532-.028,1.063-.019,1.595-.019h13.566q103.864,0,207.729.019a13.531,13.531,0,0,1,3.645.38,6.365,6.365,0,0,1,4.69,5.81,6.548,6.548,0,0,1-3.721,6.55c-.4.218-.788.446-1.187.674l-.019.019Z" transform="translate(-0.107 -13.058)" fill="#363635"/>
      <path id="路径_3" data-name="路径 3" d="M298.625,253c7.984,4.576,16.053,9.313,23.856,13.888l8.639,5.06c4.538,2.658,9.075,5.316,13.689,8.022l7.993,4.68-3.332,2.677c-.5.408-.949.769-1.4,1.111l-8.848,6.8q-9.484,7.276-18.929,14.591c-2.459,1.918-3.712,4.253-3.512,6.579.19,2.307,1.794,4.376,4.509,5.838l3.076,1.652c7.908,4.253,16.081,8.648,24.236,12.692a10.757,10.757,0,0,0,6.19.949c18.578-3.475,38.5-7.272,58.307-11.515a40.14,40.14,0,0,1,8.4-1.025,22.91,22.91,0,0,1,12.056,3.247,8.258,8.258,0,0,0,1.2.5l.57.209q7.034,2.663,14.031,5.411c10.832,4.205,22.024,8.553,33.188,12.332,11.733,3.968,22.489,4.917,32.875,2.9a23.565,23.565,0,0,0,17.126-12.977,23.25,23.25,0,0,0-.8-21.2c-3.076-5.686-7.6-10.642-14.249-15.6-12.142-9.047-25.878-15.293-37.716-20.211C436.9,261.8,394.268,244.168,353.058,227.2c-3.009-1.244-4.462-3.114-5-6.474-1.813-11.135-3.769-22.442-5.658-33.368l-1.452-8.411c-.446-2.582-1.614-4.234-3.56-5.06l-2-.845c-8.354-3.512-16.983-7.139-25.574-10.395a5.7,5.7,0,0,0-4.671.275,6.617,6.617,0,0,0-3.323,4.234,37.785,37.785,0,0,0-.854,5.819l-.085.9c-.665,6.826-1.3,13.642-1.946,20.467q-.655,6.963-1.31,13.917L296.9,215.9c-.883,9.351-1.8,19.034-2.781,28.546-.446,3.93.911,6.493,4.509,8.553Zm185.856,43.554c-8.7-4.794,20.856,9.56,30.473,19.043a25.524,25.524,0,0,1,5.079,6.939,9.577,9.577,0,0,1,.465,8.05,9.914,9.914,0,0,1-6.4,5.345,26.389,26.389,0,0,1-8.012,1.149,52.313,52.313,0,0,1-7.974-.721c-14.743-2.269-28.536-7.917-41.865-13.366l-1.3-.532-34.432-11.525C398.6,315.3,376.535,319.6,355.935,323.6a6.63,6.63,0,0,1-4.111-.5c-3.066-1.547-6.057-3.133-9.218-4.822l-6.047-3.209,2.269-2.145c.18-.171.351-.342.513-.494a13.262,13.262,0,0,1,1.177-1.073q13.884-10.708,27.805-21.388c2.136-1.642,3.133-3.18,3.332-5.164.323-3.209-.978-5.421-4.367-7.386q-15.92-9.27-31.83-18.578l-16.034-9.37c-2.763-1.623-5.61-3.3-8.439-4.87a5.121,5.121,0,0,1-2.914-5.411c1.244-11.885,2.43-23.9,3.427-34.1.513-5.25,1.006-10.5,1.509-15.863l.978-10.395,2.8,1.149c.921.38,1.8.731,2.668,1.073,2.212.883,4.3,1.709,6.332,2.734a6.247,6.247,0,0,1,2.924,4.31c1.367,7.651,2.687,15.436,3.959,22.964l1.4,8.278c.218,1.3.456,2.592.693,3.892.437,2.364.883,4.8,1.225,7.253l148.491,66.072Z" fill="#363635"/>
      <path id="路径_4" data-name="路径 4" d="M446.59,250.58" transform="translate(-7.733 -4.476)" fill="#363635"/>
    </g>
  </g>
</svg>
