<svg xmlns="http://www.w3.org/2000/svg" xmlns:xlink="http://www.w3.org/1999/xlink" width="280" height="280" viewBox="0 0 280 280">
  <defs>
    <clipPath id="clip-icons_packimpex_night_def_4">
      <rect width="280" height="280"/>
    </clipPath>
  </defs>
  <g id="icons_packimpex_night_def_4" clip-path="url(#clip-icons_packimpex_night_def_4)">
    <g id="icons_packimpex_night_def_4-2" data-name="icons_packimpex_night_def_4" transform="translate(-280.99 -158.129)">
      <path id="路径_1" data-name="路径 1" d="M536.12,370.44c.01-4.59.03-9.18,0-13.77-.06-8.77-4.25-15.21-12.45-19.12-1.17-.56-2.14-1.17-2.14-3q.06-31.995.04-64V250.48c0-.19.02-.38.04-.59l.13-1.07,3.54-1.17c2.23-.73,4.54-1.48,6.76-2.33a6.47,6.47,0,0,0,4-4.2,5.216,5.216,0,0,0-.89-4.64,10.078,10.078,0,0,0-4.54-3c-11.67-3.99-23.56-7.94-35.06-11.77l-26.42-8.79q-22.545-7.5-45.09-15.05a10.214,10.214,0,0,0-6.94.01c-36.45,12.19-72.4,24.15-106.87,35.56a8.9,8.9,0,0,0-5.24,4.36v3.66c1.5,2.79,4.04,3.92,6.34,4.66,5.5,1.78,10.99,3.62,16.48,5.45,5.95,1.99,11.97,4.01,17.92,5.92,2.54.82,3.04,2.19,3.03,4.28q-.075,17.655-.05,35.31,0,10.755-.01,21.5c0,2.68.67,4.52,2.19,5.97,23.79,22.74,52.39,31.97,84.84,27.43,20-2.8,38.02-11.71,53.56-26.49a9.433,9.433,0,0,0,3.15-7.4q-.075-21.135-.04-42.27V258.53l17.11-5.64v83.66l-1.95.91c-8.06,3.76-12.26,9.79-12.48,17.93-.18,6.55-.16,13.21-.15,19.66.01,5.23.03,10.52-.06,15.77-.07,4.29,1.29,6.74,4.54,8.17h32.38c3.21-1.52,4.49-3.93,4.41-8.25-.12-6.78-.1-13.65-.08-20.3Zm-57.83-51.18a85.572,85.572,0,0,1-51.43,21.52c-2.22.15-4.46.23-6.65.23-21.53,0-40.92-7.44-57.63-22.12a5.057,5.057,0,0,1-1.64-3.47c-.07-14.23-.06-28.7-.06-42.69v-7.06c0-.28.02-.56.05-.87l.23-2.1,25.54,8.46c10.25,3.4,20.5,6.8,30.73,10.27a9.219,9.219,0,0,0,6.28.01q20.19-6.78,40.42-13.47l16.11-5.31v15.66c0,12.21-.01,24.42.04,36.63a5.162,5.162,0,0,1-1.99,4.31Zm22.84-74.51c-4.29,1.44-8.5,2.86-12.72,4.26l-18.46,6.14q-23.13,7.7-46.25,15.43a9.627,9.627,0,0,1-3.07.53,10.193,10.193,0,0,1-3.32-.58q-31.335-10.47-62.67-20.89l-1.33-.44c-14.46-4.82-18.91-6.3-19.03-6.34l-9.25-3.34,49.28-16.44q21.825-7.275,43.68-14.49a8.4,8.4,0,0,1,5.03-.07q36.87,12.21,73.7,24.52l19.73,6.58-15.32,5.13ZM524.2,377.28v1.28c-.01,2.21-.02,4.42-.02,6.65v1.71H507.26l-.17-1.52a11.3,11.3,0,0,1-.08-1.15v-1.31q-.015-13.065,0-26.14c.01-4.98,3.33-8.62,8.06-8.83,5.06-.22,8.97,3.35,9.06,8.14.12,7.04.1,13.9.07,21.17Z" fill="#363635"/>
    </g>
  </g>
</svg>
