<svg xmlns="http://www.w3.org/2000/svg" xmlns:xlink="http://www.w3.org/1999/xlink" width="280" height="280" viewBox="0 0 280 280">
  <defs>
    <clipPath id="clip-icons_packimpex_night_def_8">
      <rect width="280" height="280"/>
    </clipPath>
  </defs>
  <g id="icons_packimpex_night_def_8" clip-path="url(#clip-icons_packimpex_night_def_8)">
    <g id="icons_packimpex_night_def_8-2" data-name="icons_packimpex_night_def_8" transform="translate(-261.134 -140.28)">
      <path id="路径_1" data-name="路径 1" d="M385.867,409.861c-1.723-.452-3.472-.835-5.178-1.357-10.747-3.3-18.021-11.573-20.536-23.6H357.22q-33.441,0-66.891-.009c-8.18-.009-13.775-5.674-13.314-13.505a11.392,11.392,0,0,1,6.039-9.668,3.142,3.142,0,0,0,1.793-3.272c-.061-9.154-.035-18.317-.026-27.472.009-9.824,5.787-15.028,15.463-13.932.766.087,1.54.078,2.7.139-.444-4.194-.879-8.267-1.314-12.339-.461-4.377-1.114-8.737-1.357-13.122-.487-8.884,6.483-14.723,15.211-13.192,32.9,5.769,59.268,22.99,82,46.624,1.253,1.3,2.445,2.654,3.864,4.2.792-.835,1.5-1.558,2.175-2.289,16.786-18.213,36.138-32.9,59.442-41.7,8.171-3.08,16.794-5.091,25.357-6.953,7.666-1.662,14.61,4.777,14.175,12.792-.331,6.109-1.227,12.182-1.871,18.274-.261,2.471-.531,4.934-.818,7.7,1.244-.078,2.245-.061,3.228-.2,8.293-1.21,14.863,4.307,14.932,12.7.078,9.5.052,19-.017,28.516-.009,1.732.383,2.793,2.054,3.646,3.072,1.566,4.534,4.56,5.821,7.6v5.7c-2.671,7.336-8.04,9.929-15.654,9.85-21.563-.226-43.126-.078-64.689-.078h-2.889c-2.254,11.817-10.111,20.684-20.736,23.7-1.627.461-3.281.835-4.925,1.253q-15.533-.026-31.1-.017Zm-92.526-50.087h74.1c4.142,0,8.293-.061,12.435.026,3.568.07,4.969,1.549,4.986,5.125.026,4.751-.009,9.5.009,14.254.017,4.2,1.357,5.543,5.613,5.552q11.016.026,22.024,0c4.064-.017,5.447-1.4,5.465-5.439.026-4.925-.017-9.842.017-14.767.026-2.959,1.427-4.438,4.351-4.7.861-.078,1.723-.035,2.593-.035h84.494c0-10.59.052-20.762-.043-30.935-.017-2.332-1.575-3.559-3.924-3.576a20.462,20.462,0,0,0-3.089.261q-21.994,3.25-43.979,6.518c-16.194,2.393-32.388,4.795-48.591,7.109-3.385.487-6.892,1.175-10.225.792-10.016-1.157-19.971-2.785-29.943-4.246q-20.467-3-40.916-6.039c-9.72-1.436-19.431-2.9-29.16-4.264-4.716-.661-6.2.7-6.213,5.4q-.026,12.57-.009,25.131c.009,1.157.009,2.341.009,3.829Zm83.206,8.65c-1-.043-1.671-.1-2.349-.1q-41.86-.013-83.729,0c-.435,0-.87-.009-1.3.026a3.975,3.975,0,0,0-.044,7.945,28.181,28.181,0,0,0,2.845.07h69.988c4.943,0,5.865.818,6.4,5.639,1.253,11.2,8.954,18.8,20.084,19.2,8.632.322,17.29.313,25.914.009,11.051-.4,18.639-7.779,20.075-18.918.67-5.238,1.444-5.926,6.683-5.926q34.994,0,69.988-.009a20.369,20.369,0,0,0,3.1-.13,3.777,3.777,0,0,0,3.3-3.768c.226-2.428-1.8-4.133-4.838-4.133q-42.251-.013-84.512,0c-.566,0-1.14.131-1.853.209,0,4.116.026,8.075-.009,12.035a12.419,12.419,0,0,1-12.165,12.6q-12.7.248-25.4,0A12.4,12.4,0,0,1,376.547,380.6c-.026-3.968,0-7.927,0-12.174Zm36.539-38.3q39.041-5.73,78.064-11.452c.27-2.445.5-4.5.731-6.561.783-6.77,1.618-13.523,2.323-20.3.383-3.646-1.723-5.534-5.282-4.96-.853.139-1.706.235-2.55.4-18.2,3.428-34.485,11.234-49.548,21.763a126.545,126.545,0,0,0-23.738,21.111Zm-22.616.087a33.844,33.844,0,0,0-2.384-2.576c-7.092-6.039-13.879-12.5-21.372-17.987-15.689-11.5-33-19.6-52.385-22.729-4.238-.687-6.178,1.244-5.656,5.508.339,2.741.644,5.482.957,8.223.687,5.978,1.384,11.956,2.088,18.03,26.175,3.82,52.115,7.623,78.751,11.53Z" transform="translate(0 -14.524)" fill="#363635"/>
      <path id="路径_2" data-name="路径 2" d="M390.682,221.728a6.269,6.269,0,0,0-4.107-2.376c-10.468-.783-18.839-6.961-21.763-16.638a56.545,56.545,0,0,1-1.14-7.109c-.426-2.584-1.984-3.968-4.316-3.916-2.289.052-3.846,1.584-4.133,4.133-.148,1.279-.07,2.6-.313,3.855-2.219,11.408-10.86,18.9-22.5,19.57-2.924.165-4.655,1.662-4.716,4.072-.07,2.5,1.671,4.02,4.769,4.29a32.443,32.443,0,0,1,4.856.679,23.216,23.216,0,0,1,17.856,21.746c.148,3.307,1.636,5.073,4.273,5.091,2.393.017,3.872-1.471,4.29-4.264a47.027,47.027,0,0,1,1.114-6.848c2.941-9.572,11.06-15.594,21.589-16.481a6.01,6.01,0,0,0,3.925-1.845,4.221,4.221,0,0,0,.322-3.959ZM359.46,234.163c-3.4-3.411-7.162-7.188-10.686-10.721,3.568-3.594,7.292-7.344,10.694-10.773l10.7,10.8c-3.394,3.385-7.17,7.153-10.712,10.695Z" transform="translate(-6.582 -3.299)" fill="#363635"/>
      <path id="路径_3" data-name="路径 3" d="M494.488,193.891a12.838,12.838,0,0,0-1.288-.1,23.322,23.322,0,0,1-21.955-22.329c-.131-3.176-1.732-5.16-4.229-5.178-2.41-.017-3.89,1.671-4.264,4.873-.07.6-.122,1.2-.183,1.8a23.28,23.28,0,0,1-22.764,20.928c-1.906.052-3.785.74-4.2,2.785-.261,1.279-.1,3.194.687,4.012a6.926,6.926,0,0,0,4.325,1.706,23.358,23.358,0,0,1,21.285,17.16c.548,2.158.644,4.421,1,6.631a4.1,4.1,0,0,0,4.194,3.75c2.454-.07,4.02-1.949,4.151-4.977a23.384,23.384,0,0,1,22.842-22.538c2.863-.078,4.6-1.775,4.647-4.186.035-2.376-1.5-3.942-4.246-4.334Zm-27.506,14.958c-3.507-3.507-7.3-7.3-10.738-10.729,3.446-3.429,7.2-7.179,10.764-10.729,3.376,3.385,7.144,7.179,10.721,10.773-3.437,3.42-7.275,7.24-10.747,10.686Z" transform="translate(-20.576 0)" fill="#363635"/>
      <path id="路径_4" data-name="路径 4" d="M424.448,255.01a15.637,15.637,0,1,0,15.759,15.585,15.879,15.879,0,0,0-15.759-15.585Zm.235,22.8a7,7,0,0,1-7.283-7.04,7.111,7.111,0,1,1,14.219-.339,6.985,6.985,0,0,1-6.935,7.379Z" transform="translate(-17.114 -11.519)" fill="#363635"/>
    </g>
  </g>
</svg>
