<svg xmlns="http://www.w3.org/2000/svg" xmlns:xlink="http://www.w3.org/1999/xlink" width="280" height="280" viewBox="0 0 280 280">
  <defs>
    <clipPath id="clip-icons_packimpex_night_def_14">
      <rect width="280" height="280"/>
    </clipPath>
  </defs>
  <g id="icons_packimpex_night_def_14" clip-path="url(#clip-icons_packimpex_night_def_14)">
    <g id="icons_packimpex_night_def_14-2" data-name="icons_packimpex_night_def_14" transform="translate(-262.343 -139.621)">
      <path id="路径_1" data-name="路径 1" d="M461.976,267.673c-.174-.235-.34-.479-.505-.723l-.009-.017a16.341,16.341,0,0,0-1.8-2.291c-18.636-18.688-37.5-37.55-56.064-56.064a17.529,17.529,0,0,0-2.361-1.864l-1.1-.793h-2.248l-1.072.758a16.613,16.613,0,0,0-2.3,1.812q-16.584,16.545-33.15,33.115l-2.6,2.6q-10.612,10.6-21.223,21.206a4.861,4.861,0,0,0-1.6,4.922,4.571,4.571,0,0,0,3.11,3.258,4.712,4.712,0,0,0,4.469-.984c.27-.235.531-.479.836-.775l1.141-1.072v56.43c0,2.588,1.272,4.408,3.494,5a6.5,6.5,0,0,0,1.62.139q32.253.013,64.5.009h32.279c3.241,0,5.105-1.882,5.105-5.166V270.731l1.115,1.045c.2.183.357.34.523.5a4.882,4.882,0,0,0,4.356,1.429,4.938,4.938,0,0,0,3.476-3.058.461.461,0,0,1,.07-.131l.166-.3V268l-.226-.331Zm-48.2,25.754v29.613H384.219V293.426Zm4.025-9.418q-18.806-.013-37.6,0c-3.528,0-5.4,1.873-5.4,5.4v33.629H354.955l-.044-.741c-.017-.3-.044-.592-.044-.9v-2.8q0-28.006.026-56.02a3.191,3.191,0,0,1,.81-2.065q19.028-19.093,38.1-38.142l4.278-4.269c.113-.113.244-.235.462-.436l.671-.627.227.3c.113.148.209.288.366.505a3.783,3.783,0,0,0,.444.549q20.962,20.975,41.95,41.941a3.138,3.138,0,0,1,.984,2.413q-.026,24.569-.017,49.129v11.187H423.224V289.549c0-3.685-1.821-5.541-5.419-5.541Z" transform="translate(-7.569 -6.65)" fill="#363635"/>
      <path id="路径_2" data-name="路径 2" d="M520.987,367.513c-12.162-12.371-22.948-23.131-32.95-32.9-3.668-3.572-4.156-7.179-1.594-11.7,15.673-27.627,19.359-56.8,10.969-86.687C481.05,177.916,423.923,143.9,364.549,157.12a111.878,111.878,0,0,0-86.783,122.617c3.476,29.9,17.041,54.7,40.312,73.706,25.03,20.448,54.321,28.672,87.062,24.438,15.377-1.986,29.8-7.283,44.067-16.187l2.805-1.751,13.731,13.765c8.024,8.033,15.952,15.987,23.854,23.976,4.583,4.635,9.618,7,15.395,7.257a21.893,21.893,0,0,0,20.692-12.65c3.868-8.416,2.065-17.912-4.7-24.778Zm-131.425.314h-.392a102.974,102.974,0,0,1-19.951-2.021c-1.3-.261-2.588-.566-3.868-.88l-.392-.087-.575-.131a100.648,100.648,0,0,1-43.1-23.271c-1.237-1.133-2.466-2.309-3.633-3.494a101.267,101.267,0,0,1,71.781-172.486h.3A100.957,100.957,0,0,1,490.2,261.711c.078,1.742.122,3.494.122,5.2-.009,3.354-.174,6.743-.514,10.08a100.944,100.944,0,0,1-100.244,90.834Zm126.929,15.56a3.809,3.809,0,0,1-.052.453,10.568,10.568,0,0,1-3.328,6.839,13.188,13.188,0,0,1-1.952,1.481,10.317,10.317,0,0,1-5.463,1.7,9.062,9.062,0,0,1-5.132-1.62,10.976,10.976,0,0,1-1.481-1.228c-8.564-8.512-17.033-17.128-25.222-25.449l-11.945-12.128,13.6-13.914H476.9l11.474,11.4,25.144,25.152a10.607,10.607,0,0,1,1.742,2.413,9.645,9.645,0,0,1,1.229,4.9Z" transform="translate(0)" fill="#363635"/>
    </g>
  </g>
</svg>
