<svg xmlns="http://www.w3.org/2000/svg" xmlns:xlink="http://www.w3.org/1999/xlink" width="280" height="280" viewBox="0 0 280 280">
  <defs>
    <clipPath id="clip-icons_packimpex_night_def_3">
      <rect width="280" height="280"/>
    </clipPath>
  </defs>
  <g id="icons_packimpex_night_def_3" clip-path="url(#clip-icons_packimpex_night_def_3)">
    <g id="icons_packimpex_night_def_3-2" data-name="icons_packimpex_night_def_3" transform="translate(-281.019 -157.456)">
      <path id="路径_1" data-name="路径 1" d="M489.39,370.12c-2.14-2.09-2.4-4.02-.9-6.66,10.93-19.27,13.51-39.62,7.65-60.49-11.42-40.69-51.26-64.43-92.71-55.21a78.066,78.066,0,0,0-60.56,85.57A75.665,75.665,0,0,0,371,384.77c17.46,14.27,37.89,20.01,60.74,17.05a75.472,75.472,0,0,0,30.76-11.29l1.16-.72,8.17,8.19c5.73,5.74,11.39,11.41,17.03,17.11a16.5,16.5,0,0,0,11.35,5.33,16.1,16.1,0,0,0,11.86-27.68c-8.38-8.52-15.8-15.92-22.68-22.64Zm-20.57,2.72a67.6,67.6,0,0,1-47.95,19.8h-.27a69.354,69.354,0,0,1-13.49-1.37c-.88-.18-1.75-.38-2.62-.59-.22-.05-.44-.09-.65-.15a67.672,67.672,0,0,1-29.15-15.74c-.84-.76-1.66-1.55-2.46-2.36a68.5,68.5,0,0,1,48.55-116.67h.21a68.421,68.421,0,0,1,67.94,65.1c.06,1.16.08,2.34.08,3.52-.01,2.29-.12,4.57-.35,6.82a67.946,67.946,0,0,1-19.84,41.64Zm38.19,31.61c0,.09-.03.18-.03.26a5.5,5.5,0,0,1-.27,1.34,5.951,5.951,0,0,1-1.66,2.6,7.939,7.939,0,0,1-1.18.89,5.907,5.907,0,0,1-3.14.99,5.036,5.036,0,0,1-2.88-.91,6.226,6.226,0,0,1-.86-.71c-5.84-5.81-11.68-11.75-17.34-17.49l-7.43-7.54h0l2.7-2.76,5.53-5.65h0l7.55,7.51c5.68,5.65,11.56,11.48,17.28,17.29a5.616,5.616,0,0,1,1,1.4,5.149,5.149,0,0,1,.73,2.78Z" fill="#363635"/>
      <path id="路径_2" data-name="路径 2" d="M489.39,370.12c-2.14-2.09-2.4-4.02-.9-6.66,10.93-19.27,13.51-39.62,7.65-60.49-11.42-40.69-51.26-64.43-92.71-55.21a78.066,78.066,0,0,0-60.56,85.57A75.665,75.665,0,0,0,371,384.77c17.46,14.27,37.89,20.01,60.74,17.05a75.472,75.472,0,0,0,30.76-11.29l1.16-.72,8.17,8.19c5.73,5.74,11.39,11.41,17.03,17.11a16.5,16.5,0,0,0,11.35,5.33,16.1,16.1,0,0,0,11.86-27.68c-8.38-8.52-15.8-15.92-22.68-22.64Zm-20.57,2.72a67.6,67.6,0,0,1-47.95,19.8h-.27a69.354,69.354,0,0,1-13.49-1.37c-.88-.18-1.75-.38-2.62-.59-.22-.05-.44-.09-.65-.15a67.672,67.672,0,0,1-29.15-15.74c-.84-.76-1.66-1.55-2.46-2.36a68.5,68.5,0,0,1,48.55-116.67h.21a68.421,68.421,0,0,1,67.94,65.1c.06,1.16.08,2.34.08,3.52-.01,2.29-.12,4.57-.35,6.82a67.946,67.946,0,0,1-19.84,41.64Zm38.19,31.61c0,.09-.03.18-.03.26a5.5,5.5,0,0,1-.27,1.34,5.951,5.951,0,0,1-1.66,2.6,7.939,7.939,0,0,1-1.18.89,5.907,5.907,0,0,1-3.14.99,5.036,5.036,0,0,1-2.88-.91,6.226,6.226,0,0,1-.86-.71c-5.84-5.81-11.68-11.75-17.34-17.49l-7.43-7.54h0l2.7-2.76,5.53-5.65h0l7.55,7.51c5.68,5.65,11.56,11.48,17.28,17.29a5.616,5.616,0,0,1,1,1.4,5.149,5.149,0,0,1,.73,2.78Z" fill="#363635"/>
      <path id="路径_3" data-name="路径 3" d="M475.75,184.01a30.636,30.636,0,0,0-9.33,21.97c.01,8.47,3.57,16.36,10.29,22.81l1.44,1.38-1.57,1.21c-1.08.83-2.15,1.63-3.22,2.41a75.026,75.026,0,0,0-6.57,5.23,4.537,4.537,0,0,0-1.56,3.94,5.321,5.321,0,0,0,2.94,3.9c1.94,1.03,3.23,1.2,6.64-1.7,6.79-5.79,14.2-8.71,21.89-8.71a34.187,34.187,0,0,1,13.51,2.92c12.48,5.34,19.51,15.69,20.32,29.92.29,5.07,3.01,5.64,5.32,5.57,3.12-.09,4.67-1.97,4.6-5.59a41.54,41.54,0,0,0-6.46-22.03,46.774,46.774,0,0,0-9.62-10.76,55.107,55.107,0,0,0-4.61-3.34c-.76-.52-1.53-1.03-2.28-1.57l-1.71-1.21,1.52-1.44c8.49-8.01,10.36-16.74,10.43-22.65a30.613,30.613,0,0,0-51.97-22.26Zm40.32,13.88a20.183,20.183,0,0,1-4.21,22.38c-.49.49-1,.96-1.52,1.4a20.621,20.621,0,0,1-13.14,4.78h-.11A20.451,20.451,0,0,1,476.53,206a20.668,20.668,0,0,1,20.49-20.74h.11a20.946,20.946,0,0,1,18.94,12.63Z" fill="#363635"/>
      <path id="路径_4" data-name="路径 4" d="M475.75,184.01a30.636,30.636,0,0,0-9.33,21.97c.01,8.47,3.57,16.36,10.29,22.81l1.44,1.38-1.57,1.21c-1.08.83-2.15,1.63-3.22,2.41a75.026,75.026,0,0,0-6.57,5.23,4.537,4.537,0,0,0-1.56,3.94,5.321,5.321,0,0,0,2.94,3.9c1.94,1.03,3.23,1.2,6.64-1.7,6.79-5.79,14.2-8.71,21.89-8.71a34.187,34.187,0,0,1,13.51,2.92c12.48,5.34,19.51,15.69,20.32,29.92.29,5.07,3.01,5.64,5.32,5.57,3.12-.09,4.67-1.97,4.6-5.59a41.54,41.54,0,0,0-6.46-22.03,46.774,46.774,0,0,0-9.62-10.76,55.107,55.107,0,0,0-4.61-3.34c-.76-.52-1.53-1.03-2.28-1.57l-1.71-1.21,1.52-1.44c8.49-8.01,10.36-16.74,10.43-22.65a30.613,30.613,0,0,0-51.97-22.26Zm40.32,13.88a20.183,20.183,0,0,1-4.21,22.38c-.49.49-1,.96-1.52,1.4a20.621,20.621,0,0,1-13.14,4.78h-.11A20.451,20.451,0,0,1,476.53,206a20.668,20.668,0,0,1,20.49-20.74h.11a20.946,20.946,0,0,1,18.94,12.63Z" fill="#363635"/>
      <path id="路径_5" data-name="路径 5" d="M324.2,243.41c12.87-9.8,30.03-9.01,42.71,1.97,4,3.46,6.27,2.02,7.81.37a7.627,7.627,0,0,0,.7-.87,4.179,4.179,0,0,0,.81-2.64,6.475,6.475,0,0,0-2.61-4.26c-1.85-1.57-3.82-2.98-5.92-4.47-.95-.68-1.91-1.36-2.88-2.07l-1.64-1.21,1.48-1.41c6.79-6.45,11.1-16.2,10.18-26.13-.05-.5-.1-.99-.18-1.49a29.974,29.974,0,0,0-7.7-15.92,30.675,30.675,0,0,0-40.67-4.04,29.682,29.682,0,0,0-11.88,18.38c-2.28,11.26.97,20.89,9.94,29.45l1.64,1.56-2.83,1.66c-.43.25-.78.45-1.11.67-13.84,8.94-20.72,20.93-21.03,36.65-.05,2.71,1.13,4.54,3.34,5.13a5.114,5.114,0,0,0,4.46-.63,5.771,5.771,0,0,0,2.11-4.57c.39-10.94,4.86-19.73,13.27-26.13Zm-.51-37.42a20.947,20.947,0,0,1,20.57-20.74h.12a20.572,20.572,0,0,1,18.77,12.32l.12.24c.04.08.06.17.1.26a20.814,20.814,0,0,1,1.57,7.75,20.375,20.375,0,0,1-2.62,10.16,20.861,20.861,0,0,1-3.27,4.37,20.4,20.4,0,0,1-9.22,5.36,20.989,20.989,0,0,1-5.39.74h-.08a20.729,20.729,0,0,1-20.67-20.46Z" fill="#363635"/>
      <path id="路径_6" data-name="路径 6" d="M324.2,243.41c12.87-9.8,30.03-9.01,42.71,1.97,4,3.46,6.27,2.02,7.81.37a7.627,7.627,0,0,0,.7-.87,4.179,4.179,0,0,0,.81-2.64,6.475,6.475,0,0,0-2.61-4.26c-1.85-1.57-3.82-2.98-5.92-4.47-.95-.68-1.91-1.36-2.88-2.07l-1.64-1.21,1.48-1.41c6.79-6.45,11.1-16.2,10.18-26.13-.05-.5-.1-.99-.18-1.49a29.974,29.974,0,0,0-7.7-15.92,30.675,30.675,0,0,0-40.67-4.04,29.682,29.682,0,0,0-11.88,18.38c-2.28,11.26.97,20.89,9.94,29.45l1.64,1.56-2.83,1.66c-.43.25-.78.45-1.11.67-13.84,8.94-20.72,20.93-21.03,36.65-.05,2.71,1.13,4.54,3.34,5.13a5.114,5.114,0,0,0,4.46-.63,5.771,5.771,0,0,0,2.11-4.57c.39-10.94,4.86-19.73,13.27-26.13Zm-.51-37.42a20.947,20.947,0,0,1,20.57-20.74h.12a20.572,20.572,0,0,1,18.77,12.32l.12.24c.04.08.06.17.1.26a20.814,20.814,0,0,1,1.57,7.75,20.375,20.375,0,0,1-2.62,10.16,20.861,20.861,0,0,1-3.27,4.37,20.4,20.4,0,0,1-9.22,5.36,20.989,20.989,0,0,1-5.39.74h-.08a20.729,20.729,0,0,1-20.67-20.46Z" fill="#363635"/>
      <path id="路径_7" data-name="路径 7" d="M427.08,328.6c12.68,2.2,26.59,13.42,27.17,32.87.09,3.15,1.9,4.79,5.15,4.75a5,5,0,0,0,3.73-1.53,4.1,4.1,0,0,0,.88-3.23c-.57-5.08-1.21-10.84-3.02-15.9-3.33-9.35-9.81-16.66-19.82-22.34l-1.99-1.13,1.64-1.59c6.87-6.66,10.5-14.67,10.52-23.18a30.594,30.594,0,0,0-50.7-23.1,29.758,29.758,0,0,0-10.43,20.12c-.95,9.87,2.57,18.62,10.46,26.02l1.63,1.52-2.73,1.7c-.48.3-.89.55-1.28.81-13.83,9.01-20.68,21.02-20.93,36.72a5.117,5.117,0,0,0,1.35,3.91,5.38,5.38,0,0,0,4.14,1.19c1.77-.12,4.14-.81,4.39-5.45.55-10.41,5.04-19.49,12.65-25.56a32.96,32.96,0,0,1,20.76-7.14,36.1,36.1,0,0,1,6.43.54Zm-26.99-31.33a21.012,21.012,0,0,1,20.63-20.65h.01a20.947,20.947,0,0,1,20.63,20.65h0a20.361,20.361,0,0,1-6.02,14.49,21.013,21.013,0,0,1-2.51,2.12,20.456,20.456,0,0,1-12.1,3.97h0a20.691,20.691,0,0,1-20.64-20.58Z" fill="#363635"/>
      <path id="路径_8" data-name="路径 8" d="M427.08,328.6c12.68,2.2,26.59,13.42,27.17,32.87.09,3.15,1.9,4.79,5.15,4.75a5,5,0,0,0,3.73-1.53,4.1,4.1,0,0,0,.88-3.23c-.57-5.08-1.21-10.84-3.02-15.9-3.33-9.35-9.81-16.66-19.82-22.34l-1.99-1.13,1.64-1.59c6.87-6.66,10.5-14.67,10.52-23.18a30.594,30.594,0,0,0-50.7-23.1,29.758,29.758,0,0,0-10.43,20.12c-.95,9.87,2.57,18.62,10.46,26.02l1.63,1.52-2.73,1.7c-.48.3-.89.55-1.28.81-13.83,9.01-20.68,21.02-20.93,36.72a5.117,5.117,0,0,0,1.35,3.91,5.38,5.38,0,0,0,4.14,1.19c1.77-.12,4.14-.81,4.39-5.45.55-10.41,5.04-19.49,12.65-25.56a32.96,32.96,0,0,1,20.76-7.14,36.1,36.1,0,0,1,6.43.54Zm-26.99-31.33a21.012,21.012,0,0,1,20.63-20.65h.01a20.947,20.947,0,0,1,20.63,20.65h0a20.361,20.361,0,0,1-6.02,14.49,21.013,21.013,0,0,1-2.51,2.12,20.456,20.456,0,0,1-12.1,3.97h0a20.691,20.691,0,0,1-20.64-20.58Z" fill="#363635"/>
    </g>
  </g>
</svg>
