<svg xmlns="http://www.w3.org/2000/svg" xmlns:xlink="http://www.w3.org/1999/xlink" width="280" height="280" viewBox="0 0 280 280">
  <defs>
    <clipPath id="clip-icons_packimpex_night_def_26.svg">
      <rect width="280" height="280"/>
    </clipPath>
  </defs>
  <g id="icons_packimpex_night_def_26.svg" clip-path="url(#clip-icons_packimpex_night_def_26.svg)">
    <g id="icons_packimpex_night_def_26" transform="translate(-283.423 -162.28)">
      <path id="路径_1" data-name="路径 1" d="M418.118,179.28H427.7a11.743,11.743,0,0,0,1.506.505c8.676,1.795,15.216,6.437,18.867,14.617a3.378,3.378,0,0,0,3.714,2.352c5.5-.021,11.017-.041,16.505.32,3.394.227,4.828,2.228,4.848,5.643.01,2.837,0,5.684,0,8.686,7.345,0,14.349-.021,21.364,0,14.463.041,25.222,10.811,25.232,25.294q.015,82.2-.01,164.391a26.082,26.082,0,0,1-.351,5.24c-2.208,10.708-12.08,18.352-23.757,18.362q-72.091.031-144.182,0c-14.473-.01-24.407-10.037-24.407-24.52V249.2c0-4.714-.093-9.429.041-14.132.3-11.337,8.913-21.591,20.188-23.076,6.6-.867,13.369-.444,20.064-.578,2.043-.041,4.1-.01,6.324-.01,0-3.239-.021-6.179.01-9.119.031-2.9,1.444-4.663,4.26-5.209a20.487,20.487,0,0,1,3.806-.34c4.395-.041,8.779-.083,13.173.021a2.774,2.774,0,0,0,3.064-1.908,25.851,25.851,0,0,1,14.762-13.885c1.733-.7,3.59-1.135,5.4-1.681Zm-44.481,44.079c-8.211,0-16.1,0-23.984.01a4.557,4.557,0,0,0-1.155.258c-6.128,1.681-9.748,6.623-9.748,13.39q-.016,81.948,0,163.885c0,.4,0,.794.01,1.2a9.974,9.974,0,0,0,5.447,8.933c2.806,1.63,5.859,1.867,9.006,1.867q70.172-.031,140.335-.021c1.2,0,2.393-.031,3.59-.124,6.726-.567,10.914-5.075,10.914-11.811q.015-82.072,0-164.133c0-8.077-5.405-13.5-13.493-13.565-5.746-.052-11.492-.01-17.237-.01h-4.157c0,4.56.01,8.779,0,13-.01,4.745-2.455,7.314-7.149,7.314q-42.753.031-85.5,0c-4.529,0-6.839-2.434-6.86-7.035-.041-4.291-.021-8.593-.021-13.153Zm12.069-14.844v23.2h75.428v-23.2H446.456c-4.828,0-6.489-1.279-7.809-5.983a16.493,16.493,0,0,0-15.556-12.3c-7.427-.01-13.792,5.1-15.969,12.781-1.155,4.085-3,5.5-7.2,5.5Z" fill="#fff"/>
      <path id="路径_2" data-name="路径 2" d="M448.826,272.7q16.17,0,32.329,0c4.137,0,6.705,2.218,6.757,5.766.052,3.672-2.538,6.076-6.746,6.076q-32.7.031-65.381,0c-3.992,0-6.705-2.486-6.705-5.952,0-3.518,2.661-5.89,6.695-5.89q16.526-.016,33.052,0Z" transform="translate(2.591 2.949)" fill="#fff"/>
      <path id="路径_3" data-name="路径 3" d="M448.578,363.31c11.017,0,22.034-.021,33.051.01,3.93.01,6.427,2.569,6.282,6.251a5.551,5.551,0,0,1-3.92,5.178,11.449,11.449,0,0,1-3.291.433q-32.216.031-64.421.021a13.307,13.307,0,0,1-1.434-.041c-3.487-.361-5.87-2.94-5.736-6.169a5.842,5.842,0,0,1,6.189-5.663c8.541-.041,17.083-.01,25.624-.021Z" transform="translate(2.592 5.809)" fill="#fff"/>
      <path id="路径_4" data-name="路径 4" d="M448.62,329.74c-11.172,0-22.354.021-33.526-.01a5.75,5.75,0,0,1-5.766-4.147,5.625,5.625,0,0,1,2.373-6.489,8.627,8.627,0,0,1,4.075-1.063q32.8-.093,65.608-.041c2.888,0,5.148,1.063,6.251,3.9.836,2.146.279,5.034-1.609,6.3a8.894,8.894,0,0,1-4.6,1.5c-10.935.124-21.869.062-32.8.052Z" transform="translate(2.592 4.379)" fill="#fff"/>
      <path id="路径_5" data-name="路径 5" d="M373.671,368.186c5.581-5.313,11.512-10.976,17.475-16.619,2.507-2.373,4.869-2.806,7.365-1.475,3.672,1.95,4.58,6.354,1.62,9.243q-11.512,11.172-23.3,22.065c-2.414,2.238-5.405,2.032-7.726-.279q-6.035-5.988-11.894-12.152a6.126,6.126,0,0,1-.155-8.624c2.269-2.259,5.859-2,8.562.526,2.569,2.393,5.2,4.725,8.057,7.314Z" transform="translate(0.895 5.369)" fill="#fff"/>
      <path id="路径_6" data-name="路径 6" d="M373.288,277.938c6.045-5.756,12.028-11.492,18.063-17.176,2.548-2.393,5.261-2.651,7.809-.9,3.095,2.125,3.776,6.086,1.1,8.7-7.716,7.52-15.566,14.917-23.468,22.241-2.4,2.228-5.374,2-7.716-.33q-5.942-5.911-11.729-11.977c-2.579-2.713-2.62-6.5-.258-8.8s5.973-1.991,8.717.763c1.238,1.248,2.414,2.548,3.652,3.8,1.176,1.176,2.4,2.311,3.827,3.683Z" transform="translate(0.896 2.508)" fill="#fff"/>
      <path id="路径_7" data-name="路径 7" d="M373.247,323.287c5.509-5.251,10.935-10.409,16.35-15.566.753-.712,1.465-1.475,2.259-2.135a5.947,5.947,0,0,1,8.376.536,5.43,5.43,0,0,1-.3,8.087q-11.3,10.862-22.715,21.6a5.611,5.611,0,0,1-8.325-.175q-5.911-5.926-11.677-12.007a6.156,6.156,0,0,1-.165-8.624c2.342-2.3,5.828-2.094,8.521.557,1.248,1.228,2.435,2.527,3.672,3.765s2.486,2.465,4,3.961Z" transform="translate(0.896 3.941)" fill="#fff"/>
    </g>
  </g>
</svg>
