<?xml version="1.0" encoding="utf-8"?>
<!-- Generator: Adobe Illustrator 24.0.0, SVG Export Plug-In . SVG Version: 6.00 Build 0)  -->
<svg version="1.1" id="图层_1" xmlns="http://www.w3.org/2000/svg" xmlns:xlink="http://www.w3.org/1999/xlink" x="0px" y="0px"
	 viewBox="0 0 280 280" style="enable-background:new 0 0 280 280;" xml:space="preserve">
<style type="text/css">
	.st0{fill:none;stroke:#AAB926;stroke-width:6.1095;stroke-miterlimit:10;}
	.st1{clip-path:url(#SVGID_2_);}
	.st2{clip-path:url(#SVGID_4_);}
	.st3{fill:#AAB926;}
	.st4{clip-path:url(#SVGID_6_);}
	.st5{clip-path:url(#SVGID_8_);}
</style>
<circle class="st0" cx="140" cy="140" r="136.2"/>
<g>
	<defs>
		<rect id="SVGID_5_" x="44" y="45.4" width="189.2" height="189.2"/>
	</defs>
	<clipPath id="SVGID_2_">
		<use xlink:href="#SVGID_5_"  style="overflow:visible;"/>
	</clipPath>
	<g id="icons_packimpex_night_def_18" class="st1">
		<g>
			<defs>
				<rect id="SVGID_7_" x="43.3" y="45.4" width="189.2" height="189.2"/>
			</defs>
			<clipPath id="SVGID_4_">
				<use xlink:href="#SVGID_7_"  style="overflow:visible;"/>
			</clipPath>
			<g id="icons_packimpex_night_def_18-2" transform="translate(-1)" class="st2">
				<g id="icons_packimpex_night_def_18-3" transform="translate(-255.043 -131.009)">
					<path id="路径_1_2_" class="st3" d="M395.4,263.4c-0.5,0-0.9-0.3-1.1-0.7l-1.7-3.3c-0.2-0.3-0.2-0.7-0.1-1l0.5-1.3l-3.2-5
						c-0.1-0.1-0.1-0.3-0.2-0.4l-0.9-4.2l-0.1,0.1l-5.7,4.2c-0.5,0.3-1.1,0.3-1.6-0.1l-4.1-3.5c-0.3-0.3-0.5-0.8-0.4-1.2l0.6-2.6
						l-0.9-2c-0.1-0.2-0.1-0.4-0.1-0.6l0.7-9.1c0-0.4,0.2-0.8,0.6-1l9.2-5.7l1.8-3.3c0.1-0.2,0.2-0.3,0.4-0.5l2.6-1.7l1.5-7
						c0-0.2,0.2-0.4,0.3-0.6l2.4-2.6l0-0.1l-1.8,0.7c-0.6,0.2-1.4-0.1-1.6-0.7c-0.2-0.4-0.1-0.9,0.2-1.2l4.5-5.7
						c0.3-0.3,0.6-0.5,1-0.5c0.2,0,0.4,0.1,0.5,0.1l3.2-4c0.4-0.5,1-0.6,1.6-0.3c0.1-0.2,0.2-0.4,0.3-0.5c0.3-0.2,0.6-0.3,1-0.3
						l1.7,0.2l-0.1-0.3c-0.2-0.5,0-1.1,0.4-1.4l4.1-3.3c0.4-0.3,0.9-0.4,1.3-0.1c0.1,0,0.1,0.1,0.2,0.1c0.2-0.1,0.4-0.2,0.6-0.2
						c0.5-0.1,0.9,0.2,1.2,0.6l0.2,0.3l0.3-0.4c0.3-0.5,1-0.6,1.5-0.4l4,1.8c0.6,0.3,0.9,1,0.6,1.6c-0.1,0.2-0.3,0.4-0.4,0.5
						l-0.6,0.4l0.4,0.1c0.7,0.2,1,0.9,0.8,1.6c0,0.1-0.1,0.3-0.2,0.4l-1.7,2.3l0.3,2.8l2.4,1.5c0.4,0.3,0.7,0.8,0.5,1.3l-0.7,2.8
						l3.2,3.3c0.5,0.5,0.5,1.3,0,1.8c0,0,0,0-0.1,0.1l0.4,0.5c0.3,0.4,0.4,0.9,0.2,1.3l-0.4,0.8l1.1,0.6c0.2,0.1,0.4,0.3,0.6,0.6
						l0.6,1.2c0.1,0.3,0.2,0.6,0.1,0.9l-0.3,0.8l2.1,1c0.3,0.1,0.5,0.4,0.6,0.6l0.9,2.1c0.1,0.3,0.1,0.6,0,0.9l-4.5,10.8
						c-0.1,0.3-0.3,0.5-0.6,0.6l-9.9,4.7c-0.4,0.2-0.8,0.2-1.2,0l-3.8-2.2c-0.4-0.2-0.6-0.6-0.6-1l-0.1-4.5l-1.3-5.6
						c-0.1-0.4,0-0.8,0.2-1.1l2.1-2.6l1.9-4c0-0.1,0.1-0.2,0.2-0.3l1.8-2.1l-0.9-1.3h-2.5l-1.3,2l0.3,3.7c0,0.3-0.1,0.6-0.3,0.9
						l-5.7,7.5l0.1,5.9l3.5,3c0.4,0.3,0.5,0.8,0.4,1.2l-0.6,2.6c-0.1,0.2-0.2,0.5-0.4,0.6l-3.3,2.9l-1.7,10.4c-0.1,0.6-0.6,1-1.2,1
						h-2.2v1.1c0,0.5-0.3,1-0.8,1.1l-2.6,1.1C395.8,263.4,395.6,263.4,395.4,263.4L395.4,263.4z M395.1,258.8l0.9,1.8l0.8-0.3v-1.5
						c0-0.7,0.6-1.2,1.2-1.2h2.4l1.6-9.7c0-0.3,0.2-0.5,0.4-0.7l3.3-3l0.4-1.5l-3.4-2.9c-0.3-0.2-0.4-0.6-0.4-0.9l-0.1-6.9
						c0-0.3,0.1-0.6,0.3-0.8l5.7-7.4l-0.3-3.6c0-0.3,0-0.5,0.2-0.8l1.9-3c0.2-0.4,0.6-0.6,1.1-0.6h3.8c0.4,0,0.8,0.2,1,0.6l1.7,2.6
						c0.3,0.5,0.3,1.1-0.1,1.5l-2.3,2.7l-1.9,4c0,0.1-0.1,0.2-0.2,0.2l-1.8,2.3l1.2,5.1c0,0.1,0,0.2,0,0.3l0.1,3.9l2.7,1.6l8.9-4.2
						l4.1-9.9l-0.5-1.2l-2.7-1.3c-0.6-0.3-0.8-0.9-0.6-1.5l0.5-1.4l-0.2-0.4l-1.9-0.9c-0.6-0.3-0.9-1-0.6-1.6l0.5-1.1l-0.7-0.9
						c-0.2-0.3-0.3-0.6-0.3-0.9c0-0.3,0.2-0.5,0.4-0.7l-2.7-2.8c-0.3-0.3-0.4-0.8-0.3-1.2l0.7-2.6l-2.1-1.4
						c-0.3-0.2-0.5-0.5-0.6-0.9l-0.4-3.8c0-0.3,0.1-0.6,0.2-0.8l1-1.3l-1.3-0.4c-0.7-0.2-1-0.9-0.8-1.6c0.1-0.3,0.3-0.5,0.5-0.7
						l0.9-0.6l-1-0.4l-0.8,1c-0.2,0.3-0.6,0.5-1.1,0.5c-0.2,0-0.5-0.1-0.7-0.2l-0.7,2c-0.2,0.7-0.9,1-1.6,0.8
						c-0.5-0.2-0.8-0.6-0.8-1.2v-1.9l-1.4,1.1l0.5,1.4c0.2,0.6-0.1,1.4-0.7,1.6c-0.2,0.1-0.4,0.1-0.6,0.1l-2.3-0.3v0.5
						c0,0.7-0.6,1.2-1.2,1.2c-0.3,0-0.5-0.1-0.7-0.2l-0.8-0.6L402,203c0.2,0.1,0.4,0.3,0.5,0.5c0.2,0.4,0.1,1-0.2,1.3l-1.8,2
						c-0.3,0.3-0.6,0.5-1,0.4c-0.2,0-0.3-0.1-0.5-0.1c0.3,0.3,0.4,0.8,0.3,1.3l-1,2.9c-0.1,0.2-0.1,0.3-0.3,0.4l-2.4,2.5l-1.5,7.2
						c-0.1,0.3-0.3,0.6-0.5,0.8l-2.8,1.8l-1.8,3.3c-0.1,0.2-0.3,0.4-0.4,0.5l-8.9,5.5l-0.6,8.2l1,2.1c0.1,0.2,0.1,0.5,0.1,0.8
						l-0.5,2.3l2.8,2.4l4.7-3.5l1.4-1.9c0.4-0.6,1.2-0.7,1.7-0.3c0.2,0.2,0.4,0.4,0.5,0.7l1.4,6.7l3.4,5.3c0.2,0.3,0.3,0.7,0.1,1.1
						L395.1,258.8L395.1,258.8z M398.1,206.8c0.2,0,0.4,0.1,0.6,0.1c-0.1-0.1-0.1-0.1-0.1-0.2l-0.4-0.6l-0.6,0.7l0.1,0
						C397.7,206.9,397.9,206.8,398.1,206.8L398.1,206.8z"/>
					<path id="路径_2_2_" class="st3" d="M348,280.1c-0.2,0-0.4-0.1-0.6-0.1l-1.1-0.6h-4.1c-0.7,0-1.2-0.6-1.2-1.2
						c0-0.4,0.2-0.8,0.5-1l5-3.4c0,0,0,0,0.1,0l-1.2-0.3c-0.4-0.1-0.7-0.4-0.8-0.8l-0.5-1.4c-0.1-0.3-0.1-0.7,0.1-1
						c0.2-0.3,0.4-0.5,0.7-0.6l2.7-0.8l-0.2-0.1c-0.7-0.2-1-0.9-0.8-1.6c0-0.1,0.1-0.2,0.1-0.2l1.3-2.2c0.3-0.5,0.9-0.7,1.4-0.6
						l2.1,0.6l0.3-0.6c-0.3-0.2-0.5-0.4-0.6-0.8l-0.4-1.5c-0.1-0.3,0-0.6,0.1-0.8h-0.5c-0.2,0-0.4-0.1-0.6-0.2l-1.5-0.8
						c-0.3-0.2-0.6-0.5-0.6-0.9c0-0.3,0-0.5,0.2-0.8c-0.3,0-0.6-0.1-0.8-0.3c-0.4-0.3-0.5-0.8-0.4-1.2l0.7-3.7l-0.6-0.9
						c-0.3-0.5-0.2-1.2,0.2-1.6l1.1-0.9l-0.3-2.3c-0.1-0.7,0.4-1.3,1.1-1.4c0.4,0,0.7,0.1,1,0.3l0.1,0.1l2-3.2
						c0.3-0.4,0.8-0.7,1.3-0.6l4.5,0.9c0.7,0.1,1.1,0.8,1,1.5c0,0.2-0.2,0.5-0.3,0.6l-1.6,1.6l2.2,0.2c0.5,0.1,0.9,0.4,1.1,0.9
						l0.4,1.4c0.1,0.3,0.1,0.6-0.1,0.9l-1.5,2.9c-0.1,0.2-0.3,0.4-0.5,0.5l-1.2,0.7l1.5,1.9c0.2,0.2,0.3,0.4,0.3,0.7l0.2,3.3
						l1.1,0.7c0.3,0.2,0.5,0.5,0.6,0.9l0.7,5c0,0.2,0,0.4,0,0.5l-0.3,0.9l2,0.4c0.5,0.1,0.8,0.5,0.9,1l0.6,2.6
						c0.1,0.4-0.1,0.9-0.4,1.2l-1.9,1.7l0.4,0.3c0.3,0.2,0.5,0.6,0.5,1c0,0.4-0.2,0.8-0.5,1l-2.9,2.1c-0.3,0.2-0.7,0.3-1,0.2
						l-2.7-0.6l-1.3,0.6c-0.3,0.1-0.6,0.1-0.9,0l-4.2-1.4l-1,1.1C348.6,280,348.3,280.1,348,280.1L348,280.1z M350.3,276.1l4.1,1.4
						l1.2-0.5c0.3-0.1,0.5-0.1,0.8-0.1l2.5,0.6l1.1-0.8l-0.3-0.2c-0.5-0.4-0.6-1.2-0.2-1.7c0-0.1,0.1-0.1,0.2-0.2l2.4-2.2l-0.2-1.1
						l-2.5-0.6c-0.3-0.1-0.6-0.3-0.8-0.6c-0.2-0.3-0.2-0.7-0.1-1l0.6-1.9l-0.6-4.1l-1.2-0.7c-0.3-0.2-0.6-0.6-0.6-1l-0.3-3.5
						l-1.2-1.5l-1.2-0.4c-0.6-0.2-1-0.9-0.8-1.6c0.1-0.3,0.3-0.5,0.5-0.7l2.9-1.7l1.1-2.2l0-0.1l-3-0.3c-0.7-0.1-1.2-0.7-1.1-1.3
						l0.1-1.2c0-0.3,0.2-0.6,0.4-0.8l0.8-0.8l-1.4-0.3l-2.3,3.8c-0.2,0.3-0.4,0.5-0.7,0.5l0.1,0.4c0.1,0.4-0.1,0.8-0.4,1.1l-0.8,0.6
						l0.3,0.4c0.2,0.3,0.2,0.6,0.2,0.9l-0.4,2.2c0.1,0,0.1,0,0.2,0l1.6,0.6c0.6,0.2,1,0.9,0.8,1.6c-0.1,0.2-0.2,0.3-0.3,0.5
						l-0.6,0.6h1.9c0.7,0,1.2,0.6,1.2,1.3c0,0.2,0,0.4-0.1,0.6l-0.7,1.4l0,0.1h0.3c0.4,0,0.8,0.2,1.1,0.6c0.2,0.4,0.2,0.8,0.1,1.2
						l-1.6,3.2c-0.3,0.5-0.9,0.8-1.4,0.6l-2.1-0.6l0,0.1c0.5,0.2,0.8,0.6,0.8,1.2v1.6c0,0.4-0.2,0.8-0.5,1c0.4,0,0.8,0.2,1,0.5
						l1.5,2.1c0.4,0.6,0.3,1.3-0.3,1.7c0,0,0,0,0,0L350.3,276.1L350.3,276.1z M346.2,276.9h0.4c0.2,0,0.4,0.1,0.6,0.1l0.6,0.3
						l0.7-0.8l-1.1-0.4L346.2,276.9L346.2,276.9z M348.2,273.8l0.7,0.3l0.7-0.5l-0.2-0.3L348.2,273.8L348.2,273.8z M347.5,271.3
						l0.1,0l0.6-0.3L347.5,271.3L347.5,271.3z"/>
					<path id="路径_3_2_" class="st3" d="M335.4,273h-2.7c-0.5,0-1-0.4-1.2-0.9l-1.2-3.8c-0.2-0.6,0.1-1.2,0.6-1.5l2.5-1.3
						l0.8-0.5l-0.8-0.9c-0.5-0.5-0.5-1.3,0-1.8c0.1-0.1,0.2-0.2,0.3-0.2l0.1,0c-0.1-0.3-0.2-0.6-0.1-0.9l0.6-1.8
						c0.2-0.6,0.9-1,1.6-0.8c0.1,0,0.2,0.1,0.3,0.1l1.1,0.7c0-0.1,0.1-0.3,0.2-0.4l1.1-1.4c0.2-0.2,0.4-0.3,0.6-0.4l2.6-0.7
						c0.3-0.1,0.6,0,0.9,0.1l1.2,0.6l1.6,0.6c0.3,0.1,0.6,0.4,0.7,0.8l0.6,1.6c0,0.1,0.1,0.3,0.1,0.4v2c0,0.5-0.2,0.9-0.6,1.1
						l-1.6,0.9v3.6c0,0.3-0.1,0.5-0.3,0.8l-2.2,2.9c-0.3,0.4-0.7,0.5-1.2,0.5l-2.1-0.3l-3.4,0.8C335.6,273,335.5,273,335.4,273
						L335.4,273z M333.7,270.5h1.6l3.5-0.8c0.2,0,0.3,0,0.5,0l1.6,0.3l1.5-2V264c0-0.5,0.2-0.9,0.6-1.1l1.6-0.9v-1l-0.3-0.8
						l-1.1-0.4c-0.1,0-0.1,0-0.1-0.1l-0.9-0.5l-1.7,0.5l-0.2,0.2l0,0c0.5,0.5,0.4,1.3-0.1,1.8c-0.2,0.1-0.3,0.2-0.5,0.3l-1.7,0.4
						c-0.2,0.1-0.5,0-0.7,0c0,0.1,0,0.2,0,0.3c-0.1,0.4-0.3,0.8-0.7,1l-0.1,0l0.7,0.8c0.5,0.5,0.5,1.3,0,1.8
						c-0.1,0.1-0.1,0.1-0.2,0.2l-2.2,1.3c0,0,0,0-0.1,0l-1.6,0.8L333.7,270.5L333.7,270.5z"/>
					<path id="路径_4" class="st3" d="M347.6,221.3c-0.1,0-0.1,0-0.2,0l-3.6-0.5c-0.3,0-0.6-0.2-0.8-0.5l-2.3-3.2l-2-1.3
						c-0.6-0.4-0.8-1.1-0.4-1.7c0.1-0.2,0.3-0.4,0.5-0.5l1.5-0.7l0.1-0.7l-1.3-1.3c-0.5-0.5-0.5-1.3,0-1.8c0.2-0.2,0.5-0.3,0.9-0.3
						h0.9l-1.6-0.8c-0.6-0.3-0.8-1.1-0.5-1.7c0.1-0.3,0.3-0.5,0.6-0.6l4.9-2.1c0.6-0.3,1.4,0,1.6,0.7c0,0.1,0,0.1,0.1,0.2l0.8,2.9
						h1.6c0.2,0,0.4,0.1,0.6,0.2l3.3,1.9l1.5-0.4c0.4-0.1,0.9,0,1.2,0.3l1.9,1.8c0.3,0.3,0.4,0.7,0.4,1l-0.3,2.2l0.8,2.8
						c0.2,0.6-0.1,1.1-0.6,1.4l-3.9,2.1c-0.2,0.1-0.5,0.2-0.8,0.1l-2-0.3l-2.8,0.7C347.8,221.3,347.7,221.3,347.6,221.3L347.6,221.3
						z M344.7,218.4l2.9,0.4l2.7-0.7c0.1,0,0.3,0,0.5,0l1.8,0.2l2.7-1.5l-0.6-2.1c0-0.2-0.1-0.3,0-0.5l0.2-1.8l-0.9-0.9l-1.4,0.4
						c-0.3,0.1-0.7,0-0.9-0.1l-3.4-2H346c-0.6,0-1.1-0.4-1.2-0.9l-0.6-2.4l-1.2,0.5l0.9,0.5c0.3,0.2,0.5,0.4,0.6,0.8
						c0.1,0.3,0,0.7-0.2,1l-1,1.5c-0.1,0.2-0.3,0.3-0.5,0.4c0.2,0.3,0.2,0.6,0.2,0.8l-0.3,2c-0.1,0.4-0.3,0.8-0.7,0.9l-0.1,0
						l0.3,0.2c0.1,0.1,0.3,0.2,0.4,0.3L344.7,218.4L344.7,218.4z"/>
					<path id="路径_5" class="st3" d="M401,343.6c-0.1,0-0.2,0-0.3,0l-2.5-0.6c-0.3-0.1-0.6-0.3-0.8-0.5l-0.4-0.7l-4-1.8l-1.1-0.1
						c-0.6-0.1-1.1-0.5-1.1-1.1l-0.1-2c0-0.6,0.4-1.2,1-1.3l3.1-0.6c0.3,0,0.6,0,0.8,0.1l1.1,0.6l4.6-1.2l1-1.1
						c0.1-0.1,0.1-0.1,0.2-0.2l0.3-0.2l-1.4-3.1l-2.3-1.2c-0.3-0.1-0.5-0.3-0.6-0.6l-0.5-1.1l-1.4-0.5c-0.2-0.1-0.4-0.2-0.5-0.4
						l-1.1-1.3l-1.7-0.2c-0.3,0-0.5-0.1-0.7-0.3l-4.5-4.4l-2.6-2.7c-0.1-0.1-0.2-0.2-0.3-0.4l-1.5-3.7l-2.4-1.4l-1.6,1.4
						c-0.2,0.1-0.3,0.2-0.5,0.3l-1.9,0.4l-2.2,1.3l-0.6,0.7c-0.2,0.3-0.6,0.4-0.9,0.4l-2.2,0c-0.2,0-0.4,0-0.5-0.1l-5-2.1l-1.4,0.7
						l-0.3,2c0,0,0,0,0,0l0.4,2.5c0.1,0.6-0.2,1.1-0.7,1.4l-3.9,1.8c-0.1,0.1-0.3,0.1-0.4,0.1l-3.5,0.3l-4.4,5.1l0.2,1.2l0.6,0.2
						c0.3,0.1,0.6,0.4,0.7,0.7c0.1,0.3,0.1,0.7-0.1,1l-0.6,1.1c-0.1,0.2-0.4,0.4-0.6,0.5l-2.4,1l-0.2,0.3c0.5,0.5,0.4,1.3-0.1,1.8
						c-0.2,0.2-0.5,0.3-0.7,0.3l-3.5,0.4l-1.2,1.7c-0.4,0.6-1.1,0.7-1.7,0.4l-1-0.6l-6.2-0.6l-2.1,0.3l-1.3,1.2
						c-0.5,0.4-1.2,0.4-1.6,0l-1.7-1.4c-0.2-0.2-0.3-0.4-0.4-0.6l-0.6-2c0-0.1,0-0.2,0-0.3v-0.6l-1.1-0.9H324
						c-0.2,0-0.4-0.1-0.6-0.2l-1.4-0.8l-1.1,0c-0.7,0-1.2-0.6-1.2-1.3c0-0.2,0.1-0.4,0.1-0.5l1.5-2.9l0.1-1.1l-0.2,0
						c-0.6,0-1.1-0.5-1.2-1.1l-0.3-2c0-0.3,0-0.6,0.2-0.9l4.7-6.9l0.5-4.5c0-0.1,0-0.2,0-0.2l0.7-2.1l-0.8-1.7
						c-0.3-0.6,0-1.4,0.6-1.7c0,0,0.1,0,0.1,0l1.4-0.6c0.1,0,0.2-0.1,0.4-0.1l1.2-0.1l0-0.1c0.2-0.5,0.6-0.8,1.1-0.8l2.5-0.2
						c0.3,0,0.7,0.1,0.9,0.3l2,1.8l4.3,1.3c0.1,0,0.1,0,0.2,0.1l1.9,0.9l3.4,0.2c0.1,0,0.3,0,0.4,0.1l3.3,1.3l0.7-0.4l1.9-7.2
						l0.4-2.2l-2-2.1c-0.4-0.4-0.5-1-0.2-1.5l0.3-0.5l-1.5-1.8l-3.4-1.7c-0.4-0.2-0.6-0.5-0.7-0.9l-0.6-2.9
						c-0.1-0.6,0.3-1.3,0.9-1.4l2.2-0.6c0.2,0,0.3,0,0.5,0l2.9,0.4c0.4,0,0.7,0.3,0.9,0.6l0.4,0.7h1.2l0-0.2l-0.3-2.9
						c-0.1-0.7,0.4-1.3,1.1-1.4c0.2,0,0.5,0,0.7,0.1l2.4,1.2c0.3,0.2,0.5,0.4,0.6,0.7l0.1,0.4l0.5,0l0.1-0.5
						c0.1-0.4,0.4-0.7,0.7-0.9l3.7-1.5l0.4-2.2c0.1-0.6,0.7-1.1,1.3-1l2.5,0.2l2.9-2l1.9-1.9l0.5-1.7c0.2-0.7,0.9-1.1,1.5-0.9
						c0.3,0.1,0.6,0.3,0.7,0.6l0.3,0.5l0.1-0.1l-0.9-1.7c-0.2-0.4-0.2-1,0.1-1.4l2.4-2.9c0.2-0.3,0.6-0.5,1-0.5h0
						c0.4,0,0.7,0.2,1,0.5l1.4,1.8l1.2-0.2c0.4-0.1,0.8,0.1,1.1,0.4l1.1-1.2l-0.4-2.3c0-0.1,0-0.2,0-0.2V265l-1.3-1
						c-0.4-0.3-0.5-0.8-0.4-1.2l0.9-4.2c0.1-0.4,0.4-0.8,0.9-0.9v-0.7c0-0.6,0.4-1.1,1-1.2l2.3-0.4l0.7-1.3c0.2-0.4,0.6-0.6,1-0.6
						c0.4,0,0.8,0.2,1.1,0.5l1.4,1.9c0.3,0.3,0.3,0.8,0.2,1.2l-0.6,1.7c0.4,0.2,0.7,0.6,0.7,1.1v1.3c0,0.4-0.2,0.7-0.5,1l-0.9,0.7
						c0,0,0,0,0,0l-1.4,1.1l-0.1,0.6c0,0.1,0,0.2-0.1,0.3l-0.5,1.1l0.4,0.9l1.4,0.5l0.3-0.3c0.5-0.5,1.3-0.5,1.8,0
						c0.3,0.3,0.4,0.8,0.3,1.3l0,0l0.5-0.1l0.5-0.8c0.4-0.5,1-0.7,1.6-0.4l0,0c0.2-0.2,0.5-0.4,0.7-0.4c0.4-0.1,0.8,0,1.1,0.3
						l0.9,0.8c0.3,0.3,0.5,0.8,0.4,1.2l0.2,0c0.3,0,0.6,0.2,0.8,0.4l2.6-1l0.7-1.2c0.2-0.3,0.4-0.5,0.7-0.5l4.7-1.3
						c0.6-0.2,1.2,0.1,1.5,0.7l0.4,0.9l1.4,0.1l0-0.1l-0.6-0.7c-0.5-0.5-0.4-1.3,0.1-1.8c0.2-0.2,0.4-0.3,0.7-0.3l2.6-0.4v-0.2
						l-1-1.7c-0.1-0.2-0.2-0.4-0.2-0.6l-0.2-4.2c0-0.2,0-0.5,0.2-0.7l0.6-1l-0.1-0.7c0-0.4,0.2-0.9,0.5-1.1l2-1.4
						c0.5-0.3,1.1-0.3,1.5,0l1.3,1.1l0.4,0c0.2,0,0.4,0.1,0.6,0.2l-0.3-0.9c-0.1-0.1-0.1-0.3-0.1-0.4v-0.6c-0.4,0-0.7-0.2-0.9-0.5
						l-1-1.5c-0.1-0.1-0.1-0.2-0.2-0.4l-0.7-2.2c-0.2-0.5,0.1-1.1,0.5-1.4l3.5-2.3c0.2-0.1,0.4-0.2,0.6-0.2l5.4-0.6
						c0.4,0,0.8,0.1,1.1,0.5l0.9,1.2c0.4,0.5,0.3,1.3-0.2,1.7c0,0,0,0-0.1,0l-1.1,0.7l0.2,0.3l1.7,2.6c0.2,0.3,0.3,0.7,0.1,1.1
						l-0.3,0.8l0.8,0.6c0.3,0.2,0.5,0.6,0.5,1v1.2l1.3,1.4c0,0,0.1,0.1,0.1,0.1l0.3,0.4l0.4-0.2c0.3-0.1,0.5-0.1,0.8-0.1l0.8,0.2
						c0.2,0.1,0.4,0.2,0.6,0.3l0.9-0.5c0.4-0.2,0.8-0.2,1.2,0l1.9,1c0.3,0.2,0.6,0.5,0.6,0.9l0.5,3l2.6,1.8c0.3,0.2,0.5,0.5,0.5,0.9
						h0.9c0.5,0,0.9,0.3,1.1,0.7l0.6,1.3c0.2,0.4,0.2,0.9-0.1,1.3l-1.1,1.5c-0.2,0.3-0.6,0.5-1,0.5l0.4,0.5c0.1-0.1,0.3-0.2,0.5-0.3
						l4.1-1.1c0.5-0.1,1,0,1.3,0.4l1.8,2.2c0.2,0.3,0.3,0.7,0.2,1.1l0,0.2l0.3,0.2h2c0.4,0,0.8,0.2,1,0.5l1.1,1.5l1.1-0.1l2.2-1.4
						c0.5-0.3,1-0.2,1.4,0.1l1.7,1.4l5.1-0.8c0.6-0.1,1.1,0.2,1.3,0.8l0.6,1.6c0.1,0.3,0.1,0.6,0,0.8l-0.5,1.5l1.1,1.2
						c0.2,0.2,0.3,0.5,0.3,0.8v2.1c0,0.6-0.4,1.1-1,1.2l-1.1,0.2l0,0.2c0.1,0.6-0.2,1.2-0.7,1.4l-0.3,0.1l0.1,0.3
						c0.1,0.4,0,0.9-0.4,1.2l-7.5,7c-0.1,0.1-0.3,0.2-0.4,0.3l-6.4,2.2c-0.2,0.1-0.4,0.1-0.6,0.1L447,296c-0.4-0.1-0.7-0.3-0.9-0.6
						l-0.6,0.2l0.2,0.4c0.2,0.4,0.1,0.9-0.2,1.2l-2.1,2.7l0.4,0.6c0.2,0.3,0.3,0.6,0.2,0.9l-0.4,2.1c-0.1,0.4-0.4,0.8-0.8,0.9
						l-0.9,0.4l-0.3,1.4l0.6,2.6c0.1,0.6-0.2,1.1-0.7,1.4l-0.9,0.4l0,2.2c0,0.1,0,0.3-0.1,0.4l-0.3,0.8l0.7,0.4
						c0.4,0.2,0.7,0.6,0.7,1.1c0,0.5-0.2,0.9-0.6,1.1l-1.9,1.1c-0.5,0.3-1,0.2-1.4-0.1l0,0l-0.4,0.3l0.4,0.6c0.3,0.4,0.3,0.9,0,1.3
						l-1.5,2.5c-0.2,0.4-0.6,0.6-1.1,0.6h-2.6l-0.8,0.6c-0.2,0.1-0.4,0.2-0.6,0.2l-2,0.2l0.7,1.6c0.3,0.6,0,1.4-0.6,1.6
						c-0.3,0.2-0.7,0.1-1.1,0l-2.4-1.2l0.1,0.5l2.2,2c0.2,0.2,0.3,0.4,0.4,0.7l0.1,0.8l0.7,0.4h0.9c0.3,0,0.6,0.1,0.9,0.4l2.2,2.2
						c0.5,0.5,0.5,1.3,0,1.8c-0.3,0.3-0.8,0.4-1.2,0.3l-0.3-0.1l0.1,0.3c0.2,0.7-0.2,1.3-0.9,1.5c-0.2,0.1-0.5,0.1-0.7,0l-0.4-0.1
						c0,0.4-0.1,0.7-0.4,0.9l-1.1,1.1c0,0-0.1,0.1-0.1,0.1l0.9,2.1c0.3,0.6-0.1,1.4-0.7,1.6c-0.5,0.2-1.1,0.1-1.4-0.4l-0.1-0.1
						c-0.1,0.7-0.8,1.1-1.5,0.9c-0.3-0.1-0.6-0.3-0.8-0.5l-0.5-0.8c0,0-0.1,0-0.1,0c-0.5,0.1-0.9,0-1.2-0.4l-1.6-1.9
						c-0.3-0.3-0.4-0.8-0.2-1.2l-1.2-1.1c-0.5-0.4-0.5-1.1-0.2-1.6l0.1-0.1c0,0,0,0-0.1-0.1l-0.7-0.8h-0.8c-0.7,0-1.2-0.6-1.2-1.2
						c0-0.1,0-0.1,0-0.2l0.2-1.3l-1.6-1.3c-0.2-0.1-0.3-0.3-0.4-0.5l-0.8-1.9l-1.9-2.2c-0.3-0.4-0.4-0.9-0.2-1.3l0.8-1.7l-0.1-1.1
						l-1.1-0.9c0,0-0.1-0.1-0.1-0.1l-1.5-1.6l-0.6-0.3l0,0l-5.7-3.4c-0.2,0.1-0.3,0.2-0.5,0.3c-0.4,0.1-0.8,0-1-0.3l-2-1.6
						c-0.1-0.1-0.2-0.1-0.2-0.2l-2.9-4.1c-0.4,0.6-1.1,0.8-1.7,0.4c-0.1-0.1-0.3-0.2-0.4-0.3l-1.2-1.7c-0.2-0.2-0.2-0.5-0.2-0.7
						v-0.5l-0.9,0.3l0.3,0.6c0.2,0.4,0.1,0.9-0.1,1.2l-0.5,0.7l0.2,1l3.3,2.3c0.2,0.1,0.4,0.3,0.4,0.6l1.7,4.1l2.5,2l2.6-0.2
						c0.4,0,0.9,0.2,1.1,0.5l0.4,0.6c0.2,0.3,0.3,0.6,0.2,1c-0.1,0.3-0.2,0.5-0.4,0.7l5.6,2.5c0.2,0.1,0.3,0.2,0.4,0.3l1.4,1.5
						c0.2,0.2,0.3,0.5,0.3,0.9l0,1.8c0,0.4-0.2,0.8-0.5,1c-0.3,0.2-0.7,0.3-1.1,0.2l-1.3-0.4c-0.3-0.1-0.6-0.4-0.8-0.7l-0.4-0.9
						l-1.1-0.2l-0.6,1.3l1,0.4c0.4,0.2,0.7,0.6,0.8,1l0.2,1.7c0.1,0.5-0.2,1.1-0.7,1.3l-1,0.4l-0.1,1.1c0,0.2-0.1,0.5-0.3,0.7
						l-1.3,1.7c-0.2,0.2-0.5,0.4-0.8,0.4l-1.5,0.2c-0.1,0-0.1,0-0.2,0l-0.4,1.1l0.4,0.5c0.3,0.3,0.4,0.8,0.2,1.2l-0.7,1.9
						C402,343.3,401.6,343.6,401,343.6L401,343.6z M399.3,340.7l0.9,0.2l0.1-0.2l-0.4-0.5c-0.3-0.3-0.4-0.8-0.2-1.2l0.7-1.9
						l-3.6,0.9c-0.3,0.1-0.6,0-0.9-0.1l-1.1-0.6l-1.1,0.2c0.1,0,0.1,0,0.2,0.1l2,0.9l2.5,1.1c0.2,0.1,0.4,0.3,0.6,0.5L399.3,340.7
						L399.3,340.7z M424.3,337.8c0.4,0,0.8,0.2,1.1,0.6l0.3,0.5l0.2-0.2l-0.6-1.5c-0.2-0.5-0.1-1.1,0.4-1.4c0.2-0.1,0.4-0.2,0.6-0.3
						c0-0.4,0.2-0.7,0.5-0.9l1.2-0.9c0.3-0.2,0.8-0.3,1.2-0.2l0.1,0l0,0c-0.1-0.2-0.1-0.5,0-0.7h0c-0.2,0-0.4,0-0.6-0.1l-1.5-0.8
						c-0.3-0.2-0.6-0.5-0.6-0.9l-0.2-1l-2.2-2c-0.2-0.2-0.3-0.4-0.4-0.7l-0.3-1.7c-0.1-0.3,0-0.6,0.2-0.9l0.7-1.1
						c0.3-0.6,1-0.8,1.6-0.5l0.7,0.3c0-0.3,0.1-0.6,0.3-0.8l0.6-0.7c0.2-0.2,0.5-0.4,0.8-0.4l2.5-0.3l0.8-0.6
						c0.2-0.2,0.5-0.2,0.7-0.2h2.3l0.7-1.2l-0.6-0.9c-0.4-0.5-0.3-1.3,0.2-1.7l2-1.7c0.2-0.1,0.3-0.2,0.5-0.3c0-0.2,0-0.3,0.1-0.5
						l0.6-1.6l0.1-2.8c0-0.5,0.3-0.9,0.7-1.1l0.7-0.3l-0.4-1.9c0-0.2,0-0.4,0-0.5l0.5-2.3c0.1-0.4,0.4-0.7,0.8-0.9l0.9-0.4l0.2-0.9
						l-1.1-1.5c-0.4-0.6-0.3-1.3,0.3-1.7c0.2-0.2,0.5-0.2,0.7-0.2h0.3l1.4-1.8l-0.4-1c-0.1-0.3-0.1-0.7,0-1c0.1-0.3,0.4-0.6,0.7-0.7
						l2.8-0.9c0.1,0,0.3-0.1,0.4-0.1l2.4,0.1c0.6,0,1.1,0.5,1.2,1c0,0,0,0,0,0l5.5-1.9l6.8-6.3l-0.1-0.6c-0.1-0.6,0.2-1.2,0.7-1.4
						l0.4-0.1l-0.1-0.4c-0.2-0.7,0.3-1.3,0.9-1.5c0,0,0,0,0,0l1.4-0.3v-0.6l-1.2-1.4c-0.3-0.3-0.4-0.8-0.3-1.2l0.6-1.8l-0.1-0.2
						l-4.7,0.7c-0.3,0.1-0.7,0-1-0.3l-1.5-1.2l-1.7,1c-0.1,0.1-0.3,0.2-0.5,0.2l-2.1,0.3c-0.5,0.1-0.9-0.1-1.2-0.5l-1.2-1.6h-1.7
						c-0.2,0-0.5-0.1-0.7-0.2l-1.4-0.9c-0.5-0.3-0.7-0.8-0.5-1.4l0.1-0.5l-0.9-1.1l-2.2,0.6c0,0.4-0.2,0.8-0.5,1l-0.8,0.6
						c-0.5,0.4-1.3,0.3-1.7-0.2l-2-2.6c-0.1-0.1-0.1-0.2-0.2-0.3l-0.7-1.6c-0.3-0.6,0-1.4,0.6-1.6c0.2-0.1,0.3-0.1,0.5-0.1h1.3
						l0.2-0.3h-1.3c-0.7,0-1.2-0.6-1.2-1.2v-0.5l-2.4-1.7c-0.3-0.2-0.4-0.5-0.5-0.8l-0.5-2.9l-0.7-0.4l-1.5,0.8
						c-0.3,0.2-0.7,0.2-1,0.1c-0.3-0.1-0.6-0.4-0.7-0.7l0-0.1l-0.7,0.3c-0.5,0.2-1.2,0.1-1.5-0.4l-0.8-1.1l-1.6-1.7
						c-0.2-0.2-0.3-0.5-0.3-0.8v-1.1l-1-0.7c-0.4-0.3-0.6-0.9-0.4-1.4l0.3-1l-1.4-2.2c0,0-0.1-0.1-0.1-0.2l-0.7-1.4
						c-0.3-0.6-0.1-1.2,0.4-1.6l0.1-0.1l-3.3,0.3l-2.5,1.7l0.3,1.2l0.3,0.4l0.1-0.1c0.6-0.3,1.4-0.1,1.7,0.4
						c0.1,0.2,0.2,0.4,0.2,0.6v2.3l0.7,1.8c0.1,0.4,0.1,0.8-0.1,1.1l-1,1.6c-0.2,0.3-0.5,0.5-0.9,0.6c-0.4,0-0.7-0.1-1-0.4l-1-1
						l-0.3,0c-0.2,0-0.5-0.1-0.6-0.3l-0.8-0.7l-0.6,0.4l0,0.4c0,0.3,0,0.5-0.2,0.7l-0.6,1l0.2,3.5l1,1.7c0.1,0.2,0.2,0.4,0.2,0.7
						v1.6c0,0.6-0.5,1.1-1.1,1.2l-1.3,0.2c0.2,0.4,0.1,0.8-0.1,1.2l-1,1.5c-0.3,0.4-0.7,0.6-1.1,0.5l-2.9-0.3c-0.5,0-0.9-0.3-1-0.8
						l-0.2-0.6l-3.2,0.9l-0.7,1.1c-0.1,0.2-0.4,0.4-0.6,0.5l-2.4,1c-0.1,0.3-0.2,0.5-0.4,0.6l-1.2,0.9c-0.6,0.4-1.3,0.3-1.7-0.3
						c-0.2-0.2-0.2-0.5-0.2-0.7v-0.6l-1-0.1c-0.4-0.1-0.8-0.3-1-0.7c-0.1-0.2-0.2-0.5-0.1-0.7l0,0l-0.2,0.3
						c-0.2,0.2-0.4,0.4-0.7,0.5l-3.2,0.9c-0.7,0.2-1.4-0.2-1.5-0.9c-0.1-0.2-0.1-0.5,0-0.7l0,0l-2-0.7c-0.2-0.1-0.4-0.2-0.5-0.4
						l0.1,0.4c0.1,0.4,0,0.8-0.3,1.1l-2.5,2.9c-0.3,0.3-0.6,0.4-1,0.4c-0.4,0-0.7-0.2-1-0.5l-0.3-0.5l-1.2,0.2
						c-0.5,0.1-0.9-0.1-1.2-0.5l-0.9-1.2l-0.9,1.1l0.9,1.8c0.2,0.4,0.2,1-0.2,1.4l-1.7,2c-0.3,0.3-0.7,0.5-1.1,0.4
						c-0.3,0-0.5-0.1-0.8-0.3l-2.1,2.2c-0.1,0.1-0.1,0.1-0.2,0.2l-3.3,2.3c-0.2,0.2-0.5,0.2-0.8,0.2l-1.8-0.2l-0.3,1.7
						c-0.1,0.4-0.4,0.8-0.8,0.9l-3.7,1.5l-0.2,0.9c-0.1,0.6-0.7,1-1.3,0.9l-2.4-0.1c-0.5,0-1-0.4-1.1-0.9l0-0.1l0,0.2
						c0,0.1,0,0.2,0,0.2l-0.1,1.4c-0.1,0.6-0.6,1.1-1.2,1.1h-3c-0.4,0-0.9-0.2-1.1-0.6l-0.4-0.8l-2.1-0.3l-0.8,0.2l0.2,1.2l3.1,1.5
						c0.2,0.1,0.3,0.2,0.4,0.3l2.2,2.7c0.3,0.4,0.4,1,0.1,1.4l-0.3,0.4l1.8,1.9c0.3,0.3,0.4,0.7,0.3,1.1l-0.6,2.9c0,0,0,0,0,0.1
						l-2,7.7c-0.1,0.3-0.3,0.6-0.5,0.7l-1.7,1c-0.3,0.2-0.8,0.3-1.1,0.1l-3.7-1.5l-3.5-0.2c-0.2,0-0.3,0-0.4-0.1l-2-1l-4.5-1.3
						c-0.2-0.1-0.3-0.1-0.5-0.3l-1.8-1.6l-1.2,0.1l0,0.1c-0.2,0.5-0.6,0.8-1.1,0.8l-1.8,0.1l0.5,1c0.1,0.3,0.2,0.6,0.1,0.9l-0.8,2.5
						l-0.5,4.7c0,0.2-0.1,0.4-0.2,0.6l-4.6,6.7l0.1,0.5l0.4,0c0.3,0,0.6,0.2,0.9,0.4c0.2,0.2,0.3,0.6,0.3,0.9l-0.1,2.7
						c0,0.2-0.1,0.3-0.1,0.5l-0.8,1.5c0,0,0.1,0,0.1,0.1l1.4,0.8h2.5c0.3,0,0.6,0.1,0.8,0.3l1.9,1.6c0.3,0.2,0.4,0.6,0.4,0.9v1
						l0.4,1.5l0.6,0.5l0.8-0.7c0.2-0.2,0.4-0.3,0.6-0.3l2.6-0.4c0.1,0,0.2,0,0.3,0l6.6,0.6c0.2,0,0.4,0.1,0.6,0.2l0.2,0.1l0.8-1.2
						c0.2-0.3,0.5-0.5,0.9-0.5l2.4-0.3c0,0,0-0.1,0.1-0.1l0.8-1.6c0.1-0.3,0.4-0.5,0.6-0.6l1.8-0.7c-0.2-0.2-0.3-0.4-0.4-0.7
						l-0.4-2.5c-0.1-0.4,0-0.8,0.3-1l5.1-5.9c0.2-0.2,0.5-0.4,0.8-0.4l3.8-0.4l2.9-1.3l-0.1-0.7h-0.9c-0.7,0-1.2-0.6-1.2-1.2
						c0-0.6,0.5-1.2,1.1-1.2l1-0.1l0.2-1.7c0.1-0.4,0.3-0.7,0.7-0.9l2.5-1.3c0.3-0.2,0.7-0.2,1.1,0l5.3,2.3l1.4,0l0.4-0.4
						c0.1-0.1,0.2-0.2,0.3-0.2l2.5-1.5c0.1-0.1,0.2-0.1,0.4-0.1l1.8-0.4l2-1.7c0.4-0.3,1-0.4,1.4-0.1l3.5,2c0.2,0.1,0.4,0.3,0.5,0.6
						l1.6,3.8l2.4,2.5l4.2,4l1.8,0.2c0.3,0,0.6,0.2,0.8,0.5l1.2,1.4l1.6,0.6c0.3,0.1,0.6,0.4,0.7,0.7l0.5,1.2l2.3,1.2
						c0.3,0.1,0.4,0.3,0.6,0.6l0.4,0.8l1.6-3.5c0.1-0.2,0.2-0.4,0.4-0.5l-2.9-1.3c-0.1-0.1-0.3-0.2-0.4-0.3l-0.9-0.9
						c-0.2-0.2-0.4-0.6-0.4-0.9l-0.8,0.1c-0.3,0-0.6-0.1-0.9-0.3l-3.1-2.5c-0.2-0.1-0.3-0.3-0.4-0.5l-1.7-4.1l-3.4-2.3
						c-0.3-0.2-0.5-0.5-0.5-0.8l-0.4-2c-0.1-0.3,0-0.7,0.2-0.9l0.4-0.5l-0.5-1.2c-0.1-0.3-0.2-0.7,0-1c0.1-0.3,0.4-0.6,0.7-0.7
						l3.9-1.5c0.6-0.2,1.2,0,1.5,0.6l0.4,0.7c-0.2,0.4-0.1,0.8,0.3,1.1c0.3,0.2,0.8,0.1,1-0.2l0.9,0.4c0.4,0.2,0.7,0.6,0.7,1.1v1
						l2.7,3.7l0.8,0.7c0.1-0.1,0.2-0.1,0.3-0.1c0.3-0.1,0.5-0.1,0.8,0c0.1-0.2,0.2-0.3,0.3-0.5c0.5-0.5,1.3-0.5,1.8-0.1c0,0,0,0,0,0
						l5.1,4.7l0.6,0.4c0.1,0.1,0.2,0.1,0.3,0.2l1.5,1.6l1.4,1.2c0.3,0.2,0.4,0.5,0.5,0.9l0.1,1.9c0,0.2,0,0.4-0.1,0.6l-0.6,1.3
						l1.5,1.7c0.1,0.1,0.2,0.2,0.2,0.4l0.7,1.8l1.9,1.6c0.3,0.3,0.5,0.7,0.4,1.2l-0.1,0.6c0.3,0,0.6,0.2,0.8,0.4l0.8,0.9l0.7,0.1
						c0.7,0.1,1.2,0.7,1.1,1.4c0,0.2-0.1,0.4-0.2,0.6l-0.5,0.7l1.1,1.1c0.2,0.2,0.4,0.5,0.4,0.9c0,0,0,0,0,0
						C424.1,337.8,424.2,337.8,424.3,337.8L424.3,337.8z M404.8,331.1l0.4,0.9c0,0,0,0,0,0l0.8-0.4l0,0L404.8,331.1L404.8,331.1z
						 M382.9,262.5l1.2,0.9c0.2,0.2,0.4,0.4,0.4,0.7l0.1-0.2l0.2-0.9c0.1-0.3,0.2-0.5,0.4-0.7l0,0l0,0l1.5-1.2
						c-0.1-0.1-0.3-0.2-0.4-0.3c-0.3-0.3-0.3-0.8-0.2-1.2l0.7-2c-0.1,0.1-0.3,0.2-0.5,0.2l-1.8,0.3v0.8c0,0.6-0.5,1.2-1.1,1.2
						L382.9,262.5L382.9,262.5z"/>
					<path id="路径_6" class="st3" d="M435.2,349.2c-0.1,0-0.3,0-0.4-0.1l-3.6-1.4c-0.2-0.1-0.3-0.2-0.5-0.3l-1.5-1.5
						c-0.4-0.4-0.5-1-0.2-1.5l0.7-1.3c0.3-0.5,0.8-0.7,1.3-0.6l2.9,0.6h4.7l1-0.5c0.4-0.2,0.8-0.2,1.2,0.1c0.4,0.2,0.6,0.6,0.6,1.1
						v1.3c0,0.5-0.2,0.9-0.6,1.1l-5.1,2.9C435.6,349.2,435.4,349.2,435.2,349.2L435.2,349.2z M432.3,345.5l2.8,1.1l1.6-0.9h-2.8
						c-0.1,0-0.2,0-0.3,0l-1.6-0.3L432.3,345.5L432.3,345.5z"/>
					<path id="路径_7" class="st3" d="M381.8,324.2c-0.3,0-0.7-0.1-0.9-0.4l-1.8-1.9c-0.2-0.2-0.3-0.5-0.3-0.8v-2.5
						c0-0.4,0.2-0.7,0.4-0.9l2.8-2.4c0.5-0.4,1.3-0.4,1.8,0.1c0.2,0.2,0.3,0.5,0.3,0.8v3.7c0,0.1,0,0.3-0.1,0.4l-1,3.2
						c-0.1,0.4-0.5,0.7-0.9,0.8C382,324.2,381.9,324.2,381.8,324.2L381.8,324.2z M381.3,320.6L381.3,320.6l0.3-0.9v-0.8l-0.3,0.3
						L381.3,320.6L381.3,320.6z"/>
					<path id="路径_8" class="st3" d="M380,336c-0.2,0-0.4-0.1-0.6-0.2l-1.4-0.7c-0.5-0.3-0.7-0.8-0.6-1.4l0.6-2.5l-0.6-3
						c0-0.1,0-0.2,0-0.2v-1c0-0.7,0.6-1.2,1.2-1.2h1l1.9-1c0.6-0.3,1.3-0.1,1.7,0.5l1.4,2.5c0.2,0.4,0.2,0.9,0,1.3l-0.3,0.5l0.6,0.8
						c0.3,0.3,0.3,0.8,0.2,1.2l-1.1,3.3c-0.2,0.6-0.9,1-1.6,0.8c0,0-0.1,0-0.1-0.1l-0.7-0.3l-0.8,0.7C380.6,335.9,380.3,336,380,336
						L380,336z M380,328.2l0.5,2.9c0,0.2,0,0.3,0,0.5l-0.3,1.4l0.4-0.4c0.4-0.3,0.9-0.4,1.4-0.2l0.2,0.1l0.5-1.3l-0.7-1
						c-0.3-0.4-0.3-1-0.1-1.4l0.4-0.6l-0.4-0.8l-1.1,0.6C380.4,328.2,380.2,328.2,380,328.2L380,328.2z"/>
					<path id="路径_9" class="st3" d="M361.2,330.9c-0.1,0-0.3,0-0.4-0.1l-2.3-0.8c-0.6-0.2-1-0.9-0.7-1.6
						c0.1-0.2,0.3-0.5,0.5-0.6l2.6-1.8c0.4-0.2,0.8-0.3,1.2-0.1l2,0.9c0.4,0.2,0.7,0.6,0.7,1c0.1,0.4-0.1,0.9-0.5,1.1l-2.3,1.7
						C361.7,330.8,361.4,330.9,361.2,330.9L361.2,330.9z"/>
					<path id="路径_10" class="st3" d="M367.4,329.1c0,0-0.1,0-0.1,0c-0.4,0-0.7-0.2-0.9-0.5l-1.1-1.7c-0.3-0.4-0.3-0.9-0.1-1.3
						c0.2-0.4,0.6-0.7,1.1-0.7h0.6c0.2,0,0.3,0,0.5,0.1l1.6,0.7c0.6,0.3,0.9,1,0.7,1.6c-0.1,0.2-0.2,0.3-0.3,0.5l-1.1,1
						C368,329,367.7,329.1,367.4,329.1L367.4,329.1z"/>
				</g>
			</g>
		</g>
	</g>
</g>
</svg>
