<svg xmlns="http://www.w3.org/2000/svg" xmlns:xlink="http://www.w3.org/1999/xlink" width="280" height="280" viewBox="0 0 280 280">
  <defs>
    <clipPath id="clip-icons_packimpex_night_def_7_grey">
      <rect width="280" height="280"/>
    </clipPath>
  </defs>
  <g id="icons_packimpex_night_def_7_grey" clip-path="url(#clip-icons_packimpex_night_def_7_grey)">
    <g id="icons_packimpex_night_def_7" transform="translate(-262.426 -141.82)">
      <path id="路径_9" data-name="路径 9" d="M513.456,386.5c0-2.063-.1-3.88.061-5.689a2.048,2.048,0,0,1,1.25-1.381c7.621-2.167,12.174-10.391,11.641-18.239a51.494,51.494,0,0,0-8.495-25.126c-4.938-7.481-10.269-7.464-15.163.017-.8,1.215-1.512,2.447-2.194,3.706V218c0-2.893-1.031-3.872-4.046-3.872-11.8-.017-35.876-.017-47.674-.009h-.052V176.168c0-4.658-.551-5.218-5.148-5.218h-90.83c-4.571,0-5.218.638-5.218,5.191v38.017c-13.485-.017-36.8-.044-48.513-.035a2.87,2.87,0,0,0-3.146,3.172c-.044,3.146-.026,6.3-.026,9.447-.009,30.763-.026,76.672-.026,108.633a10.518,10.518,0,0,0-6.834,9.675c-.061,1.337-.664,1.757-1.687,2.4a21.686,21.686,0,0,0-5.611,4.431c-6.677,8.416-2.395,21.639,7.673,23.85,1.993.437,4.169.061,6.319.061v10.837H277.68v6.074H527.352V386.5ZM302.2,363.99h-6.179c-.052.6-.149,1.224-.166,1.853-.07,3.207-1.687,4.466-4.9,3.776a7.944,7.944,0,0,1-5.934-6.852c-.551-4.09,1.127-8.067,4.562-9.369,3.88-1.468,5.777-3.863,5.724-8.04a3.983,3.983,0,0,1,3.2-4.108h.944c1.661.2,2.5,1.5,3.076,3.085a6.3,6.3,0,0,0,6.24,4.588c3.12.087,5.226,2.84,4.064,5.777a13.424,13.424,0,0,0-.052,10.619,6.18,6.18,0,0,1,.087,3.225c-.551,3.1-2.84,5.148-5.445,5.043s-4.938-2.578-5.209-5.62c-.1-1.232-.009-2.473-.009-3.976Zm45.376,22.443H302.308v-7.158c2.473.184,4.912.8,7.193.446,7.42-1.189,11.79-9.4,9.159-17.025a7.216,7.216,0,0,1,.035-5.252c2.473-6.651-1.792-14.464-8.844-14.875a2.475,2.475,0,0,1-1.626-1.311,11.475,11.475,0,0,0-5.934-5.847V220.381h45.28V383.549c.009.918.009,1.853.009,2.884Zm64.62-.009H384.224V367.2H412.2v19.227Zm30.169,0H418.763c-.035-.83-.1-1.608-.1-2.386-.009-6.38.009-12.751-.009-19.131-.009-3.164-1.066-4.195-4.239-4.195q-16.269,0-32.537.017c-3.05,0-4.073,1.049-4.073,4.1v21.648H354.038v-209.1H442.36q.013,104.508.009,209.05Zm26.07-13.669c-4.2-.9-6.939-5.078-6.616-9.745a9.748,9.748,0,0,1,9.054-8.906,9.869,9.869,0,0,1,10.225,7.857,9.58,9.58,0,0,1-6.424,10.977v-8.888h-6.24v8.7ZM507,386.424H474.661a25.091,25.091,0,0,0-.026-3.461c-.341-2.29.446-3.33,2.753-4.2,6.249-2.377,9.727-7.193,10.138-13.878s-2.412-11.921-8.294-15.093a15.318,15.318,0,0,0-17.033,1.005,15.115,15.115,0,0,0-6.642,14.892c.8,6.712,4.615,11.222,11.012,13.538.664.236,1.652.787,1.7,1.276a58.927,58.927,0,0,1,.079,5.987H448.766v-2.465q0-9.57.009-19.131V220.407l45.411.009V361.079h.1c-.533,7.35,3.54,16.387,12.288,18.537a1.175,1.175,0,0,1,.419.3c.009,2.229.009,4.387.009,6.511Zm.2-13.538c-2.325-.481-3.557-2-4.615-3.636a13.549,13.549,0,0,1-1.879-9.482,49.748,49.748,0,0,1,6.537-18.947c.8-1.355,1.87-2.543,3-4.055a22.846,22.846,0,0,1,1.931,2.185,44.676,44.676,0,0,1,7.883,23.387,11.384,11.384,0,0,1-3.732,9.054,26.111,26.111,0,0,1-2.867,1.958V359.795H507.2c0,4.344,0,8.635,0,13.092Z" transform="translate(-0.086 -0.084)" fill="#363635"/>
      <path id="路径_10" data-name="路径 10" d="M527.852,393.209H277v-7.245h18.056v-9.657c-.472.017-.953.044-1.425.061a16.7,16.7,0,0,1-4.431-.149,14.458,14.458,0,0,1-10.391-9.517,15.836,15.836,0,0,1,2.386-15.268,21.556,21.556,0,0,1,5.628-4.475l.131-.087c1.014-.638,1.372-.918,1.416-1.931a11.056,11.056,0,0,1,6.826-10.059c0-31.943.017-77.59.026-108.222v-2.508c0-2.316-.009-4.632.026-6.948a3.437,3.437,0,0,1,3.732-3.749c11.554-.009,34.364.017,47.928.035V176.057c0-4.859.918-5.777,5.8-5.777h90.83c4.929,0,5.742.813,5.742,5.8v37.353c12.043-.009,35.535-.009,47.141.009,3.33.009,4.632,1.258,4.632,4.466.009,30.108.009,81.82,0,119.566.376-.638.743-1.232,1.11-1.792,2.552-3.9,5.261-5.882,8.049-5.89h.009c2.788,0,5.506,1.975,8.075,5.864a52,52,0,0,1,8.591,25.406c.586,8.617-4.606,16.719-12.069,18.842a1.624,1.624,0,0,0-.83.865c-.1,1.267-.087,2.561-.07,3.942.009.367.009.734.009,1.11h13.9v7.385Zm-249.672-1.18h248.5V387h-13.9v-.586c0-.577-.009-1.136-.018-1.678-.018-1.407-.035-2.727.079-4.055a2.613,2.613,0,0,1,1.678-1.905c6.948-1.975,11.772-9.561,11.222-17.636a50.87,50.87,0,0,0-8.4-24.838c-2.333-3.54-4.728-5.34-7.1-5.34h-.009c-2.368.009-4.754,1.809-7.07,5.357-.7,1.066-1.39,2.237-2.167,3.662L499.9,342V217.911c0-2.543-.778-3.286-3.461-3.286-11.8-.017-35.876-.017-47.674-.009h-.586l-.052-.586V176.083c0-4.326-.3-4.623-4.562-4.623H352.711c-4.239,0-4.623.385-4.623,4.6v38.6H347.5c-13.485-.017-36.8-.044-48.513-.035-1.7,0-2.534.848-2.552,2.6-.035,2.307-.026,4.615-.026,6.93v2.517c-.009,30.763-.026,76.672-.026,108.633v.411l-.393.14A9.884,9.884,0,0,0,289.55,345c-.07,1.687-.953,2.237-1.958,2.875l-.131.087a20.811,20.811,0,0,0-5.331,4.212,14.648,14.648,0,0,0-2.194,14.141,13.291,13.291,0,0,0,9.535,8.766,15.612,15.612,0,0,0,4.116.122c.69-.035,1.39-.079,2.08-.079h.586v12.017H278.2v4.885Zm100.129-5.06H353.375V176.695h89.5v210.23h-24.75l-.061-1.328c-.035-.559-.061-1.1-.061-1.643v-7.717q0-5.7-.009-11.405c-.009-2.832-.8-3.609-3.653-3.609q-16.282,0-32.537.017c-2.736,0-3.487.76-3.487,3.513l-.009,22.216ZM354.546,385.8h22.583V364.735c0-3.365,1.3-4.684,4.658-4.684q16.269-.013,32.546-.017c3.513,0,4.816,1.293,4.833,4.789q.013,5.7.009,11.414v7.717c0,.524.026,1.049.061,1.582l.009.219H441.7V177.866H354.546V385.8Zm114.314,1.171H448.1V219.72l.586-.009,46,.009.1,141.293c-.524,7.149,3.452,15.862,11.842,17.916a1.3,1.3,0,0,1,.6.367l.245.175.026.323v7.132H473.99v-.586c0-.419.017-.822.026-1.215a11.645,11.645,0,0,0-.052-2.159c-.367-2.491.507-3.845,3.129-4.842,5.987-2.281,9.36-6.9,9.762-13.372.4-6.485-2.36-11.51-7.988-14.534a14.77,14.77,0,0,0-16.413.97,14.588,14.588,0,0,0-6.4,14.342c.752,6.38,4.335,10.776,10.627,13.048.332.122,1.984.769,2.089,1.765a38.043,38.043,0,0,1,.1,4.37c-.009.551-.017,1.11-.017,1.669v.586ZM449.274,385.8H467.68c0-.367.009-.743.017-1.1a35.5,35.5,0,0,0-.1-4.23,3.382,3.382,0,0,0-1.32-.778c-6.756-2.438-10.584-7.158-11.4-14.018a15.709,15.709,0,0,1,6.887-15.434,15.882,15.882,0,0,1,17.645-1.049c6.057,3.26,9.037,8.678,8.6,15.644s-4.064,11.938-10.522,14.394c-2.115.8-2.666,1.634-2.377,3.574a13.4,13.4,0,0,1,.061,2.377c-.009.192-.017.385-.017.586h31.157v-5.689h0c-8.8-2.159-13.083-11.125-12.734-18.659l-.07-.428V220.9l-44.231-.009.009,143.9-.018,21.01Zm-101.2,1.145H301.637v-8.381l.629.044c.8.061,1.582.157,2.368.262a16.508,16.508,0,0,0,4.693.184,10.814,10.814,0,0,0,7.63-5.279,13.022,13.022,0,0,0,1.066-10.968,7.791,7.791,0,0,1,.044-5.655,10.973,10.973,0,0,0-1.11-9.771,9.267,9.267,0,0,0-7.219-4.309,3.1,3.1,0,0,1-2.124-1.634,10.989,10.989,0,0,0-5.62-5.558l-.376-.149V219.7h46.46v167.24Zm-45.271-1.18H346.9V220.873H302.79V334.925a12.357,12.357,0,0,1,5.873,5.978,1.987,1.987,0,0,0,1.136.979,10.424,10.424,0,0,1,8.137,4.833,12.137,12.137,0,0,1,1.232,10.828,6.616,6.616,0,0,0-.035,4.859,14.2,14.2,0,0,1-1.171,11.964,11.983,11.983,0,0,1-8.451,5.838,17.661,17.661,0,0,1-5.025-.184c-.551-.07-1.11-.149-1.669-.2v5.943ZM412.7,386.925H383.553V366.518H412.7v20.407Zm-27.967-1.171h26.8V367.707h-26.8v18.047Zm128.052-11.4V360.287h-5.078v13.24l-.708-.149a7.691,7.691,0,0,1-4.99-3.889,14.159,14.159,0,0,1-1.975-9.884,50.406,50.406,0,0,1,6.616-19.166,25.134,25.134,0,0,1,1.966-2.727c.35-.437.708-.891,1.075-1.381l.428-.577.481.533c.271.306.533.577.769.822a11.824,11.824,0,0,1,1.224,1.425,45.458,45.458,0,0,1,7.979,23.693,12.049,12.049,0,0,1-3.915,9.509A11.241,11.241,0,0,1,514.874,373c-.35.219-.734.463-1.154.743l-.935.612Zm-6.258-15.251h7.429v13.057c.1-.061.184-.114.271-.175a10.445,10.445,0,0,0,1.6-1.136,10.892,10.892,0,0,0,3.548-8.6,44.3,44.3,0,0,0-7.778-23.081A9.479,9.479,0,0,0,510.5,337.9c-.1-.1-.2-.21-.306-.323-.227.288-.446.568-.664.848a25.1,25.1,0,0,0-1.879,2.6,49.168,49.168,0,0,0-6.459,18.729,12.892,12.892,0,0,0,1.792,9.089,6.9,6.9,0,0,0,3.54,3.19V359.107ZM307.545,374.1a1.829,1.829,0,0,1-.219-.009c-2.936-.122-5.48-2.823-5.777-6.161a24.114,24.114,0,0,1-.044-2.648c.009-.253.009-.516.017-.787h-5.051a.111.111,0,0,1-.009.052c-.044.4-.1.813-.1,1.224a4.694,4.694,0,0,1-1.468,3.776,4.873,4.873,0,0,1-4.143.559,8.5,8.5,0,0,1-6.389-7.35c-.612-4.553,1.416-8.661,4.938-10,3.793-1.433,5.392-3.671,5.349-7.481a4.548,4.548,0,0,1,3.714-4.693h1.014c2.229.271,3.129,2.106,3.627,3.47a5.725,5.725,0,0,0,5.707,4.2,5.191,5.191,0,0,1,4.212,2.229,4.714,4.714,0,0,1,.385,4.352,12.808,12.808,0,0,0-.052,10.182,6.7,6.7,0,0,1,.122,3.557c-.577,3.286-2.954,5.523-5.829,5.523ZM295.406,363.32h7.3v.586c0,.489-.009.953-.017,1.4a23.868,23.868,0,0,0,.035,2.526c.245,2.709,2.325,4.99,4.649,5.086,2.368.1,4.352-1.774,4.842-4.553a5.447,5.447,0,0,0-.052-2.9A13.951,13.951,0,0,1,312.2,354.4a3.474,3.474,0,0,0-.271-3.269,4.018,4.018,0,0,0-3.26-1.7,6.849,6.849,0,0,1-6.773-4.973c-.638-1.748-1.407-2.552-2.587-2.7l-.874.009a3.394,3.394,0,0,0-2.613,3.513c.052,4.274-1.888,7.009-6.109,8.6-3.006,1.136-4.728,4.728-4.195,8.74a7.318,7.318,0,0,0,5.471,6.354,3.806,3.806,0,0,0,3.164-.332,3.637,3.637,0,0,0,1.023-2.884c.009-.446.061-.891.1-1.328l.122-1.1ZM474,373.685v-9.142h-5.06v8.844l-.708-.149c-4.448-.953-7.429-5.3-7.079-10.365a10.338,10.338,0,0,1,9.6-9.447,10.469,10.469,0,0,1,10.846,8.32,10.183,10.183,0,0,1-6.8,11.65l-.8.288Zm-6.24-10.313h7.42v8.6A8.936,8.936,0,0,0,480.44,362a9.283,9.283,0,0,0-9.614-7.394,9.141,9.141,0,0,0-8.5,8.355c-.288,4.186,1.966,7.822,5.436,8.941v-8.53Z" fill="#363635"/>
      <path id="路径_11" data-name="路径 11" d="M453.687,228.275H422.05V196.97h31.637v31.305Zm-25.764-5.882h19.883V202.852H427.923v19.542Z" transform="translate(-18.283 -3.364)" fill="#363635"/>
      <path id="路径_12" data-name="路径 12" d="M408.433,228.273H376.77V196.95h31.663v31.323Zm-25.782-5.882h19.9V202.832h-19.9v19.559Z" transform="translate(-12.575 -3.362)" fill="#363635"/>
      <path id="路径_13" data-name="路径 13" d="M453.687,283.3H422.05V251.99h31.637V283.3Zm-25.764-5.882h19.883V257.872H427.923v19.542Z" transform="translate(-18.283 -10.299)" fill="#363635"/>
      <path id="路径_14" data-name="路径 14" d="M408.433,283.293H376.77V251.97h31.663v31.323Zm-25.782-5.882h19.9V257.852h-19.9v19.559Z" transform="translate(-12.575 -10.296)" fill="#363635"/>
      <path id="路径_15" data-name="路径 15" d="M453.687,338.315H422.05V307.01h31.637v31.305Zm-25.764-5.882h19.883V312.892H427.923v19.542Z" transform="translate(-18.283 -17.234)" fill="#363635"/>
      <path id="路径_16" data-name="路径 16" d="M408.433,338.314H376.77V307h31.663v31.314Zm-25.782-5.882h19.9V312.873h-19.9v19.559Z" transform="translate(-12.575 -17.233)" fill="#363635"/>
      <path id="路径_17" data-name="路径 17" d="M511.535,273.784H485.08V247.6h26.455v26.184ZM490.962,267.9h14.691v-14.42H490.962V267.9Z" transform="translate(-26.227 -9.746)" fill="#363635"/>
      <path id="路径_18" data-name="路径 18" d="M511.535,323.374H485.08V297.19h26.455v26.184Zm-20.573-5.882h14.691v-14.42H490.962v14.42Z" transform="translate(-26.227 -15.996)" fill="#363635"/>
      <path id="路径_19" data-name="路径 19" d="M343.1,273.784H316.65V247.6H343.1v26.184ZM322.532,267.9h14.691v-14.42H322.532V267.9Z" transform="translate(-4.998 -9.746)" fill="#363635"/>
      <path id="路径_20" data-name="路径 20" d="M343.1,323.374H316.65V297.19H343.1v26.184Zm-20.573-5.882h14.691v-14.42H322.532v14.42Z" transform="translate(-4.998 -15.996)" fill="#363635"/>
    </g>
  </g>
</svg>
