<svg xmlns="http://www.w3.org/2000/svg" xmlns:xlink="http://www.w3.org/1999/xlink" width="280" height="280" viewBox="0 0 280 280">
  <defs>
    <clipPath id="clip-icons_packimpex_night_def_14_white">
      <rect width="280" height="280"/>
    </clipPath>
  </defs>
  <g id="icons_packimpex_night_def_14_white" clip-path="url(#clip-icons_packimpex_night_def_14_white)">
    <g id="icons_packimpex_night_def_14" transform="translate(-260.25 -137.528)">
      <path id="路径_6" data-name="路径 6" d="M459.869,266.641c-.171-.231-.334-.471-.5-.711l-.009-.017a16.066,16.066,0,0,0-1.773-2.253c-18.324-18.376-36.871-36.923-55.127-55.127a17.234,17.234,0,0,0-2.322-1.833l-1.079-.78h-2.21l-1.054.745a16.338,16.338,0,0,0-2.262,1.782q-16.307,16.268-32.6,32.562l-2.553,2.553q-10.434,10.421-20.869,20.852a4.78,4.78,0,0,0-1.576,4.84,4.494,4.494,0,0,0,3.058,3.2,4.633,4.633,0,0,0,4.395-.968c.266-.231.523-.471.822-.762l1.122-1.054v55.487c0,2.544,1.251,4.335,3.435,4.917a6.387,6.387,0,0,0,1.593.137q31.714.013,63.42.009h31.74c3.187,0,5.02-1.85,5.02-5.08v-55.5l1.1,1.028c.2.18.351.334.514.488a4.8,4.8,0,0,0,4.283,1.4,4.855,4.855,0,0,0,3.418-3.007.454.454,0,0,1,.069-.128l.163-.291v-2.176l-.223-.326Zm-47.391,25.323v29.119H383.41V291.965Zm3.958-9.261q-18.491-.013-36.974,0c-3.47,0-5.311,1.842-5.311,5.311v33.068H354.634l-.043-.728c-.017-.291-.043-.583-.043-.882v-2.75q0-27.538.026-55.084a3.138,3.138,0,0,1,.8-2.03q18.71-18.774,37.463-37.505l4.206-4.2c.111-.111.24-.231.454-.428l.66-.617.223.291c.111.146.206.283.36.5a3.722,3.722,0,0,0,.437.54q20.612,20.625,41.249,41.241a3.085,3.085,0,0,1,.968,2.373q-.026,24.158-.017,48.308v11H421.764V288.153c0-3.624-1.79-5.449-5.329-5.449Z" transform="translate(-8.424 -7.401)" fill="#fff"/>
      <path id="路径_7" data-name="路径 7" d="M516.912,363.952c-11.959-12.165-22.565-22.745-32.4-32.348-3.607-3.512-4.086-7.059-1.568-11.505,15.412-27.165,19.035-55.847,10.786-85.24-16.088-57.338-72.261-90.782-130.644-77.786a110.009,110.009,0,0,0-85.334,120.569c3.418,29.4,16.757,53.782,39.638,72.475C342,370.223,370.806,378.31,403,374.147c15.12-1.953,29.3-7.162,43.331-15.917l2.759-1.722,13.5,13.536c7.89,7.9,15.686,15.72,23.456,23.576,4.506,4.558,9.458,6.888,15.138,7.136a21.528,21.528,0,0,0,20.346-12.439c3.8-8.276,2.03-17.613-4.617-24.364Zm-129.23.308H387.3a101.253,101.253,0,0,1-19.618-1.988c-1.276-.257-2.544-.557-3.8-.865l-.385-.086-.565-.128a98.967,98.967,0,0,1-42.38-22.882c-1.216-1.114-2.424-2.27-3.572-3.435a99.576,99.576,0,0,1,70.582-169.605h.3a99.271,99.271,0,0,1,98.784,94.646c.077,1.713.12,3.435.12,5.114-.009,3.3-.171,6.631-.505,9.912a99.258,99.258,0,0,1-98.569,89.317Zm124.81,15.3a3.722,3.722,0,0,1-.051.445,10.391,10.391,0,0,1-3.273,6.725,12.966,12.966,0,0,1-1.919,1.456,10.145,10.145,0,0,1-5.371,1.671,8.911,8.911,0,0,1-5.046-1.593,10.793,10.793,0,0,1-1.456-1.208c-8.421-8.37-16.748-16.842-24.8-25.024l-11.745-11.925L472.2,336.427h1.362l11.282,11.214,24.724,24.732a10.43,10.43,0,0,1,1.713,2.373,9.484,9.484,0,0,1,1.208,4.815Z" transform="translate(0)" fill="#fff"/>
    </g>
  </g>
</svg>
