<svg xmlns="http://www.w3.org/2000/svg" xmlns:xlink="http://www.w3.org/1999/xlink" width="280" height="280" viewBox="0 0 280 280">
  <defs>
    <clipPath id="clip-icons_packimpex_night_def_10_grey">
      <rect width="280" height="280"/>
    </clipPath>
  </defs>
  <g id="icons_packimpex_night_def_10_grey" clip-path="url(#clip-icons_packimpex_night_def_10_grey)">
    <g id="icons_packimpex_night_def_10" transform="translate(-279 -155.37)">
      <path id="路径_1" data-name="路径 1" d="M436.021,423.913H291V168.28H443.488c3.154,1.484,3.881,4.156,3.881,7.389q-.059,52.039-.029,104.079v3.3h92.053c5.04,0,6.76,1.719,6.77,6.691.01,4.657-.157,9.324.039,13.972.246,5.659-1.317,8.116-7.222,8.214-.128,0-.255.187-.58.442v82.444c0,.914.039,1.837-.039,2.741-.295,3.547-1.985,5.207-5.512,5.482-.639.049-1.287.088-2.2.147,0,4.353-.128,8.577.039,12.792.128,3.291-.609,6.033-3.468,7.919h-21.93c-2.83-1.778-3.655-4.372-3.517-7.634.2-4.294.049-8.607.049-13.068H439.46c0,4.451-.128,8.764.039,13.058.157,3.262-.648,5.885-3.478,7.664ZM301.5,358.4h62.115V178.921H301.5V358.4Zm73.011-179.507V413.273h35.951v-9.128c-2.535-1.307-4.952-1.965-6.445-3.527-1.041-1.081-1.11-3.39-1.11-5.158q-.088-40.19-.039-80.38v-3.252c-1.464,0-2.456.01-3.449,0-5.1-.069-6.888-1.837-6.907-6.907q-.029-7.487,0-14.974c.02-5.178,1.719-6.878,6.848-6.888q17.2-.015,34.388,0h2.8V178.891Zm39.134,213.454H527.681V356.227H413.649c0,12.075,0,24.013,0,36.118Zm-.029-46.935H527.631V311.994H413.619c0,11.2,0,22.225,0,33.416Zm-49.961,24.072H301.621v43.83h62.037v-43.83ZM403.155,301h132.4v-7.251h-132.4c0,2.466,0,4.775,0,7.251Zm25.732,102.075c-2.23,0-4.274-.079-6.308.059a1.861,1.861,0,0,0-1.317,1.238c-.118,2.948-.059,5.9-.059,8.9H428.9c-.01-3.35-.01-6.553-.01-10.2Zm91.051.187H512.5v10.061h7.438V403.261Z" transform="translate(0)" fill="#363635"/>
      <path id="路径_2" data-name="路径 2" d="M466.06,324.93v10.287h15.3V324.93Z" transform="translate(-3.059 -2.737)" fill="#363635"/>
      <path id="路径_3" data-name="路径 3" d="M325.51,399.066h15.4V388.71h-15.4v10.356Z" transform="translate(-0.603 -3.852)" fill="#363635"/>
      <path id="路径_4" data-name="路径 4" d="M344.06,253.27h10.267v20.741H344.06V253.27Z" transform="translate(-0.927 -1.485)" fill="#363635"/>
      <path id="路径_5" data-name="路径 5" d="M396.689,253.34v20.643H386.54V253.34Z" transform="translate(-1.67 -1.486)" fill="#363635"/>
      <path id="路径_6" data-name="路径 6" d="M466.07,370.11h15.278v10.248H466.07V370.11Z" transform="translate(-3.059 -3.527)" fill="#363635"/>
      <path id="路径_7" data-name="路径 7" d="M466.06,324.93h15.3v10.287h-15.3V324.93Z" transform="translate(-3.059 -2.737)" fill="#363635"/>
      <path id="路径_8" data-name="路径 8" d="M325.51,399.066V388.71h15.4v10.356Z" transform="translate(-0.603 -3.852)" fill="#363635"/>
    </g>
  </g>
</svg>
