<?xml version="1.0" encoding="utf-8"?>
<!-- Generator: Adobe Illustrator 24.0.0, SVG Export Plug-In . SVG Version: 6.00 Build 0)  -->
<svg version="1.1" id="图层_1" xmlns="http://www.w3.org/2000/svg" xmlns:xlink="http://www.w3.org/1999/xlink" x="0px" y="0px"
	 viewBox="0 0 1560 1024" style="enable-background:new 0 0 1560 1024;" xml:space="preserve">
<style type="text/css">
	.st0{fill:#002470;}
	.st1{fill:#FFFFFF;}
	.st2{fill:#CF142B;}
</style>
<path class="st0" d="M1560.4,877.7V146.3L926.5,512L1560.4,877.7z M1487.2,19.5C1467.7,7.3,1443.4,0,1416.5,0H141.4
	C117,0,92.6,7.3,70.7,19.5l709.5,407.2L1487.2,19.5z M70.7,1004.5c21.9,12.2,46.3,19.5,70.7,19.5H1419c24.4,0,48.8-7.3,70.7-17.1
	L780.2,597.3L70.7,1004.5z M0,146.3v731.4L633.9,512L0,146.3z"/>
<path class="st1" d="M658.3,497.4L2.4,119.5C0,124.3,0,131.7,0,139v7.3L633.9,512L658.3,497.4L658.3,497.4z M902.1,526.6L1557.9,907
	c0-7.3,2.4-12.2,2.4-19.5v-9.8L926.5,512L902.1,526.6L902.1,526.6z M1543.3,953.3l-690-399.8l-73.1,41.4l709.5,409.6
	C1511.6,992.3,1531.1,975.2,1543.3,953.3L1543.3,953.3z M17.1,70.7l690,399.8l73.1-41.4L70.7,19.5C48.8,31.7,31.7,48.8,17.1,70.7z"
	/>
<path class="st2" d="M17.1,70.7C9.8,85.3,4.9,102.4,2.4,119.5l655.8,377.9l48.8-29.3L17.1,70.7z M853.3,553.4l690,397.4
	c7.3-14.6,12.2-29.3,14.6-46.3L902.1,526.6L853.3,553.4z"/>
<path class="st1" d="M755.8,582.7l-707,407.2l21.9,14.6l709.5-407.2L755.8,582.7L755.8,582.7z M17.1,953.3l690-399.8L633.9,512
	L0,877.7v7.3C0,909.4,7.3,931.4,17.1,953.3z M804.6,441.3l707-407.2l-21.9-14.6L780.2,426.7L804.6,441.3L804.6,441.3z M1543.3,73.1
	l-690,397.4l73.1,41.4l633.9-365.7V139C1560.4,114.6,1553.1,92.6,1543.3,73.1z"/>
<path class="st2" d="M17.1,953.3c7.3,14.6,19.5,26.8,31.7,39l707-407.2L707,555.9L17.1,953.3z M780.2,512l-24.4,41.4l-24.4-12.2
	L707,553.4l48.8,29.3l48.8-29.3L780.2,512z"/>
<path class="st2" d="M755.8,553.4l24.4-41.4l-48.8,29.3L755.8,553.4z M1543.3,73.1c-7.3-14.6-19.5-26.8-31.7-39l-707,407.2
	l48.8,29.3L1543.3,73.1z"/>
<path class="st2" d="M780.2,512l24.4-41.4l24.4,12.2l24.4-12.2l-48.8-29.3l-48.8,29.3L780.2,512z"/>
<path class="st2" d="M780.2,512l48.8-29.3l-24.4-12.2L780.2,512z"/>
<path class="st1" d="M1560.4,390.1H902.1V0H658.3v390.1H0v243.8h658.3V1024h243.8V633.9h658.3L1560.4,390.1z"/>
<path class="st2" d="M1560.4,438.9h-707V0H707v438.9H0v146.3h707V1024h146.3V585.1h707L1560.4,438.9z"/>
</svg>
