<?xml version="1.0" encoding="utf-8"?>
<!-- Generator: Adobe Illustrator 24.0.0, SVG Export Plug-In . SVG Version: 6.00 Build 0)  -->
<svg version="1.1" id="图层_1" xmlns="http://www.w3.org/2000/svg" xmlns:xlink="http://www.w3.org/1999/xlink" x="0px" y="0px"
	 viewBox="0 0 200 200" style="enable-background:new 0 0 200 200;" xml:space="preserve">
<style type="text/css">
	.st0{fill:#F0F0F0;}
	.st1{fill:#002470;}
	.st2{fill:#CF142B;}
</style>
<path class="st0" d="M0,100c0,55.2,44.8,100,100,100s100-44.8,100-100S155.2,0,100,0S0,44.8,0,100z"/>
<path class="st1" d="M20.7,39.1c-7.9,10.2-13.8,22-17.2,34.8h52L20.7,39.1z M196.6,73.9c-3.4-12.8-9.4-24.6-17.2-34.8l-34.8,34.8
	H196.6L196.6,73.9z M3.4,126.1c3.4,12.8,9.4,24.6,17.2,34.8l34.8-34.8H3.4z M160.9,20.7c-10.2-7.9-22-13.8-34.8-17.2v52
	C126.1,55.5,160.9,20.7,160.9,20.7z M39.1,179.3c10.2,7.9,22,13.8,34.8,17.2v-52L39.1,179.3L39.1,179.3z M73.9,3.4
	c-12.8,3.4-24.6,9.4-34.8,17.2l34.8,34.8V3.4z M126.1,196.6c12.8-3.4,24.6-9.4,34.8-17.2l-34.8-34.8V196.6L126.1,196.6z
	 M144.5,126.1l34.8,34.8c7.9-10.2,13.8-22,17.2-34.8H144.5z"/>
<path class="st2" d="M199.2,87H113V0.8c-4.3-0.6-8.7-0.8-13-0.8c-4.4,0-8.8,0.3-13,0.8V87H0.8C0.3,91.3,0,95.6,0,100
	c0,4.4,0.3,8.8,0.8,13H87v86.1c8.7,1.1,17.4,1.1,26.1,0V113h86.1c0.6-4.3,0.8-8.7,0.8-13C200,95.6,199.7,91.2,199.2,87z"/>
<path class="st2" d="M126.1,126.1l44.6,44.6c2.1-2.1,4-4.2,5.9-6.4l-38.2-38.2L126.1,126.1L126.1,126.1z M73.9,126.1L73.9,126.1
	l-44.6,44.6c2.1,2.1,4.2,4,6.4,5.9l38.2-38.2V126.1z M73.9,73.9L73.9,73.9L29.3,29.3c-2.1,2.1-4,4.2-5.9,6.4l38.2,38.2L73.9,73.9
	L73.9,73.9z M126.1,73.9l44.6-44.6c-2.1-2.1-4.2-4-6.4-5.9l-38.2,38.2C126.1,61.6,126.1,73.9,126.1,73.9z"/>
</svg>
